  0
SECTION
  2
HEADER
  9
$ACADVER
  1
AC1014
  9
$HANDSEED
  5
FFFF
  9
$MEASUREMENT
 70
     1
  0
ENDSEC
  0
SECTION
  2
TABLES
  0
TABLE
  2
VPORT
  5
8
330
0
100
AcDbSymbolTable
 70
     4
  0
VPORT
  5
2E
330
8
100
AcDbSymbolTableRecord
100
AcDbViewportTableRecord
  2
*ACTIVE
 70
     0
 10
0.0
 20
0.0
 11
1.0
 21
1.0
 12
210.0
 22
148.5
 13
0.0
 23
0.0
 14
10.0
 24
10.0
 15
10.0
 25
10.0
 16
0.0
 26
0.0
 36
1.0
 17
0.0
 27
0.0
 37
0.0
 40
341.0
 41
1.24
 42
50.0
 43
0.0
 44
0.0
 50
0.0
 51
0.0
 71
     0
 72
   100
 73
     1
 74
     3
 75
     0
 76
     0
 77
     0
 78
     0
  0
ENDTAB
  0
TABLE
  2
LTYPE
  5
5
330
0
100
AcDbSymbolTable
 70
     1
  0
LTYPE
  5
14
330
5
100
AcDbSymbolTableRecord
100
AcDbLinetypeTableRecord
  2
BYBLOCK
 70
     0
  3

 72
    65
 73
     0
 40
0.0
  0
LTYPE
  5
15
330
5
100
AcDbSymbolTableRecord
100
AcDbLinetypeTableRecord
  2
BYLAYER
 70
     0
  3

 72
    65
 73
     0
 40
0.0
  0
LTYPE
  5
16
330
5
100
AcDbSymbolTableRecord
100
AcDbLinetypeTableRecord
  2
CONTINUOUS
 70
     0
  3
Solid line
 72
    65
 73
     0
 40
0.0
  0
ENDTAB
  0
TABLE
  2
LAYER
  5
2
100
AcDbSymbolTable
 70
3
  0
LAYER
  5
50
100
AcDbSymbolTableRecord
100
AcDbLayerTableRecord
  2
0
 70
0
  6
CONTINUOUS
  0
LAYER
  5
51
100
AcDbSymbolTableRecord
100
AcDbLayerTableRecord
  2
SeriGrafia
 70
0
  6
CONTINUOUS
  0
LAYER
  5
52
100
AcDbSymbolTableRecord
100
AcDbLayerTableRecord
  2
Mascara
 70
0
  6
CONTINUOUS
  0
ENDTAB
  0
TABLE
  2
STYLE
  5
3
330
0
100
AcDbSymbolTable
 70
     1
  0
STYLE
  5
11
330
3
100
AcDbSymbolTableRecord
100
AcDbTextStyleTableRecord
  2
STANDARD
 70
     0
 40
0.0
 41
1.0
 50
0.0
 71
     0
 42
2.5
  3
txt
  4

  0
ENDTAB
  0
TABLE
  2
VIEW
  5
6
330
0
100
AcDbSymbolTable
 70
     0
  0
ENDTAB
  0
TABLE
  2
UCS
  5
7
330
0
100
AcDbSymbolTable
 70
     0
  0
ENDTAB
  0
TABLE
  2
APPID
  5
9
330
0
100
AcDbSymbolTable
 70
     2
  0
APPID
  5
12
330
9
100
AcDbSymbolTableRecord
100
AcDbRegAppTableRecord
  2
ACAD
 70
     0
  0
ENDTAB
  0
TABLE
  2
DIMSTYLE
  5
A
330
0
100
AcDbSymbolTable
 70
     1
  0
DIMSTYLE
105
27
330
A
100
AcDbSymbolTableRecord
100
AcDbDimStyleTableRecord
  2
ISO-25
 70
     0
  3

  4

  5

  6

  7

 40
1.0
 41
2.5
 42
0.625
 43
3.75
 44
1.25
 45
0.0
 46
0.0
 47
0.0
 48
0.0
140
2.5
141
2.5
142
0.0
143
0.03937007874016
144
1.0
145
0.0
146
1.0
147
0.625
 71
     0
 72
     0
 73
     0
 74
     0
 75
     0
 76
     0
 77
     1
 78
     8
170
     0
171
     3
172
     1
173
     0
174
     0
175
     0
176
     0
177
     0
178
     0
270
     2
271
     2
272
     2
273
     2
274
     3
340
11
275
     0
280
     0
281
     0
282
     0
283
     0
284
     8
285
     0
286
     0
287
     3
288
     0
  0
ENDTAB
  0
TABLE
  2
BLOCK_RECORD
  5
1
330
0
100
AcDbSymbolTable
 70
     1
  0
BLOCK_RECORD
  5
1F
330
1
100
AcDbSymbolTableRecord
100
AcDbBlockTableRecord
  2
*MODEL_SPACE
  0
BLOCK_RECORD
  5
1B
330
1
100
AcDbSymbolTableRecord
100
AcDbBlockTableRecord
  2
*PAPER_SPACE
  0
ENDTAB
  0
ENDSEC
  0
SECTION
  2
BLOCKS
  0
BLOCK
  5
20
330
1F
100
AcDbEntity
  8
0
100
AcDbBlockBegin
  2
*MODEL_SPACE
 70
     0
 10
0.0
 20
0.0
 30
0.0
  3
*MODEL_SPACE
  1

  0
ENDBLK
  5
21
330
1F
100
AcDbEntity
  8
0
100
AcDbBlockEnd
  0
BLOCK
  5
1C
330
1B
100
AcDbEntity
 67
     1
  8
0
100
AcDbBlockBegin
  2
*PAPER_SPACE
  1

  0
ENDBLK
  5
1D
330
1B
100
AcDbEntity
 67
     1
  8
0
100
AcDbBlockEnd
  0
ENDSEC
  0
SECTION
  2
ENTITIES
  0
SPLINE
  5
100
100
AcDbEntity
  8
SeriGrafia
 62
7
100
AcDbSpline
 70
8
 71
3
 72
8
 73
4
 74
0
 40
0
 40
0
 40
0
 40
0
 40
1
 40
1
 40
1
 40
1
 10
129.831893
 20
49.760685
 30
0.0
 10
129.091583
 20
49.929818
 30
0.0
 10
125.538068
 20
50.548680
 30
0.0
 10
121.935203
 20
51.135922
 30
0.0
  0
SPLINE
  5
101
100
AcDbEntity
  8
SeriGrafia
 62
7
100
AcDbSpline
 70
8
 71
3
 72
8
 73
4
 74
0
 40
0
 40
0
 40
0
 40
0
 40
1
 40
1
 40
1
 40
1
 10
121.935203
 20
51.135922
 30
0.0
 10
118.332338
 20
51.723180
 30
0.0
 10
115.505707
 20
52.560428
 30
0.0
 10
115.653803
 20
52.996485
 30
0.0
  0
SPLINE
  5
102
100
AcDbEntity
  8
SeriGrafia
 62
7
100
AcDbSpline
 70
8
 71
3
 72
8
 73
4
 74
0
 40
0
 40
0
 40
0
 40
0
 40
1
 40
1
 40
1
 40
1
 10
115.653803
 20
52.996485
 30
0.0
 10
115.801898
 20
53.432543
 30
0.0
 10
117.740197
 20
54.704625
 30
0.0
 10
119.961120
 20
55.823318
 30
0.0
  0
SPLINE
  5
103
100
AcDbEntity
  8
SeriGrafia
 62
7
100
AcDbSpline
 70
8
 71
3
 72
8
 73
4
 74
0
 40
0
 40
0
 40
0
 40
0
 40
1
 40
1
 40
1
 40
1
 10
119.961120
 20
55.823318
 30
0.0
 10
127.618230
 20
59.680305
 30
0.0
 10
126.934898
 20
60.255308
 30
0.0
 10
104.706292
 20
68.659740
 30
0.0
  0
SPLINE
  5
104
100
AcDbEntity
  8
SeriGrafia
 62
7
100
AcDbSpline
 70
8
 71
3
 72
8
 73
4
 74
0
 40
0
 40
0
 40
0
 40
0
 40
1
 40
1
 40
1
 40
1
 10
104.706292
 20
68.659740
 30
0.0
 10
85.591508
 20
75.886875
 30
0.0
 10
75.502770
 20
81.540330
 30
0.0
 10
61.650456
 20
92.787075
 30
0.0
  0
SPLINE
  5
105
100
AcDbEntity
  8
SeriGrafia
 62
7
100
AcDbSpline
 70
8
 71
3
 72
8
 73
4
 74
0
 40
0
 40
0
 40
0
 40
0
 40
1
 40
1
 40
1
 40
1
 10
61.650456
 20
92.787075
 30
0.0
 10
51.630984
 20
100.921928
 30
0.0
 10
41.918426
 20
110.867775
 30
0.0
 10
36.611015
 20
118.427970
 30
0.0
  0
SPLINE
  5
106
100
AcDbEntity
  8
SeriGrafia
 62
7
100
AcDbSpline
 70
8
 71
3
 72
8
 73
4
 74
0
 40
0
 40
0
 40
0
 40
0
 40
1
 40
1
 40
1
 40
1
 10
36.611015
 20
118.427970
 30
0.0
 10
31.143248
 20
126.216578
 30
0.0
 10
23.520342
 20
139.838198
 30
0.0
 10
24.231490
 20
140.549355
 30
0.0
  0
SPLINE
  5
107
100
AcDbEntity
  8
SeriGrafia
 62
7
100
AcDbSpline
 70
8
 71
3
 72
8
 73
4
 74
0
 40
0
 40
0
 40
0
 40
0
 40
1
 40
1
 40
1
 40
1
 10
24.231490
 20
140.549355
 30
0.0
 10
24.498586
 20
140.816445
 30
0.0
 10
27.270118
 20
140.013622
 30
0.0
 10
30.390451
 20
138.765292
 30
0.0
  0
SPLINE
  5
108
100
AcDbEntity
  8
SeriGrafia
 62
7
100
AcDbSpline
 70
8
 71
3
 72
8
 73
4
 74
0
 40
0
 40
0
 40
0
 40
0
 40
1
 40
1
 40
1
 40
1
 10
30.390451
 20
138.765292
 30
0.0
 10
37.439441
 20
135.945247
 30
0.0
 10
46.142721
 20
134.573723
 30
0.0
 10
44.983674
 20
136.465582
 30
0.0
  0
SPLINE
  5
109
100
AcDbEntity
  8
SeriGrafia
 62
7
100
AcDbSpline
 70
8
 71
3
 72
8
 73
4
 74
0
 40
0
 40
0
 40
0
 40
0
 40
1
 40
1
 40
1
 40
1
 10
44.983674
 20
136.465582
 30
0.0
 10
44.560705
 20
137.155973
 30
0.0
 10
40.673683
 20
143.121150
 30
0.0
 10
36.345850
 20
149.721547
 30
0.0
  0
SPLINE
  5
10a
100
AcDbEntity
  8
SeriGrafia
 62
7
100
AcDbSpline
 70
8
 71
3
 72
8
 73
4
 74
0
 40
0
 40
0
 40
0
 40
0
 40
1
 40
1
 40
1
 40
1
 10
36.345850
 20
149.721547
 30
0.0
 10
28.196651
 20
162.149918
 30
0.0
 10
23.818567
 20
171.786923
 30
0.0
 10
21.628463
 20
182.117355
 30
0.0
  0
SPLINE
  5
10b
100
AcDbEntity
  8
SeriGrafia
 62
7
100
AcDbSpline
 70
8
 71
3
 72
8
 73
4
 74
0
 40
0
 40
0
 40
0
 40
0
 40
1
 40
1
 40
1
 40
1
 10
21.628463
 20
182.117355
 30
0.0
 10
20.147206
 20
189.104250
 30
0.0
 10
19.935133
 20
206.485020
 30
0.0
 10
21.314312
 20
207.864195
 30
0.0
  0
SPLINE
  5
10c
100
AcDbEntity
  8
SeriGrafia
 62
7
100
AcDbSpline
 70
8
 71
3
 72
8
 73
4
 74
0
 40
0
 40
0
 40
0
 40
0
 40
1
 40
1
 40
1
 40
1
 10
21.314312
 20
207.864195
 30
0.0
 10
21.993727
 20
208.543612
 30
0.0
 10
24.130148
 20
208.334730
 30
0.0
 10
28.656704
 20
207.146325
 30
0.0
  0
SPLINE
  5
10d
100
AcDbEntity
  8
SeriGrafia
 62
7
100
AcDbSpline
 70
8
 71
3
 72
8
 73
4
 74
0
 40
0
 40
0
 40
0
 40
0
 40
1
 40
1
 40
1
 40
1
 10
28.656704
 20
207.146325
 30
0.0
 10
46.715257
 20
202.405192
 30
0.0
 10
63.705182
 20
207.927660
 30
0.0
 10
75.681323
 20
222.431332
 30
0.0
  0
SPLINE
  5
10e
100
AcDbEntity
  8
SeriGrafia
 62
7
100
AcDbSpline
 70
8
 71
3
 72
8
 73
4
 74
0
 40
0
 40
0
 40
0
 40
0
 40
1
 40
1
 40
1
 40
1
 10
75.681323
 20
222.431332
 30
0.0
 10
84.576203
 20
233.203470
 30
0.0
 10
89.329973
 20
245.598510
 30
0.0
 10
88.267095
 20
255.247627
 30
0.0
  0
SPLINE
  5
10f
100
AcDbEntity
  8
SeriGrafia
 62
7
100
AcDbSpline
 70
8
 71
3
 72
8
 73
4
 74
0
 40
0
 40
0
 40
0
 40
0
 40
1
 40
1
 40
1
 40
1
 10
88.267095
 20
255.247627
 30
0.0
 10
87.993750
 20
257.729130
 30
0.0
 10
85.492140
 20
265.210800
 30
0.0
 10
82.707960
 20
271.873575
 30
0.0
  0
SPLINE
  5
110
100
AcDbEntity
  8
SeriGrafia
 62
7
100
AcDbSpline
 70
8
 71
3
 72
8
 73
4
 74
0
 40
0
 40
0
 40
0
 40
0
 40
1
 40
1
 40
1
 40
1
 10
82.707960
 20
271.873575
 30
0.0
 10
79.923780
 20
278.536342
 30
0.0
 10
76.201905
 20
288.833348
 30
0.0
 10
74.437118
 20
294.755812
 30
0.0
  0
SPLINE
  5
111
100
AcDbEntity
  8
SeriGrafia
 62
7
100
AcDbSpline
 70
8
 71
3
 72
8
 73
4
 74
0
 40
0
 40
0
 40
0
 40
0
 40
1
 40
1
 40
1
 40
1
 10
74.437118
 20
294.755812
 30
0.0
 10
71.613119
 20
304.232910
 30
0.0
 10
71.218082
 20
306.761145
 30
0.0
 10
71.142182
 20
315.843365
 30
0.0
  0
SPLINE
  5
112
100
AcDbEntity
  8
SeriGrafia
 62
7
100
AcDbSpline
 70
8
 71
3
 72
8
 73
4
 74
0
 40
0
 40
0
 40
0
 40
0
 40
1
 40
1
 40
1
 40
1
 10
71.142182
 20
315.843365
 30
0.0
 10
71.061824
 20
325.459070
 30
0.0
 10
71.288494
 20
326.884940
 30
0.0
 10
74.466043
 20
336.752039
 30
0.0
  0
SPLINE
  5
113
100
AcDbEntity
  8
SeriGrafia
 62
7
100
AcDbSpline
 70
8
 71
3
 72
8
 73
4
 74
0
 40
0
 40
0
 40
0
 40
0
 40
1
 40
1
 40
1
 40
1
 10
74.466043
 20
336.752039
 30
0.0
 10
76.605300
 20
343.394982
 30
0.0
 10
78.421357
 20
347.550491
 30
0.0
 10
79.339148
 20
347.902678
 30
0.0
  0
SPLINE
  5
114
100
AcDbEntity
  8
SeriGrafia
 62
7
100
AcDbSpline
 70
8
 71
3
 72
8
 73
4
 74
0
 40
0
 40
0
 40
0
 40
0
 40
1
 40
1
 40
1
 40
1
 10
79.339148
 20
347.902678
 30
0.0
 10
83.390153
 20
349.457195
 30
0.0
 10
109.817325
 20
336.598804
 30
0.0
 10
124.896502
 20
325.736311
 30
0.0
  0
SPLINE
  5
115
100
AcDbEntity
  8
SeriGrafia
 62
7
100
AcDbSpline
 70
8
 71
3
 72
8
 73
4
 74
0
 40
0
 40
0
 40
0
 40
0
 40
1
 40
1
 40
1
 40
1
 10
124.896502
 20
325.736311
 30
0.0
 10
139.668428
 20
315.095157
 30
0.0
 10
141.919222
 20
314.871062
 30
0.0
 10
169.852253
 20
321.260387
 30
0.0
  0
SPLINE
  5
116
100
AcDbEntity
  8
SeriGrafia
 62
7
100
AcDbSpline
 70
8
 71
3
 72
8
 73
4
 74
0
 40
0
 40
0
 40
0
 40
0
 40
1
 40
1
 40
1
 40
1
 10
169.852253
 20
321.260387
 30
0.0
 10
194.947260
 20
327.000550
 30
0.0
 10
201.181448
 20
327.827341
 30
0.0
 10
219.117488
 20
327.794044
 30
0.0
  0
SPLINE
  5
117
100
AcDbEntity
  8
SeriGrafia
 62
7
100
AcDbSpline
 70
8
 71
3
 72
8
 73
4
 74
0
 40
0
 40
0
 40
0
 40
0
 40
1
 40
1
 40
1
 40
1
 10
219.117488
 20
327.794044
 30
0.0
 10
237.830655
 20
327.759312
 30
0.0
 10
246.960278
 20
326.528343
 30
0.0
 10
269.368680
 20
321.018589
 30
0.0
  0
SPLINE
  5
118
100
AcDbEntity
  8
SeriGrafia
 62
7
100
AcDbSpline
 70
8
 71
3
 72
8
 73
4
 74
0
 40
0
 40
0
 40
0
 40
0
 40
1
 40
1
 40
1
 40
1
 10
269.368680
 20
321.018589
 30
0.0
 10
294.438742
 20
314.854391
 30
0.0
 10
299.606347
 20
315.607645
 30
0.0
 10
316.049250
 20
327.822981
 30
0.0
  0
SPLINE
  5
119
100
AcDbEntity
  8
SeriGrafia
 62
7
100
AcDbSpline
 70
8
 71
3
 72
8
 73
4
 74
0
 40
0
 40
0
 40
0
 40
0
 40
1
 40
1
 40
1
 40
1
 10
316.049250
 20
327.822981
 30
0.0
 10
328.128713
 20
336.796741
 30
0.0
 10
352.847400
 20
348.721549
 30
0.0
 10
357.863850
 20
347.995211
 30
0.0
  0
SPLINE
  5
11a
100
AcDbEntity
  8
SeriGrafia
 62
7
100
AcDbSpline
 70
8
 71
3
 72
8
 73
4
 74
0
 40
0
 40
0
 40
0
 40
0
 40
1
 40
1
 40
1
 40
1
 10
357.863850
 20
347.995211
 30
0.0
 10
360.854482
 20
347.562194
 30
0.0
 10
362.792393
 20
343.475364
 30
0.0
 10
364.879222
 20
333.200590
 30
0.0
  0
SPLINE
  5
11b
100
AcDbEntity
  8
SeriGrafia
 62
7
100
AcDbSpline
 70
8
 71
3
 72
8
 73
4
 74
0
 40
0
 40
0
 40
0
 40
0
 40
1
 40
1
 40
1
 40
1
 10
364.879222
 20
333.200590
 30
0.0
 10
367.037250
 20
322.575235
 30
0.0
 10
367.247310
 20
310.801978
 30
0.0
 10
365.431695
 20
302.235622
 30
0.0
  0
SPLINE
  5
11c
100
AcDbEntity
  8
SeriGrafia
 62
7
100
AcDbSpline
 70
8
 71
3
 72
8
 73
4
 74
0
 40
0
 40
0
 40
0
 40
0
 40
1
 40
1
 40
1
 40
1
 10
365.431695
 20
302.235622
 30
0.0
 10
363.382740
 20
292.568325
 30
0.0
 10
355.118445
 20
267.316800
 30
0.0
 10
352.408200
 20
262.442392
 30
0.0
  0
SPLINE
  5
11d
100
AcDbEntity
  8
SeriGrafia
 62
7
100
AcDbSpline
 70
8
 71
3
 72
8
 73
4
 74
0
 40
0
 40
0
 40
0
 40
0
 40
1
 40
1
 40
1
 40
1
 10
352.408200
 20
262.442392
 30
0.0
 10
348.351322
 20
255.146048
 30
0.0
 10
348.126735
 20
250.187842
 30
0.0
 10
351.461415
 20
241.540725
 30
0.0
  0
SPLINE
  5
11e
100
AcDbEntity
  8
SeriGrafia
 62
7
100
AcDbSpline
 70
8
 71
3
 72
8
 73
4
 74
0
 40
0
 40
0
 40
0
 40
0
 40
1
 40
1
 40
1
 40
1
 10
351.461415
 20
241.540725
 30
0.0
 10
357.349080
 20
226.273508
 30
0.0
 10
366.992902
 20
215.049225
 30
0.0
 10
379.293165
 20
209.147828
 30
0.0
  0
SPLINE
  5
11f
100
AcDbEntity
  8
SeriGrafia
 62
7
100
AcDbSpline
 70
8
 71
3
 72
8
 73
4
 74
0
 40
0
 40
0
 40
0
 40
0
 40
1
 40
1
 40
1
 40
1
 10
379.293165
 20
209.147828
 30
0.0
 10
385.701772
 20
206.073120
 30
0.0
 10
386.473290
 20
205.918883
 30
0.0
 10
395.445330
 20
205.918883
 30
0.0
  0
SPLINE
  5
120
100
AcDbEntity
  8
SeriGrafia
 62
7
100
AcDbSpline
 70
8
 71
3
 72
8
 73
4
 74
0
 40
0
 40
0
 40
0
 40
0
 40
1
 40
1
 40
1
 40
1
 10
395.445330
 20
205.918883
 30
0.0
 10
400.627485
 20
205.918883
 30
0.0
 10
407.391180
 20
206.504430
 30
0.0
 10
410.475765
 20
207.220088
 30
0.0
  0
SPLINE
  5
121
100
AcDbEntity
  8
SeriGrafia
 62
7
100
AcDbSpline
 70
8
 71
3
 72
8
 73
4
 74
0
 40
0
 40
0
 40
0
 40
0
 40
1
 40
1
 40
1
 40
1
 10
410.475765
 20
207.220088
 30
0.0
 10
418.222147
 20
209.017343
 30
0.0
 10
418.352272
 20
208.817483
 30
0.0
 10
418.221772
 20
195.322838
 30
0.0
  0
SPLINE
  5
122
100
AcDbEntity
  8
SeriGrafia
 62
7
100
AcDbSpline
 70
8
 71
3
 72
8
 73
4
 74
0
 40
0
 40
0
 40
0
 40
0
 40
1
 40
1
 40
1
 40
1
 10
418.221772
 20
195.322838
 30
0.0
 10
418.131795
 20
186.018413
 30
0.0
 10
417.746970
 20
183.242228
 30
0.0
 10
415.648012
 20
176.755245
 30
0.0
  0
SPLINE
  5
123
100
AcDbEntity
  8
SeriGrafia
 62
7
100
AcDbSpline
 70
8
 71
3
 72
8
 73
4
 74
0
 40
0
 40
0
 40
0
 40
0
 40
1
 40
1
 40
1
 40
1
 10
415.648012
 20
176.755245
 30
0.0
 10
412.382317
 20
166.662383
 30
0.0
 10
408.677625
 20
159.463748
 30
0.0
 10
400.625797
 20
147.565313
 30
0.0
  0
SPLINE
  5
124
100
AcDbEntity
  8
SeriGrafia
 62
7
100
AcDbSpline
 70
8
 71
3
 72
8
 73
4
 74
0
 40
0
 40
0
 40
0
 40
0
 40
1
 40
1
 40
1
 40
1
 10
400.625797
 20
147.565313
 30
0.0
 10
396.961762
 20
142.150860
 30
0.0
 10
393.639877
 20
137.171092
 30
0.0
 10
393.243855
 20
136.499167
 30
0.0
  0
SPLINE
  5
125
100
AcDbEntity
  8
SeriGrafia
 62
7
100
AcDbSpline
 70
8
 71
3
 72
8
 73
4
 74
0
 40
0
 40
0
 40
0
 40
0
 40
1
 40
1
 40
1
 40
1
 10
393.243855
 20
136.499167
 30
0.0
 10
392.310202
 20
134.915115
 30
0.0
 10
399.762600
 20
135.833430
 30
0.0
 10
407.559457
 20
138.263190
 30
0.0
  0
SPLINE
  5
126
100
AcDbEntity
  8
SeriGrafia
 62
7
100
AcDbSpline
 70
8
 71
3
 72
8
 73
4
 74
0
 40
0
 40
0
 40
0
 40
0
 40
1
 40
1
 40
1
 40
1
 10
407.559457
 20
138.263190
 30
0.0
 10
410.520690
 20
139.186013
 30
0.0
 10
413.034270
 20
139.946250
 30
0.0
 10
413.145195
 20
139.952618
 30
0.0
  0
SPLINE
  5
127
100
AcDbEntity
  8
SeriGrafia
 62
7
100
AcDbSpline
 70
8
 71
3
 72
8
 73
4
 74
0
 40
0
 40
0
 40
0
 40
0
 40
1
 40
1
 40
1
 40
1
 10
413.145195
 20
139.952618
 30
0.0
 10
413.961802
 20
139.999493
 30
0.0
 10
406.280452
 20
124.906657
 30
0.0
 10
403.100955
 20
120.217013
 30
0.0
  0
SPLINE
  5
128
100
AcDbEntity
  8
SeriGrafia
 62
7
100
AcDbSpline
 70
8
 71
3
 72
8
 73
4
 74
0
 40
0
 40
0
 40
0
 40
0
 40
1
 40
1
 40
1
 40
1
 10
403.100955
 20
120.217013
 30
0.0
 10
398.132475
 20
112.888672
 30
0.0
 10
380.245312
 20
94.981380
 30
0.0
 10
370.768410
 20
87.848070
 30
0.0
  0
SPLINE
  5
129
100
AcDbEntity
  8
SeriGrafia
 62
7
100
AcDbSpline
 70
8
 71
3
 72
8
 73
4
 74
0
 40
0
 40
0
 40
0
 40
0
 40
1
 40
1
 40
1
 40
1
 10
370.768410
 20
87.848070
 30
0.0
 10
361.511745
 20
80.880540
 30
0.0
 10
343.804732
 20
72.075098
 30
0.0
 10
326.798617
 20
65.982517
 30
0.0
  0
SPLINE
  5
12a
100
AcDbEntity
  8
SeriGrafia
 62
7
100
AcDbSpline
 70
8
 71
3
 72
8
 73
4
 74
0
 40
0
 40
0
 40
0
 40
0
 40
1
 40
1
 40
1
 40
1
 10
326.798617
 20
65.982517
 30
0.0
 10
317.690310
 20
62.719387
 30
0.0
 10
313.242442
 20
60.687322
 30
0.0
 10
313.041442
 20
59.697352
 30
0.0
  0
SPLINE
  5
12b
100
AcDbEntity
  8
SeriGrafia
 62
7
100
AcDbSpline
 70
8
 71
3
 72
8
 73
4
 74
0
 40
0
 40
0
 40
0
 40
0
 40
1
 40
1
 40
1
 40
1
 10
313.041442
 20
59.697352
 30
0.0
 10
312.828892
 20
58.650472
 30
0.0
 10
314.311950
 20
57.558038
 30
0.0
 10
318.255945
 20
55.856288
 30
0.0
  0
SPLINE
  5
12c
100
AcDbEntity
  8
SeriGrafia
 62
7
100
AcDbSpline
 70
8
 71
3
 72
8
 73
4
 74
0
 40
0
 40
0
 40
0
 40
0
 40
1
 40
1
 40
1
 40
1
 10
318.255945
 20
55.856288
 30
0.0
 10
323.593605
 20
53.553217
 30
0.0
 10
323.699992
 20
53.442825
 30
0.0
 10
321.628162
 20
52.357282
 30
0.0
  0
SPLINE
  5
12d
100
AcDbEntity
  8
SeriGrafia
 62
7
100
AcDbSpline
 70
8
 71
3
 72
8
 73
4
 74
0
 40
0
 40
0
 40
0
 40
0
 40
1
 40
1
 40
1
 40
1
 10
321.628162
 20
52.357282
 30
0.0
 10
317.937840
 20
50.423722
 30
0.0
 10
304.426740
 20
49.152142
 30
0.0
 10
290.979045
 20
49.472760
 30
0.0
  0
SPLINE
  5
12e
100
AcDbEntity
  8
SeriGrafia
 62
7
100
AcDbSpline
 70
8
 71
3
 72
8
 73
4
 74
0
 40
0
 40
0
 40
0
 40
0
 40
1
 40
1
 40
1
 40
1
 10
290.979045
 20
49.472760
 30
0.0
 10
283.862670
 20
49.642432
 30
0.0
 10
277.728750
 20
50.093318
 30
0.0
 10
277.348102
 20
50.474737
 30
0.0
  0
SPLINE
  5
12f
100
AcDbEntity
  8
SeriGrafia
 62
7
100
AcDbSpline
 70
8
 71
3
 72
8
 73
4
 74
0
 40
0
 40
0
 40
0
 40
0
 40
1
 40
1
 40
1
 40
1
 10
277.348102
 20
50.474737
 30
0.0
 10
276.509370
 20
51.315180
 30
0.0
 10
280.009477
 20
62.549370
 30
0.0
 10
282.896812
 20
68.284222
 30
0.0
  0
SPLINE
  5
130
100
AcDbEntity
  8
SeriGrafia
 62
7
100
AcDbSpline
 70
8
 71
3
 72
8
 73
4
 74
0
 40
0
 40
0
 40
0
 40
0
 40
1
 40
1
 40
1
 40
1
 10
282.896812
 20
68.284222
 30
0.0
 10
284.044740
 20
70.564245
 30
0.0
 10
286.316167
 20
73.560660
 30
0.0
 10
287.944432
 20
74.942940
 30
0.0
  0
SPLINE
  5
131
100
AcDbEntity
  8
SeriGrafia
 62
7
100
AcDbSpline
 70
8
 71
3
 72
8
 73
4
 74
0
 40
0
 40
0
 40
0
 40
0
 40
1
 40
1
 40
1
 40
1
 10
287.944432
 20
74.942940
 30
0.0
 10
293.335867
 20
79.519860
 30
0.0
 10
312.475927
 20
87.872730
 30
0.0
 10
333.063082
 20
94.633057
 30
0.0
  0
SPLINE
  5
132
100
AcDbEntity
  8
SeriGrafia
 62
7
100
AcDbSpline
 70
8
 71
3
 72
8
 73
4
 74
0
 40
0
 40
0
 40
0
 40
0
 40
1
 40
1
 40
1
 40
1
 10
333.063082
 20
94.633057
 30
0.0
 10
344.143530
 20
98.271607
 30
0.0
 10
355.948717
 20
102.689572
 30
0.0
 10
359.296852
 20
104.450752
 30
0.0
  0
SPLINE
  5
133
100
AcDbEntity
  8
SeriGrafia
 62
7
100
AcDbSpline
 70
8
 71
3
 72
8
 73
4
 74
0
 40
0
 40
0
 40
0
 40
0
 40
1
 40
1
 40
1
 40
1
 10
359.296852
 20
104.450752
 30
0.0
 10
368.065627
 20
109.063312
 30
0.0
 10
377.887477
 20
116.661765
 30
0.0
 10
378.233895
 20
119.100975
 30
0.0
  0
SPLINE
  5
134
100
AcDbEntity
  8
SeriGrafia
 62
7
100
AcDbSpline
 70
8
 71
3
 72
8
 73
4
 74
0
 40
0
 40
0
 40
0
 40
0
 40
1
 40
1
 40
1
 40
1
 10
378.233895
 20
119.100975
 30
0.0
 10
378.406777
 20
120.318240
 30
0.0
 10
378.050430
 20
121.121640
 30
0.0
 10
377.336550
 20
121.124137
 30
0.0
  0
SPLINE
  5
135
100
AcDbEntity
  8
SeriGrafia
 62
7
100
AcDbSpline
 70
8
 71
3
 72
8
 73
4
 74
0
 40
0
 40
0
 40
0
 40
0
 40
1
 40
1
 40
1
 40
1
 10
377.336550
 20
121.124137
 30
0.0
 10
373.847040
 20
121.136362
 30
0.0
 10
352.155300
 20
124.762672
 30
0.0
 10
350.603190
 20
125.593335
 30
0.0
  0
SPLINE
  5
136
100
AcDbEntity
  8
SeriGrafia
 62
7
100
AcDbSpline
 70
8
 71
3
 72
8
 73
4
 74
0
 40
0
 40
0
 40
0
 40
0
 40
1
 40
1
 40
1
 40
1
 10
350.603190
 20
125.593335
 30
0.0
 10
347.908125
 20
127.035682
 30
0.0
 10
348.378532
 20
128.572830
 30
0.0
 10
352.123830
 20
130.562377
 30
0.0
  0
SPLINE
  5
137
100
AcDbEntity
  8
SeriGrafia
 62
7
100
AcDbSpline
 70
8
 71
3
 72
8
 73
4
 74
0
 40
0
 40
0
 40
0
 40
0
 40
1
 40
1
 40
1
 40
1
 10
352.123830
 20
130.562377
 30
0.0
 10
357.157170
 20
133.236127
 30
0.0
 10
367.930770
 20
142.143855
 30
0.0
 10
371.926920
 20
146.935792
 30
0.0
  0
SPLINE
  5
138
100
AcDbEntity
  8
SeriGrafia
 62
7
100
AcDbSpline
 70
8
 71
3
 72
8
 73
4
 74
0
 40
0
 40
0
 40
0
 40
0
 40
1
 40
1
 40
1
 40
1
 10
371.926920
 20
146.935792
 30
0.0
 10
380.802487
 20
157.578810
 30
0.0
 10
384.100095
 20
166.112175
 30
0.0
 10
385.588207
 20
182.287650
 30
0.0
  0
SPLINE
  5
139
100
AcDbEntity
  8
SeriGrafia
 62
7
100
AcDbSpline
 70
8
 71
3
 72
8
 73
4
 74
0
 40
0
 40
0
 40
0
 40
0
 40
1
 40
1
 40
1
 40
1
 10
385.588207
 20
182.287650
 30
0.0
 10
386.551410
 20
192.757440
 30
0.0
 10
386.518905
 20
193.259235
 30
0.0
 10
384.763762
 20
195.014377
 30
0.0
  0
SPLINE
  5
13a
100
AcDbEntity
  8
SeriGrafia
 62
7
100
AcDbSpline
 70
8
 71
3
 72
8
 73
4
 74
0
 40
0
 40
0
 40
0
 40
0
 40
1
 40
1
 40
1
 40
1
 10
384.763762
 20
195.014377
 30
0.0
 10
382.977922
 20
196.800210
 30
0.0
 10
382.825582
 20
196.806585
 30
0.0
 10
378.032572
 20
195.295717
 30
0.0
  0
SPLINE
  5
13b
100
AcDbEntity
  8
SeriGrafia
 62
7
100
AcDbSpline
 70
8
 71
3
 72
8
 73
4
 74
0
 40
0
 40
0
 40
0
 40
0
 40
1
 40
1
 40
1
 40
1
 10
378.032572
 20
195.295717
 30
0.0
 10
371.517870
 20
193.242142
 30
0.0
 10
356.387130
 20
193.182727
 30
0.0
 10
348.645292
 20
195.180330
 30
0.0
  0
SPLINE
  5
13c
100
AcDbEntity
  8
SeriGrafia
 62
7
100
AcDbSpline
 70
8
 71
3
 72
8
 73
4
 74
0
 40
0
 40
0
 40
0
 40
0
 40
1
 40
1
 40
1
 40
1
 10
348.645292
 20
195.180330
 30
0.0
 10
339.044970
 20
197.657467
 30
0.0
 10
331.401202
 20
202.254030
 30
0.0
 10
326.482552
 20
208.507822
 30
0.0
  0
SPLINE
  5
13d
100
AcDbEntity
  8
SeriGrafia
 62
7
100
AcDbSpline
 70
8
 71
3
 72
8
 73
4
 74
0
 40
0
 40
0
 40
0
 40
0
 40
1
 40
1
 40
1
 40
1
 10
326.482552
 20
208.507822
 30
0.0
 10
319.288252
 20
217.654987
 30
0.0
 10
316.252822
 20
222.447390
 30
0.0
 10
311.095117
 20
232.801815
 30
0.0
  0
SPLINE
  5
13e
100
AcDbEntity
  8
SeriGrafia
 62
7
100
AcDbSpline
 70
8
 71
3
 72
8
 73
4
 74
0
 40
0
 40
0
 40
0
 40
0
 40
1
 40
1
 40
1
 40
1
 10
300.775672
 20
242.986522
 30
0.0
 10
293.703630
 20
243.349822
 30
0.0
 10
285.889882
 20
241.929082
 30
0.0
 10
274.231012
 20
238.160017
 30
0.0
  0
SPLINE
  5
13f
100
AcDbEntity
  8
SeriGrafia
 62
7
100
AcDbSpline
 70
8
 71
3
 72
8
 73
4
 74
0
 40
0
 40
0
 40
0
 40
0
 40
1
 40
1
 40
1
 40
1
 10
274.231012
 20
238.160017
 30
0.0
 10
268.995195
 20
236.467402
 30
0.0
 10
264.473707
 20
235.082520
 30
0.0
 10
264.183255
 20
235.082520
 30
0.0
  0
SPLINE
  5
140
100
AcDbEntity
  8
SeriGrafia
 62
7
100
AcDbSpline
 70
8
 71
3
 72
8
 73
4
 74
0
 40
0
 40
0
 40
0
 40
0
 40
1
 40
1
 40
1
 40
1
 10
264.183255
 20
235.082520
 30
0.0
 10
263.892802
 20
235.082520
 30
0.0
 10
263.527387
 20
236.192985
 30
0.0
 10
263.371222
 20
237.550215
 30
0.0
  0
SPLINE
  5
141
100
AcDbEntity
  8
SeriGrafia
 62
7
100
AcDbSpline
 70
8
 71
3
 72
8
 73
4
 74
0
 40
0
 40
0
 40
0
 40
0
 40
1
 40
1
 40
1
 40
1
 10
263.371222
 20
237.550215
 30
0.0
 10
263.112382
 20
239.799810
 30
0.0
 10
262.719840
 20
240.041700
 30
0.0
 10
258.929820
 20
240.287130
 30
0.0
  0
SPLINE
  5
142
100
AcDbEntity
  8
SeriGrafia
 62
7
100
AcDbSpline
 70
8
 71
3
 72
8
 73
4
 74
0
 40
0
 40
0
 40
0
 40
0
 40
1
 40
1
 40
1
 40
1
 10
258.929820
 20
240.287130
 30
0.0
 10
250.491660
 20
240.833535
 30
0.0
 10
237.005797
 20
234.328537
 30
0.0
 10
228.539587
 20
225.628162
 30
0.0
  0
SPLINE
  5
143
100
AcDbEntity
  8
SeriGrafia
 62
7
100
AcDbSpline
 70
8
 71
3
 72
8
 73
4
 74
0
 40
0
 40
0
 40
0
 40
0
 40
1
 40
1
 40
1
 40
1
 10
228.539587
 20
225.628162
 30
0.0
 10
224.976450
 20
221.966475
 30
0.0
 10
220.704375
 20
218.930355
 30
0.0
 10
219.115230
 20
218.930355
 30
0.0
  0
SPLINE
  5
144
100
AcDbEntity
  8
SeriGrafia
 62
7
100
AcDbSpline
 70
8
 71
3
 72
8
 73
4
 74
0
 40
0
 40
0
 40
0
 40
0
 40
1
 40
1
 40
1
 40
1
 10
219.115230
 20
218.930355
 30
0.0
 10
218.818200
 20
218.930355
 30
0.0
 10
215.603092
 20
221.743440
 30
0.0
 10
211.970542
 20
225.181657
 30
0.0
  0
SPLINE
  5
145
100
AcDbEntity
  8
SeriGrafia
 62
7
100
AcDbSpline
 70
8
 71
3
 72
8
 73
4
 74
0
 40
0
 40
0
 40
0
 40
0
 40
1
 40
1
 40
1
 40
1
 10
211.970542
 20
225.181657
 30
0.0
 10
208.337992
 20
228.619875
 30
0.0
 10
203.412457
 20
232.672402
 30
0.0
 10
201.024915
 20
234.187275
 30
0.0
  0
SPLINE
  5
146
100
AcDbEntity
  8
SeriGrafia
 62
7
100
AcDbSpline
 70
8
 71
3
 72
8
 73
4
 74
0
 40
0
 40
0
 40
0
 40
0
 40
1
 40
1
 40
1
 40
1
 10
201.024915
 20
234.187275
 30
0.0
 10
195.727267
 20
237.548572
 30
0.0
 10
186.621750
 20
240.466575
 30
0.0
 10
181.430580
 20
240.466575
 30
0.0
  0
SPLINE
  5
147
100
AcDbEntity
  8
SeriGrafia
 62
7
100
AcDbSpline
 70
8
 71
3
 72
8
 73
4
 74
0
 40
0
 40
0
 40
0
 40
0
 40
1
 40
1
 40
1
 40
1
 10
181.430580
 20
240.466575
 30
0.0
 10
177.228165
 20
240.466575
 30
0.0
 10
176.403195
 20
239.549947
 30
0.0
 10
177.139410
 20
235.698652
 30
0.0
  0
SPLINE
  5
148
100
AcDbEntity
  8
SeriGrafia
 62
7
100
AcDbSpline
 70
8
 71
3
 72
8
 73
4
 74
0
 40
0
 40
0
 40
0
 40
0
 40
1
 40
1
 40
1
 40
1
 10
177.139410
 20
235.698652
 30
0.0
 10
177.392887
 20
234.372705
 30
0.0
 10
177.423637
 20
233.287837
 30
0.0
 10
177.207810
 20
233.287837
 30
0.0
  0
SPLINE
  5
149
100
AcDbEntity
  8
SeriGrafia
 62
7
100
AcDbSpline
 70
8
 71
3
 72
8
 73
4
 74
0
 40
0
 40
0
 40
0
 40
0
 40
1
 40
1
 40
1
 40
1
 10
177.207810
 20
233.287837
 30
0.0
 10
176.991922
 20
233.287837
 30
0.0
 10
172.603950
 20
234.870135
 30
0.0
 10
167.456767
 20
236.804055
 30
0.0
  0
SPLINE
  5
14a
100
AcDbEntity
  8
SeriGrafia
 62
7
100
AcDbSpline
 70
8
 71
3
 72
8
 73
4
 74
0
 40
0
 40
0
 40
0
 40
0
 40
1
 40
1
 40
1
 40
1
 10
167.456767
 20
236.804055
 30
0.0
 10
153.470205
 20
242.059147
 30
0.0
 10
138.260767
 20
244.615012
 30
0.0
 10
132.996510
 20
242.594925
 30
0.0
  0
SPLINE
  5
14b
100
AcDbEntity
  8
SeriGrafia
 62
7
100
AcDbSpline
 70
8
 71
3
 72
8
 73
4
 74
0
 40
0
 40
0
 40
0
 40
0
 40
1
 40
1
 40
1
 40
1
 10
132.996510
 20
242.594925
 30
0.0
 10
132.188587
 20
242.284890
 30
0.0
 10
129.576832
 20
238.143952
 30
0.0
 10
127.192612
 20
233.392822
 30
0.0
  0
SPLINE
  5
14c
100
AcDbEntity
  8
SeriGrafia
 62
7
100
AcDbSpline
 70
8
 71
3
 72
8
 73
4
 74
0
 40
0
 40
0
 40
0
 40
0
 40
1
 40
1
 40
1
 40
1
 10
127.192612
 20
233.392822
 30
0.0
 10
118.563202
 20
216.196732
 30
0.0
 10
108.385162
 20
203.310757
 30
0.0
 10
100.147762
 20
199.152525
 30
0.0
  0
SPLINE
  5
14d
100
AcDbEntity
  8
SeriGrafia
 62
7
100
AcDbSpline
 70
8
 71
3
 72
8
 73
4
 74
0
 40
0
 40
0
 40
0
 40
0
 40
1
 40
1
 40
1
 40
1
 10
100.147762
 20
199.152525
 30
0.0
 10
89.254177
 20
193.653465
 30
0.0
 10
71.872149
 20
191.884387
 30
0.0
 10
59.985221
 20
195.064942
 30
0.0
  0
SPLINE
  5
14e
100
AcDbEntity
  8
SeriGrafia
 62
7
100
AcDbSpline
 70
8
 71
3
 72
8
 73
4
 74
0
 40
0
 40
0
 40
0
 40
0
 40
1
 40
1
 40
1
 40
1
 10
59.985221
 20
195.064942
 30
0.0
 10
52.530624
 20
197.059530
 30
0.0
 10
51.763097
 20
196.440007
 30
0.0
 10
51.763097
 20
188.428372
 30
0.0
  0
SPLINE
  5
14f
100
AcDbEntity
  8
SeriGrafia
 62
7
100
AcDbSpline
 70
8
 71
3
 72
8
 73
4
 74
0
 40
0
 40
0
 40
0
 40
0
 40
1
 40
1
 40
1
 40
1
 10
51.763097
 20
188.428372
 30
0.0
 10
51.763097
 20
177.997897
 30
0.0
 10
54.092760
 20
167.207782
 30
0.0
 10
58.120660
 20
158.982555
 30
0.0
  0
SPLINE
  5
150
100
AcDbEntity
  8
SeriGrafia
 62
7
100
AcDbSpline
 70
8
 71
3
 72
8
 73
4
 74
0
 40
0
 40
0
 40
0
 40
0
 40
1
 40
1
 40
1
 40
1
 10
58.120660
 20
158.982555
 30
0.0
 10
60.988988
 20
153.125242
 30
0.0
 10
63.437164
 20
149.841885
 30
0.0
 10
69.553944
 20
143.648835
 30
0.0
  0
SPLINE
  5
151
100
AcDbEntity
  8
SeriGrafia
 62
7
100
AcDbSpline
 70
8
 71
3
 72
8
 73
4
 74
0
 40
0
 40
0
 40
0
 40
0
 40
1
 40
1
 40
1
 40
1
 10
69.553944
 20
143.648835
 30
0.0
 10
73.834825
 20
139.314592
 30
0.0
 10
80.063040
 20
134.031487
 30
0.0
 10
83.394427
 20
131.908612
 30
0.0
  0
SPLINE
  5
152
100
AcDbEntity
  8
SeriGrafia
 62
7
100
AcDbSpline
 70
8
 71
3
 72
8
 73
4
 74
0
 40
0
 40
0
 40
0
 40
0
 40
1
 40
1
 40
1
 40
1
 10
83.394427
 20
131.908612
 30
0.0
 10
86.725815
 20
129.785737
 30
0.0
 10
89.451487
 20
127.750995
 30
0.0
 10
89.451487
 20
127.386952
 30
0.0
  0
SPLINE
  5
153
100
AcDbEntity
  8
SeriGrafia
 62
7
100
AcDbSpline
 70
8
 71
3
 72
8
 73
4
 74
0
 40
0
 40
0
 40
0
 40
0
 40
1
 40
1
 40
1
 40
1
 10
89.451487
 20
127.386952
 30
0.0
 10
89.451487
 20
125.460030
 30
0.0
 10
75.536520
 20
121.179787
 30
0.0
 10
69.149112
 20
121.141935
 30
0.0
  0
SPLINE
  5
154
100
AcDbEntity
  8
SeriGrafia
 62
7
100
AcDbSpline
 70
8
 71
3
 72
8
 73
4
 74
0
 40
0
 40
0
 40
0
 40
0
 40
1
 40
1
 40
1
 40
1
 10
69.149112
 20
121.141935
 30
0.0
 10
63.625701
 20
121.109160
 30
0.0
 10
59.839181
 20
120.150262
 30
0.0
 10
59.839181
 20
118.784205
 30
0.0
  0
SPLINE
  5
155
100
AcDbEntity
  8
SeriGrafia
 62
7
100
AcDbSpline
 70
8
 71
3
 72
8
 73
4
 74
0
 40
0
 40
0
 40
0
 40
0
 40
1
 40
1
 40
1
 40
1
 10
59.839181
 20
118.784205
 30
0.0
 10
59.839181
 20
117.170722
 30
0.0
 10
70.313704
 20
108.593272
 30
0.0
 10
76.189087
 20
105.395482
 30
0.0
  0
SPLINE
  5
156
100
AcDbEntity
  8
SeriGrafia
 62
7
100
AcDbSpline
 70
8
 71
3
 72
8
 73
4
 74
0
 40
0
 40
0
 40
0
 40
0
 40
1
 40
1
 40
1
 40
1
 10
76.189087
 20
105.395482
 30
0.0
 10
78.760035
 20
103.996207
 30
0.0
 10
92.219032
 20
98.964975
 30
0.0
 10
106.097962
 20
94.214977
 30
0.0
  0
SPLINE
  5
157
100
AcDbEntity
  8
SeriGrafia
 62
7
100
AcDbSpline
 70
8
 71
3
 72
8
 73
4
 74
0
 40
0
 40
0
 40
0
 40
0
 40
1
 40
1
 40
1
 40
1
 10
106.097962
 20
94.214977
 30
0.0
 10
133.716015
 20
84.762847
 30
0.0
 10
146.016870
 20
78.889830
 30
0.0
 10
152.164252
 20
72.220695
 30
0.0
  0
SPLINE
  5
158
100
AcDbEntity
  8
SeriGrafia
 62
7
100
AcDbSpline
 70
8
 71
3
 72
8
 73
4
 74
0
 40
0
 40
0
 40
0
 40
0
 40
1
 40
1
 40
1
 40
1
 10
152.164252
 20
72.220695
 30
0.0
 10
155.678220
 20
68.408497
 30
0.0
 10
163.003140
 20
51.695722
 30
0.0
 10
161.722057
 20
50.413290
 30
0.0
  0
SPLINE
  5
159
100
AcDbEntity
  8
SeriGrafia
 62
7
100
AcDbSpline
 70
8
 71
3
 72
8
 73
4
 74
0
 40
0
 40
0
 40
0
 40
0
 40
1
 40
1
 40
1
 40
1
 10
161.722057
 20
50.413290
 30
0.0
 10
161.085997
 20
49.776570
 30
0.0
 10
132.337530
 20
49.188255
 30
0.0
 10
129.831915
 20
49.760685
 30
0.0
  0
LWPOLYLINE
  5
15a
100
AcDbEntity
  8
SeriGrafia
 62
7
100
AcDbPolyline
 90
3
 70
0
 10
311.095117
 20
232.801815
 30
0.0
 10
306.159735
 20
242.709937
 30
0.0
 10
300.775672
 20
242.986522
 30
0.0
  0
SPLINE
  5
15b
100
AcDbEntity
  8
Mascara
 62
7
100
AcDbSpline
 70
8
 71
3
 72
8
 73
4
 74
0
 40
0
 40
0
 40
0
 40
0
 40
1
 40
1
 40
1
 40
1
 10
212.432880
 20
26.286743
 30
0.0
 10
206.978152
 20
26.969490
 30
0.0
 10
201.482917
 20
28.990628
 30
0.0
 10
196.811190
 20
32.032388
 30
0.0
  0
SPLINE
  5
15c
100
AcDbEntity
  8
Mascara
 62
7
100
AcDbSpline
 70
8
 71
3
 72
8
 73
4
 74
0
 40
0
 40
0
 40
0
 40
0
 40
1
 40
1
 40
1
 40
1
 10
196.811190
 20
32.032388
 30
0.0
 10
195.821190
 20
32.676983
 30
0.0
 10
194.713402
 20
33.277103
 30
0.0
 10
194.349435
 20
33.365993
 30
0.0
  0
SPLINE
  5
15d
100
AcDbEntity
  8
Mascara
 62
7
100
AcDbSpline
 70
8
 71
3
 72
8
 73
4
 74
0
 40
0
 40
0
 40
0
 40
0
 40
1
 40
1
 40
1
 40
1
 10
194.349435
 20
33.365993
 30
0.0
 10
193.433063
 20
33.589793
 30
0.0
 10
192.554303
 20
32.958405
 30
0.0
 10
191.982233
 20
31.665143
 30
0.0
  0
SPLINE
  5
15e
100
AcDbEntity
  8
Mascara
 62
7
100
AcDbSpline
 70
8
 71
3
 72
8
 73
4
 74
0
 40
0
 40
0
 40
0
 40
0
 40
1
 40
1
 40
1
 40
1
 10
191.982233
 20
31.665143
 30
0.0
 10
190.615080
 20
28.574445
 30
0.0
 10
188.898863
 20
28.079393
 30
0.0
 10
184.553700
 20
29.522272
 30
0.0
  0
SPLINE
  5
15f
100
AcDbEntity
  8
Mascara
 62
7
100
AcDbSpline
 70
8
 71
3
 72
8
 73
4
 74
0
 40
0
 40
0
 40
0
 40
0
 40
1
 40
1
 40
1
 40
1
 10
184.553700
 20
29.522272
 30
0.0
 10
180.751433
 20
30.784868
 30
0.0
 10
177.368910
 20
32.869103
 30
0.0
 10
173.982653
 20
36.035903
 30
0.0
  0
SPLINE
  5
160
100
AcDbEntity
  8
Mascara
 62
7
100
AcDbSpline
 70
8
 71
3
 72
8
 73
4
 74
0
 40
0
 40
0
 40
0
 40
0
 40
1
 40
1
 40
1
 40
1
 10
173.982653
 20
36.035903
 30
0.0
 10
171.903960
 20
37.979872
 30
0.0
 10
170.607563
 20
38.678992
 30
0.0
 10
167.891190
 20
39.320948
 30
0.0
  0
SPLINE
  5
161
100
AcDbEntity
  8
Mascara
 62
7
100
AcDbSpline
 70
8
 71
3
 72
8
 73
4
 74
0
 40
0
 40
0
 40
0
 40
0
 40
1
 40
1
 40
1
 40
1
 10
167.891190
 20
39.320948
 30
0.0
 10
164.309468
 20
40.167383
 30
0.0
 10
162.705398
 20
40.249553
 30
0.0
 10
146.051190
 20
40.439880
 30
0.0
  0
SPLINE
  5
162
100
AcDbEntity
  8
Mascara
 62
7
100
AcDbSpline
 70
8
 71
3
 72
8
 73
4
 74
0
 40
0
 40
0
 40
0
 40
0
 40
1
 40
1
 40
1
 40
1
 10
146.051190
 20
40.439880
 30
0.0
 10
129.724665
 20
40.626450
 30
0.0
 10
127.107420
 20
40.743000
 30
0.0
 10
121.571190
 20
41.530005
 30
0.0
  0
SPLINE
  5
163
100
AcDbEntity
  8
Mascara
 62
7
100
AcDbSpline
 70
8
 71
3
 72
8
 73
4
 74
0
 40
0
 40
0
 40
0
 40
0
 40
1
 40
1
 40
1
 40
1
 10
121.571190
 20
41.530005
 30
0.0
 10
115.232880
 20
42.431040
 30
0.0
 10
112.727317
 20
43.126823
 30
0.0
 10
99.685695
 20
47.607645
 30
0.0
  0
SPLINE
  5
164
100
AcDbEntity
  8
Mascara
 62
7
100
AcDbSpline
 70
8
 71
3
 72
8
 73
4
 74
0
 40
0
 40
0
 40
0
 40
0
 40
1
 40
1
 40
1
 40
1
 10
99.685695
 20
47.607645
 30
0.0
 10
89.095515
 20
51.246188
 30
0.0
 10
85.371615
 20
52.769130
 30
0.0
 10
81.405143
 20
55.083720
 30
0.0
  0
SPLINE
  5
165
100
AcDbEntity
  8
Mascara
 62
7
100
AcDbSpline
 70
8
 71
3
 72
8
 73
4
 74
0
 40
0
 40
0
 40
0
 40
0
 40
1
 40
1
 40
1
 40
1
 10
81.405143
 20
55.083720
 30
0.0
 10
80.196938
 20
55.788743
 30
0.0
 10
80.128103
 20
55.879223
 30
0.0
 10
80.267993
 20
56.578680
 30
0.0
  0
SPLINE
  5
166
100
AcDbEntity
  8
Mascara
 62
7
100
AcDbSpline
 70
8
 71
3
 72
8
 73
4
 74
0
 40
0
 40
0
 40
0
 40
0
 40
1
 40
1
 40
1
 40
1
 10
80.267993
 20
56.578680
 30
0.0
 10
80.467238
 20
57.574920
 30
0.0
 10
81.030203
 20
58.151730
 30
0.0
 10
82.070265
 20
58.425263
 30
0.0
  0
SPLINE
  5
167
100
AcDbEntity
  8
Mascara
 62
7
100
AcDbSpline
 70
8
 71
3
 72
8
 73
4
 74
0
 40
0
 40
0
 40
0
 40
0
 40
1
 40
1
 40
1
 40
1
 10
82.070265
 20
58.425263
 30
0.0
 10
84.900533
 20
59.169600
 30
0.0
 10
87.245490
 20
59.624183
 30
0.0
 10
88.931190
 20
59.755268
 30
0.0
  0
SPLINE
  5
168
100
AcDbEntity
  8
Mascara
 62
7
100
AcDbSpline
 70
8
 71
3
 72
8
 73
4
 74
0
 40
0
 40
0
 40
0
 40
0
 40
1
 40
1
 40
1
 40
1
 10
88.931190
 20
59.755268
 30
0.0
 10
91.290428
 20
59.938748
 30
0.0
 10
93.391118
 20
60.325530
 30
0.0
 10
93.791190
 20
60.650085
 30
0.0
  0
SPLINE
  5
169
100
AcDbEntity
  8
Mascara
 62
7
100
AcDbSpline
 70
8
 71
3
 72
8
 73
4
 74
0
 40
0
 40
0
 40
0
 40
0
 40
1
 40
1
 40
1
 40
1
 10
93.791190
 20
60.650085
 30
0.0
 10
94.233203
 20
61.008668
 30
0.0
 10
94.156358
 20
61.314690
 30
0.0
 10
93.624300
 20
61.314690
 30
0.0
  0
SPLINE
  5
16a
100
AcDbEntity
  8
Mascara
 62
7
100
AcDbSpline
 70
8
 71
3
 72
8
 73
4
 74
0
 40
0
 40
0
 40
0
 40
0
 40
1
 40
1
 40
1
 40
1
 10
93.624300
 20
61.314690
 30
0.0
 10
92.690858
 20
61.314690
 30
0.0
 10
82.432155
 20
66.798098
 30
0.0
 10
75.572730
 20
70.963463
 30
0.0
  0
SPLINE
  5
16b
100
AcDbEntity
  8
Mascara
 62
7
100
AcDbSpline
 70
8
 71
3
 72
8
 73
4
 74
0
 40
0
 40
0
 40
0
 40
0
 40
1
 40
1
 40
1
 40
1
 10
75.572730
 20
70.963463
 30
0.0
 10
72.799436
 20
72.647543
 30
0.0
 10
66.342439
 20
77.134463
 30
0.0
 10
61.211194
 20
80.943218
 30
0.0
  0
SPLINE
  5
16c
100
AcDbEntity
  8
Mascara
 62
7
100
AcDbSpline
 70
8
 71
3
 72
8
 73
4
 74
0
 40
0
 40
0
 40
0
 40
0
 40
1
 40
1
 40
1
 40
1
 10
61.211194
 20
80.943218
 30
0.0
 10
48.112215
 20
90.666098
 30
0.0
 10
42.521070
 20
95.921760
 30
0.0
 10
34.146203
 20
106.384275
 30
0.0
  0
SPLINE
  5
16d
100
AcDbEntity
  8
Mascara
 62
7
100
AcDbSpline
 70
8
 71
3
 72
8
 73
4
 74
0
 40
0
 40
0
 40
0
 40
0
 40
1
 40
1
 40
1
 40
1
 10
34.146203
 20
106.384275
 30
0.0
 10
25.175782
 20
117.590760
 30
0.0
 10
17.737282
 20
130.030463
 30
0.0
 10
11.943518
 20
143.514698
 30
0.0
  0
SPLINE
  5
16e
100
AcDbEntity
  8
Mascara
 62
7
100
AcDbSpline
 70
8
 71
3
 72
8
 73
4
 74
0
 40
0
 40
0
 40
0
 40
0
 40
1
 40
1
 40
1
 40
1
 10
11.943518
 20
143.514698
 30
0.0
 10
9.671129
 20
148.803383
 30
0.0
 10
8.173207
 20
151.380135
 30
0.0
 10
5.765324
 20
154.142528
 30
0.0
  0
SPLINE
  5
16f
100
AcDbEntity
  8
Mascara
 62
7
100
AcDbSpline
 70
8
 71
3
 72
8
 73
4
 74
0
 40
0
 40
0
 40
0
 40
0
 40
1
 40
1
 40
1
 40
1
 10
5.765324
 20
154.142528
 30
0.0
 10
4.748977
 20
155.308515
 30
0.0
 10
3.794519
 20
156.492150
 30
0.0
 10
3.644302
 20
156.772823
 30
0.0
  0
SPLINE
  5
170
100
AcDbEntity
  8
Mascara
 62
7
100
AcDbSpline
 70
8
 71
3
 72
8
 73
4
 74
0
 40
0
 40
0
 40
0
 40
0
 40
1
 40
1
 40
1
 40
1
 10
3.644302
 20
156.772823
 30
0.0
 10
3.300389
 20
157.415430
 30
0.0
 10
3.322079
 20
159.080363
 30
0.0
 10
3.689602
 20
160.252868
 30
0.0
  0
LWPOLYLINE
  5
171
100
AcDbEntity
  8
SeriGrafia
 62
7
100
AcDbPolyline
 90
1
 70
1
 10
129.831915
 20
49.760685
 30
0.0
  0
SPLINE
  5
172
100
AcDbEntity
  8
Mascara
 62
7
100
AcDbSpline
 70
8
 71
3
 72
8
 73
4
 74
0
 40
0
 40
0
 40
0
 40
0
 40
1
 40
1
 40
1
 40
1
 10
8.531159
 20
159.026130
 30
0.0
 10
11.039160
 20
157.857420
 30
0.0
 10
14.964405
 20
156.025643
 30
0.0
 10
17.253937
 20
154.955505
 30
0.0
  0
SPLINE
  5
173
100
AcDbEntity
  8
Mascara
 62
7
100
AcDbSpline
 70
8
 71
3
 72
8
 73
4
 74
0
 40
0
 40
0
 40
0
 40
0
 40
1
 40
1
 40
1
 40
1
 10
17.253937
 20
154.955505
 30
0.0
 10
19.543463
 20
153.885375
 30
0.0
 10
21.359070
 20
153.141405
 30
0.0
 10
21.288623
 20
153.302258
 30
0.0
  0
SPLINE
  5
174
100
AcDbEntity
  8
Mascara
 62
7
100
AcDbSpline
 70
8
 71
3
 72
8
 73
4
 74
0
 40
0
 40
0
 40
0
 40
0
 40
1
 40
1
 40
1
 40
1
 10
21.288623
 20
153.302258
 30
0.0
 10
21.218197
 20
153.463102
 30
0.0
 10
20.518988
 20
155.052698
 30
0.0
 10
19.734893
 20
156.834698
 30
0.0
  0
SPLINE
  5
175
100
AcDbEntity
  8
Mascara
 62
7
100
AcDbSpline
 70
8
 71
3
 72
8
 73
4
 74
0
 40
0
 40
0
 40
0
 40
0
 40
1
 40
1
 40
1
 40
1
 10
19.734893
 20
156.834698
 30
0.0
 10
16.876455
 20
163.330980
 30
0.0
 10
13.112160
 20
174.671430
 30
0.0
 10
11.687948
 20
181.077225
 30
0.0
  0
SPLINE
  5
176
100
AcDbEntity
  8
Mascara
 62
7
100
AcDbSpline
 70
8
 71
3
 72
8
 73
4
 74
0
 40
0
 40
0
 40
0
 40
0
 40
1
 40
1
 40
1
 40
1
 10
11.687948
 20
181.077225
 30
0.0
 10
10.384072
 20
186.941760
 30
0.0
 10
10.213282
 20
188.788538
 30
0.0
 10
10.212179
 20
197.034705
 30
0.0
  0
SPLINE
  5
177
100
AcDbEntity
  8
Mascara
 62
7
100
AcDbSpline
 70
8
 71
3
 72
8
 73
4
 74
0
 40
0
 40
0
 40
0
 40
0
 40
1
 40
1
 40
1
 40
1
 10
10.212179
 20
197.034705
 30
0.0
 10
10.210679
 20
205.181550
 30
0.0
 10
10.331482
 20
206.712833
 30
0.0
 10
11.532975
 20
213.834705
 30
0.0
  0
SPLINE
  5
178
100
AcDbEntity
  8
Mascara
 62
7
100
AcDbSpline
 70
8
 71
3
 72
8
 73
4
 74
0
 40
0
 40
0
 40
0
 40
0
 40
1
 40
1
 40
1
 40
1
 10
11.532975
 20
213.834705
 30
0.0
 10
12.474083
 20
219.413145
 30
0.0
 10
12.685118
 20
220.295003
 30
0.0
 10
13.296997
 20
221.205930
 30
0.0
  0
SPLINE
  5
179
100
AcDbEntity
  8
Mascara
 62
7
100
AcDbSpline
 70
8
 71
3
 72
8
 73
4
 74
0
 40
0
 40
0
 40
0
 40
0
 40
1
 40
1
 40
1
 40
1
 10
13.296997
 20
221.205930
 30
0.0
 10
13.734795
 20
221.857688
 30
0.0
 10
14.002448
 20
222.007515
 30
0.0
 10
14.837865
 20
222.068445
 30
0.0
  0
SPLINE
  5
17a
100
AcDbEntity
  8
Mascara
 62
7
100
AcDbSpline
 70
8
 71
3
 72
8
 73
4
 74
0
 40
0
 40
0
 40
0
 40
0
 40
1
 40
1
 40
1
 40
1
 10
14.837865
 20
222.068445
 30
0.0
 10
15.690765
 20
222.130695
 30
0.0
 10
16.365240
 20
221.881343
 30
0.0
 10
19.150028
 20
220.474523
 30
0.0
  0
SPLINE
  5
17b
100
AcDbEntity
  8
Mascara
 62
7
100
AcDbSpline
 70
8
 71
3
 72
8
 73
4
 74
0
 40
0
 40
0
 40
0
 40
0
 40
1
 40
1
 40
1
 40
1
 10
19.150028
 20
220.474523
 30
0.0
 10
28.393237
 20
215.805015
 30
0.0
 10
34.324725
 20
214.034873
 30
0.0
 10
41.559292
 20
213.786878
 30
0.0
  0
SPLINE
  5
17c
100
AcDbEntity
  8
Mascara
 62
7
100
AcDbSpline
 70
8
 71
3
 72
8
 73
4
 74
0
 40
0
 40
0
 40
0
 40
0
 40
1
 40
1
 40
1
 40
1
 10
41.559292
 20
213.786878
 30
0.0
 10
47.737657
 20
213.575085
 30
0.0
 10
51.432203
 20
214.309485
 30
0.0
 10
56.291152
 20
216.715245
 30
0.0
  0
SPLINE
  5
17d
100
AcDbEntity
  8
Mascara
 62
7
100
AcDbSpline
 70
8
 71
3
 72
8
 73
4
 74
0
 40
0
 40
0
 40
0
 40
0
 40
1
 40
1
 40
1
 40
1
 10
56.291152
 20
216.715245
 30
0.0
 10
59.783246
 20
218.444250
 30
0.0
 10
62.391476
 20
220.451370
 30
0.0
 10
66.019571
 20
224.201573
 30
0.0
  0
SPLINE
  5
17e
100
AcDbEntity
  8
Mascara
 62
7
100
AcDbSpline
 70
8
 71
3
 72
8
 73
4
 74
0
 40
0
 40
0
 40
0
 40
0
 40
1
 40
1
 40
1
 40
1
 10
66.019571
 20
224.201573
 30
0.0
 10
70.571314
 20
228.906510
 30
0.0
 10
72.962854
 20
232.545638
 30
0.0
 10
76.082955
 20
239.514705
 30
0.0
  0
SPLINE
  5
17f
100
AcDbEntity
  8
Mascara
 62
7
100
AcDbSpline
 70
8
 71
3
 72
8
 73
4
 74
0
 40
0
 40
0
 40
0
 40
0
 40
1
 40
1
 40
1
 40
1
 10
76.082955
 20
239.514705
 30
0.0
 10
79.714192
 20
247.625475
 30
0.0
 10
80.391915
 20
249.874305
 30
0.0
 10
79.948620
 20
252.341888
 30
0.0
  0
SPLINE
  5
180
100
AcDbEntity
  8
Mascara
 62
7
100
AcDbSpline
 70
8
 71
3
 72
8
 73
4
 74
0
 40
0
 40
0
 40
0
 40
0
 40
1
 40
1
 40
1
 40
1
 10
79.948620
 20
252.341888
 30
0.0
 10
79.657575
 20
253.961970
 30
0.0
 10
79.403520
 20
254.491643
 30
0.0
 10
75.855885
 20
260.874705
 30
0.0
  0
SPLINE
  5
181
100
AcDbEntity
  8
Mascara
 62
7
100
AcDbSpline
 70
8
 71
3
 72
8
 73
4
 74
0
 40
0
 40
0
 40
0
 40
0
 40
1
 40
1
 40
1
 40
1
 10
75.855885
 20
260.874705
 30
0.0
 10
70.633901
 20
270.270330
 30
0.0
 10
66.609559
 20
280.384800
 30
0.0
 10
64.214831
 20
290.132415
 30
0.0
  0
SPLINE
  5
182
100
AcDbEntity
  8
Mascara
 62
7
100
AcDbSpline
 70
8
 71
3
 72
8
 73
4
 74
0
 40
0
 40
0
 40
0
 40
0
 40
1
 40
1
 40
1
 40
1
 10
64.214831
 20
290.132415
 30
0.0
 10
61.964659
 20
299.291655
 30
0.0
 10
60.733279
 20
309.866708
 30
0.0
 10
60.732956
 20
320.034699
 30
0.0
  0
SPLINE
  5
183
100
AcDbEntity
  8
Mascara
 62
7
100
AcDbSpline
 70
8
 71
3
 72
8
 73
4
 74
0
 40
0
 40
0
 40
0
 40
0
 40
1
 40
1
 40
1
 40
1
 10
60.732956
 20
320.034699
 30
0.0
 10
60.732476
 20
332.156105
 30
0.0
 10
62.731594
 20
341.842850
 30
0.0
 10
67.122079
 20
350.994703
 30
0.0
  0
SPLINE
  5
184
100
AcDbEntity
  8
Mascara
 62
7
100
AcDbSpline
 70
8
 71
3
 72
8
 73
4
 74
0
 40
0
 40
0
 40
0
 40
0
 40
1
 40
1
 40
1
 40
1
 10
67.122079
 20
350.994703
 30
0.0
 10
69.157384
 20
355.237250
 30
0.0
 10
70.491199
 20
357.342478
 30
0.0
 10
72.119651
 20
358.882595
 30
0.0
  0
SPLINE
  5
185
100
AcDbEntity
  8
Mascara
 62
7
100
AcDbSpline
 70
8
 71
3
 72
8
 73
4
 74
0
 40
0
 40
0
 40
0
 40
0
 40
1
 40
1
 40
1
 40
1
 10
72.119651
 20
358.882595
 30
0.0
 10
73.965296
 20
360.628130
 30
0.0
 10
75.206242
 20
361.128065
 30
0.0
 10
78.011160
 20
361.256105
 30
0.0
  0
SPLINE
  5
186
100
AcDbEntity
  8
Mascara
 62
7
100
AcDbSpline
 70
8
 71
3
 72
8
 73
4
 74
0
 40
0
 40
0
 40
0
 40
0
 40
1
 40
1
 40
1
 40
1
 10
78.011160
 20
361.256105
 30
0.0
 10
80.746260
 20
361.380958
 30
0.0
 10
83.522662
 20
360.967183
 30
0.0
 10
89.051160
 20
359.610778
 30
0.0
  0
SPLINE
  5
187
100
AcDbEntity
  8
Mascara
 62
7
100
AcDbSpline
 70
8
 71
3
 72
8
 73
4
 74
0
 40
0
 40
0
 40
0
 40
0
 40
1
 40
1
 40
1
 40
1
 10
89.051160
 20
359.610778
 30
0.0
 10
106.795890
 20
355.257170
 30
0.0
 10
121.908697
 20
346.477918
 30
0.0
 10
136.666815
 20
331.950148
 30
0.0
  0
SPLINE
  5
188
100
AcDbEntity
  8
Mascara
 62
7
100
AcDbSpline
 70
8
 71
3
 72
8
 73
4
 74
0
 40
0
 40
0
 40
0
 40
0
 40
1
 40
1
 40
1
 40
1
 10
136.666815
 20
331.950148
 30
0.0
 10
138.765427
 20
329.884288
 30
0.0
 10
141.057180
 20
327.812578
 30
0.0
 10
141.759600
 20
327.346333
 30
0.0
  0
SPLINE
  5
189
100
AcDbEntity
  8
Mascara
 62
7
100
AcDbSpline
 70
8
 71
3
 72
8
 73
4
 74
0
 40
0
 40
0
 40
0
 40
0
 40
1
 40
1
 40
1
 40
1
 10
141.759600
 20
327.346333
 30
0.0
 10
143.857552
 20
325.953789
 30
0.0
 10
145.967543
 20
325.270374
 30
0.0
 10
148.589887
 20
325.134024
 30
0.0
  0
SPLINE
  5
18a
100
AcDbEntity
  8
Mascara
 62
7
100
AcDbSpline
 70
8
 71
3
 72
8
 73
4
 74
0
 40
0
 40
0
 40
0
 40
0
 40
1
 40
1
 40
1
 40
1
 10
148.589887
 20
325.134024
 30
0.0
 10
151.653210
 20
324.974747
 30
0.0
 10
153.648007
 20
325.397732
 30
0.0
 10
160.211160
 20
327.598235
 30
0.0
  0
SPLINE
  5
18b
100
AcDbEntity
  8
Mascara
 62
7
100
AcDbSpline
 70
8
 71
3
 72
8
 73
4
 74
0
 40
0
 40
0
 40
0
 40
0
 40
1
 40
1
 40
1
 40
1
 10
160.211160
 20
327.598235
 30
0.0
 10
174.418920
 20
332.361823
 30
0.0
 10
186.869910
 20
334.269928
 30
0.0
 10
209.651160
 20
335.174878
 30
0.0
  0
SPLINE
  5
18c
100
AcDbEntity
  8
Mascara
 62
7
100
AcDbSpline
 70
8
 71
3
 72
8
 73
4
 74
0
 40
0
 40
0
 40
0
 40
0
 40
1
 40
1
 40
1
 40
1
 10
209.651160
 20
335.174878
 30
0.0
 10
218.452710
 20
335.524505
 30
0.0
 10
234.586433
 20
335.333398
 30
0.0
 10
240.011152
 20
334.815253
 30
0.0
  0
SPLINE
  5
18d
100
AcDbEntity
  8
Mascara
 62
7
100
AcDbSpline
 70
8
 71
3
 72
8
 73
4
 74
0
 40
0
 40
0
 40
0
 40
0
 40
1
 40
1
 40
1
 40
1
 10
240.011152
 20
334.815253
 30
0.0
 10
255.606735
 20
333.325633
 30
0.0
 10
268.790205
 20
330.500953
 30
0.0
 10
283.316895
 20
325.536572
 30
0.0
  0
SPLINE
  5
18e
100
AcDbEntity
  8
Mascara
 62
7
100
AcDbSpline
 70
8
 71
3
 72
8
 73
4
 74
0
 40
0
 40
0
 40
0
 40
0
 40
1
 40
1
 40
1
 40
1
 10
283.316895
 20
325.536572
 30
0.0
 10
290.713290
 20
323.008914
 30
0.0
 10
290.817135
 20
323.035959
 30
0.0
 10
298.021957
 20
329.366450
 30
0.0
  0
SPLINE
  5
18f
100
AcDbEntity
  8
Mascara
 62
7
100
AcDbSpline
 70
8
 71
3
 72
8
 73
4
 74
0
 40
0
 40
0
 40
0
 40
0
 40
1
 40
1
 40
1
 40
1
 10
298.021957
 20
329.366450
 30
0.0
 10
314.690610
 20
344.012300
 30
0.0
 10
325.826700
 20
351.371473
 30
0.0
 10
340.159072
 20
357.212338
 30
0.0
  0
SPLINE
  5
190
100
AcDbEntity
  8
Mascara
 62
7
100
AcDbSpline
 70
8
 71
3
 72
8
 73
4
 74
0
 40
0
 40
0
 40
0
 40
0
 40
1
 40
1
 40
1
 40
1
 10
340.159072
 20
357.212338
 30
0.0
 10
348.929272
 20
360.786463
 30
0.0
 10
351.910335
 20
361.737125
 30
0.0
 10
356.094495
 20
362.294210
 30
0.0
  0
SPLINE
  5
191
100
AcDbEntity
  8
Mascara
 62
7
100
AcDbSpline
 70
8
 71
3
 72
8
 73
4
 74
0
 40
0
 40
0
 40
0
 40
0
 40
1
 40
1
 40
1
 40
1
 10
356.094495
 20
362.294210
 30
0.0
 10
359.505877
 20
362.748403
 30
0.0
 10
363.750952
 20
362.227760
 30
0.0
 10
366.002655
 20
361.079038
 30
0.0
  0
SPLINE
  5
192
100
AcDbEntity
  8
Mascara
 62
7
100
AcDbSpline
 70
8
 71
3
 72
8
 73
4
 74
0
 40
0
 40
0
 40
0
 40
0
 40
1
 40
1
 40
1
 40
1
 10
366.002655
 20
361.079038
 30
0.0
 10
369.168952
 20
359.463718
 30
0.0
 10
372.833077
 20
352.744363
 30
0.0
 10
375.689700
 20
343.314703
 30
0.0
  0
SPLINE
  5
193
100
AcDbEntity
  8
Mascara
 62
7
100
AcDbSpline
 70
8
 71
3
 72
8
 73
4
 74
0
 40
0
 40
0
 40
0
 40
0
 40
1
 40
1
 40
1
 40
1
 10
375.689700
 20
343.314703
 30
0.0
 10
377.708865
 20
336.649505
 30
0.0
 10
378.579420
 20
330.128113
 30
0.0
 10
378.573157
 20
321.714699
 30
0.0
  0
SPLINE
  5
194
100
AcDbEntity
  8
Mascara
 62
7
100
AcDbSpline
 70
8
 71
3
 72
8
 73
4
 74
0
 40
0
 40
0
 40
0
 40
0
 40
1
 40
1
 40
1
 40
1
 10
378.573157
 20
321.714699
 30
0.0
 10
378.567157
 20
314.003994
 30
0.0
 10
377.950695
 20
308.046045
 30
0.0
 10
376.300042
 20
299.754705
 30
0.0
  0
SPLINE
  5
195
100
AcDbEntity
  8
Mascara
 62
7
100
AcDbSpline
 70
8
 71
3
 72
8
 73
4
 74
0
 40
0
 40
0
 40
0
 40
0
 40
1
 40
1
 40
1
 40
1
 10
376.300042
 20
299.754705
 30
0.0
 10
373.128202
 20
283.822215
 30
0.0
 10
367.578615
 20
268.892550
 30
0.0
 10
360.018900
 20
255.954705
 30
0.0
  0
SPLINE
  5
196
100
AcDbEntity
  8
Mascara
 62
7
100
AcDbSpline
 70
8
 71
3
 72
8
 73
4
 74
0
 40
0
 40
0
 40
0
 40
0
 40
1
 40
1
 40
1
 40
1
 10
360.018900
 20
255.954705
 30
0.0
 10
358.823392
 20
253.908705
 30
0.0
 10
357.726540
 20
251.802705
 30
0.0
 10
357.581437
 20
251.274705
 30
0.0
  0
SPLINE
  5
197
100
AcDbEntity
  8
Mascara
 62
7
100
AcDbSpline
 70
8
 71
3
 72
8
 73
4
 74
0
 40
0
 40
0
 40
0
 40
0
 40
1
 40
1
 40
1
 40
1
 10
357.581437
 20
251.274705
 30
0.0
 10
357.170100
 20
249.777945
 30
0.0
 10
357.450562
 20
247.646460
 30
0.0
 10
358.324260
 20
245.629065
 30
0.0
  0
SPLINE
  5
198
100
AcDbEntity
  8
Mascara
 62
7
100
AcDbSpline
 70
8
 71
3
 72
8
 73
4
 74
0
 40
0
 40
0
 40
0
 40
0
 40
1
 40
1
 40
1
 40
1
 10
358.324260
 20
245.629065
 30
0.0
 10
358.751655
 20
244.642163
 30
0.0
 10
359.621602
 20
242.526585
 30
0.0
 10
360.257482
 20
240.927765
 30
0.0
  0
SPLINE
  5
199
100
AcDbEntity
  8
Mascara
 62
7
100
AcDbSpline
 70
8
 71
3
 72
8
 73
4
 74
0
 40
0
 40
0
 40
0
 40
0
 40
1
 40
1
 40
1
 40
1
 10
360.257482
 20
240.927765
 30
0.0
 10
363.711277
 20
232.243553
 30
0.0
 10
367.721295
 20
226.497683
 30
0.0
 10
373.992855
 20
221.246715
 30
0.0
  0
SPLINE
  5
19a
100
AcDbEntity
  8
Mascara
 62
7
100
AcDbSpline
 70
8
 71
3
 72
8
 73
4
 74
0
 40
0
 40
0
 40
0
 40
0
 40
1
 40
1
 40
1
 40
1
 10
373.992855
 20
221.246715
 30
0.0
 10
383.567242
 20
213.230393
 30
0.0
 10
392.065162
 20
211.673430
 30
0.0
 10
405.978225
 20
215.386455
 30
0.0
  0
SPLINE
  5
19b
100
AcDbEntity
  8
Mascara
 62
7
100
AcDbSpline
 70
8
 71
3
 72
8
 73
4
 74
0
 40
0
 40
0
 40
0
 40
0
 40
1
 40
1
 40
1
 40
1
 10
405.978225
 20
215.386455
 30
0.0
 10
410.326020
 20
216.546765
 30
0.0
 10
413.769922
 20
218.043473
 30
0.0
 10
418.091145
 20
220.650653
 30
0.0
  0
SPLINE
  5
19c
100
AcDbEntity
  8
Mascara
 62
7
100
AcDbSpline
 70
8
 71
3
 72
8
 73
4
 74
0
 40
0
 40
0
 40
0
 40
0
 40
1
 40
1
 40
1
 40
1
 10
418.091145
 20
220.650653
 30
0.0
 10
422.746740
 20
223.459575
 30
0.0
 10
423.763380
 20
222.869378
 30
0.0
 10
424.936425
 20
216.676755
 30
0.0
  0
SPLINE
  5
19d
100
AcDbEntity
  8
Mascara
 62
7
100
AcDbSpline
 70
8
 71
3
 72
8
 73
4
 74
0
 40
0
 40
0
 40
0
 40
0
 40
1
 40
1
 40
1
 40
1
 10
424.936425
 20
216.676755
 30
0.0
 10
427.551660
 20
202.870808
 30
0.0
 10
427.181100
 20
189.122550
 30
0.0
 10
423.839580
 20
175.981283
 30
0.0
  0
SPLINE
  5
19e
100
AcDbEntity
  8
Mascara
 62
7
100
AcDbSpline
 70
8
 71
3
 72
8
 73
4
 74
0
 40
0
 40
0
 40
0
 40
0
 40
1
 40
1
 40
1
 40
1
 10
423.839580
 20
175.981283
 30
0.0
 10
422.099677
 20
169.138733
 30
0.0
 10
417.728527
 20
158.256105
 30
0.0
 10
415.726162
 20
155.781698
 30
0.0
  0
SPLINE
  5
19f
100
AcDbEntity
  8
Mascara
 62
7
100
AcDbSpline
 70
8
 71
3
 72
8
 73
4
 74
0
 40
0
 40
0
 40
0
 40
0
 40
1
 40
1
 40
1
 40
1
 10
415.726162
 20
155.781698
 30
0.0
 10
414.855060
 20
154.705245
 30
0.0
 10
414.769837
 20
153.916005
 30
0.0
 10
415.451145
 20
153.234698
 30
0.0
  0
SPLINE
  5
1a0
100
AcDbEntity
  8
Mascara
 62
7
100
AcDbSpline
 70
8
 71
3
 72
8
 73
4
 74
0
 40
0
 40
0
 40
0
 40
0
 40
1
 40
1
 40
1
 40
1
 10
415.451145
 20
153.234698
 30
0.0
 10
416.080882
 20
152.604968
 30
0.0
 10
416.150767
 20
152.616675
 30
0.0
 10
417.391762
 20
153.559815
 30
0.0
  0
SPLINE
  5
1a1
100
AcDbEntity
  8
Mascara
 62
7
100
AcDbSpline
 70
8
 71
3
 72
8
 73
4
 74
0
 40
0
 40
0
 40
0
 40
0
 40
1
 40
1
 40
1
 40
1
 10
417.391762
 20
153.559815
 30
0.0
 10
418.942837
 20
154.738613
 30
0.0
 10
431.614042
 20
161.634698
 30
0.0
 10
432.228945
 20
161.634698
 30
0.0
  0
SPLINE
  5
1a2
100
AcDbEntity
  8
Mascara
 62
7
100
AcDbSpline
 70
8
 71
3
 72
8
 73
4
 74
0
 40
0
 40
0
 40
0
 40
0
 40
1
 40
1
 40
1
 40
1
 10
432.228945
 20
161.634698
 30
0.0
 10
432.517162
 20
161.634698
 30
0.0
 10
433.028408
 20
161.359260
 30
0.0
 10
433.365037
 20
161.022623
 30
0.0
  0
SPLINE
  5
1a3
100
AcDbEntity
  8
Mascara
 62
7
100
AcDbSpline
 70
8
 71
3
 72
8
 73
4
 74
0
 40
0
 40
0
 40
0
 40
0
 40
1
 40
1
 40
1
 40
1
 10
433.365037
 20
161.022623
 30
0.0
 10
433.841940
 20
160.545735
 30
0.0
 10
433.941825
 20
160.267440
 30
0.0
 10
433.817362
 20
159.762623
 30
0.0
  0
SPLINE
  5
1a4
100
AcDbEntity
  8
Mascara
 62
7
100
AcDbSpline
 70
8
 71
3
 72
8
 73
4
 74
0
 40
0
 40
0
 40
0
 40
0
 40
1
 40
1
 40
1
 40
1
 10
433.817362
 20
159.762623
 30
0.0
 10
433.729522
 20
159.406260
 30
0.0
 10
432.328042
 20
156.630698
 30
0.0
 10
430.702980
 20
153.594698
 30
0.0
  0
SPLINE
  5
1a5
100
AcDbEntity
  8
Mascara
 62
7
100
AcDbSpline
 70
8
 71
3
 72
8
 73
4
 74
0
 40
0
 40
0
 40
0
 40
0
 40
1
 40
1
 40
1
 40
1
 10
430.702980
 20
153.594698
 30
0.0
 10
429.077918
 20
150.558698
 30
0.0
 10
426.262642
 20
145.212698
 30
0.0
 10
424.446825
 20
141.714698
 30
0.0
  0
SPLINE
  5
1a6
100
AcDbEntity
  8
Mascara
 62
7
100
AcDbSpline
 70
8
 71
3
 72
8
 73
4
 74
0
 40
0
 40
0
 40
0
 40
0
 40
1
 40
1
 40
1
 40
1
 10
424.446825
 20
141.714698
 30
0.0
 10
412.647105
 20
118.983743
 30
0.0
 10
405.997237
 20
108.931485
 30
0.0
 10
395.891145
 20
98.548605
 30
0.0
  0
SPLINE
  5
1a7
100
AcDbEntity
  8
Mascara
 62
7
100
AcDbSpline
 70
8
 71
3
 72
8
 73
4
 74
0
 40
0
 40
0
 40
0
 40
0
 40
1
 40
1
 40
1
 40
1
 10
395.891145
 20
98.548605
 30
0.0
 10
386.499922
 20
88.900148
 30
0.0
 10
375.773415
 20
80.488965
 30
0.0
 10
363.690495
 20
73.298468
 30
0.0
  0
SPLINE
  5
1a8
100
AcDbEntity
  8
Mascara
 62
7
100
AcDbSpline
 70
8
 71
3
 72
8
 73
4
 74
0
 40
0
 40
0
 40
0
 40
0
 40
1
 40
1
 40
1
 40
1
 10
363.690495
 20
73.298468
 30
0.0
 10
358.639912
 20
70.292880
 30
0.0
 10
355.227157
 20
68.627138
 30
0.0
 10
348.971152
 20
66.114068
 30
0.0
  0
SPLINE
  5
1a9
100
AcDbEntity
  8
Mascara
 62
7
100
AcDbSpline
 70
8
 71
3
 72
8
 73
4
 74
0
 40
0
 40
0
 40
0
 40
0
 40
1
 40
1
 40
1
 40
1
 10
348.971152
 20
66.114068
 30
0.0
 10
346.265152
 20
65.027040
 30
0.0
 10
342.701152
 20
63.489743
 30
0.0
 10
341.051152
 20
62.697863
 30
0.0
  0
LWPOLYLINE
  5
1aa
100
AcDbEntity
  8
Mascara
 62
7
100
AcDbPolyline
 90
3
 70
0
 10
3.689602
 20
160.252868
 30
0.0
 10
3.971159
 20
161.151045
 30
0.0
 10
8.531159
 20
159.026130
 30
0.0
  0
SPLINE
  5
1ab
100
AcDbEntity
  8
Mascara
 62
7
100
AcDbSpline
 70
8
 71
3
 72
8
 73
4
 74
0
 40
0
 40
0
 40
0
 40
0
 40
1
 40
1
 40
1
 40
1
 10
339.300900
 20
60.675143
 30
0.0
 10
342.227752
 20
59.310045
 30
0.0
 10
345.250522
 20
58.828605
 30
0.0
 10
354.964860
 20
58.180440
 30
0.0
  0
SPLINE
  5
1ac
100
AcDbEntity
  8
Mascara
 62
7
100
AcDbSpline
 70
8
 71
3
 72
8
 73
4
 74
0
 40
0
 40
0
 40
0
 40
0
 40
1
 40
1
 40
1
 40
1
 10
354.964860
 20
58.180440
 30
0.0
 10
357.139380
 20
58.035360
 30
0.0
 10
359.014095
 20
57.857588
 30
0.0
 10
359.130877
 20
57.785423
 30
0.0
  0
SPLINE
  5
1ad
100
AcDbEntity
  8
Mascara
 62
7
100
AcDbSpline
 70
8
 71
3
 72
8
 73
4
 74
0
 40
0
 40
0
 40
0
 40
0
 40
1
 40
1
 40
1
 40
1
 10
359.130877
 20
57.785423
 30
0.0
 10
359.407260
 20
57.614610
 30
0.0
 10
358.390575
 20
56.779823
 30
0.0
 10
356.255175
 20
55.424250
 30
0.0
  0
SPLINE
  5
1ae
100
AcDbEntity
  8
Mascara
 62
7
100
AcDbSpline
 70
8
 71
3
 72
8
 73
4
 74
0
 40
0
 40
0
 40
0
 40
0
 40
1
 40
1
 40
1
 40
1
 10
356.255175
 20
55.424250
 30
0.0
 10
354.740700
 20
54.462885
 30
0.0
 10
350.856157
 20
52.749908
 30
0.0
 10
342.851153
 20
49.513485
 30
0.0
  0
SPLINE
  5
1af
100
AcDbEntity
  8
Mascara
 62
7
100
AcDbSpline
 70
8
 71
3
 72
8
 73
4
 74
0
 40
0
 40
0
 40
0
 40
0
 40
1
 40
1
 40
1
 40
1
 10
342.851153
 20
49.513485
 30
0.0
 10
325.092420
 20
42.333623
 30
0.0
 10
307.719495
 20
39.089663
 30
0.0
 10
291.861855
 20
39.992513
 30
0.0
  0
SPLINE
  5
1b0
100
AcDbEntity
  8
Mascara
 62
7
100
AcDbSpline
 70
8
 71
3
 72
8
 73
4
 74
0
 40
0
 40
0
 40
0
 40
0
 40
1
 40
1
 40
1
 40
1
 10
291.861855
 20
39.992513
 30
0.0
 10
279.357450
 20
40.704428
 30
0.0
 10
272.929627
 20
40.108005
 30
0.0
 10
266.531152
 20
37.642125
 30
0.0
  0
SPLINE
  5
1b1
100
AcDbEntity
  8
Mascara
 62
7
100
AcDbSpline
 70
8
 71
3
 72
8
 73
4
 74
0
 40
0
 40
0
 40
0
 40
0
 40
1
 40
1
 40
1
 40
1
 10
266.531152
 20
37.642125
 30
0.0
 10
263.040548
 20
36.296873
 30
0.0
 10
259.726027
 20
34.336965
 30
0.0
 10
257.039535
 20
32.029583
 30
0.0
  0
SPLINE
  5
1b2
100
AcDbEntity
  8
Mascara
 62
7
100
AcDbSpline
 70
8
 71
3
 72
8
 73
4
 74
0
 40
0
 40
0
 40
0
 40
0
 40
1
 40
1
 40
1
 40
1
 10
257.039535
 20
32.029583
 30
0.0
 10
255.110032
 20
30.372383
 30
0.0
 10
254.063587
 20
29.712953
 30
0.0
 10
253.066433
 20
29.525873
 30
0.0
  0
SPLINE
  5
1b3
100
AcDbEntity
  8
Mascara
 62
7
100
AcDbSpline
 70
8
 71
3
 72
8
 73
4
 74
0
 40
0
 40
0
 40
0
 40
0
 40
1
 40
1
 40
1
 40
1
 10
253.066433
 20
29.525873
 30
0.0
 10
252.306285
 20
29.383290
 30
0.0
 10
251.885565
 20
29.519123
 30
0.0
 10
249.998325
 20
30.517650
 30
0.0
  0
LWPOLYLINE
  5
1b4
100
AcDbEntity
  8
Mascara
 62
7
100
AcDbPolyline
 90
3
 70
0
 10
341.051152
 20
62.697863
 30
0.0
 10
338.051152
 20
61.258028
 30
0.0
 10
339.300900
 20
60.675143
 30
0.0
  0
SPLINE
  5
1b5
100
AcDbEntity
  8
Mascara
 62
7
100
AcDbSpline
 70
8
 71
3
 72
8
 73
4
 74
0
 40
0
 40
0
 40
0
 40
0
 40
1
 40
1
 40
1
 40
1
 10
245.291153
 20
31.674690
 30
0.0
 10
242.817045
 20
31.674690
 30
0.0
 10
242.683748
 20
31.645290
 30
0.0
 10
237.971153
 20
30.061223
 30
0.0
  0
SPLINE
  5
1b6
100
AcDbEntity
  8
Mascara
 62
7
100
AcDbSpline
 70
8
 71
3
 72
8
 73
4
 74
0
 40
0
 40
0
 40
0
 40
0
 40
1
 40
1
 40
1
 40
1
 10
237.971153
 20
30.061223
 30
0.0
 10
229.471965
 20
27.204308
 30
0.0
 10
224.858565
 20
26.281823
 30
0.0
 10
218.411160
 20
26.150010
 30
0.0
  0
SPLINE
  5
1b7
100
AcDbEntity
  8
Mascara
 62
7
100
AcDbSpline
 70
8
 71
3
 72
8
 73
4
 74
0
 40
0
 40
0
 40
0
 40
0
 40
1
 40
1
 40
1
 40
1
 10
218.411160
 20
26.150010
 30
0.0
 10
216.101160
 20
26.102760
 30
0.0
 10
213.410918
 20
26.164410
 30
0.0
 10
212.432850
 20
26.286743
 30
0.0
  0
LWPOLYLINE
  5
1b8
100
AcDbEntity
  8
Mascara
 62
7
100
AcDbPolyline
 90
3
 70
0
 10
249.998325
 20
30.517650
 30
0.0
 10
247.811153
 20
31.674690
 30
0.0
 10
245.291153
 20
31.674690
 30
0.0
  0
SPLINE
  5
1b9
100
AcDbEntity
  8
Mascara
 62
7
100
AcDbSpline
 70
8
 71
3
 72
8
 73
4
 74
0
 40
0
 40
0
 40
0
 40
0
 40
1
 40
1
 40
1
 40
1
 10
187.553722
 20
36.348045
 30
0.0
 10
188.445675
 20
36.687165
 30
0.0
 10
190.178205
 20
38.359890
 30
0.0
 10
191.385225
 20
40.047263
 30
0.0
  0
SPLINE
  5
1ba
100
AcDbEntity
  8
Mascara
 62
7
100
AcDbSpline
 70
8
 71
3
 72
8
 73
4
 74
0
 40
0
 40
0
 40
0
 40
0
 40
1
 40
1
 40
1
 40
1
 10
191.385225
 20
40.047263
 30
0.0
 10
194.166367
 20
43.935240
 30
0.0
 10
198.203437
 20
46.676640
 30
0.0
 10
203.979292
 20
48.599370
 30
0.0
  0
SPLINE
  5
1bb
100
AcDbEntity
  8
Mascara
 62
7
100
AcDbSpline
 70
8
 71
3
 72
8
 73
4
 74
0
 40
0
 40
0
 40
0
 40
0
 40
1
 40
1
 40
1
 40
1
 10
203.979292
 20
48.599370
 30
0.0
 10
215.471280
 20
52.424948
 30
0.0
 10
229.500502
 20
51.577508
 30
0.0
 10
239.781892
 20
46.436708
 30
0.0
  0
SPLINE
  5
1bc
100
AcDbEntity
  8
Mascara
 62
7
100
AcDbSpline
 70
8
 71
3
 72
8
 73
4
 74
0
 40
0
 40
0
 40
0
 40
0
 40
1
 40
1
 40
1
 40
1
 10
239.781892
 20
46.436708
 30
0.0
 10
243.800595
 20
44.427308
 30
0.0
 10
247.107075
 20
41.678445
 30
0.0
 10
249.816045
 20
38.094690
 30
0.0
  0
SPLINE
  5
1bd
100
AcDbEntity
  8
Mascara
 62
7
100
AcDbSpline
 70
8
 71
3
 72
8
 73
4
 74
0
 40
0
 40
0
 40
0
 40
0
 40
1
 40
1
 40
1
 40
1
 10
249.816045
 20
38.094690
 30
0.0
 10
250.951605
 20
36.592463
 30
0.0
 10
251.450040
 20
36.114690
 30
0.0
 10
251.881680
 20
36.114690
 30
0.0
  0
SPLINE
  5
1be
100
AcDbEntity
  8
Mascara
 62
7
100
AcDbSpline
 70
8
 71
3
 72
8
 73
4
 74
0
 40
0
 40
0
 40
0
 40
0
 40
1
 40
1
 40
1
 40
1
 10
251.881680
 20
36.114690
 30
0.0
 10
252.541297
 20
36.114690
 30
0.0
 10
257.420400
 20
39.281250
 30
0.0
 10
259.669320
 20
41.168925
 30
0.0
  0
SPLINE
  5
1bf
100
AcDbEntity
  8
Mascara
 62
7
100
AcDbSpline
 70
8
 71
3
 72
8
 73
4
 74
0
 40
0
 40
0
 40
0
 40
0
 40
1
 40
1
 40
1
 40
1
 10
259.669320
 20
41.168925
 30
0.0
 10
263.163720
 20
44.101988
 30
0.0
 10
265.156822
 20
47.415023
 30
0.0
 10
266.879902
 20
53.154690
 30
0.0
  0
SPLINE
  5
1c0
100
AcDbEntity
  8
Mascara
 62
7
100
AcDbSpline
 70
8
 71
3
 72
8
 73
4
 74
0
 40
0
 40
0
 40
0
 40
0
 40
1
 40
1
 40
1
 40
1
 10
266.879902
 20
53.154690
 30
0.0
 10
271.706857
 20
69.233640
 30
0.0
 10
271.673280
 20
86.035148
 30
0.0
 10
266.776005
 20
105.129578
 30
0.0
  0
SPLINE
  5
1c1
100
AcDbEntity
  8
Mascara
 62
7
100
AcDbSpline
 70
8
 71
3
 72
8
 73
4
 74
0
 40
0
 40
0
 40
0
 40
0
 40
1
 40
1
 40
1
 40
1
 10
266.776005
 20
105.129578
 30
0.0
 10
264.301440
 20
114.777885
 30
0.0
 10
260.038537
 20
123.473978
 30
0.0
 10
254.253555
 20
130.674698
 30
0.0
  0
SPLINE
  5
1c2
100
AcDbEntity
  8
Mascara
 62
7
100
AcDbSpline
 70
8
 71
3
 72
8
 73
4
 74
0
 40
0
 40
0
 40
0
 40
0
 40
1
 40
1
 40
1
 40
1
 10
254.253555
 20
130.674698
 30
0.0
 10
250.778182
 20
135.000578
 30
0.0
 10
244.862662
 20
140.388960
 30
0.0
 10
239.823982
 20
143.818470
 30
0.0
  0
SPLINE
  5
1c3
100
AcDbEntity
  8
Mascara
 62
7
100
AcDbSpline
 70
8
 71
3
 72
8
 73
4
 74
0
 40
0
 40
0
 40
0
 40
0
 40
1
 40
1
 40
1
 40
1
 10
239.823982
 20
143.818470
 30
0.0
 10
238.731022
 20
144.562395
 30
0.0
 10
237.889057
 20
145.284360
 30
0.0
 10
237.952943
 20
145.422870
 30
0.0
  0
SPLINE
  5
1c4
100
AcDbEntity
  8
Mascara
 62
7
100
AcDbSpline
 70
8
 71
3
 72
8
 73
4
 74
0
 40
0
 40
0
 40
0
 40
0
 40
1
 40
1
 40
1
 40
1
 10
237.952943
 20
145.422870
 30
0.0
 10
238.016842
 20
145.561373
 30
0.0
 10
238.450253
 20
146.592698
 30
0.0
 10
238.916115
 20
147.714698
 30
0.0
  0
SPLINE
  5
1c5
100
AcDbEntity
  8
Mascara
 62
7
100
AcDbSpline
 70
8
 71
3
 72
8
 73
4
 74
0
 40
0
 40
0
 40
0
 40
0
 40
1
 40
1
 40
1
 40
1
 10
238.916115
 20
147.714698
 30
0.0
 10
240.567675
 20
151.692495
 30
0.0
 10
240.107213
 20
152.327730
 30
0.0
 10
234.371183
 20
153.984578
 30
0.0
  0
SPLINE
  5
1c6
100
AcDbEntity
  8
Mascara
 62
7
100
AcDbSpline
 70
8
 71
3
 72
8
 73
4
 74
0
 40
0
 40
0
 40
0
 40
0
 40
1
 40
1
 40
1
 40
1
 10
234.371183
 20
153.984578
 30
0.0
 10
224.859682
 20
156.731978
 30
0.0
 10
215.379082
 20
156.758115
 30
0.0
 10
205.549207
 20
154.064040
 30
0.0
  0
SPLINE
  5
1c7
100
AcDbEntity
  8
Mascara
 62
7
100
AcDbSpline
 70
8
 71
3
 72
8
 73
4
 74
0
 40
0
 40
0
 40
0
 40
0
 40
1
 40
1
 40
1
 40
1
 10
205.549207
 20
154.064040
 30
0.0
 10
202.533225
 20
153.237450
 30
0.0
 10
200.974148
 20
152.593020
 30
0.0
 10
200.443515
 20
151.953653
 30
0.0
  0
SPLINE
  5
1c8
100
AcDbEntity
  8
Mascara
 62
7
100
AcDbSpline
 70
8
 71
3
 72
8
 73
4
 74
0
 40
0
 40
0
 40
0
 40
0
 40
1
 40
1
 40
1
 40
1
 10
200.443515
 20
151.953653
 30
0.0
 10
199.837920
 20
151.223963
 30
0.0
 10
199.863862
 20
149.968643
 30
0.0
 10
200.533298
 20
147.608993
 30
0.0
  0
SPLINE
  5
1c9
100
AcDbEntity
  8
Mascara
 62
7
100
AcDbSpline
 70
8
 71
3
 72
8
 73
4
 74
0
 40
0
 40
0
 40
0
 40
0
 40
1
 40
1
 40
1
 40
1
 10
200.533298
 20
147.608993
 30
0.0
 10
200.894565
 20
146.335560
 30
0.0
 10
201.149887
 20
145.262333
 30
0.0
 10
201.100665
 20
145.224030
 30
0.0
  0
SPLINE
  5
1ca
100
AcDbEntity
  8
Mascara
 62
7
100
AcDbSpline
 70
8
 71
3
 72
8
 73
4
 74
0
 40
0
 40
0
 40
0
 40
0
 40
1
 40
1
 40
1
 40
1
 10
201.100665
 20
145.224030
 30
0.0
 10
201.051465
 20
145.185705
 30
0.0
 10
199.844415
 20
144.542550
 30
0.0
 10
198.418365
 20
143.794778
 30
0.0
  0
SPLINE
  5
1cb
100
AcDbEntity
  8
Mascara
 62
7
100
AcDbSpline
 70
8
 71
3
 72
8
 73
4
 74
0
 40
0
 40
0
 40
0
 40
0
 40
1
 40
1
 40
1
 40
1
 10
198.418365
 20
143.794778
 30
0.0
 10
187.687215
 20
138.167640
 30
0.0
 10
179.742922
 20
128.957303
 30
0.0
 10
174.631815
 20
116.217480
 30
0.0
  0
SPLINE
  5
1cc
100
AcDbEntity
  8
Mascara
 62
7
100
AcDbSpline
 70
8
 71
3
 72
8
 73
4
 74
0
 40
0
 40
0
 40
0
 40
0
 40
1
 40
1
 40
1
 40
1
 10
174.631815
 20
116.217480
 30
0.0
 10
171.201285
 20
107.666618
 30
0.0
 10
168.754492
 20
98.055383
 30
0.0
 10
167.620072
 20
88.674698
 30
0.0
  0
SPLINE
  5
1cd
100
AcDbEntity
  8
Mascara
 62
7
100
AcDbSpline
 70
8
 71
3
 72
8
 73
4
 74
0
 40
0
 40
0
 40
0
 40
0
 40
1
 40
1
 40
1
 40
1
 10
167.620072
 20
88.674698
 30
0.0
 10
167.042970
 20
83.902583
 30
0.0
 10
167.040615
 20
74.281148
 30
0.0
 10
167.615572
 20
69.474698
 30
0.0
  0
SPLINE
  5
1ce
100
AcDbEntity
  8
Mascara
 62
7
100
AcDbSpline
 70
8
 71
3
 72
8
 73
4
 74
0
 40
0
 40
0
 40
0
 40
0
 40
1
 40
1
 40
1
 40
1
 10
167.615572
 20
69.474698
 30
0.0
 10
169.199145
 20
56.231805
 30
0.0
 10
171.783075
 20
49.059330
 30
0.0
 10
177.164205
 20
42.969623
 30
0.0
  0
SPLINE
  5
1cf
100
AcDbEntity
  8
Mascara
 62
7
100
AcDbSpline
 70
8
 71
3
 72
8
 73
4
 74
0
 40
0
 40
0
 40
0
 40
0
 40
1
 40
1
 40
1
 40
1
 10
177.164205
 20
42.969623
 30
0.0
 10
178.971982
 20
40.923788
 30
0.0
 10
182.932665
 20
37.571543
 30
0.0
 10
184.420388
 20
36.828113
 30
0.0
  0
SPLINE
  5
1d0
100
AcDbEntity
  8
Mascara
 62
7
100
AcDbSpline
 70
8
 71
3
 72
8
 73
4
 74
0
 40
0
 40
0
 40
0
 40
0
 40
1
 40
1
 40
1
 40
1
 10
184.420388
 20
36.828113
 30
0.0
 10
185.937862
 20
36.069810
 30
0.0
 10
186.568155
 20
35.973263
 30
0.0
 10
187.553932
 20
36.348045
 30
0.0
  0
LWPOLYLINE
  5
1d1
100
AcDbEntity
  8
Mascara
 62
7
100
AcDbPolyline
 90
1
 70
1
 10
212.432850
 20
26.286743
 30
0.0
  0
SPLINE
  5
1d2
100
AcDbEntity
  8
Mascara
 62
7
100
AcDbSpline
 70
8
 71
3
 72
8
 73
4
 74
0
 40
0
 40
0
 40
0
 40
0
 40
1
 40
1
 40
1
 40
1
 10
217.931190
 20
59.017103
 30
0.0
 10
212.710335
 20
60.464925
 30
0.0
 10
206.327640
 20
65.938245
 30
0.0
 10
203.198872
 20
71.650440
 30
0.0
  0
SPLINE
  5
1d3
100
AcDbEntity
  8
Mascara
 62
7
100
AcDbSpline
 70
8
 71
3
 72
8
 73
4
 74
0
 40
0
 40
0
 40
0
 40
0
 40
1
 40
1
 40
1
 40
1
 10
203.198872
 20
71.650440
 30
0.0
 10
200.915617
 20
75.819000
 30
0.0
 10
200.719853
 20
79.525778
 30
0.0
 10
202.589415
 20
83.190428
 30
0.0
  0
SPLINE
  5
1d4
100
AcDbEntity
  8
Mascara
 62
7
100
AcDbSpline
 70
8
 71
3
 72
8
 73
4
 74
0
 40
0
 40
0
 40
0
 40
0
 40
1
 40
1
 40
1
 40
1
 10
202.589415
 20
83.190428
 30
0.0
 10
203.390887
 20
84.761445
 30
0.0
 10
205.375372
 20
86.907548
 30
0.0
 10
207.056437
 20
88.021245
 30
0.0
  0
SPLINE
  5
1d5
100
AcDbEntity
  8
Mascara
 62
7
100
AcDbSpline
 70
8
 71
3
 72
8
 73
4
 74
0
 40
0
 40
0
 40
0
 40
0
 40
1
 40
1
 40
1
 40
1
 10
207.056437
 20
88.021245
 30
0.0
 10
209.013600
 20
89.317845
 30
0.0
 10
209.927737
 20
89.716725
 30
0.0
 10
212.771190
 20
90.514868
 30
0.0
  0
SPLINE
  5
1d6
100
AcDbEntity
  8
Mascara
 62
7
100
AcDbSpline
 70
8
 71
3
 72
8
 73
4
 74
0
 40
0
 40
0
 40
0
 40
0
 40
1
 40
1
 40
1
 40
1
 10
212.771190
 20
90.514868
 30
0.0
 10
215.729632
 20
91.345298
 30
0.0
 10
221.889862
 20
91.577280
 30
0.0
 10
224.882175
 20
90.970942
 30
0.0
  0
SPLINE
  5
1d7
100
AcDbEntity
  8
Mascara
 62
7
100
AcDbSpline
 70
8
 71
3
 72
8
 73
4
 74
0
 40
0
 40
0
 40
0
 40
0
 40
1
 40
1
 40
1
 40
1
 10
224.882175
 20
90.970942
 30
0.0
 10
230.690738
 20
89.793983
 30
0.0
 10
235.213057
 20
86.725867
 30
0.0
 10
237.268035
 20
82.567920
 30
0.0
  0
SPLINE
  5
1d8
100
AcDbEntity
  8
Mascara
 62
7
100
AcDbSpline
 70
8
 71
3
 72
8
 73
4
 74
0
 40
0
 40
0
 40
0
 40
0
 40
1
 40
1
 40
1
 40
1
 10
237.268035
 20
82.567920
 30
0.0
 10
238.074023
 20
80.937120
 30
0.0
 10
238.197720
 20
80.454142
 30
0.0
 10
238.286835
 20
78.590228
 30
0.0
  0
SPLINE
  5
1d9
100
AcDbEntity
  8
Mascara
 62
7
100
AcDbSpline
 70
8
 71
3
 72
8
 73
4
 74
0
 40
0
 40
0
 40
0
 40
0
 40
1
 40
1
 40
1
 40
1
 10
238.286835
 20
78.590228
 30
0.0
 10
238.367018
 20
76.913138
 30
0.0
 10
238.283835
 20
76.123703
 30
0.0
 10
237.888023
 20
74.821748
 30
0.0
  0
SPLINE
  5
1da
100
AcDbEntity
  8
Mascara
 62
7
100
AcDbSpline
 70
8
 71
3
 72
8
 73
4
 74
0
 40
0
 40
0
 40
0
 40
0
 40
1
 40
1
 40
1
 40
1
 10
237.888023
 20
74.821748
 30
0.0
 10
237.339893
 20
73.017120
 30
0.0
 10
235.954942
 20
70.719788
 30
0.0
 10
234.736875
 20
69.594698
 30
0.0
  0
SPLINE
  5
1db
100
AcDbEntity
  8
Mascara
 62
7
100
AcDbSpline
 70
8
 71
3
 72
8
 73
4
 74
0
 40
0
 40
0
 40
0
 40
0
 40
1
 40
1
 40
1
 40
1
 10
234.736875
 20
69.594698
 30
0.0
 10
234.308160
 20
69.198698
 30
0.0
 10
233.059560
 20
67.787978
 30
0.0
 10
231.962213
 20
66.459743
 30
0.0
  0
SPLINE
  5
1dc
100
AcDbEntity
  8
Mascara
 62
7
100
AcDbSpline
 70
8
 71
3
 72
8
 73
4
 74
0
 40
0
 40
0
 40
0
 40
0
 40
1
 40
1
 40
1
 40
1
 10
231.962213
 20
66.459743
 30
0.0
 10
226.833195
 20
60.251588
 30
0.0
 10
222.248708
 20
57.819810
 30
0.0
 10
217.931190
 20
59.017103
 30
0.0
  0
LWPOLYLINE
  5
1dd
100
AcDbEntity
  8
Mascara
 62
7
100
AcDbPolyline
 90
2
 70
0
 10
187.553932
 20
36.348045
 30
0.0
 10
187.553722
 20
36.348045
 30
0.0
  0
SPLINE
  5
1de
100
AcDbEntity
  8
Mascara
 62
7
100
AcDbSpline
 70
8
 71
3
 72
8
 73
4
 74
0
 40
0
 40
0
 40
0
 40
0
 40
1
 40
1
 40
1
 40
1
 10
224.007090
 20
77.749658
 30
0.0
 10
227.206253
 20
78.427508
 30
0.0
 10
228.594052
 20
79.735680
 30
0.0
 10
228.594052
 20
82.073378
 30
0.0
  0
SPLINE
  5
1df
100
AcDbEntity
  8
Mascara
 62
7
100
AcDbSpline
 70
8
 71
3
 72
8
 73
4
 74
0
 40
0
 40
0
 40
0
 40
0
 40
1
 40
1
 40
1
 40
1
 10
228.594052
 20
82.073378
 30
0.0
 10
228.594052
 20
85.453605
 30
0.0
 10
225.342832
 20
86.951618
 30
0.0
 10
218.559127
 20
86.696978
 30
0.0
  0
SPLINE
  5
1e0
100
AcDbEntity
  8
Mascara
 62
7
100
AcDbSpline
 70
8
 71
3
 72
8
 73
4
 74
0
 40
0
 40
0
 40
0
 40
0
 40
1
 40
1
 40
1
 40
1
 10
218.559127
 20
86.696978
 30
0.0
 10
213.989430
 20
86.525445
 30
0.0
 10
212.261820
 20
85.779045
 30
0.0
 10
211.342642
 20
83.579138
 30
0.0
  0
SPLINE
  5
1e1
100
AcDbEntity
  8
Mascara
 62
7
100
AcDbSpline
 70
8
 71
3
 72
8
 73
4
 74
0
 40
0
 40
0
 40
0
 40
0
 40
1
 40
1
 40
1
 40
1
 10
211.342642
 20
83.579138
 30
0.0
 10
210.536407
 20
81.649538
 30
0.0
 10
211.282342
 20
79.375298
 30
0.0
 10
213.011190
 20
78.492045
 30
0.0
  0
SPLINE
  5
1e2
100
AcDbEntity
  8
Mascara
 62
7
100
AcDbSpline
 70
8
 71
3
 72
8
 73
4
 74
0
 40
0
 40
0
 40
0
 40
0
 40
1
 40
1
 40
1
 40
1
 10
213.011190
 20
78.492045
 30
0.0
 10
215.048670
 20
77.451143
 30
0.0
 10
220.773907
 20
77.064600
 30
0.0
 10
224.007090
 20
77.749658
 30
0.0
  0
LWPOLYLINE
  5
1e3
100
AcDbEntity
  8
Mascara
 62
7
100
AcDbPolyline
 90
1
 70
1
 10
217.931190
 20
59.017103
 30
0.0
  0
SPLINE
  5
1e4
100
AcDbEntity
  8
Mascara
 62
7
100
AcDbSpline
 70
8
 71
3
 72
8
 73
4
 74
0
 40
0
 40
0
 40
0
 40
0
 40
1
 40
1
 40
1
 40
1
 10
154.211190
 20
49.099080
 30
0.0
 10
161.516692
 20
49.519965
 30
0.0
 10
162.731190
 20
49.795800
 30
0.0
 10
162.731190
 20
51.034103
 30
0.0
  0
SPLINE
  5
1e5
100
AcDbEntity
  8
Mascara
 62
7
100
AcDbSpline
 70
8
 71
3
 72
8
 73
4
 74
0
 40
0
 40
0
 40
0
 40
0
 40
1
 40
1
 40
1
 40
1
 10
162.731190
 20
51.034103
 30
0.0
 10
162.731190
 20
51.278850
 30
0.0
 10
162.307897
 20
52.477125
 30
0.0
 10
161.790540
 20
53.696903
 30
0.0
  0
SPLINE
  5
1e6
100
AcDbEntity
  8
Mascara
 62
7
100
AcDbSpline
 70
8
 71
3
 72
8
 73
4
 74
0
 40
0
 40
0
 40
0
 40
0
 40
1
 40
1
 40
1
 40
1
 10
161.790540
 20
53.696903
 30
0.0
 10
161.273183
 20
54.916680
 30
0.0
 10
160.140645
 20
57.876503
 30
0.0
 10
159.273795
 20
60.274245
 30
0.0
  0
SPLINE
  5
1e7
100
AcDbEntity
  8
Mascara
 62
7
100
AcDbSpline
 70
8
 71
3
 72
8
 73
4
 74
0
 40
0
 40
0
 40
0
 40
0
 40
1
 40
1
 40
1
 40
1
 10
159.273795
 20
60.274245
 30
0.0
 10
157.293968
 20
65.750565
 30
0.0
 10
156.338070
 20
67.849965
 30
0.0
 10
154.711073
 20
70.295108
 30
0.0
  0
SPLINE
  5
1e8
100
AcDbEntity
  8
Mascara
 62
7
100
AcDbSpline
 70
8
 71
3
 72
8
 73
4
 74
0
 40
0
 40
0
 40
0
 40
0
 40
1
 40
1
 40
1
 40
1
 10
154.711073
 20
70.295108
 30
0.0
 10
152.574825
 20
73.505618
 30
0.0
 10
150.490905
 20
75.236303
 30
0.0
 10
144.371190
 20
78.882308
 30
0.0
  0
SPLINE
  5
1e9
100
AcDbEntity
  8
Mascara
 62
7
100
AcDbSpline
 70
8
 71
3
 72
8
 73
4
 74
0
 40
0
 40
0
 40
0
 40
0
 40
1
 40
1
 40
1
 40
1
 10
144.371190
 20
78.882308
 30
0.0
 10
138.302077
 20
82.498200
 30
0.0
 10
132.613673
 20
85.328708
 30
0.0
 10
126.731190
 20
87.659903
 30
0.0
  0
SPLINE
  5
1ea
100
AcDbEntity
  8
Mascara
 62
7
100
AcDbSpline
 70
8
 71
3
 72
8
 73
4
 74
0
 40
0
 40
0
 40
0
 40
0
 40
1
 40
1
 40
1
 40
1
 10
126.731190
 20
87.659903
 30
0.0
 10
125.081190
 20
88.313783
 30
0.0
 10
115.685190
 20
91.512818
 30
0.0
 10
105.851190
 20
94.768898
 30
0.0
  0
SPLINE
  5
1eb
100
AcDbEntity
  8
Mascara
 62
7
100
AcDbSpline
 70
8
 71
3
 72
8
 73
4
 74
0
 40
0
 40
0
 40
0
 40
0
 40
1
 40
1
 40
1
 40
1
 10
105.851190
 20
94.768898
 30
0.0
 10
96.017190
 20
98.024978
 30
0.0
 10
86.407312
 20
101.280458
 30
0.0
 10
84.495900
 20
102.003315
 30
0.0
  0
SPLINE
  5
1ec
100
AcDbEntity
  8
Mascara
 62
7
100
AcDbSpline
 70
8
 71
3
 72
8
 73
4
 74
0
 40
0
 40
0
 40
0
 40
0
 40
1
 40
1
 40
1
 40
1
 10
84.495900
 20
102.003315
 30
0.0
 10
76.893255
 20
104.878418
 30
0.0
 10
71.361416
 20
108.284685
 30
0.0
 10
63.539044
 20
114.907635
 30
0.0
  0
SPLINE
  5
1ed
100
AcDbEntity
  8
Mascara
 62
7
100
AcDbSpline
 70
8
 71
3
 72
8
 73
4
 74
0
 40
0
 40
0
 40
0
 40
0
 40
1
 40
1
 40
1
 40
1
 10
63.539044
 20
114.907635
 30
0.0
 10
61.050926
 20
117.014235
 30
0.0
 10
60.002269
 20
118.185173
 30
0.0
 10
60.014861
 20
118.842773
 30
0.0
  0
SPLINE
  5
1ee
100
AcDbEntity
  8
Mascara
 62
7
100
AcDbSpline
 70
8
 71
3
 72
8
 73
4
 74
0
 40
0
 40
0
 40
0
 40
0
 40
1
 40
1
 40
1
 40
1
 10
60.014861
 20
118.842773
 30
0.0
 10
60.035111
 20
119.901293
 30
0.0
 10
62.237434
 20
120.352200
 30
0.0
 10
68.531186
 20
120.586440
 30
0.0
  0
SPLINE
  5
1ef
100
AcDbEntity
  8
Mascara
 62
7
100
AcDbSpline
 70
8
 71
3
 72
8
 73
4
 74
0
 40
0
 40
0
 40
0
 40
0
 40
1
 40
1
 40
1
 40
1
 10
68.531186
 20
120.586440
 30
0.0
 10
72.958091
 20
120.751223
 30
0.0
 10
74.040229
 20
120.864698
 30
0.0
 10
75.228765
 20
121.288823
 30
0.0
  0
SPLINE
  5
1f0
100
AcDbEntity
  8
Mascara
 62
7
100
AcDbSpline
 70
8
 71
3
 72
8
 73
4
 74
0
 40
0
 40
0
 40
0
 40
0
 40
1
 40
1
 40
1
 40
1
 10
75.228765
 20
121.288823
 30
0.0
 10
76.008427
 20
121.567058
 30
0.0
 10
76.939583
 20
121.794698
 30
0.0
 10
77.297992
 20
121.794698
 30
0.0
  0
SPLINE
  5
1f1
100
AcDbEntity
  8
Mascara
 62
7
100
AcDbSpline
 70
8
 71
3
 72
8
 73
4
 74
0
 40
0
 40
0
 40
0
 40
0
 40
1
 40
1
 40
1
 40
1
 10
77.297992
 20
121.794698
 30
0.0
 10
79.072545
 20
121.794698
 30
0.0
 10
82.817085
 20
123.051315
 30
0.0
 10
86.591190
 20
124.913355
 30
0.0
  0
SPLINE
  5
1f2
100
AcDbEntity
  8
Mascara
 62
7
100
AcDbSpline
 70
8
 71
3
 72
8
 73
4
 74
0
 40
0
 40
0
 40
0
 40
0
 40
1
 40
1
 40
1
 40
1
 10
86.591190
 20
124.913355
 30
0.0
 10
88.736190
 20
125.971635
 30
0.0
 10
90.491190
 20
126.947280
 30
0.0
 10
90.491190
 20
127.081463
 30
0.0
  0
SPLINE
  5
1f3
100
AcDbEntity
  8
Mascara
 62
7
100
AcDbSpline
 70
8
 71
3
 72
8
 73
4
 74
0
 40
0
 40
0
 40
0
 40
0
 40
1
 40
1
 40
1
 40
1
 10
90.491190
 20
127.081463
 30
0.0
 10
90.491190
 20
127.676213
 30
0.0
 10
88.442602
 20
129.455760
 30
0.0
 10
86.535435
 20
130.517738
 30
0.0
  0
SPLINE
  5
1f4
100
AcDbEntity
  8
Mascara
 62
7
100
AcDbSpline
 70
8
 71
3
 72
8
 73
4
 74
0
 40
0
 40
0
 40
0
 40
0
 40
1
 40
1
 40
1
 40
1
 10
86.535435
 20
130.517738
 30
0.0
 10
80.845597
 20
133.686023
 30
0.0
 10
75.965917
 20
137.465138
 30
0.0
 10
70.560371
 20
142.889835
 30
0.0
  0
SPLINE
  5
1f5
100
AcDbEntity
  8
Mascara
 62
7
100
AcDbSpline
 70
8
 71
3
 72
8
 73
4
 74
0
 40
0
 40
0
 40
0
 40
0
 40
1
 40
1
 40
1
 40
1
 10
70.560371
 20
142.889835
 30
0.0
 10
61.491026
 20
151.991265
 30
0.0
 10
57.148718
 20
159.007523
 30
0.0
 10
54.616177
 20
168.652298
 30
0.0
  0
SPLINE
  5
1f6
100
AcDbEntity
  8
Mascara
 62
7
100
AcDbSpline
 70
8
 71
3
 72
8
 73
4
 74
0
 40
0
 40
0
 40
0
 40
0
 40
1
 40
1
 40
1
 40
1
 10
54.616177
 20
168.652298
 30
0.0
 10
53.163615
 20
174.184118
 30
0.0
 10
52.356285
 20
180.281423
 30
0.0
 10
51.967417
 20
188.656748
 30
0.0
  0
SPLINE
  5
1f7
100
AcDbEntity
  8
Mascara
 62
7
100
AcDbSpline
 70
8
 71
3
 72
8
 73
4
 74
0
 40
0
 40
0
 40
0
 40
0
 40
1
 40
1
 40
1
 40
1
 10
51.967417
 20
188.656748
 30
0.0
 10
51.764040
 20
193.037220
 30
0.0
 10
51.932693
 20
194.163870
 30
0.0
 10
52.943347
 20
195.174705
 30
0.0
  0
SPLINE
  5
1f8
100
AcDbEntity
  8
Mascara
 62
7
100
AcDbSpline
 70
8
 71
3
 72
8
 73
4
 74
0
 40
0
 40
0
 40
0
 40
0
 40
1
 40
1
 40
1
 40
1
 10
52.943347
 20
195.174705
 30
0.0
 10
53.952300
 20
196.183860
 30
0.0
 10
54.575857
 20
196.179405
 30
0.0
 10
58.115812
 20
195.137730
 30
0.0
  0
SPLINE
  5
1f9
100
AcDbEntity
  8
Mascara
 62
7
100
AcDbSpline
 70
8
 71
3
 72
8
 73
4
 74
0
 40
0
 40
0
 40
0
 40
0
 40
1
 40
1
 40
1
 40
1
 10
58.115812
 20
195.137730
 30
0.0
 10
63.887471
 20
193.439393
 30
0.0
 10
68.111426
 20
192.834675
 30
0.0
 10
74.202874
 20
192.834675
 30
0.0
  0
SPLINE
  5
1fa
100
AcDbEntity
  8
Mascara
 62
7
100
AcDbSpline
 70
8
 71
3
 72
8
 73
4
 74
0
 40
0
 40
0
 40
0
 40
0
 40
1
 40
1
 40
1
 40
1
 10
74.202874
 20
192.834675
 30
0.0
 10
85.144537
 20
192.834675
 30
0.0
 10
97.009327
 20
195.926325
 30
0.0
 10
103.895280
 20
200.571728
 30
0.0
  0
SPLINE
  5
1fb
100
AcDbEntity
  8
Mascara
 62
7
100
AcDbSpline
 70
8
 71
3
 72
8
 73
4
 74
0
 40
0
 40
0
 40
0
 40
0
 40
1
 40
1
 40
1
 40
1
 10
103.895280
 20
200.571728
 30
0.0
 10
107.306070
 20
202.872713
 30
0.0
 10
110.102647
 20
205.897485
 30
0.0
 10
115.381028
 20
212.994683
 30
0.0
  0
SPLINE
  5
1fc
100
AcDbEntity
  8
Mascara
 62
7
100
AcDbSpline
 70
8
 71
3
 72
8
 73
4
 74
0
 40
0
 40
0
 40
0
 40
0
 40
1
 40
1
 40
1
 40
1
 10
115.381028
 20
212.994683
 30
0.0
 10
121.335983
 20
221.001593
 30
0.0
 10
125.493855
 20
228.113205
 30
0.0
 10
129.003728
 20
236.294925
 30
0.0
  0
SPLINE
  5
1fd
100
AcDbEntity
  8
Mascara
 62
7
100
AcDbSpline
 70
8
 71
3
 72
8
 73
4
 74
0
 40
0
 40
0
 40
0
 40
0
 40
1
 40
1
 40
1
 40
1
 10
129.003728
 20
236.294925
 30
0.0
 10
131.461095
 20
242.023185
 30
0.0
 10
132.825758
 20
243.088170
 30
0.0
 10
137.651190
 20
243.043350
 30
0.0
  0
SPLINE
  5
1fe
100
AcDbEntity
  8
Mascara
 62
7
100
AcDbSpline
 70
8
 71
3
 72
8
 73
4
 74
0
 40
0
 40
0
 40
0
 40
0
 40
1
 40
1
 40
1
 40
1
 10
137.651190
 20
243.043350
 30
0.0
 10
146.881493
 20
242.957618
 30
0.0
 10
159.097162
 20
240.011715
 30
0.0
 10
170.826180
 20
235.042935
 30
0.0
  0
SPLINE
  5
1ff
100
AcDbEntity
  8
Mascara
 62
7
100
AcDbSpline
 70
8
 71
3
 72
8
 73
4
 74
0
 40
0
 40
0
 40
0
 40
0
 40
1
 40
1
 40
1
 40
1
 10
170.826180
 20
235.042935
 30
0.0
 10
173.039932
 20
234.105120
 30
0.0
 10
175.260795
 20
233.219063
 30
0.0
 10
175.761427
 20
233.073930
 30
0.0
  0
SPLINE
  5
200
100
AcDbEntity
  8
Mascara
 62
7
100
AcDbSpline
 70
8
 71
3
 72
8
 73
4
 74
0
 40
0
 40
0
 40
0
 40
0
 40
1
 40
1
 40
1
 40
1
 10
175.761427
 20
233.073930
 30
0.0
 10
177.480750
 20
232.575495
 30
0.0
 10
177.880238
 20
233.402723
 30
0.0
 10
177.368865
 20
236.402498
 30
0.0
  0
SPLINE
  5
201
100
AcDbEntity
  8
Mascara
 62
7
100
AcDbSpline
 70
8
 71
3
 72
8
 73
4
 74
0
 40
0
 40
0
 40
0
 40
0
 40
1
 40
1
 40
1
 40
1
 10
177.368865
 20
236.402498
 30
0.0
 10
176.988502
 20
238.633718
 30
0.0
 10
177.365115
 20
239.677148
 30
0.0
 10
178.712400
 20
240.121680
 30
0.0
  0
SPLINE
  5
202
100
AcDbEntity
  8
Mascara
 62
7
100
AcDbSpline
 70
8
 71
3
 72
8
 73
4
 74
0
 40
0
 40
0
 40
0
 40
0
 40
1
 40
1
 40
1
 40
1
 10
178.712400
 20
240.121680
 30
0.0
 10
179.894918
 20
240.511950
 30
0.0
 10
183.240473
 20
240.296708
 30
0.0
 10
186.504262
 20
239.620380
 30
0.0
  0
SPLINE
  5
203
100
AcDbEntity
  8
Mascara
 62
7
100
AcDbSpline
 70
8
 71
3
 72
8
 73
4
 74
0
 40
0
 40
0
 40
0
 40
0
 40
1
 40
1
 40
1
 40
1
 10
186.504262
 20
239.620380
 30
0.0
 10
195.530213
 20
237.750023
 30
0.0
 10
204.317287
 20
232.672965
 30
0.0
 10
210.885323
 20
225.533325
 30
0.0
  0
SPLINE
  5
204
100
AcDbEntity
  8
Mascara
 62
7
100
AcDbSpline
 70
8
 71
3
 72
8
 73
4
 74
0
 40
0
 40
0
 40
0
 40
0
 40
1
 40
1
 40
1
 40
1
 10
210.885323
 20
225.533325
 30
0.0
 10
215.731935
 20
220.264920
 30
0.0
 10
217.653037
 20
218.754683
 30
0.0
 10
219.508132
 20
218.754683
 30
0.0
  0
SPLINE
  5
205
100
AcDbEntity
  8
Mascara
 62
7
100
AcDbSpline
 70
8
 71
3
 72
8
 73
4
 74
0
 40
0
 40
0
 40
0
 40
0
 40
1
 40
1
 40
1
 40
1
 10
219.508132
 20
218.754683
 30
0.0
 10
221.740830
 20
218.754683
 30
0.0
 10
223.528207
 20
219.984810
 30
0.0
 10
228.413332
 20
224.883548
 30
0.0
  0
SPLINE
  5
206
100
AcDbEntity
  8
Mascara
 62
7
100
AcDbSpline
 70
8
 71
3
 72
8
 73
4
 74
0
 40
0
 40
0
 40
0
 40
0
 40
1
 40
1
 40
1
 40
1
 10
228.413332
 20
224.883548
 30
0.0
 10
232.436017
 20
228.917438
 30
0.0
 10
235.407960
 20
231.337800
 30
0.0
 10
239.300760
 20
233.750273
 30
0.0
  0
SPLINE
  5
207
100
AcDbEntity
  8
Mascara
 62
7
100
AcDbSpline
 70
8
 71
3
 72
8
 73
4
 74
0
 40
0
 40
0
 40
0
 40
0
 40
1
 40
1
 40
1
 40
1
 10
239.300760
 20
233.750273
 30
0.0
 10
245.349840
 20
237.499065
 30
0.0
 10
252.810743
 20
239.944358
 30
0.0
 10
259.247400
 20
240.287723
 30
0.0
  0
SPLINE
  5
208
100
AcDbEntity
  8
Mascara
 62
7
100
AcDbSpline
 70
8
 71
3
 72
8
 73
4
 74
0
 40
0
 40
0
 40
0
 40
0
 40
1
 40
1
 40
1
 40
1
 10
259.247400
 20
240.287723
 30
0.0
 10
261.791783
 20
240.423450
 30
0.0
 10
261.806640
 20
240.421043
 30
0.0
 10
262.459845
 20
239.767830
 30
0.0
  0
SPLINE
  5
209
100
AcDbEntity
  8
Mascara
 62
7
100
AcDbSpline
 70
8
 71
3
 72
8
 73
4
 74
0
 40
0
 40
0
 40
0
 40
0
 40
1
 40
1
 40
1
 40
1
 10
262.459845
 20
239.767830
 30
0.0
 10
263.083920
 20
239.143755
 30
0.0
 10
263.108685
 20
239.031825
 30
0.0
 10
262.964955
 20
237.485198
 30
0.0
  0
SPLINE
  5
20a
100
AcDbEntity
  8
Mascara
 62
7
100
AcDbSpline
 70
8
 71
3
 72
8
 73
4
 74
0
 40
0
 40
0
 40
0
 40
0
 40
1
 40
1
 40
1
 40
1
 10
262.964955
 20
237.485198
 30
0.0
 10
262.874880
 20
236.516183
 30
0.0
 10
262.919730
 20
235.554848
 30
0.0
 10
263.075978
 20
235.106753
 30
0.0
  0
SPLINE
  5
20b
100
AcDbEntity
  8
Mascara
 62
7
100
AcDbSpline
 70
8
 71
3
 72
8
 73
4
 74
0
 40
0
 40
0
 40
0
 40
0
 40
1
 40
1
 40
1
 40
1
 10
263.075978
 20
235.106753
 30
0.0
 10
263.298262
 20
234.469043
 30
0.0
 10
263.458485
 20
234.354683
 30
0.0
 10
264.129525
 20
234.354683
 30
0.0
  0
SPLINE
  5
20c
100
AcDbEntity
  8
Mascara
 62
7
100
AcDbSpline
 70
8
 71
3
 72
8
 73
4
 74
0
 40
0
 40
0
 40
0
 40
0
 40
1
 40
1
 40
1
 40
1
 10
264.129525
 20
234.354683
 30
0.0
 10
264.564795
 20
234.354683
 30
0.0
 10
265.705320
 20
234.688470
 30
0.0
 10
266.664000
 20
235.096425
 30
0.0
  0
SPLINE
  5
20d
100
AcDbEntity
  8
Mascara
 62
7
100
AcDbSpline
 70
8
 71
3
 72
8
 73
4
 74
0
 40
0
 40
0
 40
0
 40
0
 40
1
 40
1
 40
1
 40
1
 10
266.664000
 20
235.096425
 30
0.0
 10
271.411080
 20
237.116490
 30
0.0
 10
283.066102
 20
240.662408
 30
0.0
 10
288.644468
 20
241.783748
 30
0.0
  0
SPLINE
  5
20e
100
AcDbEntity
  8
Mascara
 62
7
100
AcDbSpline
 70
8
 71
3
 72
8
 73
4
 74
0
 40
0
 40
0
 40
0
 40
0
 40
1
 40
1
 40
1
 40
1
 10
288.644468
 20
241.783748
 30
0.0
 10
294.156023
 20
242.891670
 30
0.0
 10
301.767427
 20
243.344993
 30
0.0
 10
304.271422
 20
242.714475
 30
0.0
  0
SPLINE
  5
20f
100
AcDbEntity
  8
Mascara
 62
7
100
AcDbSpline
 70
8
 71
3
 72
8
 73
4
 74
0
 40
0
 40
0
 40
0
 40
0
 40
1
 40
1
 40
1
 40
1
 10
304.271422
 20
242.714475
 30
0.0
 10
305.781938
 20
242.334128
 30
0.0
 10
307.246800
 20
240.854685
 30
0.0
 10
307.817588
 20
239.133023
 30
0.0
  0
SPLINE
  5
210
100
AcDbEntity
  8
Mascara
 62
7
100
AcDbSpline
 70
8
 71
3
 72
8
 73
4
 74
0
 40
0
 40
0
 40
0
 40
0
 40
1
 40
1
 40
1
 40
1
 10
307.817588
 20
239.133023
 30
0.0
 10
310.247618
 20
231.803310
 30
0.0
 10
314.925765
 20
223.186680
 30
0.0
 10
320.785485
 20
215.247585
 30
0.0
  0
SPLINE
  5
211
100
AcDbEntity
  8
Mascara
 62
7
100
AcDbSpline
 70
8
 71
3
 72
8
 73
4
 74
0
 40
0
 40
0
 40
0
 40
0
 40
1
 40
1
 40
1
 40
1
 10
320.785485
 20
215.247585
 30
0.0
 10
321.965610
 20
213.648683
 30
0.0
 10
323.903182
 20
211.010708
 30
0.0
 10
325.091183
 20
209.385413
 30
0.0
  0
SPLINE
  5
212
100
AcDbEntity
  8
Mascara
 62
7
100
AcDbSpline
 70
8
 71
3
 72
8
 73
4
 74
0
 40
0
 40
0
 40
0
 40
0
 40
1
 40
1
 40
1
 40
1
 10
325.091183
 20
209.385413
 30
0.0
 10
329.140290
 20
203.845853
 30
0.0
 10
332.042280
 20
201.383430
 30
0.0
 10
337.811182
 20
198.592095
 30
0.0
  0
SPLINE
  5
213
100
AcDbEntity
  8
Mascara
 62
7
100
AcDbSpline
 70
8
 71
3
 72
8
 73
4
 74
0
 40
0
 40
0
 40
0
 40
0
 40
1
 40
1
 40
1
 40
1
 10
337.811182
 20
198.592095
 30
0.0
 10
348.153262
 20
193.587975
 30
0.0
 10
359.062650
 20
191.961203
 30
0.0
 10
372.315787
 20
193.446885
 30
0.0
  0
SPLINE
  5
214
100
AcDbEntity
  8
Mascara
 62
7
100
AcDbSpline
 70
8
 71
3
 72
8
 73
4
 74
0
 40
0
 40
0
 40
0
 40
0
 40
1
 40
1
 40
1
 40
1
 10
372.315787
 20
193.446885
 30
0.0
 10
374.927610
 20
193.739670
 30
0.0
 10
375.760890
 20
193.945898
 30
0.0
 10
377.955787
 20
194.842695
 30
0.0
  0
SPLINE
  5
215
100
AcDbEntity
  8
Mascara
 62
7
100
AcDbSpline
 70
8
 71
3
 72
8
 73
4
 74
0
 40
0
 40
0
 40
0
 40
0
 40
1
 40
1
 40
1
 40
1
 10
377.955787
 20
194.842695
 30
0.0
 10
379.372245
 20
195.421433
 30
0.0
 10
380.926365
 20
195.965445
 30
0.0
 10
381.409365
 20
196.051598
 30
0.0
  0
SPLINE
  5
216
100
AcDbEntity
  8
Mascara
 62
7
100
AcDbSpline
 70
8
 71
3
 72
8
 73
4
 74
0
 40
0
 40
0
 40
0
 40
0
 40
1
 40
1
 40
1
 40
1
 10
381.409365
 20
196.051598
 30
0.0
 10
383.201925
 20
196.371345
 30
0.0
 10
385.374832
 20
194.852618
 30
0.0
 10
385.916752
 20
192.901238
 30
0.0
  0
SPLINE
  5
217
100
AcDbEntity
  8
Mascara
 62
7
100
AcDbSpline
 70
8
 71
3
 72
8
 73
4
 74
0
 40
0
 40
0
 40
0
 40
0
 40
1
 40
1
 40
1
 40
1
 10
385.916752
 20
192.901238
 30
0.0
 10
386.272455
 20
191.620358
 30
0.0
 10
386.232405
 20
190.866510
 30
0.0
 10
385.671045
 20
188.274675
 30
0.0
  0
SPLINE
  5
218
100
AcDbEntity
  8
Mascara
 62
7
100
AcDbSpline
 70
8
 71
3
 72
8
 73
4
 74
0
 40
0
 40
0
 40
0
 40
0
 40
1
 40
1
 40
1
 40
1
 10
385.671045
 20
188.274675
 30
0.0
 10
385.327747
 20
186.689805
 30
0.0
 10
385.113330
 20
184.458083
 30
0.0
 10
384.967747
 20
180.954675
 30
0.0
  0
SPLINE
  5
219
100
AcDbEntity
  8
Mascara
 62
7
100
AcDbSpline
 70
8
 71
3
 72
8
 73
4
 74
0
 40
0
 40
0
 40
0
 40
0
 40
1
 40
1
 40
1
 40
1
 10
384.967747
 20
180.954675
 30
0.0
 10
384.852570
 20
178.182675
 30
0.0
 10
384.585645
 20
174.890183
 30
0.0
 10
384.374565
 20
173.638020
 30
0.0
  0
SPLINE
  5
21a
100
AcDbEntity
  8
Mascara
 62
7
100
AcDbSpline
 70
8
 71
3
 72
8
 73
4
 74
0
 40
0
 40
0
 40
0
 40
0
 40
1
 40
1
 40
1
 40
1
 10
384.374565
 20
173.638020
 30
0.0
 10
382.391925
 20
161.875493
 30
0.0
 10
377.028255
 20
152.100885
 30
0.0
 10
367.495702
 20
142.878413
 30
0.0
  0
SPLINE
  5
21b
100
AcDbEntity
  8
Mascara
 62
7
100
AcDbSpline
 70
8
 71
3
 72
8
 73
4
 74
0
 40
0
 40
0
 40
0
 40
0
 40
1
 40
1
 40
1
 40
1
 10
367.495702
 20
142.878413
 30
0.0
 10
362.250645
 20
137.803950
 30
0.0
 10
355.389045
 20
132.580710
 30
0.0
 10
351.491182
 20
130.695315
 30
0.0
  0
SPLINE
  5
21c
100
AcDbEntity
  8
Mascara
 62
7
100
AcDbSpline
 70
8
 71
3
 72
8
 73
4
 74
0
 40
0
 40
0
 40
0
 40
0
 40
1
 40
1
 40
1
 40
1
 10
351.491182
 20
130.695315
 30
0.0
 10
348.939187
 20
129.460898
 30
0.0
 10
348.409072
 20
129.027840
 30
0.0
 10
348.158325
 20
127.972613
 30
0.0
  0
SPLINE
  5
21d
100
AcDbEntity
  8
Mascara
 62
7
100
AcDbSpline
 70
8
 71
3
 72
8
 73
4
 74
0
 40
0
 40
0
 40
0
 40
0
 40
1
 40
1
 40
1
 40
1
 10
348.158325
 20
127.972613
 30
0.0
 10
347.562862
 20
125.466773
 30
0.0
 10
351.572925
 20
123.919733
 30
0.0
 10
361.931182
 20
122.659200
 30
0.0
  0
SPLINE
  5
21e
100
AcDbEntity
  8
Mascara
 62
7
100
AcDbSpline
 70
8
 71
3
 72
8
 73
4
 74
0
 40
0
 40
0
 40
0
 40
0
 40
1
 40
1
 40
1
 40
1
 10
361.931182
 20
122.659200
 30
0.0
 10
364.637182
 20
122.329898
 30
0.0
 10
368.756805
 20
121.829573
 30
0.0
 10
371.085907
 20
121.547378
 30
0.0
  0
SPLINE
  5
21f
100
AcDbEntity
  8
Mascara
 62
7
100
AcDbSpline
 70
8
 71
3
 72
8
 73
4
 74
0
 40
0
 40
0
 40
0
 40
0
 40
1
 40
1
 40
1
 40
1
 10
371.085907
 20
121.547378
 30
0.0
 10
373.415010
 20
121.265160
 30
0.0
 10
375.899010
 20
120.906390
 30
0.0
 10
376.605907
 20
120.750098
 30
0.0
  0
SPLINE
  5
220
100
AcDbEntity
  8
Mascara
 62
7
100
AcDbSpline
 70
8
 71
3
 72
8
 73
4
 74
0
 40
0
 40
0
 40
0
 40
0
 40
1
 40
1
 40
1
 40
1
 10
376.605907
 20
120.750098
 30
0.0
 10
377.880112
 20
120.468360
 30
0.0
 10
377.891805
 20
120.457613
 30
0.0
 10
377.962455
 20
119.501880
 30
0.0
  0
SPLINE
  5
221
100
AcDbEntity
  8
Mascara
 62
7
100
AcDbSpline
 70
8
 71
3
 72
8
 73
4
 74
0
 40
0
 40
0
 40
0
 40
0
 40
1
 40
1
 40
1
 40
1
 10
377.962455
 20
119.501880
 30
0.0
 10
378.066615
 20
118.093035
 30
0.0
 10
377.137485
 20
116.973383
 30
0.0
 10
373.616632
 20
114.264915
 30
0.0
  0
SPLINE
  5
222
100
AcDbEntity
  8
Mascara
 62
7
100
AcDbSpline
 70
8
 71
3
 72
8
 73
4
 74
0
 40
0
 40
0
 40
0
 40
0
 40
1
 40
1
 40
1
 40
1
 10
373.616632
 20
114.264915
 30
0.0
 10
364.380622
 20
107.160000
 30
0.0
 10
358.314210
 20
103.617413
 30
0.0
 10
350.721405
 20
100.894853
 30
0.0
  0
SPLINE
  5
223
100
AcDbEntity
  8
Mascara
 62
7
100
AcDbSpline
 70
8
 71
3
 72
8
 73
4
 74
0
 40
0
 40
0
 40
0
 40
0
 40
1
 40
1
 40
1
 40
1
 10
350.721405
 20
100.894853
 30
0.0
 10
348.900787
 20
100.242023
 30
0.0
 10
343.307182
 20
98.407395
 30
0.0
 10
338.291182
 20
96.817898
 30
0.0
  0
SPLINE
  5
224
100
AcDbEntity
  8
Mascara
 62
7
100
AcDbSpline
 70
8
 71
3
 72
8
 73
4
 74
0
 40
0
 40
0
 40
0
 40
0
 40
1
 40
1
 40
1
 40
1
 10
338.291182
 20
96.817898
 30
0.0
 10
318.104925
 20
90.421125
 30
0.0
 10
313.835107
 20
88.854315
 30
0.0
 10
303.028440
 20
83.878125
 30
0.0
  0
SPLINE
  5
225
100
AcDbEntity
  8
Mascara
 62
7
100
AcDbSpline
 70
8
 71
3
 72
8
 73
4
 74
0
 40
0
 40
0
 40
0
 40
0
 40
1
 40
1
 40
1
 40
1
 10
303.028440
 20
83.878125
 30
0.0
 10
291.190657
 20
78.427155
 30
0.0
 10
287.658285
 20
76.145400
 30
0.0
 10
284.434680
 20
71.867355
 30
0.0
  0
SPLINE
  5
226
100
AcDbEntity
  8
Mascara
 62
7
100
AcDbSpline
 70
8
 71
3
 72
8
 73
4
 74
0
 40
0
 40
0
 40
0
 40
0
 40
1
 40
1
 40
1
 40
1
 10
284.434680
 20
71.867355
 30
0.0
 10
282.491325
 20
69.288315
 30
0.0
 10
281.677942
 20
67.502663
 30
0.0
 10
279.409177
 20
60.834668
 30
0.0
  0
SPLINE
  5
227
100
AcDbEntity
  8
Mascara
 62
7
100
AcDbSpline
 70
8
 71
3
 72
8
 73
4
 74
0
 40
0
 40
0
 40
0
 40
0
 40
1
 40
1
 40
1
 40
1
 10
279.409177
 20
60.834668
 30
0.0
 10
278.353725
 20
57.732668
 30
0.0
 10
277.260555
 20
54.661418
 30
0.0
 10
276.979920
 20
54.009668
 30
0.0
  0
SPLINE
  5
228
100
AcDbEntity
  8
Mascara
 62
7
100
AcDbSpline
 70
8
 71
3
 72
8
 73
4
 74
0
 40
0
 40
0
 40
0
 40
0
 40
1
 40
1
 40
1
 40
1
 10
276.979920
 20
54.009668
 30
0.0
 10
276.699285
 20
53.357925
 30
0.0
 10
276.407595
 20
52.371840
 30
0.0
 10
276.331725
 20
51.818378
 30
0.0
  0
SPLINE
  5
229
100
AcDbEntity
  8
Mascara
 62
7
100
AcDbSpline
 70
8
 71
3
 72
8
 73
4
 74
0
 40
0
 40
0
 40
0
 40
0
 40
1
 40
1
 40
1
 40
1
 10
276.331725
 20
51.818378
 30
0.0
 10
276.060817
 20
49.841738
 30
0.0
 10
277.044600
 20
49.499138
 30
0.0
 10
284.206657
 20
49.075965
 30
0.0
  0
SPLINE
  5
22a
100
AcDbEntity
  8
Mascara
 62
7
100
AcDbSpline
 70
8
 71
3
 72
8
 73
4
 74
0
 40
0
 40
0
 40
0
 40
0
 40
1
 40
1
 40
1
 40
1
 10
284.206657
 20
49.075965
 30
0.0
 10
292.795102
 20
48.568508
 30
0.0
 10
304.813102
 20
48.792600
 30
0.0
 10
310.362240
 20
49.563645
 30
0.0
  0
SPLINE
  5
22b
100
AcDbEntity
  8
Mascara
 62
7
100
AcDbSpline
 70
8
 71
3
 72
8
 73
4
 74
0
 40
0
 40
0
 40
0
 40
0
 40
1
 40
1
 40
1
 40
1
 10
310.362240
 20
49.563645
 30
0.0
 10
311.237325
 20
49.685258
 30
0.0
 10
313.451325
 20
49.950383
 30
0.0
 10
315.282240
 20
50.152868
 30
0.0
  0
SPLINE
  5
22c
100
AcDbEntity
  8
Mascara
 62
7
100
AcDbSpline
 70
8
 71
3
 72
8
 73
4
 74
0
 40
0
 40
0
 40
0
 40
0
 40
1
 40
1
 40
1
 40
1
 10
315.282240
 20
50.152868
 30
0.0
 10
317.113147
 20
50.355338
 30
0.0
 10
319.345800
 20
50.752388
 30
0.0
 10
320.243662
 20
51.035183
 30
0.0
  0
SPLINE
  5
22d
100
AcDbEntity
  8
Mascara
 62
7
100
AcDbSpline
 70
8
 71
3
 72
8
 73
4
 74
0
 40
0
 40
0
 40
0
 40
0
 40
1
 40
1
 40
1
 40
1
 10
320.243662
 20
51.035183
 30
0.0
 10
321.875805
 20
51.549263
 30
0.0
 10
324.364987
 20
53.061908
 30
0.0
 10
324.323880
 20
53.514668
 30
0.0
  0
SPLINE
  5
22e
100
AcDbEntity
  8
Mascara
 62
7
100
AcDbSpline
 70
8
 71
3
 72
8
 73
4
 74
0
 40
0
 40
0
 40
0
 40
0
 40
1
 40
1
 40
1
 40
1
 10
324.323880
 20
53.514668
 30
0.0
 10
324.311880
 20
53.646668
 30
0.0
 10
323.399640
 20
54.114098
 30
0.0
 10
322.296645
 20
54.553388
 30
0.0
  0
SPLINE
  5
22f
100
AcDbEntity
  8
Mascara
 62
7
100
AcDbSpline
 70
8
 71
3
 72
8
 73
4
 74
0
 40
0
 40
0
 40
0
 40
0
 40
1
 40
1
 40
1
 40
1
 10
322.296645
 20
54.553388
 30
0.0
 10
317.277960
 20
56.552228
 30
0.0
 10
315.003885
 20
57.601103
 30
0.0
 10
314.245845
 20
58.266668
 30
0.0
  0
SPLINE
  5
230
100
AcDbEntity
  8
Mascara
 62
7
100
AcDbSpline
 70
8
 71
3
 72
8
 73
4
 74
0
 40
0
 40
0
 40
0
 40
0
 40
1
 40
1
 40
1
 40
1
 10
314.245845
 20
58.266668
 30
0.0
 10
313.528245
 20
58.896720
 30
0.0
 10
313.435965
 20
59.107268
 30
0.0
 10
313.499107
 20
59.970120
 30
0.0
  0
LWPOLYLINE
  5
231
100
AcDbEntity
  8
Mascara
 62
7
100
AcDbPolyline
 90
1
 70
1
 10
224.007090
 20
77.749658
 30
0.0
  0
SPLINE
  5
232
100
AcDbEntity
  8
Mascara
 62
7
100
AcDbSpline
 70
8
 71
3
 72
8
 73
4
 74
0
 40
0
 40
0
 40
0
 40
0
 40
1
 40
1
 40
1
 40
1
 10
320.771182
 20
63.402165
 30
0.0
 10
337.857930
 20
69.210435
 30
0.0
 10
346.225485
 20
72.623498
 30
0.0
 10
355.571182
 20
77.596845
 30
0.0
  0
SPLINE
  5
233
100
AcDbEntity
  8
Mascara
 62
7
100
AcDbSpline
 70
8
 71
3
 72
8
 73
4
 74
0
 40
0
 40
0
 40
0
 40
0
 40
1
 40
1
 40
1
 40
1
 10
355.571182
 20
77.596845
 30
0.0
 10
370.214730
 20
85.389480
 30
0.0
 10
383.568375
 20
96.540533
 30
0.0
 10
399.014752
 20
113.874675
 30
0.0
  0
SPLINE
  5
234
100
AcDbEntity
  8
Mascara
 62
7
100
AcDbSpline
 70
8
 71
3
 72
8
 73
4
 74
0
 40
0
 40
0
 40
0
 40
0
 40
1
 40
1
 40
1
 40
1
 10
399.014752
 20
113.874675
 30
0.0
 10
402.734392
 20
118.048898
 30
0.0
 10
405.990427
 20
123.125977
 30
0.0
 10
409.198935
 20
129.754658
 30
0.0
  0
SPLINE
  5
235
100
AcDbEntity
  8
Mascara
 62
7
100
AcDbSpline
 70
8
 71
3
 72
8
 73
4
 74
0
 40
0
 40
0
 40
0
 40
0
 40
1
 40
1
 40
1
 40
1
 10
409.198935
 20
129.754658
 30
0.0
 10
410.748757
 20
132.956520
 30
0.0
 10
414.251175
 20
140.850218
 30
0.0
 10
414.251175
 20
141.141315
 30
0.0
  0
SPLINE
  5
236
100
AcDbEntity
  8
Mascara
 62
7
100
AcDbSpline
 70
8
 71
3
 72
8
 73
4
 74
0
 40
0
 40
0
 40
0
 40
0
 40
1
 40
1
 40
1
 40
1
 10
414.251175
 20
141.141315
 30
0.0
 10
414.251175
 20
141.182640
 30
0.0
 10
413.414175
 20
140.858453
 30
0.0
 10
412.391175
 20
140.420880
 30
0.0
  0
SPLINE
  5
237
100
AcDbEntity
  8
Mascara
 62
7
100
AcDbSpline
 70
8
 71
3
 72
8
 73
4
 74
0
 40
0
 40
0
 40
0
 40
0
 40
1
 40
1
 40
1
 40
1
 10
412.391175
 20
140.420880
 30
0.0
 10
406.781250
 20
138.021315
 30
0.0
 10
401.418285
 20
136.607595
 30
0.0
 10
396.391552
 20
136.203240
 30
0.0
  0
SPLINE
  5
238
100
AcDbEntity
  8
Mascara
 62
7
100
AcDbSpline
 70
8
 71
3
 72
8
 73
4
 74
0
 40
0
 40
0
 40
0
 40
0
 40
1
 40
1
 40
1
 40
1
 10
396.391552
 20
136.203240
 30
0.0
 10
394.686787
 20
136.066110
 30
0.0
 10
393.256725
 20
135.989138
 30
0.0
 10
393.213645
 20
136.032195
 30
0.0
  0
SPLINE
  5
239
100
AcDbEntity
  8
Mascara
 62
7
100
AcDbSpline
 70
8
 71
3
 72
8
 73
4
 74
0
 40
0
 40
0
 40
0
 40
0
 40
1
 40
1
 40
1
 40
1
 10
393.213645
 20
136.032195
 30
0.0
 10
393.170595
 20
136.075245
 30
0.0
 10
395.379975
 20
139.265618
 30
0.0
 10
398.123445
 20
143.121870
 30
0.0
  0
SPLINE
  5
23a
100
AcDbEntity
  8
Mascara
 62
7
100
AcDbSpline
 70
8
 71
3
 72
8
 73
4
 74
0
 40
0
 40
0
 40
0
 40
0
 40
1
 40
1
 40
1
 40
1
 10
398.123445
 20
143.121870
 30
0.0
 10
403.775535
 20
151.066583
 30
0.0
 10
406.234815
 20
154.845195
 30
0.0
 10
409.051357
 20
159.912270
 30
0.0
  0
SPLINE
  5
23b
100
AcDbEntity
  8
Mascara
 62
7
100
AcDbSpline
 70
8
 71
3
 72
8
 73
4
 74
0
 40
0
 40
0
 40
0
 40
0
 40
1
 40
1
 40
1
 40
1
 10
409.051357
 20
159.912270
 30
0.0
 10
416.799015
 20
173.850705
 30
0.0
 10
420.273907
 20
188.560485
 30
0.0
 10
419.039677
 20
202.194683
 30
0.0
  0
SPLINE
  5
23c
100
AcDbEntity
  8
Mascara
 62
7
100
AcDbSpline
 70
8
 71
3
 72
8
 73
4
 74
0
 40
0
 40
0
 40
0
 40
0
 40
1
 40
1
 40
1
 40
1
 10
419.039677
 20
202.194683
 30
0.0
 10
418.717987
 20
205.748408
 30
0.0
 10
418.235970
 20
207.671925
 30
0.0
 10
417.475987
 20
208.434683
 30
0.0
  0
SPLINE
  5
23d
100
AcDbEntity
  8
Mascara
 62
7
100
AcDbSpline
 70
8
 71
3
 72
8
 73
4
 74
0
 40
0
 40
0
 40
0
 40
0
 40
1
 40
1
 40
1
 40
1
 10
417.475987
 20
208.434683
 30
0.0
 10
416.966175
 20
208.946325
 30
0.0
 10
416.675895
 20
209.029620
 30
0.0
 10
415.504672
 20
209.000333
 30
0.0
  0
SPLINE
  5
23e
100
AcDbEntity
  8
Mascara
 62
7
100
AcDbSpline
 70
8
 71
3
 72
8
 73
4
 74
0
 40
0
 40
0
 40
0
 40
0
 40
1
 40
1
 40
1
 40
1
 10
415.504672
 20
209.000333
 30
0.0
 10
414.749250
 20
208.981433
 30
0.0
 10
413.267175
 20
208.689233
 30
0.0
 10
412.211175
 20
208.350990
 30
0.0
  0
SPLINE
  5
23f
100
AcDbEntity
  8
Mascara
 62
7
100
AcDbSpline
 70
8
 71
3
 72
8
 73
4
 74
0
 40
0
 40
0
 40
0
 40
0
 40
1
 40
1
 40
1
 40
1
 10
412.211175
 20
208.350990
 30
0.0
 10
406.464210
 20
206.510190
 30
0.0
 10
401.641867
 20
205.711703
 30
0.0
 10
396.251175
 20
205.708305
 30
0.0
  0
SPLINE
  5
240
100
AcDbEntity
  8
Mascara
 62
7
100
AcDbSpline
 70
8
 71
3
 72
8
 73
4
 74
0
 40
0
 40
0
 40
0
 40
0
 40
1
 40
1
 40
1
 40
1
 10
396.251175
 20
205.708305
 30
0.0
 10
391.981912
 20
205.705305
 30
0.0
 10
389.740432
 20
205.969650
 30
0.0
 10
386.171175
 20
206.895660
 30
0.0
  0
SPLINE
  5
241
100
AcDbEntity
  8
Mascara
 62
7
100
AcDbSpline
 70
8
 71
3
 72
8
 73
4
 74
0
 40
0
 40
0
 40
0
 40
0
 40
1
 40
1
 40
1
 40
1
 10
386.171175
 20
206.895660
 30
0.0
 10
375.339570
 20
209.705820
 30
0.0
 10
365.461267
 20
217.356870
 30
0.0
 10
358.445370
 20
228.370178
 30
0.0
  0
SPLINE
  5
242
100
AcDbEntity
  8
Mascara
 62
7
100
AcDbSpline
 70
8
 71
3
 72
8
 73
4
 74
0
 40
0
 40
0
 40
0
 40
0
 40
1
 40
1
 40
1
 40
1
 10
358.445370
 20
228.370178
 30
0.0
 10
355.256512
 20
233.375955
 30
0.0
 10
350.357062
 20
244.072755
 30
0.0
 10
349.682370
 20
247.502190
 30
0.0
  0
SPLINE
  5
243
100
AcDbEntity
  8
Mascara
 62
7
100
AcDbSpline
 70
8
 71
3
 72
8
 73
4
 74
0
 40
0
 40
0
 40
0
 40
0
 40
1
 40
1
 40
1
 40
1
 10
349.682370
 20
247.502190
 30
0.0
 10
349.242930
 20
249.735758
 30
0.0
 10
349.511085
 20
254.365005
 30
0.0
 10
350.230192
 20
256.959578
 30
0.0
  0
SPLINE
  5
244
100
AcDbEntity
  8
Mascara
 62
7
100
AcDbSpline
 70
8
 71
3
 72
8
 73
4
 74
0
 40
0
 40
0
 40
0
 40
0
 40
1
 40
1
 40
1
 40
1
 10
350.230192
 20
256.959578
 30
0.0
 10
350.670787
 20
258.549300
 30
0.0
 10
351.015405
 20
259.274018
 30
0.0
 10
351.681187
 20
260.010960
 30
0.0
  0
SPLINE
  5
245
100
AcDbEntity
  8
Mascara
 62
7
100
AcDbSpline
 70
8
 71
3
 72
8
 73
4
 74
0
 40
0
 40
0
 40
0
 40
0
 40
1
 40
1
 40
1
 40
1
 10
351.681187
 20
260.010960
 30
0.0
 10
353.295330
 20
261.797618
 30
0.0
 10
354.705330
 20
265.167397
 30
0.0
 10
357.565792
 20
274.074682
 30
0.0
  0
SPLINE
  5
246
100
AcDbEntity
  8
Mascara
 62
7
100
AcDbSpline
 70
8
 71
3
 72
8
 73
4
 74
0
 40
0
 40
0
 40
0
 40
0
 40
1
 40
1
 40
1
 40
1
 10
357.565792
 20
274.074682
 30
0.0
 10
364.514542
 20
295.712670
 30
0.0
 10
365.208592
 20
298.074825
 30
0.0
 10
366.239542
 20
303.594675
 30
0.0
  0
SPLINE
  5
247
100
AcDbEntity
  8
Mascara
 62
7
100
AcDbSpline
 70
8
 71
3
 72
8
 73
4
 74
0
 40
0
 40
0
 40
0
 40
0
 40
1
 40
1
 40
1
 40
1
 10
366.239542
 20
303.594675
 30
0.0
 10
367.401982
 20
309.818580
 30
0.0
 10
367.787902
 20
317.672957
 30
0.0
 10
367.198102
 20
323.104134
 30
0.0
  0
SPLINE
  5
248
100
AcDbEntity
  8
Mascara
 62
7
100
AcDbSpline
 70
8
 71
3
 72
8
 73
4
 74
0
 40
0
 40
0
 40
0
 40
0
 40
1
 40
1
 40
1
 40
1
 10
367.198102
 20
323.104134
 30
0.0
 10
366.873210
 20
326.095809
 30
0.0
 10
365.963632
 20
330.632300
 30
0.0
 10
365.166907
 20
333.234680
 30
0.0
  0
SPLINE
  5
249
100
AcDbEntity
  8
Mascara
 62
7
100
AcDbSpline
 70
8
 71
3
 72
8
 73
4
 74
0
 40
0
 40
0
 40
0
 40
0
 40
1
 40
1
 40
1
 40
1
 10
365.166907
 20
333.234680
 30
0.0
 10
364.817422
 20
334.376195
 30
0.0
 10
364.453147
 20
336.335218
 30
0.0
 10
364.339845
 20
337.682600
 30
0.0
  0
SPLINE
  5
24a
100
AcDbEntity
  8
Mascara
 62
7
100
AcDbSpline
 70
8
 71
3
 72
8
 73
4
 74
0
 40
0
 40
0
 40
0
 40
0
 40
1
 40
1
 40
1
 40
1
 10
364.339845
 20
337.682600
 30
0.0
 10
364.114222
 20
340.365283
 30
0.0
 10
363.393165
 20
342.526325
 30
0.0
 10
361.625632
 20
345.817288
 30
0.0
  0
SPLINE
  5
24b
100
AcDbEntity
  8
Mascara
 62
7
100
AcDbSpline
 70
8
 71
3
 72
8
 73
4
 74
0
 40
0
 40
0
 40
0
 40
0
 40
1
 40
1
 40
1
 40
1
 10
361.625632
 20
345.817288
 30
0.0
 10
360.776130
 20
347.399023
 30
0.0
 10
360.422272
 20
347.817080
 30
0.0
 10
359.527485
 20
348.296188
 30
0.0
  0
SPLINE
  5
24c
100
AcDbEntity
  8
Mascara
 62
7
100
AcDbSpline
 70
8
 71
3
 72
8
 73
4
 74
0
 40
0
 40
0
 40
0
 40
0
 40
1
 40
1
 40
1
 40
1
 10
359.527485
 20
348.296188
 30
0.0
 10
357.895050
 20
349.170260
 30
0.0
 10
356.596312
 20
348.972230
 30
0.0
 10
351.596152
 20
347.086790
 30
0.0
  0
SPLINE
  5
24d
100
AcDbEntity
  8
Mascara
 62
7
100
AcDbSpline
 70
8
 71
3
 72
8
 73
4
 74
0
 40
0
 40
0
 40
0
 40
0
 40
1
 40
1
 40
1
 40
1
 10
351.596152
 20
347.086790
 30
0.0
 10
334.957365
 20
340.812733
 30
0.0
 10
324.916530
 20
335.477083
 30
0.0
 10
315.131182
 20
327.709460
 30
0.0
  0
SPLINE
  5
24e
100
AcDbEntity
  8
Mascara
 62
7
100
AcDbSpline
 70
8
 71
3
 72
8
 73
4
 74
0
 40
0
 40
0
 40
0
 40
0
 40
1
 40
1
 40
1
 40
1
 10
315.131182
 20
327.709460
 30
0.0
 10
313.085182
 20
326.085339
 30
0.0
 10
310.439182
 20
324.114752
 30
0.0
 10
309.251182
 20
323.330372
 30
0.0
  0
SPLINE
  5
24f
100
AcDbEntity
  8
Mascara
 62
7
100
AcDbSpline
 70
8
 71
3
 72
8
 73
4
 74
0
 40
0
 40
0
 40
0
 40
0
 40
1
 40
1
 40
1
 40
1
 10
309.251182
 20
323.330372
 30
0.0
 10
304.927987
 20
320.475962
 30
0.0
 10
300.195960
 20
318.484179
 30
0.0
 10
295.998907
 20
317.752276
 30
0.0
  0
SPLINE
  5
250
100
AcDbEntity
  8
Mascara
 62
7
100
AcDbSpline
 70
8
 71
3
 72
8
 73
4
 74
0
 40
0
 40
0
 40
0
 40
0
 40
1
 40
1
 40
1
 40
1
 10
295.998907
 20
317.752276
 30
0.0
 10
293.639925
 20
317.340902
 30
0.0
 10
288.613560
 20
317.284569
 30
0.0
 10
286.331182
 20
317.643924
 30
0.0
  0
SPLINE
  5
251
100
AcDbEntity
  8
Mascara
 62
7
100
AcDbSpline
 70
8
 71
3
 72
8
 73
4
 74
0
 40
0
 40
0
 40
0
 40
0
 40
1
 40
1
 40
1
 40
1
 10
286.331182
 20
317.643924
 30
0.0
 10
283.931205
 20
318.021797
 30
0.0
 10
275.955075
 20
319.872752
 30
0.0
 10
267.731182
 20
321.960279
 30
0.0
  0
SPLINE
  5
252
100
AcDbEntity
  8
Mascara
 62
7
100
AcDbSpline
 70
8
 71
3
 72
8
 73
4
 74
0
 40
0
 40
0
 40
0
 40
0
 40
1
 40
1
 40
1
 40
1
 10
267.731182
 20
321.960279
 30
0.0
 10
254.026485
 20
325.439034
 30
0.0
 10
244.230960
 20
327.092315
 30
0.0
 10
230.531182
 20
328.238833
 30
0.0
  0
SPLINE
  5
253
100
AcDbEntity
  8
Mascara
 62
7
100
AcDbSpline
 70
8
 71
3
 72
8
 73
4
 74
0
 40
0
 40
0
 40
0
 40
0
 40
1
 40
1
 40
1
 40
1
 10
230.531182
 20
328.238833
 30
0.0
 10
224.887920
 20
328.711115
 30
0.0
 10
210.310417
 20
328.639715
 30
0.0
 10
205.331190
 20
328.115405
 30
0.0
  0
SPLINE
  5
254
100
AcDbEntity
  8
Mascara
 62
7
100
AcDbSpline
 70
8
 71
3
 72
8
 73
4
 74
0
 40
0
 40
0
 40
0
 40
0
 40
1
 40
1
 40
1
 40
1
 10
205.331190
 20
328.115405
 30
0.0
 10
193.348935
 20
326.853684
 30
0.0
 10
181.922400
 20
324.748134
 30
0.0
 10
168.611190
 20
321.349074
 30
0.0
  0
SPLINE
  5
255
100
AcDbEntity
  8
Mascara
 62
7
100
AcDbSpline
 70
8
 71
3
 72
8
 73
4
 74
0
 40
0
 40
0
 40
0
 40
0
 40
1
 40
1
 40
1
 40
1
 10
168.611190
 20
321.349074
 30
0.0
 10
155.843160
 20
318.088719
 30
0.0
 10
150.494497
 20
317.256654
 30
0.0
 10
143.651190
 20
317.466174
 30
0.0
  0
SPLINE
  5
256
100
AcDbEntity
  8
Mascara
 62
7
100
AcDbSpline
 70
8
 71
3
 72
8
 73
4
 74
0
 40
0
 40
0
 40
0
 40
0
 40
1
 40
1
 40
1
 40
1
 10
143.651190
 20
317.466174
 30
0.0
 10
141.076357
 20
317.545006
 30
0.0
 10
139.097760
 20
317.726192
 30
0.0
 10
138.287872
 20
317.957312
 30
0.0
  0
SPLINE
  5
257
100
AcDbEntity
  8
Mascara
 62
7
100
AcDbSpline
 70
8
 71
3
 72
8
 73
4
 74
0
 40
0
 40
0
 40
0
 40
0
 40
1
 40
1
 40
1
 40
1
 10
138.287872
 20
317.957312
 30
0.0
 10
136.231462
 20
318.544149
 30
0.0
 10
133.709370
 20
319.856732
 30
0.0
 10
131.771190
 20
321.348812
 30
0.0
  0
SPLINE
  5
258
100
AcDbEntity
  8
Mascara
 62
7
100
AcDbSpline
 70
8
 71
3
 72
8
 73
4
 74
0
 40
0
 40
0
 40
0
 40
0
 40
1
 40
1
 40
1
 40
1
 10
131.771190
 20
321.348812
 30
0.0
 10
116.574690
 20
333.047600
 30
0.0
 10
102.948615
 20
340.818755
 30
0.0
 10
87.425400
 20
346.639888
 30
0.0
  0
SPLINE
  5
259
100
AcDbEntity
  8
Mascara
 62
7
100
AcDbSpline
 70
8
 71
3
 72
8
 73
4
 74
0
 40
0
 40
0
 40
0
 40
0
 40
1
 40
1
 40
1
 40
1
 10
87.425400
 20
346.639888
 30
0.0
 10
80.643750
 20
349.182973
 30
0.0
 10
79.607767
 20
349.294678
 30
0.0
 10
78.187912
 20
347.635895
 30
0.0
  0
SPLINE
  5
25a
100
AcDbEntity
  8
Mascara
 62
7
100
AcDbSpline
 70
8
 71
3
 72
8
 73
4
 74
0
 40
0
 40
0
 40
0
 40
0
 40
1
 40
1
 40
1
 40
1
 10
78.187912
 20
347.635895
 30
0.0
 10
77.062447
 20
346.321040
 30
0.0
 10
75.536662
 20
342.421303
 30
0.0
 10
74.431421
 20
338.034680
 30
0.0
  0
SPLINE
  5
25b
100
AcDbEntity
  8
Mascara
 62
7
100
AcDbSpline
 70
8
 71
3
 72
8
 73
4
 74
0
 40
0
 40
0
 40
0
 40
0
 40
1
 40
1
 40
1
 40
1
 10
74.431421
 20
338.034680
 30
0.0
 10
73.915916
 20
335.988680
 30
0.0
 10
73.120069
 20
333.342035
 30
0.0
 10
72.662869
 20
332.153240
 30
0.0
  0
SPLINE
  5
25c
100
AcDbEntity
  8
Mascara
 62
7
100
AcDbSpline
 70
8
 71
3
 72
8
 73
4
 74
0
 40
0
 40
0
 40
0
 40
0
 40
1
 40
1
 40
1
 40
1
 10
72.662869
 20
332.153240
 30
0.0
 10
70.392251
 20
326.249259
 30
0.0
 10
69.549191
 20
318.710199
 30
0.0
 10
70.347176
 20
311.445221
 30
0.0
  0
SPLINE
  5
25d
100
AcDbEntity
  8
Mascara
 62
7
100
AcDbSpline
 70
8
 71
3
 72
8
 73
4
 74
0
 40
0
 40
0
 40
0
 40
0
 40
1
 40
1
 40
1
 40
1
 10
70.347176
 20
311.445221
 30
0.0
 10
71.637671
 20
299.696363
 30
0.0
 10
77.581155
 20
281.211555
 30
0.0
 10
85.796452
 20
263.396460
 30
0.0
  0
SPLINE
  5
25e
100
AcDbEntity
  8
Mascara
 62
7
100
AcDbSpline
 70
8
 71
3
 72
8
 73
4
 74
0
 40
0
 40
0
 40
0
 40
0
 40
1
 40
1
 40
1
 40
1
 10
85.796452
 20
263.396460
 30
0.0
 10
87.645367
 20
259.387035
 30
0.0
 10
88.088362
 20
257.299193
 30
0.0
 10
88.088362
 20
252.594683
 30
0.0
  0
SPLINE
  5
25f
100
AcDbEntity
  8
Mascara
 62
7
100
AcDbSpline
 70
8
 71
3
 72
8
 73
4
 74
0
 40
0
 40
0
 40
0
 40
0
 40
1
 40
1
 40
1
 40
1
 10
88.088362
 20
252.594683
 30
0.0
 10
88.088362
 20
242.899598
 30
0.0
 10
84.371812
 20
233.918325
 30
0.0
 10
76.046490
 20
223.494758
 30
0.0
  0
SPLINE
  5
260
100
AcDbEntity
  8
Mascara
 62
7
100
AcDbSpline
 70
8
 71
3
 72
8
 73
4
 74
0
 40
0
 40
0
 40
0
 40
0
 40
1
 40
1
 40
1
 40
1
 10
76.046490
 20
223.494758
 30
0.0
 10
68.509706
 20
214.058483
 30
0.0
 10
59.975674
 20
208.555778
 30
0.0
 10
49.632480
 20
206.463150
 30
0.0
  0
SPLINE
  5
261
100
AcDbEntity
  8
Mascara
 62
7
100
AcDbSpline
 70
8
 71
3
 72
8
 73
4
 74
0
 40
0
 40
0
 40
0
 40
0
 40
1
 40
1
 40
1
 40
1
 10
49.632480
 20
206.463150
 30
0.0
 10
47.261062
 20
205.983360
 30
0.0
 10
46.227780
 20
205.917278
 30
0.0
 10
41.171182
 20
205.922010
 30
0.0
  0
SPLINE
  5
262
100
AcDbEntity
  8
Mascara
 62
7
100
AcDbSpline
 70
8
 71
3
 72
8
 73
4
 74
0
 40
0
 40
0
 40
0
 40
0
 40
1
 40
1
 40
1
 40
1
 10
41.171182
 20
205.922010
 30
0.0
 10
35.807437
 20
205.927260
 30
0.0
 10
35.199097
 20
205.972785
 30
0.0
 10
32.328270
 20
206.587065
 30
0.0
  0
SPLINE
  5
263
100
AcDbEntity
  8
Mascara
 62
7
100
AcDbSpline
 70
8
 71
3
 72
8
 73
4
 74
0
 40
0
 40
0
 40
0
 40
0
 40
1
 40
1
 40
1
 40
1
 10
32.328270
 20
206.587065
 30
0.0
 10
30.632670
 20
206.949885
 30
0.0
 10
27.974910
 20
207.676020
 30
0.0
 10
26.422140
 20
208.200705
 30
0.0
  0
SPLINE
  5
264
100
AcDbEntity
  8
Mascara
 62
7
100
AcDbSpline
 70
8
 71
3
 72
8
 73
4
 74
0
 40
0
 40
0
 40
0
 40
0
 40
1
 40
1
 40
1
 40
1
 10
26.422140
 20
208.200705
 30
0.0
 10
22.375470
 20
209.568090
 30
0.0
 10
21.111952
 20
209.437823
 30
0.0
 10
20.405760
 20
207.580418
 30
0.0
  0
SPLINE
  5
265
100
AcDbEntity
  8
Mascara
 62
7
100
AcDbSpline
 70
8
 71
3
 72
8
 73
4
 74
0
 40
0
 40
0
 40
0
 40
0
 40
1
 40
1
 40
1
 40
1
 10
20.405760
 20
207.580418
 30
0.0
 10
19.584420
 20
205.420125
 30
0.0
 10
19.501207
 20
192.280913
 30
0.0
 10
20.275890
 20
187.074675
 30
0.0
  0
SPLINE
  5
266
100
AcDbEntity
  8
Mascara
 62
7
100
AcDbSpline
 70
8
 71
3
 72
8
 73
4
 74
0
 40
0
 40
0
 40
0
 40
0
 40
1
 40
1
 40
1
 40
1
 10
20.275890
 20
187.074675
 30
0.0
 10
21.908760
 20
176.100968
 30
0.0
 10
25.390147
 20
166.253303
 30
0.0
 10
30.839182
 20
157.194675
 30
0.0
  0
SPLINE
  5
267
100
AcDbEntity
  8
Mascara
 62
7
100
AcDbSpline
 70
8
 71
3
 72
8
 73
4
 74
0
 40
0
 40
0
 40
0
 40
0
 40
1
 40
1
 40
1
 40
1
 10
30.839182
 20
157.194675
 30
0.0
 10
32.539110
 20
154.368668
 30
0.0
 10
37.493490
 20
146.904765
 30
0.0
 10
43.079962
 20
138.753630
 30
0.0
  0
LWPOLYLINE
  5
268
100
AcDbEntity
  8
Mascara
 62
7
100
AcDbPolyline
 90
3
 70
0
 10
313.499107
 20
59.970120
 30
0.0
 10
313.571182
 20
60.954668
 30
0.0
 10
320.771182
 20
63.402165
 30
0.0
  0
SPLINE
  5
269
100
AcDbEntity
  8
Mascara
 62
7
100
AcDbSpline
 70
8
 71
3
 72
8
 73
4
 74
0
 40
0
 40
0
 40
0
 40
0
 40
1
 40
1
 40
1
 40
1
 10
43.781385
 20
135.831938
 30
0.0
 10
36.620640
 20
136.641120
 30
0.0
 10
31.549695
 20
138.050595
 30
0.0
 10
27.731190
 20
140.293110
 30
0.0
  0
SPLINE
  5
26a
100
AcDbEntity
  8
Mascara
 62
7
100
AcDbSpline
 70
8
 71
3
 72
8
 73
4
 74
0
 40
0
 40
0
 40
0
 40
0
 40
1
 40
1
 40
1
 40
1
 10
27.731190
 20
140.293110
 30
0.0
 10
25.696192
 20
141.488190
 30
0.0
 10
24.672007
 20
141.712710
 30
0.0
 10
24.005760
 20
141.109755
 30
0.0
  0
SPLINE
  5
26b
100
AcDbEntity
  8
Mascara
 62
7
100
AcDbSpline
 70
8
 71
3
 72
8
 73
4
 74
0
 40
0
 40
0
 40
0
 40
0
 40
1
 40
1
 40
1
 40
1
 10
24.005760
 20
141.109755
 30
0.0
 10
23.744745
 20
140.873550
 30
0.0
 10
23.531190
 20
140.465040
 30
0.0
 10
23.531190
 20
140.201955
 30
0.0
  0
SPLINE
  5
26c
100
AcDbEntity
  8
Mascara
 62
7
100
AcDbSpline
 70
8
 71
3
 72
8
 73
4
 74
0
 40
0
 40
0
 40
0
 40
0
 40
1
 40
1
 40
1
 40
1
 10
23.531190
 20
140.201955
 30
0.0
 10
23.531190
 20
139.005000
 30
0.0
 10
30.207645
 20
126.978698
 30
0.0
 10
34.216402
 20
120.954675
 30
0.0
  0
SPLINE
  5
26d
100
AcDbEntity
  8
Mascara
 62
7
100
AcDbSpline
 70
8
 71
3
 72
8
 73
4
 74
0
 40
0
 40
0
 40
0
 40
0
 40
1
 40
1
 40
1
 40
1
 10
34.216402
 20
120.954675
 30
0.0
 10
39.241905
 20
113.402760
 30
0.0
 10
43.484445
 20
108.448253
 30
0.0
 10
50.748765
 20
101.647800
 30
0.0
  0
SPLINE
  5
26e
100
AcDbEntity
  8
Mascara
 62
7
100
AcDbSpline
 70
8
 71
3
 72
8
 73
4
 74
0
 40
0
 40
0
 40
0
 40
0
 40
1
 40
1
 40
1
 40
1
 10
50.748765
 20
101.647800
 30
0.0
 10
67.001374
 20
86.433075
 30
0.0
 10
80.031900
 20
77.773800
 30
0.0
 10
96.371190
 20
71.329995
 30
0.0
  0
SPLINE
  5
26f
100
AcDbEntity
  8
Mascara
 62
7
100
AcDbSpline
 70
8
 71
3
 72
8
 73
4
 74
0
 40
0
 40
0
 40
0
 40
0
 40
1
 40
1
 40
1
 40
1
 10
96.371190
 20
71.329995
 30
0.0
 10
98.879190
 20
70.340903
 30
0.0
 10
105.899190
 20
67.668863
 30
0.0
 10
111.971190
 20
65.392125
 30
0.0
  0
SPLINE
  5
270
100
AcDbEntity
  8
Mascara
 62
7
100
AcDbSpline
 70
8
 71
3
 72
8
 73
4
 74
0
 40
0
 40
0
 40
0
 40
0
 40
1
 40
1
 40
1
 40
1
 10
111.971190
 20
65.392125
 30
0.0
 10
123.456052
 20
61.085805
 30
0.0
 10
124.331190
 20
60.661178
 30
0.0
 10
124.331190
 20
59.394668
 30
0.0
  0
SPLINE
  5
271
100
AcDbEntity
  8
Mascara
 62
7
100
AcDbSpline
 70
8
 71
3
 72
8
 73
4
 74
0
 40
0
 40
0
 40
0
 40
0
 40
1
 40
1
 40
1
 40
1
 10
124.331190
 20
59.394668
 30
0.0
 10
124.331190
 20
58.230525
 30
0.0
 10
123.050692
 20
57.350640
 30
0.0
 10
119.207220
 20
55.873680
 30
0.0
  0
SPLINE
  5
272
100
AcDbEntity
  8
Mascara
 62
7
100
AcDbSpline
 70
8
 71
3
 72
8
 73
4
 74
0
 40
0
 40
0
 40
0
 40
0
 40
1
 40
1
 40
1
 40
1
 10
119.207220
 20
55.873680
 30
0.0
 10
114.800955
 20
54.180458
 30
0.0
 10
114.002242
 20
53.443148
 30
0.0
 10
115.276942
 20
52.245623
 30
0.0
  0
SPLINE
  5
273
100
AcDbEntity
  8
Mascara
 62
7
100
AcDbSpline
 70
8
 71
3
 72
8
 73
4
 74
0
 40
0
 40
0
 40
0
 40
0
 40
1
 40
1
 40
1
 40
1
 10
115.276942
 20
52.245623
 30
0.0
 10
115.905922
 20
51.654743
 30
0.0
 10
117.491422
 20
51.254183
 30
0.0
 10
122.531190
 20
50.412938
 30
0.0
  0
SPLINE
  5
274
100
AcDbEntity
  8
Mascara
 62
7
100
AcDbSpline
 70
8
 71
3
 72
8
 73
4
 74
0
 40
0
 40
0
 40
0
 40
0
 40
1
 40
1
 40
1
 40
1
 10
122.531190
 20
50.412938
 30
0.0
 10
132.350812
 20
48.773828
 30
0.0
 10
141.778957
 20
48.382800
 30
0.0
 10
154.211190
 20
49.099058
 30
0.0
  0
LWPOLYLINE
  5
275
100
AcDbEntity
  8
Mascara
 62
7
100
AcDbPolyline
 90
3
 70
0
 10
43.079962
 20
138.753630
 30
0.0
 10
45.191587
 20
135.672578
 30
0.0
 10
43.781385
 20
135.831938
 30
0.0
  0
SPLINE
  5
276
100
AcDbEntity
  8
Mascara
 62
7
100
AcDbSpline
 70
8
 71
3
 72
8
 73
4
 74
0
 40
0
 40
0
 40
0
 40
0
 40
1
 40
1
 40
1
 40
1
 10
158.051190
 20
146.846153
 30
0.0
 10
160.144058
 20
147.412650
 30
0.0
 10
163.410240
 20
149.123963
 30
0.0
 10
164.549415
 20
150.250898
 30
0.0
  0
SPLINE
  5
277
100
AcDbEntity
  8
Mascara
 62
7
100
AcDbSpline
 70
8
 71
3
 72
8
 73
4
 74
0
 40
0
 40
0
 40
0
 40
0
 40
1
 40
1
 40
1
 40
1
 10
164.549415
 20
150.250898
 30
0.0
 10
166.327432
 20
152.009805
 30
0.0
 10
166.800322
 20
154.599023
 30
0.0
 10
165.734273
 20
156.738308
 30
0.0
  0
SPLINE
  5
278
100
AcDbEntity
  8
Mascara
 62
7
100
AcDbSpline
 70
8
 71
3
 72
8
 73
4
 74
0
 40
0
 40
0
 40
0
 40
0
 40
1
 40
1
 40
1
 40
1
 10
165.734273
 20
156.738308
 30
0.0
 10
162.710070
 20
162.807090
 30
0.0
 10
150.560483
 20
169.806045
 30
0.0
 10
138.922980
 20
172.183365
 30
0.0
  0
SPLINE
  5
279
100
AcDbEntity
  8
Mascara
 62
7
100
AcDbSpline
 70
8
 71
3
 72
8
 73
4
 74
0
 40
0
 40
0
 40
0
 40
0
 40
1
 40
1
 40
1
 40
1
 10
138.922980
 20
172.183365
 30
0.0
 10
132.829162
 20
173.428215
 30
0.0
 10
125.954227
 20
173.404110
 30
0.0
 10
123.405277
 20
172.128990
 30
0.0
  0
SPLINE
  5
27a
100
AcDbEntity
  8
Mascara
 62
7
100
AcDbSpline
 70
8
 71
3
 72
8
 73
4
 74
0
 40
0
 40
0
 40
0
 40
0
 40
1
 40
1
 40
1
 40
1
 10
123.405277
 20
172.128990
 30
0.0
 10
122.629200
 20
171.740745
 30
0.0
 10
121.523160
 20
170.070698
 30
0.0
 10
121.171613
 20
168.756308
 30
0.0
  0
SPLINE
  5
27b
100
AcDbEntity
  8
Mascara
 62
7
100
AcDbSpline
 70
8
 71
3
 72
8
 73
4
 74
0
 40
0
 40
0
 40
0
 40
0
 40
1
 40
1
 40
1
 40
1
 10
121.171613
 20
168.756308
 30
0.0
 10
120.313245
 20
165.546968
 30
0.0
 10
122.842470
 20
160.732463
 30
0.0
 10
128.173965
 20
155.427008
 30
0.0
  0
SPLINE
  5
27c
100
AcDbEntity
  8
Mascara
 62
7
100
AcDbSpline
 70
8
 71
3
 72
8
 73
4
 74
0
 40
0
 40
0
 40
0
 40
0
 40
1
 40
1
 40
1
 40
1
 10
128.173965
 20
155.427008
 30
0.0
 10
132.973807
 20
150.650595
 30
0.0
 10
138.268568
 20
147.718935
 30
0.0
 10
144.084600
 20
146.617448
 30
0.0
  0
SPLINE
  5
27d
100
AcDbEntity
  8
Mascara
 62
7
100
AcDbSpline
 70
8
 71
3
 72
8
 73
4
 74
0
 40
0
 40
0
 40
0
 40
0
 40
1
 40
1
 40
1
 40
1
 10
144.084600
 20
146.617448
 30
0.0
 10
146.551245
 20
146.150288
 30
0.0
 10
156.055305
 20
146.305928
 30
0.0
 10
158.051190
 20
146.846183
 30
0.0
  0
LWPOLYLINE
  5
27e
100
AcDbEntity
  8
Mascara
 62
7
100
AcDbPolyline
 90
1
 70
1
 10
154.211190
 20
49.099058
 30
0.0
  0
SPLINE
  5
27f
100
AcDbEntity
  8
Mascara
 62
7
100
AcDbSpline
 70
8
 71
3
 72
8
 73
4
 74
0
 40
0
 40
0
 40
0
 40
0
 40
1
 40
1
 40
1
 40
1
 10
292.892108
 20
148.030853
 30
0.0
 10
299.721405
 20
149.843993
 30
0.0
 10
306.118507
 20
154.451153
 30
0.0
 10
311.308508
 20
161.294220
 30
0.0
  0
SPLINE
  5
280
100
AcDbEntity
  8
Mascara
 62
7
100
AcDbSpline
 70
8
 71
3
 72
8
 73
4
 74
0
 40
0
 40
0
 40
0
 40
0
 40
1
 40
1
 40
1
 40
1
 10
311.308508
 20
161.294220
 30
0.0
 10
313.306868
 20
163.929083
 30
0.0
 10
314.240828
 20
166.122060
 30
0.0
 10
314.363970
 20
168.468653
 30
0.0
  0
SPLINE
  5
281
100
AcDbEntity
  8
Mascara
 62
7
100
AcDbSpline
 70
8
 71
3
 72
8
 73
4
 74
0
 40
0
 40
0
 40
0
 40
0
 40
1
 40
1
 40
1
 40
1
 10
314.363970
 20
168.468653
 30
0.0
 10
314.477880
 20
170.638388
 30
0.0
 10
314.132663
 20
171.654405
 30
0.0
 10
312.795120
 20
173.086260
 30
0.0
  0
SPLINE
  5
282
100
AcDbEntity
  8
Mascara
 62
7
100
AcDbSpline
 70
8
 71
3
 72
8
 73
4
 74
0
 40
0
 40
0
 40
0
 40
0
 40
1
 40
1
 40
1
 40
1
 10
312.795120
 20
173.086260
 30
0.0
 10
311.942130
 20
173.999393
 30
0.0
 10
310.923578
 20
174.301373
 30
0.0
 10
307.691183
 20
174.599445
 30
0.0
  0
SPLINE
  5
283
100
AcDbEntity
  8
Mascara
 62
7
100
AcDbSpline
 70
8
 71
3
 72
8
 73
4
 74
0
 40
0
 40
0
 40
0
 40
0
 40
1
 40
1
 40
1
 40
1
 10
307.691183
 20
174.599445
 30
0.0
 10
301.820708
 20
175.140795
 30
0.0
 10
294.095783
 20
173.827755
 30
0.0
 10
287.100578
 20
171.099555
 30
0.0
  0
SPLINE
  5
284
100
AcDbEntity
  8
Mascara
 62
7
100
AcDbSpline
 70
8
 71
3
 72
8
 73
4
 74
0
 40
0
 40
0
 40
0
 40
0
 40
1
 40
1
 40
1
 40
1
 10
287.100578
 20
171.099555
 30
0.0
 10
278.011515
 20
167.554740
 30
0.0
 10
270.512565
 20
162.119430
 30
0.0
 10
268.531245
 20
157.640310
 30
0.0
  0
SPLINE
  5
285
100
AcDbEntity
  8
Mascara
 62
7
100
AcDbSpline
 70
8
 71
3
 72
8
 73
4
 74
0
 40
0
 40
0
 40
0
 40
0
 40
1
 40
1
 40
1
 40
1
 10
268.531245
 20
157.640310
 30
0.0
 10
267.582840
 20
155.496278
 30
0.0
 10
268.279560
 20
152.764493
 30
0.0
 10
270.222480
 20
151.009193
 30
0.0
  0
SPLINE
  5
286
100
AcDbEntity
  8
Mascara
 62
7
100
AcDbSpline
 70
8
 71
3
 72
8
 73
4
 74
0
 40
0
 40
0
 40
0
 40
0
 40
1
 40
1
 40
1
 40
1
 10
270.222480
 20
151.009193
 30
0.0
 10
271.499063
 20
149.855858
 30
0.0
 10
275.285715
 20
148.049693
 30
0.0
 10
277.091183
 20
147.732930
 30
0.0
  0
SPLINE
  5
287
100
AcDbEntity
  8
Mascara
 62
7
100
AcDbSpline
 70
8
 71
3
 72
8
 73
4
 74
0
 40
0
 40
0
 40
0
 40
0
 40
1
 40
1
 40
1
 40
1
 10
277.091183
 20
147.732930
 30
0.0
 10
277.883183
 20
147.593978
 30
0.0
 10
278.801182
 20
147.434130
 30
0.0
 10
279.131183
 20
147.377708
 30
0.0
  0
SPLINE
  5
288
100
AcDbEntity
  8
Mascara
 62
7
100
AcDbSpline
 70
8
 71
3
 72
8
 73
4
 74
0
 40
0
 40
0
 40
0
 40
0
 40
1
 40
1
 40
1
 40
1
 10
279.131183
 20
147.377708
 30
0.0
 10
279.461183
 20
147.321308
 30
0.0
 10
282.161183
 20
147.304133
 30
0.0
 10
285.131183
 20
147.339608
 30
0.0
  0
SPLINE
  5
289
100
AcDbEntity
  8
Mascara
 62
7
100
AcDbSpline
 70
8
 71
3
 72
8
 73
4
 74
0
 40
0
 40
0
 40
0
 40
0
 40
1
 40
1
 40
1
 40
1
 10
285.131183
 20
147.339608
 30
0.0
 10
290.072108
 20
147.398558
 30
0.0
 10
290.731898
 20
147.457358
 30
0.0
 10
292.892108
 20
148.030883
 30
0.0
  0
LWPOLYLINE
  5
28a
100
AcDbEntity
  8
Mascara
 62
7
100
AcDbPolyline
 90
1
 70
1
 10
158.051190
 20
146.846183
 30
0.0
  0
LWPOLYLINE
  5
28b
100
AcDbEntity
  8
Mascara
 62
7
100
AcDbPolyline
 90
1
 70
1
 10
292.892108
 20
148.030883
 30
0.0
  0
ENDSEC
  0
SECTION
  2
OBJECTS
  0
DICTIONARY
  5
C
330
0
100
AcDbDictionary
  3
ACAD_GROUP
350
D
  3
ACAD_MLINESTYLE
350
17
  0
DICTIONARY
  5
D
330
C
100
AcDbDictionary
  0
DICTIONARY
  5
1A
330
C
100
AcDbDictionary
  0
DICTIONARY
  5
17
330
C
100
AcDbDictionary
  3
STANDARD
350
18
  0
DICTIONARY
  5
19
330
C
100
AcDbDictionary
  0
ENDSEC
  0
EOF
