<?xml version="1.0" encoding="UTF-8" standalone="no"?>
<!-- Created with Inkscape (http://www.inkscape.org/) -->

<svg
   xmlns:dc="http://purl.org/dc/elements/1.1/"
   xmlns:cc="http://creativecommons.org/ns#"
   xmlns:rdf="http://www.w3.org/1999/02/22-rdf-syntax-ns#"
   xmlns:svg="http://www.w3.org/2000/svg"
   xmlns="http://www.w3.org/2000/svg"
   xmlns:sodipodi="http://sodipodi.sourceforge.net/DTD/sodipodi-0.dtd"
   xmlns:inkscape="http://www.inkscape.org/namespaces/inkscape"
   version="1.1"
   id="svg3713"
   width="50mm"
   height="50mm"
   viewBox="0 0 188.97637 188.97637"
   sodipodi:docname="Logo Mapaches.svg"
   inkscape:version="0.92.3 (2405546, 2018-03-11)"
   inkscape:export-filename="C:\Users\ETC\Desktop\Logo Mapaches.png"
   inkscape:export-xdpi="96"
   inkscape:export-ydpi="96">
  <metadata
     id="metadata3719">
    <rdf:RDF>
      <cc:Work
         rdf:about="">
        <dc:format>image/svg+xml</dc:format>
        <dc:type
           rdf:resource="http://purl.org/dc/dcmitype/StillImage" />
        <dc:title></dc:title>
      </cc:Work>
    </rdf:RDF>
  </metadata>
  <defs
     id="defs3717" />
  <sodipodi:namedview
     pagecolor="#ffffff"
     bordercolor="#666666"
     borderopacity="1"
     objecttolerance="10"
     gridtolerance="10"
     guidetolerance="10"
     inkscape:pageopacity="0"
     inkscape:pageshadow="2"
     inkscape:window-width="1920"
     inkscape:window-height="1027"
     id="namedview3715"
     showgrid="false"
     inkscape:zoom="3.3432043"
     inkscape:cx="110.71245"
     inkscape:cy="112.9558"
     inkscape:window-x="-8"
     inkscape:window-y="-8"
     inkscape:window-maximized="1"
     inkscape:current-layer="layer1"
     units="mm" />
  <g
     inkscape:groupmode="layer"
     id="layer1"
     inkscape:label="SeriGrafia"
     transform="translate(0,-324.30367)" />
  <g
     inkscape:groupmode="layer"
     id="layer2"
     inkscape:label="Mascara"
     transform="translate(0,-324.30367)">
    <path
       style="fill:#000000;stroke-width:0.09569909"
       d="m 93.86629,487.39256 c -2.175053,-0.27224 -4.366256,-1.07816 -6.22909,-2.29105 -0.39476,-0.25704 -0.836485,-0.49634 -0.981616,-0.53178 -0.365399,-0.0892 -0.715802,0.16247 -0.943913,0.67822 -0.545148,1.2324 -1.229482,1.4298 -2.962099,0.85446 -1.51614,-0.50345 -2.864907,-1.33454 -4.215165,-2.59729 -0.828871,-0.77514 -1.345804,-1.05392 -2.428948,-1.3099 -1.428199,-0.33751 -2.067815,-0.37028 -8.708617,-0.44617 -6.51014,-0.0745 -7.553757,-0.12095 -9.761308,-0.43468 -2.527376,-0.35928 -3.52646,-0.63672 -8.726759,-2.42344 -4.222794,-1.45086 -5.707685,-2.05813 -7.289301,-2.98105 -0.481767,-0.28113 -0.509214,-0.31721 -0.453434,-0.59612 0.07945,-0.39724 0.303929,-0.62724 0.718649,-0.73632 1.128559,-0.29679 2.063602,-0.47805 2.735769,-0.53032 0.940738,-0.0731 1.778379,-0.2274 1.937907,-0.35682 0.17625,-0.14294 0.145609,-0.26501 -0.06654,-0.26501 -0.372207,0 -4.462825,-2.18648 -7.197995,-3.8474 -1.105841,-0.67152 -3.680545,-2.46067 -5.726609,-3.97939 -5.223168,-3.87696 -7.452616,-5.97265 -10.792062,-10.14453 -3.576927,-4.46855 -6.542999,-9.42882 -8.853243,-14.80562 -0.906104,-2.10884 -1.503396,-3.13631 -2.46353,-4.2378 -0.405265,-0.46493 -0.785851,-0.9369 -0.84575,-1.04882 -0.137139,-0.25623 -0.128486,-0.92012 0.01807,-1.38765 l 0.112272,-0.35816 1.818283,0.84732 c 1.000056,0.46601 2.565232,1.19642 3.478175,1.62314 0.912939,0.4267 1.636906,0.72336 1.608815,0.65922 -0.02808,-0.0642 -0.306889,-0.69798 -0.619544,-1.40854 -1.139791,-2.59037 -2.64079,-7.11233 -3.208688,-9.66662 -0.519916,-2.33846 -0.588019,-3.07486 -0.588457,-6.36298 -5.99e-4,-3.24853 0.04757,-3.85911 0.526661,-6.69894 0.375263,-2.22438 0.459414,-2.57601 0.703399,-2.93925 0.174568,-0.25988 0.281294,-0.31963 0.614413,-0.34393 0.340091,-0.0248 0.609037,0.0746 1.719459,0.63558 3.685695,1.86194 6.050853,2.56778 8.93561,2.66667 2.4636,0.0844 3.936785,-0.20839 5.874274,-1.16768 1.392458,-0.68943 2.43248,-1.48976 3.879169,-2.98515 1.814991,-1.87607 2.768609,-3.32715 4.012736,-6.10604 1.447944,-3.23414 1.718182,-4.13086 1.541421,-5.1148 -0.116061,-0.646 -0.217358,-0.85719 -1.631963,-3.40241 -2.082247,-3.74648 -3.686938,-7.77959 -4.641827,-11.66641 -0.897247,-3.65222 -1.388256,-7.86898 -1.388384,-11.92343 -1.92e-4,-4.83336 0.796949,-8.69591 2.547639,-12.34518 0.811569,-1.69171 1.343423,-2.53115 1.992762,-3.14527 0.735944,-0.69603 1.230766,-0.89537 2.349218,-0.94643 1.09061,-0.0498 2.19769,0.11515 4.402157,0.65608 7.075644,1.73597 13.10182,5.23668 18.986562,11.02957 0.836814,0.82376 1.750642,1.64983 2.030729,1.83576 0.836551,0.55527 1.677902,0.82777 2.723552,0.88214 1.221488,0.0635 2.016906,-0.10523 4.633937,-0.9826 5.665292,-1.89946 10.630076,-2.66031 19.714013,-3.02116 3.509586,-0.13947 9.942851,-0.0632 12.105931,0.14344 6.21868,0.59398 11.47555,1.72032 17.26801,3.69985 2.94927,1.00788 2.99068,0.99711 5.86359,-1.52715 6.64656,-5.83998 11.08703,-8.77443 16.802,-11.10344 3.4971,-1.42517 4.68578,-1.80424 6.3542,-2.02639 1.36026,-0.18111 3.05297,0.0265 3.95083,0.48455 1.26256,0.64411 2.72361,3.32343 3.86268,7.08347 0.80514,2.65772 1.15226,5.2581 1.14978,8.61292 -0.002,3.07461 -0.24822,5.45032 -0.9064,8.75646 -1.26476,6.35301 -3.47764,12.30617 -6.49205,17.46507 -0.4767,0.81585 -0.91407,1.65561 -0.97193,1.86614 -0.16396,0.59683 -0.0521,1.44676 0.2962,2.25119 0.17042,0.39351 0.51731,1.23709 0.77086,1.87462 1.37719,3.4628 2.97618,5.75394 5.47693,7.84774 3.81775,3.19647 7.20626,3.81731 12.75405,2.33676 1.73367,-0.46267 3.10691,-1.05948 4.82998,-2.09908 1.8564,-1.12005 2.2618,-0.88472 2.72953,1.58458 1.04282,5.50507 0.89506,10.98714 -0.43736,16.22716 -0.69378,2.72844 -2.43675,7.06785 -3.2352,8.05451 -0.34733,0.42923 -0.38132,0.74394 -0.10969,1.0156 0.2511,0.2511 0.27898,0.24643 0.77381,-0.12971 0.61849,-0.47003 5.67109,-3.21982 5.91628,-3.21982 0.11499,0 0.31879,0.10985 0.45301,0.24406 0.19017,0.19015 0.22999,0.30113 0.18035,0.50241 -0.0351,0.14212 -0.59385,1.24885 -1.24183,2.45944 -0.64799,1.2106 -1.77057,3.34229 -2.49463,4.73712 -4.70509,9.06387 -7.35669,13.07217 -11.38648,17.2123 -3.7447,3.84728 -8.02186,7.20122 -12.83988,10.0684 -2.0139,1.19846 -3.37472,1.86267 -5.86928,2.86475 -1.07901,0.43345 -2.50014,1.04644 -3.15807,1.3622 l -1.19624,0.57413 0.49832,0.23242 c 1.16708,0.54433 2.3724,0.7363 6.24595,0.99476 0.86709,0.0579 1.61462,0.12871 1.66118,0.1575 0.11019,0.0682 -0.29519,0.40099 -1.14667,0.94152 -0.60388,0.38334 -2.15284,1.06638 -5.3448,2.3569 -7.08122,2.86294 -14.00861,4.15645 -20.33179,3.79644 -4.98608,-0.28388 -7.54916,-0.046 -10.10052,0.93722 -1.39186,0.5364 -2.71352,1.3179 -3.78475,2.23797 -0.76938,0.6608 -1.18665,0.92375 -1.58427,0.99835 -0.30309,0.0569 -0.47086,0.003 -1.22339,-0.39547 l -0.87213,-0.46136 h -1.00483 c -0.98654,0 -1.0397,0.0116 -2.91882,0.64335 -3.38902,1.1392 -5.228595,1.50703 -7.799477,1.5596 -0.921102,0.0189 -1.993828,-0.005 -2.383827,-0.0546 z m -9.92047,-4.0119 c 0.355662,-0.13517 1.046502,-0.80222 1.527796,-1.47505 1.108971,-1.55031 2.718738,-2.64345 5.021837,-3.41013 4.582386,-1.52542 10.176477,-1.18752 14.276147,0.86236 1.60245,0.80124 2.92088,1.89733 4.00108,3.32634 0.45279,0.59901 0.65154,0.78952 0.82366,0.78952 0.26302,0 2.20855,-1.26265 3.1053,-2.01536 1.39337,-1.16954 2.18811,-2.49061 2.87519,-4.77927 1.92473,-6.41141 1.91135,-13.11097 -0.0414,-20.72479 -0.98672,-3.84723 -2.68655,-7.31477 -4.99328,-10.18602 -1.38579,-1.72494 -3.74459,-3.87353 -5.75375,-5.24103 -0.4358,-0.29664 -0.77154,-0.58452 -0.74606,-0.63975 0.0255,-0.0553 0.19831,-0.46647 0.38407,-0.91385 0.65854,-1.58613 0.47494,-1.83943 -1.81228,-2.50009 -3.792675,-1.09552 -7.573025,-1.10594 -11.492651,-0.0316 -1.202612,0.32958 -1.824289,0.58655 -2.035876,0.84151 -0.241478,0.29095 -0.231135,0.79151 0.0358,1.73242 0.144054,0.50777 0.245863,0.93571 0.226236,0.95098 -0.01962,0.0149 -0.500926,0.27174 -1.069557,0.56991 -4.279006,2.2438 -7.446762,5.91638 -9.484797,10.99635 -1.367911,3.40961 -2.34356,7.24205 -2.795906,10.98257 -0.230117,1.90286 -0.231056,5.73937 -0.0018,7.65593 0.631444,5.28056 1.661776,8.14054 3.807481,10.56879 0.720845,0.81579 2.300151,2.15247 2.893376,2.44892 0.605087,0.30237 0.856413,0.34087 1.249488,0.19142 z m 12.112899,-9.03921 c -2.081796,-0.57731 -4.626871,-2.75977 -5.874455,-5.03748 -0.910439,-1.66221 -0.9885,-3.14027 -0.243019,-4.60154 0.319584,-0.62644 1.110889,-1.4822 1.781209,-1.92627 0.78041,-0.51702 1.144919,-0.67606 2.278735,-0.99433 1.179668,-0.33112 3.636037,-0.42362 4.829206,-0.18186 2.316145,0.46932 4.119395,1.69271 4.938815,3.35068 0.32138,0.65029 0.3707,0.84287 0.40624,1.5861 0.0319,0.66873 -0.001,0.98351 -0.15899,1.50266 -0.21857,0.71959 -0.77082,1.63563 -1.25652,2.08427 -0.17094,0.15784 -0.66881,0.72042 -1.10638,1.25005 -2.045165,2.47548 -3.873215,3.44515 -5.594808,2.96772 z m 2.422746,-7.46954 c 1.27565,-0.27029 1.829025,-0.79191 1.829025,-1.72406 0,-1.34786 -1.296405,-1.94519 -4.001382,-1.84363 -1.822151,0.0683 -2.511029,0.36601 -2.877546,1.24321 -0.321485,0.76942 -0.02404,1.67626 0.665326,2.02846 0.812438,0.41506 3.095354,0.56919 4.384577,0.29602 z M 70.65061,478.29622 c 2.913043,-0.16781 3.397318,-0.2778 3.397318,-0.77157 0,-0.0976 -0.168786,-0.57541 -0.375081,-1.06179 -0.206293,-0.48637 -0.657889,-1.6666 -1.003542,-2.62268 -0.789449,-2.18367 -1.170609,-3.0208 -1.819369,-3.99578 -0.85182,-1.28019 -1.682774,-1.97028 -4.122988,-3.42412 -2.420035,-1.44183 -4.688265,-2.57047 -7.033883,-3.50003 -0.657932,-0.26074 -4.404551,-1.53633 -8.325822,-2.83469 -3.92127,-1.29835 -7.753171,-2.59646 -8.51534,-2.8847 -3.031526,-1.14644 -5.237325,-2.50467 -8.356467,-5.14555 -0.992127,-0.84 -1.410275,-1.30691 -1.405254,-1.56912 0.0081,-0.42207 0.886241,-0.60188 3.395852,-0.69527 1.765211,-0.0657 2.196709,-0.11102 2.670634,-0.28009 0.310887,-0.11101 0.682182,-0.20171 0.825096,-0.20171 0.707596,0 2.200718,-0.50107 3.705628,-1.24356 0.85531,-0.42197 1.55511,-0.81101 1.55511,-0.86452 0,-0.23715 -0.816867,-0.94673 -1.577342,-1.37019 -2.268801,-1.26334 -4.214555,-2.77026 -6.369997,-4.93333 -3.616367,-3.62916 -5.347846,-6.42687 -6.357687,-10.27268 -0.579203,-2.20579 -0.901123,-4.63707 -1.056182,-7.97671 -0.0811,-1.7467 -0.0139,-2.19593 0.389147,-2.59901 0.402317,-0.4024 0.650957,-0.40061 2.062501,0.0149 2.301427,0.6772 3.985714,0.91834 6.414656,0.91834 4.362947,0 9.093986,-1.23279 11.839735,-3.08512 1.360039,-0.91751 2.475163,-2.12363 4.579897,-4.9536 2.374516,-3.19273 4.032452,-6.02846 5.432001,-9.29089 0.979866,-2.28413 1.524019,-2.70878 3.448143,-2.69091 3.680548,0.0343 8.5515,1.20885 13.228401,3.19013 0.882725,0.37396 1.768287,0.72727 1.967912,0.78514 0.685572,0.19875 0.844867,-0.13103 0.640959,-1.32726 -0.151664,-0.88968 -0.0015,-1.30575 0.535729,-1.48301 0.471525,-0.15568 1.805552,-0.0698 3.106975,0.1999 3.599065,0.74579 7.102877,2.77026 9.721857,5.61715 1.932569,2.10077 2.6986,2.70296 3.438312,2.70296 0.89028,0 1.602986,-0.4905 3.550911,-2.44385 1.60403,-1.6085 2.78909,-2.57362 4.34132,-3.53558 2.41205,-1.49483 5.38705,-2.46986 7.95365,-2.60679 1.01457,-0.0541 1.02049,-0.0531 1.28095,0.20731 0.24885,0.24884 0.25873,0.29348 0.20141,0.9102 -0.0359,0.38638 -0.018,0.76972 0.0443,0.94838 0.0887,0.25429 0.15255,0.29989 0.42009,0.29989 0.17357,0 0.62835,-0.13302 1.01062,-0.29577 1.89287,-0.80549 6.54027,-2.21941 8.76462,-2.66654 2.19772,-0.44177 5.23275,-0.62254 6.2312,-0.37113 0.6023,0.15172 1.18641,0.7416 1.41401,1.4281 0.96897,2.92268 2.83436,6.35853 5.1709,9.52423 0.47058,0.63754 1.24318,1.68943 1.71688,2.33752 1.61458,2.20887 2.77174,3.19076 5.07207,4.3038 4.12385,1.99536 8.47393,2.64404 13.75856,2.05162 1.04145,-0.1168 1.37372,-0.19898 2.24893,-0.55657 0.56481,-0.23077 1.18451,-0.4477 1.3771,-0.48205 0.71478,-0.12755 1.58122,0.47809 1.79731,1.2562 0.14179,0.51073 0.1259,0.81133 -0.0979,1.84483 -0.13682,0.63195 -0.22239,1.52185 -0.28044,2.91881 -0.046,1.10533 -0.15238,2.41819 -0.23652,2.91749 -0.79057,4.69026 -2.92933,8.58786 -6.73038,12.26527 -2.09145,2.02343 -4.82748,4.10618 -6.38174,4.85798 -1.0176,0.49222 -1.22899,0.66489 -1.32896,1.08566 -0.23745,0.99919 1.36155,1.61607 5.49188,2.1187 1.079,0.13136 2.72168,0.33081 3.65039,0.44334 0.92873,0.11251 1.91921,0.25558 2.20108,0.31791 0.50808,0.11234 0.51275,0.11664 0.54092,0.49773 0.0415,0.56177 -0.32895,1.00822 -1.73288,2.0882 -3.68282,2.83307 -6.10177,4.24566 -9.12939,5.33127 -0.72596,0.26031 -2.95638,0.99187 -4.95649,1.62567 -8.0492,2.5507 -9.75177,3.17546 -14.06089,5.15968 -4.72026,2.17357 -6.12879,3.08341 -7.41419,4.78927 -0.77491,1.02838 -1.09924,1.74039 -2.00389,4.39924 -0.42087,1.23691 -0.85677,2.46156 -0.96867,2.72144 -0.11185,0.25988 -0.2282,0.65308 -0.25846,0.87377 -0.10804,0.78817 0.28425,0.92478 3.1401,1.09353 3.42461,0.20234 8.21674,0.113 10.42943,-0.19446 0.34894,-0.0485 1.23176,-0.1542 1.96184,-0.23495 0.73007,-0.0807 1.62033,-0.23906 1.97836,-0.35182 0.65079,-0.20499 1.64335,-0.80816 1.62696,-0.98869 -0.005,-0.0526 -0.36853,-0.23902 -0.80835,-0.41418 -2.00119,-0.79704 -2.90797,-1.21527 -3.21024,-1.48066 -0.28613,-0.25123 -0.32293,-0.33519 -0.29775,-0.67925 l 0.0288,-0.39259 2.87097,-0.97592 c 6.81328,-2.31603 10.14981,-3.67699 13.87637,-5.66009 5.83906,-3.10727 11.16377,-7.55372 17.32295,-14.46564 1.4832,-1.66445 2.78153,-3.68893 4.06092,-6.33208 0.61797,-1.27673 2.01455,-4.42432 2.01455,-4.54038 0,-0.0165 -0.33375,0.11283 -0.74166,0.28726 -2.23694,0.95683 -4.3754,1.52053 -6.3798,1.68176 -0.67976,0.0546 -1.25001,0.0854 -1.26718,0.0682 -0.0172,-0.0172 0.86381,-1.2893 1.95777,-2.82697 2.25376,-3.16793 3.23437,-4.67463 4.35747,-6.69511 3.08934,-5.55789 4.47495,-11.42336 3.9828,-16.85995 -0.12822,-1.41703 -0.32047,-2.18404 -0.62352,-2.48818 -0.20328,-0.20401 -0.31903,-0.23723 -0.78605,-0.22555 -0.30123,0.008 -0.8922,0.12408 -1.31328,0.25892 -2.29157,0.73402 -4.21445,1.0524 -6.36398,1.05376 -1.70235,10e-4 -2.59614,-0.10423 -4.01936,-0.47346 -4.31906,-1.12053 -8.258,-4.17135 -11.05556,-8.56287 -1.27155,-1.99604 -3.22518,-6.26135 -3.49422,-7.62881 -0.17522,-0.89063 -0.0683,-2.73653 0.21844,-3.77111 0.17569,-0.63389 0.31311,-0.92288 0.57858,-1.21673 0.64364,-0.71242 1.20587,-2.05611 2.34648,-5.60785 2.77079,-8.62806 3.04753,-9.56996 3.45861,-11.77099 0.46352,-2.48176 0.61741,-5.61365 0.38223,-7.77932 -0.12954,-1.19292 -0.49223,-3.00182 -0.80992,-4.03952 -0.13931,-0.45517 -0.28462,-1.23632 -0.3298,-1.77359 -0.09,-1.06971 -0.37749,-1.93142 -1.08229,-3.24367 -0.33873,-0.63071 -0.47982,-0.79742 -0.83662,-0.98846 -0.65093,-0.34853 -1.1688,-0.26956 -3.16259,0.48224 -6.63465,2.50176 -10.63839,4.62933 -14.54027,7.72665 -0.81583,0.6476 -1.87091,1.43337 -2.34463,1.74615 -1.72385,1.13818 -3.61073,1.93239 -5.28428,2.22424 -0.94064,0.16395 -2.94489,0.18649 -3.85498,0.0432 -0.95698,-0.15072 -4.13744,-0.88875 -7.41668,-1.72114 -5.46469,-1.38713 -9.37063,-2.04637 -14.83336,-2.50354 -2.250225,-0.18833 -8.062946,-0.15982 -10.048394,0.0491 -4.777878,0.5031 -9.334167,1.34269 -14.641961,2.69804 -5.091204,1.30006 -7.223963,1.63184 -9.952705,1.54829 -1.026705,-0.0314 -1.815663,-0.10373 -2.138603,-0.19584 -0.819985,-0.23399 -1.825661,-0.75738 -2.598502,-1.35234 -6.059547,-4.66484 -11.492893,-7.76357 -17.682716,-10.08472 -2.704157,-1.01404 -3.117251,-1.05859 -3.683414,-0.39716 -0.448774,0.5243 -1.057175,2.0793 -1.497887,3.82846 -0.205555,0.81583 -0.522895,1.87117 -0.705202,2.34519 -0.905402,2.3542 -1.241568,5.36037 -0.923374,8.25725 0.51458,4.68482 2.884521,12.05555 6.160341,19.15926 0.737247,1.59874 0.91389,2.43126 0.91389,4.30717 0,3.86588 -1.481961,7.44712 -4.801651,11.60349 -3.005264,3.76267 -6.408177,5.95685 -10.532487,6.79128 -0.945595,0.19132 -1.357611,0.21767 -3.37391,0.21579 -2.138774,-0.002 -2.381347,-0.0202 -3.526078,-0.2652 -0.676115,-0.1446 -1.735886,-0.43421 -2.355048,-0.64343 -1.613593,-0.54525 -2.117416,-0.4933 -2.399008,0.24734 -0.327507,0.86141 -0.360687,6.10062 -0.05178,8.17659 0.651101,4.37571 2.039291,8.30244 4.212072,11.91453 0.67784,1.12687 2.65338,4.10306 4.880965,7.35329 l 0.842002,1.22857 -0.562313,-0.0635 c -2.85532,-0.32267 -4.877339,-0.88469 -6.399954,-1.77887 -0.811446,-0.47654 -1.219837,-0.56608 -1.4855,-0.32565 -0.104082,0.0941 -0.189234,0.25709 -0.189234,0.36199 0,0.47728 2.662212,5.27272 4.260688,7.67478 2.0039,3.0113 3.695597,4.98689 6.592218,7.69853 6.480665,6.06683 11.676538,9.51968 18.191769,12.08913 1.000055,0.39439 3.799254,1.45986 6.22044,2.36769 4.579546,1.71713 4.928504,1.88645 4.928504,2.39146 0,0.46421 -0.510594,0.81505 -2.043164,1.40399 -1.756981,0.67517 -2.075465,0.96917 -1.567183,1.44668 0.250802,0.23561 0.883015,0.39533 2.892603,0.73077 3.915538,0.65358 7.674975,0.80951 12.63228,0.5239 z m 1.531187,-38.97626 c 0.834522,-0.2259 2.1369,-0.90827 2.591142,-1.35764 0.708978,-0.70136 0.897541,-1.73379 0.472458,-2.58683 -1.20589,-2.4199 -6.050491,-5.2107 -10.690903,-6.15866 -2.429885,-0.49637 -5.17124,-0.48676 -6.187624,0.0217 -0.309458,0.15486 -0.750488,0.82075 -0.890665,1.34485 -0.342272,1.27971 0.666247,3.19947 2.792161,5.31502 1.913919,1.90456 4.025184,3.07355 6.344305,3.51276 0.983566,0.18629 4.773274,0.12425 5.569126,-0.0912 z m 53.767303,-0.4724 c 2.72316,-0.72299 5.27398,-2.56008 7.34347,-5.28872 0.79684,-1.05064 1.16924,-1.92508 1.21835,-2.86077 0.0453,-0.86519 -0.0923,-1.27031 -0.62557,-1.84127 -0.34012,-0.36409 -0.74628,-0.48451 -2.03518,-0.60336 -2.34083,-0.21588 -5.42111,0.30769 -8.21043,1.39555 -3.62423,1.41349 -6.6144,3.5808 -7.40445,5.36684 -0.37816,0.85492 -0.10043,1.9442 0.67437,2.64412 0.50905,0.45989 2.01896,1.1801 2.73888,1.3064 0.3158,0.0554 0.68185,0.11912 0.81345,0.14162 0.13153,0.0225 1.2082,0.0293 2.39246,0.0149 1.97018,-0.0235 2.23328,-0.047 3.09465,-0.27563 z"
       id="path3723"
       inkscape:connector-curvature="0" />
  </g>
</svg>
