<?xml version="1.0" encoding="UTF-8" standalone="no"?>
<!-- Created with Inkscape (http://www.inkscape.org/) -->

<svg
   width="150mm"
   height="100mm"
   viewBox="0 0 150 100"
   version="1.1"
   id="svg5"
   xml:space="preserve"
   inkscape:version="1.2.1 (9c6d41e410, 2022-07-14)"
   sodipodi:docname="barra sensor.svg"
   xmlns:inkscape="http://www.inkscape.org/namespaces/inkscape"
   xmlns:sodipodi="http://sodipodi.sourceforge.net/DTD/sodipodi-0.dtd"
   xmlns="http://www.w3.org/2000/svg"
   xmlns:svg="http://www.w3.org/2000/svg"><sodipodi:namedview
     id="namedview7"
     pagecolor="#ffffff"
     bordercolor="#000000"
     borderopacity="0.25"
     inkscape:showpageshadow="2"
     inkscape:pageopacity="0.0"
     inkscape:pagecheckerboard="0"
     inkscape:deskcolor="#d1d1d1"
     inkscape:document-units="mm"
     showgrid="false"
     inkscape:zoom="1.4770342"
     inkscape:cx="330.3918"
     inkscape:cy="107.64815"
     inkscape:window-width="1920"
     inkscape:window-height="1009"
     inkscape:window-x="-8"
     inkscape:window-y="-8"
     inkscape:window-maximized="1"
     inkscape:current-layer="layer1" /><defs
     id="defs2"><marker
       id="DistanceX"
       orient="auto"
       refX="0"
       refY="0"
       style="overflow:visible"><path
         d="M 3,-3 -3,3 M 0,-5 V 5"
         style="stroke:#000000;stroke-width:0.5"
         id="path11" /></marker><pattern
       id="Hatch"
       patternUnits="userSpaceOnUse"
       width="8"
       height="8"
       x="0"
       y="0"><path
         d="M8 4 l-4,4"
         stroke="#000000"
         stroke-width="0.25"
         linecap="square"
         id="path14" /><path
         d="M6 2 l-4,4"
         stroke="#000000"
         stroke-width="0.25"
         linecap="square"
         id="path16" /><path
         d="M4 0 l-4,4"
         stroke="#000000"
         stroke-width="0.25"
         linecap="square"
         id="path18" /></pattern><symbol
       id="*Model_Space" /><symbol
       id="*Paper_Space" /><symbol
       id="*Paper_Space0" /><symbol
       id="*D1"><path
         style="fill:none;stroke:#000000"
         d="m 8308.24,-6025.25 v -73.61"
         id="path24" /><path
         style="fill:none;stroke:#000000"
         d="m 8863.83,-6025.25 v -73.61"
         id="path26" /><path
         style="fill:none;stroke:#000000"
         d="m 8317.69,-6094.13 h 536.69"
         id="path28" /><path
         style="fill:none;stroke:#000000"
         d="m 8317.69,-6095.71 v 3.15 l -9.45,-1.57 z"
         id="path30" /><path
         style="fill:none;stroke:#000000"
         d="m 8854.38,-6095.71 v 3.15 l 9.45,-1.57 z"
         id="path32" /><text
         x="8586.0371"
         y="-6134.4434"
         style="font-size:75.591px;font-family:Arial;text-anchor:middle;fill:#000000"
         id="text36"><tspan
           sodipodi:role="line"
           dx="0"
           dy="37.795277"
           id="tspan34"
           x="8586.0371"
           y="-6134.4434">147</tspan></text><path
         d="m 8308.4916,-6022.8897 a 0.25,0.25 0 0 0 -0.5,0 0.25,0.25 0 0 0 0.5,0 z"
         style="fill:none;stroke:#000000"
         id="path38" /><path
         d="m 8864.0822,-6022.8897 a 0.25,0.25 0 0 0 -0.5,0 0.25,0.25 0 0 0 0.5,0 z"
         style="fill:none;stroke:#000000"
         id="path40" /><path
         d="m 8864.0822,-6094.1313 a 0.25,0.25 0 0 0 -0.5,0 0.25,0.25 0 0 0 0.5,0 z"
         style="fill:none;stroke:#000000"
         id="path42" /></symbol><symbol
       id="*D3"><path
         style="fill:none;stroke:#000000"
         d="m 68.9629,-629.035 v -73.604"
         id="path45" /><path
         style="fill:none;stroke:#000000"
         d="m 624.553,-629.035 v -73.604"
         id="path47" /><path
         style="fill:none;stroke:#000000"
         d="M 78.4117,-697.914 H 615.105"
         id="path49" /><path
         style="fill:none;stroke:#000000"
         d="m 78.4117,-699.489 v 3.15 l -9.4488,-1.575 z"
         id="path51" /><path
         style="fill:none;stroke:#000000"
         d="m 615.105,-699.489 v 3.15 l 9.448,-1.575 z"
         id="path53" /><text
         x="346.75818"
         y="-738.22632"
         style="font-size:75.591px;font-family:Arial;text-anchor:middle;fill:#000000"
         id="text57"><tspan
           sodipodi:role="line"
           dx="0"
           dy="37.795277"
           id="tspan55"
           x="346.75818"
           y="-738.22632">147</tspan></text><path
         d="m 69.212896,-626.67257 a 0.25,0.25 0 0 0 -0.5,0 0.25,0.25 0 0 0 0.5,0 z"
         style="fill:none;stroke:#000000"
         id="path59" /><path
         d="m 624.80345,-626.67257 a 0.25,0.25 0 0 0 -0.5,0 0.25,0.25 0 0 0 0.5,0 z"
         style="fill:none;stroke:#000000"
         id="path61" /><path
         d="m 624.80345,-697.91413 a 0.25,0.25 0 0 0 -0.5,0 0.25,0.25 0 0 0 0.5,0 z"
         style="fill:none;stroke:#000000"
         id="path63" /></symbol><symbol
       id="A$C6f8b5d3f"><path
         d="m 0,1084.7244 h 20.787402 v 37.7953 H 0 v -37.7953"
         style="fill:none;stroke:#000000"
         id="path66" /></symbol><symbol
       id="*D6"><path
         style="fill:none;stroke:#000000"
         d="m 4167.05,-660.798 -6.07,23.201"
         id="path69" /><path
         style="fill:none;stroke:#000000"
         d="m 4042.03,-693.499 -6.07,23.201"
         id="path71" /><path
         d="m 4153.4902,-645.89652 a 401.5748,401.5748 0 0 0 -106.9349,-27.97227"
         style="fill:none;stroke:#000000"
         id="path73" /><path
         style="fill:none;stroke:#000000"
         d="m 4154.11,-647.344 -1.24,2.894 9.3,2.282 z"
         id="path75" /><path
         style="fill:none;stroke:#000000"
         d="m 4046.39,-672.303 0.33,-3.132 -9.56,0.566 z"
         id="path77" /><text
         x="4103.0244"
         y="-671.35822"
         style="font-size:9.449px;font-family:Arial;text-anchor:middle;fill:#000000"
         transform="rotate(14.659101,4103.0246,-671.35824)"
         id="text81"><tspan
           sodipodi:role="line"
           dx="0"
           dy="4.7244091"
           id="tspan79"
           x="4103.0244"
           y="-671.35822">34,34</tspan></text><path
         d="m 4084.2759,-671.56706 a 9.085304,9.085304 0 0 0 -17.5791,-4.59839"
         style="fill:none;stroke:#000000;stroke-linecap:round"
         id="path83" /><path
         d="m 4005.0854,-295.99195 a 0.25,0.25 0 0 0 -0.5,0 0.25,0.25 0 0 0 0.5,0 z"
         style="fill:none;stroke:#000000"
         id="path85" /><path
         d="m 4167.8933,-663.08312 a 0.25,0.25 0 0 0 -0.5,0 0.25,0.25 0 0 0 0.5,0 z"
         style="fill:none;stroke:#000000"
         id="path87" /><path
         d="m 4042.8807,-695.78419 a 0.25,0.25 0 0 0 -0.5,0 0.25,0.25 0 0 0 0.5,0 z"
         style="fill:none;stroke:#000000"
         id="path89" /><path
         d="m 4122.0087,-657.54467 a 0.25,0.25 0 0 0 -0.5,0 0.25,0.25 0 0 0 0.5,0 z"
         style="fill:none;stroke:#000000"
         id="path91" /></symbol><marker
       id="DistanceX-8"
       orient="auto"
       refX="0"
       refY="0"
       style="overflow:visible"><path
         d="M 3,-3 -3,3 M 0,-5 V 5"
         style="stroke:#000000;stroke-width:0.5"
         id="path707" /></marker><pattern
       id="Hatch-9"
       patternUnits="userSpaceOnUse"
       width="8"
       height="8"
       x="0"
       y="0"><path
         d="M8 4 l-4,4"
         stroke="#000000"
         stroke-width="0.25"
         linecap="square"
         id="path710" /><path
         d="M6 2 l-4,4"
         stroke="#000000"
         stroke-width="0.25"
         linecap="square"
         id="path712" /><path
         d="M4 0 l-4,4"
         stroke="#000000"
         stroke-width="0.25"
         linecap="square"
         id="path714" /></pattern><symbol
       id="*Model_Space-5" /><symbol
       id="*Paper_Space-7" /><symbol
       id="*Paper_Space0-9" /><symbol
       id="*D1-1"><path
         style="fill:none;stroke:#000000"
         d="m 8308.24,-6025.25 v -73.61"
         id="path720" /><path
         style="fill:none;stroke:#000000"
         d="m 8863.83,-6025.25 v -73.61"
         id="path722" /><path
         style="fill:none;stroke:#000000"
         d="m 8317.69,-6094.13 h 536.69"
         id="path724" /><path
         style="fill:none;stroke:#000000"
         d="m 8317.69,-6095.71 v 3.15 l -9.45,-1.57 z"
         id="path726" /><path
         style="fill:none;stroke:#000000"
         d="m 8854.38,-6095.71 v 3.15 l 9.45,-1.57 z"
         id="path728" /><text
         x="8586.0371"
         y="-6134.4434"
         style="font-size:75.591px;font-family:Arial;text-anchor:middle;fill:#000000"
         id="text732"><tspan
           sodipodi:role="line"
           dx="0"
           dy="37.795277"
           id="tspan730"
           x="8586.0371"
           y="-6134.4434">147</tspan></text><path
         d="m 8308.4916,-6022.8897 a 0.25,0.25 0 0 0 -0.5,0 0.25,0.25 0 0 0 0.5,0 z"
         style="fill:none;stroke:#000000"
         id="path734" /><path
         d="m 8864.0822,-6022.8897 a 0.25,0.25 0 0 0 -0.5,0 0.25,0.25 0 0 0 0.5,0 z"
         style="fill:none;stroke:#000000"
         id="path736" /><path
         d="m 8864.0822,-6094.1313 a 0.25,0.25 0 0 0 -0.5,0 0.25,0.25 0 0 0 0.5,0 z"
         style="fill:none;stroke:#000000"
         id="path738" /></symbol><symbol
       id="*D3-8"><path
         style="fill:none;stroke:#000000"
         d="m 68.9629,-629.035 v -73.604"
         id="path741" /><path
         style="fill:none;stroke:#000000"
         d="m 624.553,-629.035 v -73.604"
         id="path743" /><path
         style="fill:none;stroke:#000000"
         d="M 78.4117,-697.914 H 615.105"
         id="path745" /><path
         style="fill:none;stroke:#000000"
         d="m 78.4117,-699.489 v 3.15 l -9.4488,-1.575 z"
         id="path747" /><path
         style="fill:none;stroke:#000000"
         d="m 615.105,-699.489 v 3.15 l 9.448,-1.575 z"
         id="path749" /><text
         x="346.75818"
         y="-738.22632"
         style="font-size:75.591px;font-family:Arial;text-anchor:middle;fill:#000000"
         id="text753"><tspan
           sodipodi:role="line"
           dx="0"
           dy="37.795277"
           id="tspan751"
           x="346.75818"
           y="-738.22632">147</tspan></text><path
         d="m 69.212896,-626.67257 a 0.25,0.25 0 0 0 -0.5,0 0.25,0.25 0 0 0 0.5,0 z"
         style="fill:none;stroke:#000000"
         id="path755" /><path
         d="m 624.80345,-626.67257 a 0.25,0.25 0 0 0 -0.5,0 0.25,0.25 0 0 0 0.5,0 z"
         style="fill:none;stroke:#000000"
         id="path757" /><path
         d="m 624.80345,-697.91413 a 0.25,0.25 0 0 0 -0.5,0 0.25,0.25 0 0 0 0.5,0 z"
         style="fill:none;stroke:#000000"
         id="path759" /></symbol><symbol
       id="A$C6f8b5d3f-9"><path
         d="m 0,1084.7244 h 20.787402 v 37.7953 H 0 v -37.7953"
         style="fill:none;stroke:#000000"
         id="path762" /></symbol><symbol
       id="*D6-7"><path
         style="fill:none;stroke:#000000"
         d="m 4167.05,-660.798 -6.07,23.201"
         id="path765" /><path
         style="fill:none;stroke:#000000"
         d="m 4042.03,-693.499 -6.07,23.201"
         id="path767" /><path
         d="m 4153.4902,-645.89652 a 401.5748,401.5748 0 0 0 -106.9349,-27.97227"
         style="fill:none;stroke:#000000"
         id="path769" /><path
         style="fill:none;stroke:#000000"
         d="m 4154.11,-647.344 -1.24,2.894 9.3,2.282 z"
         id="path771" /><path
         style="fill:none;stroke:#000000"
         d="m 4046.39,-672.303 0.33,-3.132 -9.56,0.566 z"
         id="path773" /><text
         x="4103.0244"
         y="-671.35822"
         style="font-size:9.449px;font-family:Arial;text-anchor:middle;fill:#000000"
         transform="rotate(14.659101,4103.0246,-671.35824)"
         id="text777"><tspan
           sodipodi:role="line"
           dx="0"
           dy="4.7244091"
           id="tspan775"
           x="4103.0244"
           y="-671.35822">34,34</tspan></text><path
         d="m 4084.2759,-671.56706 a 9.085304,9.085304 0 0 0 -17.5791,-4.59839"
         style="fill:none;stroke:#000000;stroke-linecap:round"
         id="path779" /><path
         d="m 4005.0854,-295.99195 a 0.25,0.25 0 0 0 -0.5,0 0.25,0.25 0 0 0 0.5,0 z"
         style="fill:none;stroke:#000000"
         id="path781" /><path
         d="m 4167.8933,-663.08312 a 0.25,0.25 0 0 0 -0.5,0 0.25,0.25 0 0 0 0.5,0 z"
         style="fill:none;stroke:#000000"
         id="path783" /><path
         d="m 4042.8807,-695.78419 a 0.25,0.25 0 0 0 -0.5,0 0.25,0.25 0 0 0 0.5,0 z"
         style="fill:none;stroke:#000000"
         id="path785" /><path
         d="m 4122.0087,-657.54467 a 0.25,0.25 0 0 0 -0.5,0 0.25,0.25 0 0 0 0.5,0 z"
         style="fill:none;stroke:#000000"
         id="path787" /></symbol><marker
       id="DistanceX-4"
       orient="auto"
       refX="0"
       refY="0"
       style="overflow:visible"><path
         d="M 3,-3 -3,3 M 0,-5 V 5"
         style="stroke:#000000;stroke-width:0.5"
         id="path1525" /></marker><pattern
       id="Hatch-3"
       patternUnits="userSpaceOnUse"
       width="8"
       height="8"
       x="0"
       y="0"><path
         d="M8 4 l-4,4"
         stroke="#000000"
         stroke-width="0.25"
         linecap="square"
         id="path1528" /><path
         d="M6 2 l-4,4"
         stroke="#000000"
         stroke-width="0.25"
         linecap="square"
         id="path1530" /><path
         d="M4 0 l-4,4"
         stroke="#000000"
         stroke-width="0.25"
         linecap="square"
         id="path1532" /></pattern><symbol
       id="*Model_Space-2" /><symbol
       id="*Paper_Space-6" /><symbol
       id="*Paper_Space0-7" /><symbol
       id="*D1-0"><path
         style="fill:none;stroke:#000000"
         d="m 8308.24,-6025.25 v -73.61"
         id="path1538" /><path
         style="fill:none;stroke:#000000"
         d="m 8863.83,-6025.25 v -73.61"
         id="path1540" /><path
         style="fill:none;stroke:#000000"
         d="m 8317.69,-6094.13 h 536.69"
         id="path1542" /><path
         style="fill:none;stroke:#000000"
         d="m 8317.69,-6095.71 v 3.15 l -9.45,-1.57 z"
         id="path1544" /><path
         style="fill:none;stroke:#000000"
         d="m 8854.38,-6095.71 v 3.15 l 9.45,-1.57 z"
         id="path1546" /><text
         x="8586.0371"
         y="-6134.4434"
         style="font-size:75.591px;font-family:Arial;text-anchor:middle;fill:#000000"
         id="text1550"><tspan
           sodipodi:role="line"
           dx="0"
           dy="37.795277"
           id="tspan1548"
           x="8586.0371"
           y="-6134.4434">147</tspan></text><path
         d="m 8308.4916,-6022.8897 a 0.25,0.25 0 0 0 -0.5,0 0.25,0.25 0 0 0 0.5,0 z"
         style="fill:none;stroke:#000000"
         id="path1552" /><path
         d="m 8864.0822,-6022.8897 a 0.25,0.25 0 0 0 -0.5,0 0.25,0.25 0 0 0 0.5,0 z"
         style="fill:none;stroke:#000000"
         id="path1554" /><path
         d="m 8864.0822,-6094.1313 a 0.25,0.25 0 0 0 -0.5,0 0.25,0.25 0 0 0 0.5,0 z"
         style="fill:none;stroke:#000000"
         id="path1556" /></symbol><symbol
       id="*D2"><path
         style="fill:none;stroke:#000000"
         d="m 68.9629,-629.035 v -73.604"
         id="path1559" /><path
         style="fill:none;stroke:#000000"
         d="m 624.553,-629.035 v -73.604"
         id="path1561" /><path
         style="fill:none;stroke:#000000"
         d="M 78.4117,-697.914 H 615.105"
         id="path1563" /><path
         style="fill:none;stroke:#000000"
         d="m 78.4117,-699.489 v 3.15 l -9.4488,-1.575 z"
         id="path1565" /><path
         style="fill:none;stroke:#000000"
         d="m 615.105,-699.489 v 3.15 l 9.448,-1.575 z"
         id="path1567" /><text
         x="346.75818"
         y="-738.22632"
         style="font-size:75.591px;font-family:Arial;text-anchor:middle;fill:#000000"
         id="text1571"><tspan
           sodipodi:role="line"
           dx="0"
           dy="37.795277"
           id="tspan1569"
           x="346.75818"
           y="-738.22632">147</tspan></text><path
         d="m 69.212896,-626.67257 a 0.25,0.25 0 0 0 -0.5,0 0.25,0.25 0 0 0 0.5,0 z"
         style="fill:none;stroke:#000000"
         id="path1573" /><path
         d="m 624.80345,-626.67257 a 0.25,0.25 0 0 0 -0.5,0 0.25,0.25 0 0 0 0.5,0 z"
         style="fill:none;stroke:#000000"
         id="path1575" /><path
         d="m 624.80345,-697.91413 a 0.25,0.25 0 0 0 -0.5,0 0.25,0.25 0 0 0 0.5,0 z"
         style="fill:none;stroke:#000000"
         id="path1577" /></symbol><symbol
       id="A$C6f8b5d3f-8"><path
         d="m 0,1084.7244 h 20.787402 v 37.7953 H 0 v -37.7953"
         style="fill:none;stroke:#000000"
         id="path1580" /></symbol><symbol
       id="*D4"><path
         style="fill:none;stroke:#000000"
         d="m 4167.05,-660.798 -6.07,23.201"
         id="path1583" /><path
         style="fill:none;stroke:#000000"
         d="m 4042.03,-693.499 -6.07,23.201"
         id="path1585" /><path
         d="m 4153.4902,-645.89652 a 401.5748,401.5748 0 0 0 -106.9349,-27.97227"
         style="fill:none;stroke:#000000"
         id="path1587" /><path
         style="fill:none;stroke:#000000"
         d="m 4154.11,-647.344 -1.24,2.894 9.3,2.282 z"
         id="path1589" /><path
         style="fill:none;stroke:#000000"
         d="m 4046.39,-672.303 0.33,-3.132 -9.56,0.566 z"
         id="path1591" /><text
         x="4103.0244"
         y="-671.35822"
         style="font-size:9.449px;font-family:Arial;text-anchor:middle;fill:#000000"
         transform="rotate(14.659101,4103.0246,-671.35824)"
         id="text1595"><tspan
           sodipodi:role="line"
           dx="0"
           dy="4.7244091"
           id="tspan1593"
           x="4103.0244"
           y="-671.35822">34,34</tspan></text><path
         d="m 4084.2759,-671.56706 a 9.085304,9.085304 0 0 0 -17.5791,-4.59839"
         style="fill:none;stroke:#000000;stroke-linecap:round"
         id="path1597" /><path
         d="m 4005.0854,-295.99195 a 0.25,0.25 0 0 0 -0.5,0 0.25,0.25 0 0 0 0.5,0 z"
         style="fill:none;stroke:#000000"
         id="path1599" /><path
         d="m 4167.8933,-663.08312 a 0.25,0.25 0 0 0 -0.5,0 0.25,0.25 0 0 0 0.5,0 z"
         style="fill:none;stroke:#000000"
         id="path1601" /><path
         d="m 4042.8807,-695.78419 a 0.25,0.25 0 0 0 -0.5,0 0.25,0.25 0 0 0 0.5,0 z"
         style="fill:none;stroke:#000000"
         id="path1603" /><path
         d="m 4122.0087,-657.54467 a 0.25,0.25 0 0 0 -0.5,0 0.25,0.25 0 0 0 0.5,0 z"
         style="fill:none;stroke:#000000"
         id="path1605" /></symbol><marker
       id="DistanceX-7"
       orient="auto"
       refX="0"
       refY="0"
       style="overflow:visible"><path
         d="M 3,-3 -3,3 M 0,-5 V 5"
         style="stroke:#000000;stroke-width:0.5"
         id="path1897" /></marker><pattern
       id="Hatch-4"
       patternUnits="userSpaceOnUse"
       width="8"
       height="8"
       x="0"
       y="0"><path
         d="M8 4 l-4,4"
         stroke="#000000"
         stroke-width="0.25"
         linecap="square"
         id="path1900" /><path
         d="M6 2 l-4,4"
         stroke="#000000"
         stroke-width="0.25"
         linecap="square"
         id="path1902" /><path
         d="M4 0 l-4,4"
         stroke="#000000"
         stroke-width="0.25"
         linecap="square"
         id="path1904" /></pattern><symbol
       id="*Model_Space-51" /><symbol
       id="*Paper_Space-5" /><symbol
       id="*Paper_Space0-1" /><symbol
       id="*D1-9"><path
         style="fill:none;stroke:#000000"
         d="m 8308.24,-6025.25 v -73.61"
         id="path1910" /><path
         style="fill:none;stroke:#000000"
         d="m 8863.83,-6025.25 v -73.61"
         id="path1912" /><path
         style="fill:none;stroke:#000000"
         d="m 8317.69,-6094.13 h 536.69"
         id="path1914" /><path
         style="fill:none;stroke:#000000"
         d="m 8317.69,-6095.71 v 3.15 l -9.45,-1.57 z"
         id="path1916" /><path
         style="fill:none;stroke:#000000"
         d="m 8854.38,-6095.71 v 3.15 l 9.45,-1.57 z"
         id="path1918" /><text
         x="8586.0371"
         y="-6134.4434"
         style="font-size:75.591px;font-family:Arial;text-anchor:middle;fill:#000000"
         id="text1922"><tspan
           sodipodi:role="line"
           dx="0"
           dy="37.795277"
           id="tspan1920"
           x="8586.0371"
           y="-6134.4434">147</tspan></text><path
         d="m 8308.4916,-6022.8897 a 0.25,0.25 0 0 0 -0.5,0 0.25,0.25 0 0 0 0.5,0 z"
         style="fill:none;stroke:#000000"
         id="path1924" /><path
         d="m 8864.0822,-6022.8897 a 0.25,0.25 0 0 0 -0.5,0 0.25,0.25 0 0 0 0.5,0 z"
         style="fill:none;stroke:#000000"
         id="path1926" /><path
         d="m 8864.0822,-6094.1313 a 0.25,0.25 0 0 0 -0.5,0 0.25,0.25 0 0 0 0.5,0 z"
         style="fill:none;stroke:#000000"
         id="path1928" /></symbol><symbol
       id="*D2-2"><path
         style="fill:none;stroke:#000000"
         d="m 68.9629,-629.035 v -73.604"
         id="path1931" /><path
         style="fill:none;stroke:#000000"
         d="m 624.553,-629.035 v -73.604"
         id="path1933" /><path
         style="fill:none;stroke:#000000"
         d="M 78.4117,-697.914 H 615.105"
         id="path1935" /><path
         style="fill:none;stroke:#000000"
         d="m 78.4117,-699.489 v 3.15 l -9.4488,-1.575 z"
         id="path1937" /><path
         style="fill:none;stroke:#000000"
         d="m 615.105,-699.489 v 3.15 l 9.448,-1.575 z"
         id="path1939" /><text
         x="346.75818"
         y="-738.22632"
         style="font-size:75.591px;font-family:Arial;text-anchor:middle;fill:#000000"
         id="text1943"><tspan
           sodipodi:role="line"
           dx="0"
           dy="37.795277"
           id="tspan1941"
           x="346.75818"
           y="-738.22632">147</tspan></text><path
         d="m 69.212896,-626.67257 a 0.25,0.25 0 0 0 -0.5,0 0.25,0.25 0 0 0 0.5,0 z"
         style="fill:none;stroke:#000000"
         id="path1945" /><path
         d="m 624.80345,-626.67257 a 0.25,0.25 0 0 0 -0.5,0 0.25,0.25 0 0 0 0.5,0 z"
         style="fill:none;stroke:#000000"
         id="path1947" /><path
         d="m 624.80345,-697.91413 a 0.25,0.25 0 0 0 -0.5,0 0.25,0.25 0 0 0 0.5,0 z"
         style="fill:none;stroke:#000000"
         id="path1949" /></symbol><symbol
       id="A$C6f8b5d3f-1"><path
         d="m 0,1084.7244 h 20.787402 v 37.7953 H 0 v -37.7953"
         style="fill:none;stroke:#000000"
         id="path1952" /></symbol><symbol
       id="*D4-0"><path
         style="fill:none;stroke:#000000"
         d="m 4167.05,-660.798 -6.07,23.201"
         id="path1955" /><path
         style="fill:none;stroke:#000000"
         d="m 4042.03,-693.499 -6.07,23.201"
         id="path1957" /><path
         d="m 4153.4902,-645.89652 a 401.5748,401.5748 0 0 0 -106.9349,-27.97227"
         style="fill:none;stroke:#000000"
         id="path1959" /><path
         style="fill:none;stroke:#000000"
         d="m 4154.11,-647.344 -1.24,2.894 9.3,2.282 z"
         id="path1961" /><path
         style="fill:none;stroke:#000000"
         d="m 4046.39,-672.303 0.33,-3.132 -9.56,0.566 z"
         id="path1963" /><text
         x="4103.0244"
         y="-671.35822"
         style="font-size:9.449px;font-family:Arial;text-anchor:middle;fill:#000000"
         transform="rotate(14.659101,4103.0246,-671.35824)"
         id="text1967"><tspan
           sodipodi:role="line"
           dx="0"
           dy="4.7244091"
           id="tspan1965"
           x="4103.0244"
           y="-671.35822">34,34</tspan></text><path
         d="m 4084.2759,-671.56706 a 9.085304,9.085304 0 0 0 -17.5791,-4.59839"
         style="fill:none;stroke:#000000;stroke-linecap:round"
         id="path1969" /><path
         d="m 4005.0854,-295.99195 a 0.25,0.25 0 0 0 -0.5,0 0.25,0.25 0 0 0 0.5,0 z"
         style="fill:none;stroke:#000000"
         id="path1971" /><path
         d="m 4167.8933,-663.08312 a 0.25,0.25 0 0 0 -0.5,0 0.25,0.25 0 0 0 0.5,0 z"
         style="fill:none;stroke:#000000"
         id="path1973" /><path
         d="m 4042.8807,-695.78419 a 0.25,0.25 0 0 0 -0.5,0 0.25,0.25 0 0 0 0.5,0 z"
         style="fill:none;stroke:#000000"
         id="path1975" /><path
         d="m 4122.0087,-657.54467 a 0.25,0.25 0 0 0 -0.5,0 0.25,0.25 0 0 0 0.5,0 z"
         style="fill:none;stroke:#000000"
         id="path1977" /></symbol></defs><g
     inkscape:label="Capa 1"
     inkscape:groupmode="layer"
     id="layer1"><g
       inkscape:label="corte"
       id="g838"
       transform="matrix(0.26458333,0,0,0.26458333,-989.03495,-657.8727)" /><g
       inkscape:label="Defpoints"
       id="g840"
       transform="matrix(0.26458333,0,0,0.26458333,-989.03495,-657.8727)" /><path
       d="m 66.830108,37.990028 h 5.499999 v 9.99998 h -5.499999 v -9.99998"
       style="fill:none;stroke:#ff0000;stroke-width:0.264583"
       id="path2036" /><path
       d="m 90.571778,42.173382 h 5.5 v 10.000006 h -5.5 V 42.173382"
       style="fill:none;stroke:#ff0000;stroke-width:0.264583"
       id="path2038" /><path
       d="m 76.82178,37.990028 h 5.499999 v 9.99998 H 76.82178 v -9.99998"
       style="fill:none;stroke:#ff0000;stroke-width:0.264583"
       id="path2040" /><path
       d="m 88.946761,42.990018 a 2.5,2.5 0 0 0 -4.99999,0 2.5,2.5 0 0 0 4.99999,0 z"
       style="fill:none;stroke:#ffff00;stroke-width:0.264583"
       id="path2042" /><path
       d="m 104.32178,44.887689 h 5.5 v 10.000007 h -5.5 V 44.887689"
       style="fill:none;stroke:#ff0000;stroke-width:0.264583"
       id="path2044" /><path
       d="m 102.69676,47.173372 a 2.5,2.5 0 0 0 -4.999991,0 2.5,2.5 0 0 0 4.999991,0 z"
       style="fill:none;stroke:#ffff00;stroke-width:0.264583"
       id="path2046" /><path
       d="m 118.07178,49.174045 h 5.5 v 10.000006 h -5.5 V 49.174045"
       style="fill:none;stroke:#ff0000;stroke-width:0.264583"
       id="path2048" /><path
       d="m 116.44676,49.887679 a 2.5,2.5 0 0 0 -4.99999,0 2.5,2.5 0 0 0 4.99999,0 z"
       style="fill:none;stroke:#ffff00;stroke-width:0.264583"
       id="path2050" /><path
       d="m 131.82177,55.203449 h 5.5 v 10.000007 h -5.5 V 55.203449"
       style="fill:none;stroke:#ff0000;stroke-width:0.264583"
       id="path2052" /><path
       d="m 130.19676,54.174062 a 2.5,2.5 0 0 0 -4.99999,0 2.5,2.5 0 0 0 4.99999,0 z"
       style="fill:none;stroke:#ffff00;stroke-width:0.264583"
       id="path2054" /><path
       d="M 58.571774,42.173382 H 53.07177 v 10.000006 h 5.500004 V 42.173382"
       style="fill:none;stroke:#ff0000;stroke-width:0.264583"
       id="path2058" /><path
       d="m 65.196755,42.990018 a 2.5,2.5 0 0 0 -4.999989,0 2.5,2.5 0 0 0 4.999989,0 z"
       style="fill:none;stroke:#ffff00;stroke-width:0.264583"
       id="path2060" /><path
       d="m 44.82178,44.887689 h -5.5 v 10.000007 h 5.5 V 44.887689"
       style="fill:none;stroke:#ff0000;stroke-width:0.264583"
       id="path2062" /><path
       d="m 51.44676,47.173372 a 2.5,2.5 0 0 0 -4.99999,0 2.5,2.5 0 0 0 4.99999,0 z"
       style="fill:none;stroke:#ffff00;stroke-width:0.264583"
       id="path2064" /><path
       d="m 31.07178,49.174045 h -5.5 v 10.000006 h 5.5 V 49.174045"
       style="fill:none;stroke:#ff0000;stroke-width:0.264583"
       id="path2066" /><path
       d="m 37.69676,49.887679 a 2.5,2.5 0 0 0 -4.99999,0 2.5,2.5 0 0 0 4.99999,0 z"
       style="fill:none;stroke:#ffff00;stroke-width:0.264583"
       id="path2068" /><path
       d="m 17.32178,55.203449 h -5.5 v 10.000007 h 5.5 V 55.203449"
       style="fill:none;stroke:#ff0000;stroke-width:0.264583"
       id="path2070" /><path
       d="m 23.94676,54.174062 a 2.5,2.5 0 0 0 -4.99999,0 2.5,2.5 0 0 0 4.99999,0 z"
       style="fill:none;stroke:#ffff00;stroke-width:0.264583"
       id="path2072" /><path
       d="m 84.571769,56.217915 v 9.622102 H 64.571757 V 56.217915 A 132.5,132.5 0 0 0 17.27063,68.871057 8.8650687,8.8650687 0 0 1 9.05323,53.172428 a 132.5,132.5 0 0 1 131.03707,0 8.8650687,8.8650687 0 0 1 -8.21741,15.698629 132.5,132.5 0 0 0 -47.301121,-12.653142 z"
       style="fill:none;stroke:#000000;stroke-width:0.264583"
       id="path2076" /><path
       d="m 70.571766,61.028966 a 1.5000025,1.5000025 0 0 0 -3.000005,0 1.5000025,1.5000025 0 0 0 3.000005,0 z"
       style="fill:none;stroke:#ffff00;stroke-width:0.264583"
       id="path2078" /><path
       d="m 81.571765,61.028966 a 1.5000025,1.5000025 0 0 0 -3.000005,0 1.5000025,1.5000025 0 0 0 3.000005,0 z"
       style="fill:none;stroke:#ffff00;stroke-width:0.264583"
       id="path2080" /><path
       d="m 82.474444,54.415018 a 1.1500001,1.1500001 0 0 0 -2.299997,0 1.1500001,1.1500001 0 0 0 2.299997,0 z"
       style="fill:none;stroke:#ff0000;stroke-width:0.264583"
       id="path2102" /><path
       d="m 68.97445,54.415018 a 1.1500115,1.1500115 0 0 0 -2.300023,0 1.1500115,1.1500115 0 0 0 2.300023,0 z"
       style="fill:none;stroke:#ff0000;stroke-width:0.264583"
       id="path2104" /><path
       d="m 77.424448,54.415018 a 2.8500001,2.8500001 0 0 0 -5.699998,0 2.8500001,2.8500001 0 0 0 5.699998,0 z"
       style="fill:none;stroke:#ff0000;stroke-width:0.264583"
       id="path2106" /><g
       inkscape:label="Defpoints"
       id="g2110"
       transform="matrix(0.26458333,0,0,0.26458333,-1328.9396,-646.22462)" /></g></svg>
