<?xml version="1.0" encoding="UTF-8" standalone="no"?>
<!-- Created with Inkscape (http://www.inkscape.org/) -->

<svg
   width="200mm"
   height="200mm"
   viewBox="0 0 200 200"
   version="1.1"
   id="svg5"
   xml:space="preserve"
   inkscape:version="1.2.1 (9c6d41e410, 2022-07-14)"
   sodipodi:docname="chasis 2.svg"
   xmlns:inkscape="http://www.inkscape.org/namespaces/inkscape"
   xmlns:sodipodi="http://sodipodi.sourceforge.net/DTD/sodipodi-0.dtd"
   xmlns="http://www.w3.org/2000/svg"
   xmlns:svg="http://www.w3.org/2000/svg"><sodipodi:namedview
     id="namedview7"
     pagecolor="#ffffff"
     bordercolor="#000000"
     borderopacity="0.25"
     inkscape:showpageshadow="2"
     inkscape:pageopacity="0.0"
     inkscape:pagecheckerboard="0"
     inkscape:deskcolor="#d1d1d1"
     inkscape:document-units="mm"
     showgrid="false"
     inkscape:zoom="0.7385171"
     inkscape:cx="174.67436"
     inkscape:cy="335.80807"
     inkscape:window-width="1920"
     inkscape:window-height="1009"
     inkscape:window-x="-8"
     inkscape:window-y="-8"
     inkscape:window-maximized="1"
     inkscape:current-layer="layer1" /><defs
     id="defs2"><marker
       id="DistanceX"
       orient="auto"
       refX="0"
       refY="0"
       style="overflow:visible"><path
         d="M 3,-3 -3,3 M 0,-5 V 5"
         style="stroke:#000000;stroke-width:0.5"
         id="path11" /></marker><pattern
       id="Hatch"
       patternUnits="userSpaceOnUse"
       width="8"
       height="8"
       x="0"
       y="0"><path
         d="M8 4 l-4,4"
         stroke="#000000"
         stroke-width="0.25"
         linecap="square"
         id="path14" /><path
         d="M6 2 l-4,4"
         stroke="#000000"
         stroke-width="0.25"
         linecap="square"
         id="path16" /><path
         d="M4 0 l-4,4"
         stroke="#000000"
         stroke-width="0.25"
         linecap="square"
         id="path18" /></pattern><symbol
       id="*Model_Space" /><symbol
       id="*Paper_Space" /><symbol
       id="*Paper_Space0" /><symbol
       id="*D1"><path
         style="fill:none;stroke:#000000"
         d="m 8308.24,-6025.25 v -73.61"
         id="path24" /><path
         style="fill:none;stroke:#000000"
         d="m 8863.83,-6025.25 v -73.61"
         id="path26" /><path
         style="fill:none;stroke:#000000"
         d="m 8317.69,-6094.13 h 536.69"
         id="path28" /><path
         style="fill:none;stroke:#000000"
         d="m 8317.69,-6095.71 v 3.15 l -9.45,-1.57 z"
         id="path30" /><path
         style="fill:none;stroke:#000000"
         d="m 8854.38,-6095.71 v 3.15 l 9.45,-1.57 z"
         id="path32" /><text
         x="8586.0371"
         y="-6134.4434"
         style="font-size:75.591px;font-family:Arial;text-anchor:middle;fill:#000000"
         id="text36"><tspan
           sodipodi:role="line"
           dx="0"
           dy="37.795277"
           id="tspan34"
           x="8586.0371"
           y="-6134.4434">147</tspan></text><path
         d="m 8308.4916,-6022.8897 a 0.25,0.25 0 0 0 -0.5,0 0.25,0.25 0 0 0 0.5,0 z"
         style="fill:none;stroke:#000000"
         id="path38" /><path
         d="m 8864.0822,-6022.8897 a 0.25,0.25 0 0 0 -0.5,0 0.25,0.25 0 0 0 0.5,0 z"
         style="fill:none;stroke:#000000"
         id="path40" /><path
         d="m 8864.0822,-6094.1313 a 0.25,0.25 0 0 0 -0.5,0 0.25,0.25 0 0 0 0.5,0 z"
         style="fill:none;stroke:#000000"
         id="path42" /></symbol><symbol
       id="*D3"><path
         style="fill:none;stroke:#000000"
         d="m 68.9629,-629.035 v -73.604"
         id="path45" /><path
         style="fill:none;stroke:#000000"
         d="m 624.553,-629.035 v -73.604"
         id="path47" /><path
         style="fill:none;stroke:#000000"
         d="M 78.4117,-697.914 H 615.105"
         id="path49" /><path
         style="fill:none;stroke:#000000"
         d="m 78.4117,-699.489 v 3.15 l -9.4488,-1.575 z"
         id="path51" /><path
         style="fill:none;stroke:#000000"
         d="m 615.105,-699.489 v 3.15 l 9.448,-1.575 z"
         id="path53" /><text
         x="346.75818"
         y="-738.22632"
         style="font-size:75.591px;font-family:Arial;text-anchor:middle;fill:#000000"
         id="text57"><tspan
           sodipodi:role="line"
           dx="0"
           dy="37.795277"
           id="tspan55"
           x="346.75818"
           y="-738.22632">147</tspan></text><path
         d="m 69.212896,-626.67257 a 0.25,0.25 0 0 0 -0.5,0 0.25,0.25 0 0 0 0.5,0 z"
         style="fill:none;stroke:#000000"
         id="path59" /><path
         d="m 624.80345,-626.67257 a 0.25,0.25 0 0 0 -0.5,0 0.25,0.25 0 0 0 0.5,0 z"
         style="fill:none;stroke:#000000"
         id="path61" /><path
         d="m 624.80345,-697.91413 a 0.25,0.25 0 0 0 -0.5,0 0.25,0.25 0 0 0 0.5,0 z"
         style="fill:none;stroke:#000000"
         id="path63" /></symbol><symbol
       id="A$C6f8b5d3f"><path
         d="m 0,1084.7244 h 20.787402 v 37.7953 H 0 v -37.7953"
         style="fill:none;stroke:#000000"
         id="path66" /></symbol><symbol
       id="*D6"><path
         style="fill:none;stroke:#000000"
         d="m 4167.05,-660.798 -6.07,23.201"
         id="path69" /><path
         style="fill:none;stroke:#000000"
         d="m 4042.03,-693.499 -6.07,23.201"
         id="path71" /><path
         d="m 4153.4902,-645.89652 a 401.5748,401.5748 0 0 0 -106.9349,-27.97227"
         style="fill:none;stroke:#000000"
         id="path73" /><path
         style="fill:none;stroke:#000000"
         d="m 4154.11,-647.344 -1.24,2.894 9.3,2.282 z"
         id="path75" /><path
         style="fill:none;stroke:#000000"
         d="m 4046.39,-672.303 0.33,-3.132 -9.56,0.566 z"
         id="path77" /><text
         x="4103.0244"
         y="-671.35822"
         style="font-size:9.449px;font-family:Arial;text-anchor:middle;fill:#000000"
         transform="rotate(14.659101,4103.0246,-671.35824)"
         id="text81"><tspan
           sodipodi:role="line"
           dx="0"
           dy="4.7244091"
           id="tspan79"
           x="4103.0244"
           y="-671.35822">34,34</tspan></text><path
         d="m 4084.2759,-671.56706 a 9.085304,9.085304 0 0 0 -17.5791,-4.59839"
         style="fill:none;stroke:#000000;stroke-linecap:round"
         id="path83" /><path
         d="m 4005.0854,-295.99195 a 0.25,0.25 0 0 0 -0.5,0 0.25,0.25 0 0 0 0.5,0 z"
         style="fill:none;stroke:#000000"
         id="path85" /><path
         d="m 4167.8933,-663.08312 a 0.25,0.25 0 0 0 -0.5,0 0.25,0.25 0 0 0 0.5,0 z"
         style="fill:none;stroke:#000000"
         id="path87" /><path
         d="m 4042.8807,-695.78419 a 0.25,0.25 0 0 0 -0.5,0 0.25,0.25 0 0 0 0.5,0 z"
         style="fill:none;stroke:#000000"
         id="path89" /><path
         d="m 4122.0087,-657.54467 a 0.25,0.25 0 0 0 -0.5,0 0.25,0.25 0 0 0 0.5,0 z"
         style="fill:none;stroke:#000000"
         id="path91" /></symbol><marker
       id="DistanceX-8"
       orient="auto"
       refX="0"
       refY="0"
       style="overflow:visible"><path
         d="M 3,-3 -3,3 M 0,-5 V 5"
         style="stroke:#000000;stroke-width:0.5"
         id="path707" /></marker><pattern
       id="Hatch-9"
       patternUnits="userSpaceOnUse"
       width="8"
       height="8"
       x="0"
       y="0"><path
         d="M8 4 l-4,4"
         stroke="#000000"
         stroke-width="0.25"
         linecap="square"
         id="path710" /><path
         d="M6 2 l-4,4"
         stroke="#000000"
         stroke-width="0.25"
         linecap="square"
         id="path712" /><path
         d="M4 0 l-4,4"
         stroke="#000000"
         stroke-width="0.25"
         linecap="square"
         id="path714" /></pattern><symbol
       id="*Model_Space-5" /><symbol
       id="*Paper_Space-7" /><symbol
       id="*Paper_Space0-9" /><symbol
       id="*D1-1"><path
         style="fill:none;stroke:#000000"
         d="m 8308.24,-6025.25 v -73.61"
         id="path720" /><path
         style="fill:none;stroke:#000000"
         d="m 8863.83,-6025.25 v -73.61"
         id="path722" /><path
         style="fill:none;stroke:#000000"
         d="m 8317.69,-6094.13 h 536.69"
         id="path724" /><path
         style="fill:none;stroke:#000000"
         d="m 8317.69,-6095.71 v 3.15 l -9.45,-1.57 z"
         id="path726" /><path
         style="fill:none;stroke:#000000"
         d="m 8854.38,-6095.71 v 3.15 l 9.45,-1.57 z"
         id="path728" /><text
         x="8586.0371"
         y="-6134.4434"
         style="font-size:75.591px;font-family:Arial;text-anchor:middle;fill:#000000"
         id="text732"><tspan
           sodipodi:role="line"
           dx="0"
           dy="37.795277"
           id="tspan730"
           x="8586.0371"
           y="-6134.4434">147</tspan></text><path
         d="m 8308.4916,-6022.8897 a 0.25,0.25 0 0 0 -0.5,0 0.25,0.25 0 0 0 0.5,0 z"
         style="fill:none;stroke:#000000"
         id="path734" /><path
         d="m 8864.0822,-6022.8897 a 0.25,0.25 0 0 0 -0.5,0 0.25,0.25 0 0 0 0.5,0 z"
         style="fill:none;stroke:#000000"
         id="path736" /><path
         d="m 8864.0822,-6094.1313 a 0.25,0.25 0 0 0 -0.5,0 0.25,0.25 0 0 0 0.5,0 z"
         style="fill:none;stroke:#000000"
         id="path738" /></symbol><symbol
       id="*D3-8"><path
         style="fill:none;stroke:#000000"
         d="m 68.9629,-629.035 v -73.604"
         id="path741" /><path
         style="fill:none;stroke:#000000"
         d="m 624.553,-629.035 v -73.604"
         id="path743" /><path
         style="fill:none;stroke:#000000"
         d="M 78.4117,-697.914 H 615.105"
         id="path745" /><path
         style="fill:none;stroke:#000000"
         d="m 78.4117,-699.489 v 3.15 l -9.4488,-1.575 z"
         id="path747" /><path
         style="fill:none;stroke:#000000"
         d="m 615.105,-699.489 v 3.15 l 9.448,-1.575 z"
         id="path749" /><text
         x="346.75818"
         y="-738.22632"
         style="font-size:75.591px;font-family:Arial;text-anchor:middle;fill:#000000"
         id="text753"><tspan
           sodipodi:role="line"
           dx="0"
           dy="37.795277"
           id="tspan751"
           x="346.75818"
           y="-738.22632">147</tspan></text><path
         d="m 69.212896,-626.67257 a 0.25,0.25 0 0 0 -0.5,0 0.25,0.25 0 0 0 0.5,0 z"
         style="fill:none;stroke:#000000"
         id="path755" /><path
         d="m 624.80345,-626.67257 a 0.25,0.25 0 0 0 -0.5,0 0.25,0.25 0 0 0 0.5,0 z"
         style="fill:none;stroke:#000000"
         id="path757" /><path
         d="m 624.80345,-697.91413 a 0.25,0.25 0 0 0 -0.5,0 0.25,0.25 0 0 0 0.5,0 z"
         style="fill:none;stroke:#000000"
         id="path759" /></symbol><symbol
       id="A$C6f8b5d3f-9"><path
         d="m 0,1084.7244 h 20.787402 v 37.7953 H 0 v -37.7953"
         style="fill:none;stroke:#000000"
         id="path762" /></symbol><symbol
       id="*D6-7"><path
         style="fill:none;stroke:#000000"
         d="m 4167.05,-660.798 -6.07,23.201"
         id="path765" /><path
         style="fill:none;stroke:#000000"
         d="m 4042.03,-693.499 -6.07,23.201"
         id="path767" /><path
         d="m 4153.4902,-645.89652 a 401.5748,401.5748 0 0 0 -106.9349,-27.97227"
         style="fill:none;stroke:#000000"
         id="path769" /><path
         style="fill:none;stroke:#000000"
         d="m 4154.11,-647.344 -1.24,2.894 9.3,2.282 z"
         id="path771" /><path
         style="fill:none;stroke:#000000"
         d="m 4046.39,-672.303 0.33,-3.132 -9.56,0.566 z"
         id="path773" /><text
         x="4103.0244"
         y="-671.35822"
         style="font-size:9.449px;font-family:Arial;text-anchor:middle;fill:#000000"
         transform="rotate(14.659101,4103.0246,-671.35824)"
         id="text777"><tspan
           sodipodi:role="line"
           dx="0"
           dy="4.7244091"
           id="tspan775"
           x="4103.0244"
           y="-671.35822">34,34</tspan></text><path
         d="m 4084.2759,-671.56706 a 9.085304,9.085304 0 0 0 -17.5791,-4.59839"
         style="fill:none;stroke:#000000;stroke-linecap:round"
         id="path779" /><path
         d="m 4005.0854,-295.99195 a 0.25,0.25 0 0 0 -0.5,0 0.25,0.25 0 0 0 0.5,0 z"
         style="fill:none;stroke:#000000"
         id="path781" /><path
         d="m 4167.8933,-663.08312 a 0.25,0.25 0 0 0 -0.5,0 0.25,0.25 0 0 0 0.5,0 z"
         style="fill:none;stroke:#000000"
         id="path783" /><path
         d="m 4042.8807,-695.78419 a 0.25,0.25 0 0 0 -0.5,0 0.25,0.25 0 0 0 0.5,0 z"
         style="fill:none;stroke:#000000"
         id="path785" /><path
         d="m 4122.0087,-657.54467 a 0.25,0.25 0 0 0 -0.5,0 0.25,0.25 0 0 0 0.5,0 z"
         style="fill:none;stroke:#000000"
         id="path787" /></symbol><marker
       id="DistanceX-4"
       orient="auto"
       refX="0"
       refY="0"
       style="overflow:visible"><path
         d="M 3,-3 -3,3 M 0,-5 V 5"
         style="stroke:#000000;stroke-width:0.5"
         id="path1525" /></marker><pattern
       id="Hatch-3"
       patternUnits="userSpaceOnUse"
       width="8"
       height="8"
       x="0"
       y="0"><path
         d="M8 4 l-4,4"
         stroke="#000000"
         stroke-width="0.25"
         linecap="square"
         id="path1528" /><path
         d="M6 2 l-4,4"
         stroke="#000000"
         stroke-width="0.25"
         linecap="square"
         id="path1530" /><path
         d="M4 0 l-4,4"
         stroke="#000000"
         stroke-width="0.25"
         linecap="square"
         id="path1532" /></pattern><symbol
       id="*Model_Space-2" /><symbol
       id="*Paper_Space-6" /><symbol
       id="*Paper_Space0-7" /><symbol
       id="*D1-0"><path
         style="fill:none;stroke:#000000"
         d="m 8308.24,-6025.25 v -73.61"
         id="path1538" /><path
         style="fill:none;stroke:#000000"
         d="m 8863.83,-6025.25 v -73.61"
         id="path1540" /><path
         style="fill:none;stroke:#000000"
         d="m 8317.69,-6094.13 h 536.69"
         id="path1542" /><path
         style="fill:none;stroke:#000000"
         d="m 8317.69,-6095.71 v 3.15 l -9.45,-1.57 z"
         id="path1544" /><path
         style="fill:none;stroke:#000000"
         d="m 8854.38,-6095.71 v 3.15 l 9.45,-1.57 z"
         id="path1546" /><text
         x="8586.0371"
         y="-6134.4434"
         style="font-size:75.591px;font-family:Arial;text-anchor:middle;fill:#000000"
         id="text1550"><tspan
           sodipodi:role="line"
           dx="0"
           dy="37.795277"
           id="tspan1548"
           x="8586.0371"
           y="-6134.4434">147</tspan></text><path
         d="m 8308.4916,-6022.8897 a 0.25,0.25 0 0 0 -0.5,0 0.25,0.25 0 0 0 0.5,0 z"
         style="fill:none;stroke:#000000"
         id="path1552" /><path
         d="m 8864.0822,-6022.8897 a 0.25,0.25 0 0 0 -0.5,0 0.25,0.25 0 0 0 0.5,0 z"
         style="fill:none;stroke:#000000"
         id="path1554" /><path
         d="m 8864.0822,-6094.1313 a 0.25,0.25 0 0 0 -0.5,0 0.25,0.25 0 0 0 0.5,0 z"
         style="fill:none;stroke:#000000"
         id="path1556" /></symbol><symbol
       id="*D2"><path
         style="fill:none;stroke:#000000"
         d="m 68.9629,-629.035 v -73.604"
         id="path1559" /><path
         style="fill:none;stroke:#000000"
         d="m 624.553,-629.035 v -73.604"
         id="path1561" /><path
         style="fill:none;stroke:#000000"
         d="M 78.4117,-697.914 H 615.105"
         id="path1563" /><path
         style="fill:none;stroke:#000000"
         d="m 78.4117,-699.489 v 3.15 l -9.4488,-1.575 z"
         id="path1565" /><path
         style="fill:none;stroke:#000000"
         d="m 615.105,-699.489 v 3.15 l 9.448,-1.575 z"
         id="path1567" /><text
         x="346.75818"
         y="-738.22632"
         style="font-size:75.591px;font-family:Arial;text-anchor:middle;fill:#000000"
         id="text1571"><tspan
           sodipodi:role="line"
           dx="0"
           dy="37.795277"
           id="tspan1569"
           x="346.75818"
           y="-738.22632">147</tspan></text><path
         d="m 69.212896,-626.67257 a 0.25,0.25 0 0 0 -0.5,0 0.25,0.25 0 0 0 0.5,0 z"
         style="fill:none;stroke:#000000"
         id="path1573" /><path
         d="m 624.80345,-626.67257 a 0.25,0.25 0 0 0 -0.5,0 0.25,0.25 0 0 0 0.5,0 z"
         style="fill:none;stroke:#000000"
         id="path1575" /><path
         d="m 624.80345,-697.91413 a 0.25,0.25 0 0 0 -0.5,0 0.25,0.25 0 0 0 0.5,0 z"
         style="fill:none;stroke:#000000"
         id="path1577" /></symbol><symbol
       id="A$C6f8b5d3f-8"><path
         d="m 0,1084.7244 h 20.787402 v 37.7953 H 0 v -37.7953"
         style="fill:none;stroke:#000000"
         id="path1580" /></symbol><symbol
       id="*D4"><path
         style="fill:none;stroke:#000000"
         d="m 4167.05,-660.798 -6.07,23.201"
         id="path1583" /><path
         style="fill:none;stroke:#000000"
         d="m 4042.03,-693.499 -6.07,23.201"
         id="path1585" /><path
         d="m 4153.4902,-645.89652 a 401.5748,401.5748 0 0 0 -106.9349,-27.97227"
         style="fill:none;stroke:#000000"
         id="path1587" /><path
         style="fill:none;stroke:#000000"
         d="m 4154.11,-647.344 -1.24,2.894 9.3,2.282 z"
         id="path1589" /><path
         style="fill:none;stroke:#000000"
         d="m 4046.39,-672.303 0.33,-3.132 -9.56,0.566 z"
         id="path1591" /><text
         x="4103.0244"
         y="-671.35822"
         style="font-size:9.449px;font-family:Arial;text-anchor:middle;fill:#000000"
         transform="rotate(14.659101,4103.0246,-671.35824)"
         id="text1595"><tspan
           sodipodi:role="line"
           dx="0"
           dy="4.7244091"
           id="tspan1593"
           x="4103.0244"
           y="-671.35822">34,34</tspan></text><path
         d="m 4084.2759,-671.56706 a 9.085304,9.085304 0 0 0 -17.5791,-4.59839"
         style="fill:none;stroke:#000000;stroke-linecap:round"
         id="path1597" /><path
         d="m 4005.0854,-295.99195 a 0.25,0.25 0 0 0 -0.5,0 0.25,0.25 0 0 0 0.5,0 z"
         style="fill:none;stroke:#000000"
         id="path1599" /><path
         d="m 4167.8933,-663.08312 a 0.25,0.25 0 0 0 -0.5,0 0.25,0.25 0 0 0 0.5,0 z"
         style="fill:none;stroke:#000000"
         id="path1601" /><path
         d="m 4042.8807,-695.78419 a 0.25,0.25 0 0 0 -0.5,0 0.25,0.25 0 0 0 0.5,0 z"
         style="fill:none;stroke:#000000"
         id="path1603" /><path
         d="m 4122.0087,-657.54467 a 0.25,0.25 0 0 0 -0.5,0 0.25,0.25 0 0 0 0.5,0 z"
         style="fill:none;stroke:#000000"
         id="path1605" /></symbol><marker
       id="DistanceX-7"
       orient="auto"
       refX="0"
       refY="0"
       style="overflow:visible"><path
         d="M 3,-3 -3,3 M 0,-5 V 5"
         style="stroke:#000000;stroke-width:0.5"
         id="path1897" /></marker><pattern
       id="Hatch-4"
       patternUnits="userSpaceOnUse"
       width="8"
       height="8"
       x="0"
       y="0"><path
         d="M8 4 l-4,4"
         stroke="#000000"
         stroke-width="0.25"
         linecap="square"
         id="path1900" /><path
         d="M6 2 l-4,4"
         stroke="#000000"
         stroke-width="0.25"
         linecap="square"
         id="path1902" /><path
         d="M4 0 l-4,4"
         stroke="#000000"
         stroke-width="0.25"
         linecap="square"
         id="path1904" /></pattern><symbol
       id="*Model_Space-51" /><symbol
       id="*Paper_Space-5" /><symbol
       id="*Paper_Space0-1" /><symbol
       id="*D1-9"><path
         style="fill:none;stroke:#000000"
         d="m 8308.24,-6025.25 v -73.61"
         id="path1910" /><path
         style="fill:none;stroke:#000000"
         d="m 8863.83,-6025.25 v -73.61"
         id="path1912" /><path
         style="fill:none;stroke:#000000"
         d="m 8317.69,-6094.13 h 536.69"
         id="path1914" /><path
         style="fill:none;stroke:#000000"
         d="m 8317.69,-6095.71 v 3.15 l -9.45,-1.57 z"
         id="path1916" /><path
         style="fill:none;stroke:#000000"
         d="m 8854.38,-6095.71 v 3.15 l 9.45,-1.57 z"
         id="path1918" /><text
         x="8586.0371"
         y="-6134.4434"
         style="font-size:75.591px;font-family:Arial;text-anchor:middle;fill:#000000"
         id="text1922"><tspan
           sodipodi:role="line"
           dx="0"
           dy="37.795277"
           id="tspan1920"
           x="8586.0371"
           y="-6134.4434">147</tspan></text><path
         d="m 8308.4916,-6022.8897 a 0.25,0.25 0 0 0 -0.5,0 0.25,0.25 0 0 0 0.5,0 z"
         style="fill:none;stroke:#000000"
         id="path1924" /><path
         d="m 8864.0822,-6022.8897 a 0.25,0.25 0 0 0 -0.5,0 0.25,0.25 0 0 0 0.5,0 z"
         style="fill:none;stroke:#000000"
         id="path1926" /><path
         d="m 8864.0822,-6094.1313 a 0.25,0.25 0 0 0 -0.5,0 0.25,0.25 0 0 0 0.5,0 z"
         style="fill:none;stroke:#000000"
         id="path1928" /></symbol><symbol
       id="*D2-2"><path
         style="fill:none;stroke:#000000"
         d="m 68.9629,-629.035 v -73.604"
         id="path1931" /><path
         style="fill:none;stroke:#000000"
         d="m 624.553,-629.035 v -73.604"
         id="path1933" /><path
         style="fill:none;stroke:#000000"
         d="M 78.4117,-697.914 H 615.105"
         id="path1935" /><path
         style="fill:none;stroke:#000000"
         d="m 78.4117,-699.489 v 3.15 l -9.4488,-1.575 z"
         id="path1937" /><path
         style="fill:none;stroke:#000000"
         d="m 615.105,-699.489 v 3.15 l 9.448,-1.575 z"
         id="path1939" /><text
         x="346.75818"
         y="-738.22632"
         style="font-size:75.591px;font-family:Arial;text-anchor:middle;fill:#000000"
         id="text1943"><tspan
           sodipodi:role="line"
           dx="0"
           dy="37.795277"
           id="tspan1941"
           x="346.75818"
           y="-738.22632">147</tspan></text><path
         d="m 69.212896,-626.67257 a 0.25,0.25 0 0 0 -0.5,0 0.25,0.25 0 0 0 0.5,0 z"
         style="fill:none;stroke:#000000"
         id="path1945" /><path
         d="m 624.80345,-626.67257 a 0.25,0.25 0 0 0 -0.5,0 0.25,0.25 0 0 0 0.5,0 z"
         style="fill:none;stroke:#000000"
         id="path1947" /><path
         d="m 624.80345,-697.91413 a 0.25,0.25 0 0 0 -0.5,0 0.25,0.25 0 0 0 0.5,0 z"
         style="fill:none;stroke:#000000"
         id="path1949" /></symbol><symbol
       id="A$C6f8b5d3f-1"><path
         d="m 0,1084.7244 h 20.787402 v 37.7953 H 0 v -37.7953"
         style="fill:none;stroke:#000000"
         id="path1952" /></symbol><symbol
       id="*D4-0"><path
         style="fill:none;stroke:#000000"
         d="m 4167.05,-660.798 -6.07,23.201"
         id="path1955" /><path
         style="fill:none;stroke:#000000"
         d="m 4042.03,-693.499 -6.07,23.201"
         id="path1957" /><path
         d="m 4153.4902,-645.89652 a 401.5748,401.5748 0 0 0 -106.9349,-27.97227"
         style="fill:none;stroke:#000000"
         id="path1959" /><path
         style="fill:none;stroke:#000000"
         d="m 4154.11,-647.344 -1.24,2.894 9.3,2.282 z"
         id="path1961" /><path
         style="fill:none;stroke:#000000"
         d="m 4046.39,-672.303 0.33,-3.132 -9.56,0.566 z"
         id="path1963" /><text
         x="4103.0244"
         y="-671.35822"
         style="font-size:9.449px;font-family:Arial;text-anchor:middle;fill:#000000"
         transform="rotate(14.659101,4103.0246,-671.35824)"
         id="text1967"><tspan
           sodipodi:role="line"
           dx="0"
           dy="4.7244091"
           id="tspan1965"
           x="4103.0244"
           y="-671.35822">34,34</tspan></text><path
         d="m 4084.2759,-671.56706 a 9.085304,9.085304 0 0 0 -17.5791,-4.59839"
         style="fill:none;stroke:#000000;stroke-linecap:round"
         id="path1969" /><path
         d="m 4005.0854,-295.99195 a 0.25,0.25 0 0 0 -0.5,0 0.25,0.25 0 0 0 0.5,0 z"
         style="fill:none;stroke:#000000"
         id="path1971" /><path
         d="m 4167.8933,-663.08312 a 0.25,0.25 0 0 0 -0.5,0 0.25,0.25 0 0 0 0.5,0 z"
         style="fill:none;stroke:#000000"
         id="path1973" /><path
         d="m 4042.8807,-695.78419 a 0.25,0.25 0 0 0 -0.5,0 0.25,0.25 0 0 0 0.5,0 z"
         style="fill:none;stroke:#000000"
         id="path1975" /><path
         d="m 4122.0087,-657.54467 a 0.25,0.25 0 0 0 -0.5,0 0.25,0.25 0 0 0 0.5,0 z"
         style="fill:none;stroke:#000000"
         id="path1977" /></symbol><marker
       id="DistanceX-9"
       orient="auto"
       refX="0"
       refY="0"
       style="overflow:visible"><path
         d="M 3,-3 -3,3 M 0,-5 V 5"
         style="stroke:#000000;stroke-width:0.5"
         id="path4957" /></marker><pattern
       id="Hatch-8"
       patternUnits="userSpaceOnUse"
       width="8"
       height="8"
       x="0"
       y="0"><path
         d="M8 4 l-4,4"
         stroke="#000000"
         stroke-width="0.25"
         linecap="square"
         id="path4960" /><path
         d="M6 2 l-4,4"
         stroke="#000000"
         stroke-width="0.25"
         linecap="square"
         id="path4962" /><path
         d="M4 0 l-4,4"
         stroke="#000000"
         stroke-width="0.25"
         linecap="square"
         id="path4964" /></pattern><symbol
       id="*Model_Space-8" /><symbol
       id="*Paper_Space-9" /><symbol
       id="*Paper_Space0-5" /><symbol
       id="*D1-17"><path
         style="fill:none;stroke:#000000"
         d="m 8308.24,-6025.25 v -73.61"
         id="path4970" /><path
         style="fill:none;stroke:#000000"
         d="m 8863.83,-6025.25 v -73.61"
         id="path4972" /><path
         style="fill:none;stroke:#000000"
         d="m 8317.69,-6094.13 h 536.69"
         id="path4974" /><path
         style="fill:none;stroke:#000000"
         d="m 8317.69,-6095.71 v 3.15 l -9.45,-1.57 z"
         id="path4976" /><path
         style="fill:none;stroke:#000000"
         d="m 8854.38,-6095.71 v 3.15 l 9.45,-1.57 z"
         id="path4978" /><text
         x="8586.0371"
         y="-6134.4434"
         style="font-size:75.591px;font-family:Arial;text-anchor:middle;fill:#000000"
         id="text4982"><tspan
           sodipodi:role="line"
           dx="0"
           dy="37.795277"
           id="tspan4980"
           x="8586.0371"
           y="-6134.4434">147</tspan></text><path
         d="m 8308.4916,-6022.8897 a 0.25,0.25 0 0 0 -0.5,0 0.25,0.25 0 0 0 0.5,0 z"
         style="fill:none;stroke:#000000"
         id="path4984" /><path
         d="m 8864.0822,-6022.8897 a 0.25,0.25 0 0 0 -0.5,0 0.25,0.25 0 0 0 0.5,0 z"
         style="fill:none;stroke:#000000"
         id="path4986" /><path
         d="m 8864.0822,-6094.1313 a 0.25,0.25 0 0 0 -0.5,0 0.25,0.25 0 0 0 0.5,0 z"
         style="fill:none;stroke:#000000"
         id="path4988" /></symbol><symbol
       id="*D2-27"><path
         style="fill:none;stroke:#000000"
         d="m 68.9629,-629.035 v -73.604"
         id="path4991" /><path
         style="fill:none;stroke:#000000"
         d="m 624.553,-629.035 v -73.604"
         id="path4993" /><path
         style="fill:none;stroke:#000000"
         d="M 78.4117,-697.914 H 615.105"
         id="path4995" /><path
         style="fill:none;stroke:#000000"
         d="m 78.4117,-699.489 v 3.15 l -9.4488,-1.575 z"
         id="path4997" /><path
         style="fill:none;stroke:#000000"
         d="m 615.105,-699.489 v 3.15 l 9.448,-1.575 z"
         id="path4999" /><text
         x="346.75818"
         y="-738.22632"
         style="font-size:75.591px;font-family:Arial;text-anchor:middle;fill:#000000"
         id="text5003"><tspan
           sodipodi:role="line"
           dx="0"
           dy="37.795277"
           id="tspan5001"
           x="346.75818"
           y="-738.22632">147</tspan></text><path
         d="m 69.212896,-626.67257 a 0.25,0.25 0 0 0 -0.5,0 0.25,0.25 0 0 0 0.5,0 z"
         style="fill:none;stroke:#000000"
         id="path5005" /><path
         d="m 624.80345,-626.67257 a 0.25,0.25 0 0 0 -0.5,0 0.25,0.25 0 0 0 0.5,0 z"
         style="fill:none;stroke:#000000"
         id="path5007" /><path
         d="m 624.80345,-697.91413 a 0.25,0.25 0 0 0 -0.5,0 0.25,0.25 0 0 0 0.5,0 z"
         style="fill:none;stroke:#000000"
         id="path5009" /></symbol><symbol
       id="A$C6f8b5d3f-7"><path
         d="m 0,1084.7244 h 20.787402 v 37.7953 H 0 v -37.7953"
         style="fill:none;stroke:#000000"
         id="path5012" /></symbol><symbol
       id="*D4-4"><path
         style="fill:none;stroke:#000000"
         d="m 4167.05,-660.798 -6.07,23.201"
         id="path5015" /><path
         style="fill:none;stroke:#000000"
         d="m 4042.03,-693.499 -6.07,23.201"
         id="path5017" /><path
         d="m 4153.4902,-645.89652 a 401.5748,401.5748 0 0 0 -106.9349,-27.97227"
         style="fill:none;stroke:#000000"
         id="path5019" /><path
         style="fill:none;stroke:#000000"
         d="m 4154.11,-647.344 -1.24,2.894 9.3,2.282 z"
         id="path5021" /><path
         style="fill:none;stroke:#000000"
         d="m 4046.39,-672.303 0.33,-3.132 -9.56,0.566 z"
         id="path5023" /><text
         x="4103.0244"
         y="-671.35822"
         style="font-size:9.449px;font-family:Arial;text-anchor:middle;fill:#000000"
         transform="rotate(14.659101,4103.0246,-671.35824)"
         id="text5027"><tspan
           sodipodi:role="line"
           dx="0"
           dy="4.7244091"
           id="tspan5025"
           x="4103.0244"
           y="-671.35822">34,34</tspan></text><path
         d="m 4084.2759,-671.56706 a 9.085304,9.085304 0 0 0 -17.5791,-4.59839"
         style="fill:none;stroke:#000000;stroke-linecap:round"
         id="path5029" /><path
         d="m 4005.0854,-295.99195 a 0.25,0.25 0 0 0 -0.5,0 0.25,0.25 0 0 0 0.5,0 z"
         style="fill:none;stroke:#000000"
         id="path5031" /><path
         d="m 4167.8933,-663.08312 a 0.25,0.25 0 0 0 -0.5,0 0.25,0.25 0 0 0 0.5,0 z"
         style="fill:none;stroke:#000000"
         id="path5033" /><path
         d="m 4042.8807,-695.78419 a 0.25,0.25 0 0 0 -0.5,0 0.25,0.25 0 0 0 0.5,0 z"
         style="fill:none;stroke:#000000"
         id="path5035" /><path
         d="m 4122.0087,-657.54467 a 0.25,0.25 0 0 0 -0.5,0 0.25,0.25 0 0 0 0.5,0 z"
         style="fill:none;stroke:#000000"
         id="path5037" /></symbol><marker
       id="DistanceX-77"
       orient="auto"
       refX="0.0"
       refY="0.0"
       style="overflow:visible"><path
         d="M 3,-3 L -3,3 M 0,-5 L  0,5"
         style="stroke:#000000; stroke-width:0.5"
         id="path5730" /></marker><pattern
       id="Hatch-1"
       patternUnits="userSpaceOnUse"
       width="8"
       height="8"
       x="0"
       y="0"><path
         d="M8 4 l-4,4"
         stroke="#000000"
         stroke-width="0.25"
         linecap="square"
         id="path5733" /><path
         d="M6 2 l-4,4"
         stroke="#000000"
         stroke-width="0.25"
         linecap="square"
         id="path5735" /><path
         d="M4 0 l-4,4"
         stroke="#000000"
         stroke-width="0.25"
         linecap="square"
         id="path5737" /></pattern><symbol
       id="*Model_Space-9" /><symbol
       id="*Paper_Space-1" /><symbol
       id="*Paper_Space0-3" /><symbol
       id="*D1-4"><path
         style="fill:none;stroke:#000000"
         d="M 8308.24 -6025.25 L 8308.24 -6098.86"
         id="path5743" /><path
         style="fill:none;stroke:#000000"
         d="M 8863.83 -6025.25 L 8863.83 -6098.86"
         id="path5745" /><path
         style="fill:none;stroke:#000000"
         d="M 8317.69 -6094.13 L 8854.38 -6094.13"
         id="path5747" /><path
         style="fill:none;stroke:#000000"
         d="M 8317.69 -6095.71 L 8317.69 -6092.56 L 8308.24 -6094.13 z"
         id="path5749" /><path
         style="fill:none;stroke:#000000"
         d="M 8854.38 -6095.71 L 8854.38 -6092.56 L 8863.83 -6094.13 z"
         id="path5751" /><text
         x="8586.036911"
         y="-6134.443420"
         style="font-size: 75.591px; fill: #000000; font-family: Arial; text-anchor: middle"
         id="text5755"><tspan
           sodipodi:role="line"
           dx="0.000000"
           dy="37.795276"
           id="tspan5753">147</tspan></text><path
         d="M 8308.491635,-6022.889702 A 0.250000,0.250000 0.000000 0, 0 8307.991635,-6022.889702 A 0.250000,0.250000 0.000000 0, 0 8308.491635,-6022.889702 z"
         style="fill:none;stroke:#000000"
         id="path5757" /><path
         d="M 8864.082187,-6022.889702 A 0.250000,0.250000 0.000000 0, 0 8863.582187,-6022.889702 A 0.250000,0.250000 0.000000 0, 0 8864.082187,-6022.889702 z"
         style="fill:none;stroke:#000000"
         id="path5759" /><path
         d="M 8864.082187,-6094.131253 A 0.250000,0.250000 0.000000 0, 0 8863.582187,-6094.131253 A 0.250000,0.250000 0.000000 0, 0 8864.082187,-6094.131253 z"
         style="fill:none;stroke:#000000"
         id="path5761" /></symbol><symbol
       id="*D2-5"><path
         style="fill:none;stroke:#000000"
         d="M 68.9629 -629.035 L 68.9629 -702.639"
         id="path5764" /><path
         style="fill:none;stroke:#000000"
         d="M 624.553 -629.035 L 624.553 -702.639"
         id="path5766" /><path
         style="fill:none;stroke:#000000"
         d="M 78.4117 -697.914 L 615.105 -697.914"
         id="path5768" /><path
         style="fill:none;stroke:#000000"
         d="M 78.4117 -699.489 L 78.4117 -696.339 L 68.9629 -697.914 z"
         id="path5770" /><path
         style="fill:none;stroke:#000000"
         d="M 615.105 -699.489 L 615.105 -696.339 L 624.553 -697.914 z"
         id="path5772" /><text
         x="346.758172"
         y="-738.226293"
         style="font-size: 75.591px; fill: #000000; font-family: Arial; text-anchor: middle"
         id="text5776"><tspan
           sodipodi:role="line"
           dx="0.000000"
           dy="37.795276"
           id="tspan5774">147</tspan></text><path
         d="M 69.212896,-626.672574 A 0.250000,0.250000 0.000000 0, 0 68.712896,-626.672574 A 0.250000,0.250000 0.000000 0, 0 69.212896,-626.672574 z"
         style="fill:none;stroke:#000000"
         id="path5778" /><path
         d="M 624.803447,-626.672574 A 0.250000,0.250000 0.000000 0, 0 624.303447,-626.672574 A 0.250000,0.250000 0.000000 0, 0 624.803447,-626.672574 z"
         style="fill:none;stroke:#000000"
         id="path5780" /><path
         d="M 624.803447,-697.914125 A 0.250000,0.250000 0.000000 0, 0 624.303447,-697.914125 A 0.250000,0.250000 0.000000 0, 0 624.803447,-697.914125 z"
         style="fill:none;stroke:#000000"
         id="path5782" /></symbol><symbol
       id="A$C6f8b5d3f-10"><path
         d="M 0.000000,1084.724409 L 20.787402,1084.724409 L 20.787402,1122.519685 L 0.000000,1122.519685 L 0.000000,1084.724409"
         style="fill:none;stroke:#000000"
         id="path5785" /></symbol><symbol
       id="*D4-2"><path
         style="fill:none;stroke:#000000"
         d="M 4167.05 -660.798 L 4160.98 -637.597"
         id="path5788" /><path
         style="fill:none;stroke:#000000"
         d="M 4042.03 -693.499 L 4035.96 -670.298"
         id="path5790" /><path
         d="M 4153.490231,-645.896516 A 401.574803,401.574803 0.000000 0 0 4046.555344,-673.868786"
         style="fill:none;stroke:#000000"
         id="path5792" /><path
         style="fill:none;stroke:#000000"
         d="M 4154.11 -647.344 L 4152.87 -644.45 L 4162.17 -642.168 z"
         id="path5794" /><path
         style="fill:none;stroke:#000000"
         d="M 4046.39 -672.303 L 4046.72 -675.435 L 4037.16 -674.869 z"
         id="path5796" /><text
         x="4103.024598"
         y="-671.358238"
         style="font-size: 9.449px; fill: #000000; font-family: Arial; text-anchor: middle"
         transform="rotate (14.659101 4103.024598 -671.358238)"
         id="text5800"><tspan
           sodipodi:role="line"
           dx="0.000000"
           dy="4.724409"
           id="tspan5798">34,34</tspan></text><path
         d="M 4084.275917,-671.567064 A 9.085304,9.085304 0.000000 0 0 4066.696788,-676.165453"
         style="fill:none;stroke:#000000;stroke-linecap: round"
         id="path5802" /><path
         d="M 4005.085429,-295.991948 A 0.250000,0.250000 0.000000 0, 0 4004.585429,-295.991948 A 0.250000,0.250000 0.000000 0, 0 4005.085429,-295.991948 z"
         style="fill:none;stroke:#000000"
         id="path5804" /><path
         d="M 4167.893264,-663.083124 A 0.250000,0.250000 0.000000 0, 0 4167.393264,-663.083124 A 0.250000,0.250000 0.000000 0, 0 4167.893264,-663.083124 z"
         style="fill:none;stroke:#000000"
         id="path5806" /><path
         d="M 4042.880705,-695.784193 A 0.250000,0.250000 0.000000 0, 0 4042.380705,-695.784193 A 0.250000,0.250000 0.000000 0, 0 4042.880705,-695.784193 z"
         style="fill:none;stroke:#000000"
         id="path5808" /><path
         d="M 4122.008676,-657.544671 A 0.250000,0.250000 0.000000 0, 0 4121.508676,-657.544671 A 0.250000,0.250000 0.000000 0, 0 4122.008676,-657.544671 z"
         style="fill:none;stroke:#000000"
         id="path5810" /></symbol></defs><g
     inkscape:label="Capa 1"
     inkscape:groupmode="layer"
     id="layer1"><g
       inkscape:label="corte"
       id="g838"
       transform="matrix(0.26458333,0,0,0.26458333,-989.03495,-657.8727)" /><g
       inkscape:label="Defpoints"
       id="g840"
       transform="matrix(0.26458333,0,0,0.26458333,-989.03495,-657.8727)" /><g
       inkscape:label="Defpoints"
       id="g2110"
       transform="matrix(0.26458333,0,0,0.26458333,-1328.9396,-646.22462)" /><g
       inkscape:label="Defpoints"
       id="g5188"
       transform="matrix(0.26458333,0,0,0.26458333,-1221.077,-549.97305)" /><path
       d="m 99.300336,27.594231 a 1.5000023,1.5000023 0 0 0 -3,0 1.5000023,1.5000023 0 0 0 3,0 z"
       style="fill:none;stroke:#ffff00;stroke-width:0.264583"
       id="path5981" /><path
       d="m 110.30034,27.594231 a 1.5000023,1.5000023 0 0 0 -3,0 1.5000023,1.5000023 0 0 0 3,0 z"
       style="fill:none;stroke:#ffff00;stroke-width:0.264583"
       id="path5983" /><path
       d="m 159.27199,48.426967 a 1.5000023,1.5000023 0 0 0 -3,0 1.5000023,1.5000023 0 0 0 3,0 z"
       style="fill:none;stroke:#ffff00;stroke-width:0.264583"
       id="path5985" /><path
       d="m 170.27199,48.426967 a 1.500005,1.500005 0 0 0 -3.00001,0 1.500005,1.500005 0 0 0 3.00001,0 z"
       style="fill:none;stroke:#ffff00;stroke-width:0.264583"
       id="path5987" /><path
       d="m 39.326046,48.426967 a 1.500005,1.500005 0 0 0 -3.00001,0 1.500005,1.500005 0 0 0 3.00001,0 z"
       style="fill:none;stroke:#ffff00;stroke-width:0.264583"
       id="path5989" /><path
       d="m 50.326046,48.426967 a 1.500005,1.500005 0 0 0 -3.00001,0 1.500005,1.500005 0 0 0 3.00001,0 z"
       style="fill:none;stroke:#ffff00;stroke-width:0.264583"
       id="path5991" /><path
       style="fill:none;stroke:#000000;stroke-width:0.264583"
       d="M 33.300686,170.75463 H 173.29967"
       id="path5993" /><path
       d="M 33.300346,120.75333 H 173.30036 v 50.00001 H 33.300346 Z"
       style="fill:none;stroke:#000000;stroke-width:0.264583"
       id="path5995" /><path
       style="fill:none;stroke:#000000;stroke-width:0.264583"
       d="m 173.29967,120.75368 v 50.00095"
       id="path5999" /><path
       d="m 53.341076,43.615916 h -20.02568 l -0.0279,68.411464 h 20.0257 z"
       style="fill:none;stroke:#000000;stroke-width:0.264583"
       id="path6001" /><path
       d="m 39.300356,107.21633 a 1.500005,1.500005 0 0 0 -3.00001,0 1.500005,1.500005 0 0 0 3.00001,0 z"
       style="fill:none;stroke:#ffff00;stroke-width:0.264583"
       id="path6003" /><path
       d="m 50.300356,107.21633 a 1.500005,1.500005 0 0 0 -3.00001,0 1.500005,1.500005 0 0 0 3.00001,0 z"
       style="fill:none;stroke:#ffff00;stroke-width:0.264583"
       id="path6005" /><path
       d="m 173.32433,43.615916 h -20.02571 l -0.0279,68.411464 h 20.02567 z"
       style="fill:none;stroke:#000000;stroke-width:0.264583"
       id="path6007" /><path
       d="m 159.28358,107.21633 a 1.500005,1.500005 0 0 0 -3.00001,0 1.500005,1.500005 0 0 0 3.00001,0 z"
       style="fill:none;stroke:#ffff00;stroke-width:0.264583"
       id="path6009" /><path
       d="m 170.28358,107.21633 a 1.500005,1.500005 0 0 0 -3.00001,0 1.500005,1.500005 0 0 0 3.00001,0 z"
       style="fill:none;stroke:#ffff00;stroke-width:0.264583"
       id="path6011" /><path
       d="m 93.298766,25.188693 h 19.999994 l 0.019,86.838687 H 93.317746 l -0.019,-86.838687"
       style="fill:none;stroke:#000000;stroke-width:0.264583"
       id="path6013" /><path
       d="m 99.315846,107.21633 a 1.500005,1.500005 0 0 0 -3.00001,0 1.500005,1.500005 0 0 0 3.00001,0 z"
       style="fill:none;stroke:#ffff00;stroke-width:0.264583"
       id="path6015" /><path
       d="m 110.31585,107.21633 a 1.500005,1.500005 0 0 0 -3.00001,0 1.500005,1.500005 0 0 0 3.00001,0 z"
       style="fill:none;stroke:#ffff00;stroke-width:0.264583"
       id="path6017" /><path
       d="m 104.8178,160.47544 a 1.5000023,1.5000023 0 0 0 -3,0 1.5000023,1.5000023 0 0 0 3,0 z"
       style="fill:none;stroke:#ff003f;stroke-width:0.264583"
       id="path6019" /><path
       d="m 104.8178,141.47545 a 1.5000023,1.5000023 0 0 0 -3,0 1.5000023,1.5000023 0 0 0 3,0 z"
       style="fill:none;stroke:#ff003f;stroke-width:0.264583"
       id="path6021" /><path
       d="m 59.299706,125.56439 a 1.500005,1.500005 0 0 0 -3.00001,0 1.500005,1.500005 0 0 0 3.00001,0 z"
       style="fill:none;stroke:#ffff00;stroke-width:0.264583"
       id="path6023" /><path
       d="m 59.315846,166.7644 a 1.500005,1.500005 0 0 0 -3.00001,0 1.500005,1.500005 0 0 0 3.00001,0 z"
       style="fill:none;stroke:#ffff00;stroke-width:0.264583"
       id="path6025" /><path
       d="m 150.3005,125.56439 a 1.500005,1.500005 0 0 0 -3.00001,0 1.500005,1.500005 0 0 0 3.00001,0 z"
       style="fill:none;stroke:#ffff00;stroke-width:0.264583"
       id="path6027" /><path
       d="m 150.31584,166.7644 a 1.5000023,1.5000023 0 0 0 -3,0 1.5000023,1.5000023 0 0 0 3,0 z"
       style="fill:none;stroke:#ffff00;stroke-width:0.264583"
       id="path6029" /><path
       style="fill:none;stroke:#ff0000;stroke-width:0.264583"
       d="m 169.05046,138.25322 h -1.50019"
       id="path6081" /><path
       style="fill:none;stroke:#ff0000;stroke-width:0.264583"
       d="m 169.05046,153.25245 h -1.50019"
       id="path6083" /><path
       style="fill:none;stroke:#ff0000;stroke-width:0.264583"
       d="m 37.549896,153.25245 h 1.50019"
       id="path6085" /><path
       style="fill:none;stroke:#ff0000;stroke-width:0.264583"
       d="m 37.549896,138.25322 h 1.50019"
       id="path6087" /><path
       d="m 39.050346,136.75335 v 1.5 h -3 v -1.5 a 1.5000023,1.5000023 0 0 1 3,0 z"
       style="fill:none;stroke:#ff0000;stroke-width:0.264583"
       id="path6089" /><path
       d="m 36.050346,154.75335 v -1.5 h 3 v 1.5 a 1.5000023,1.5000023 0 0 1 -3,0 z"
       style="fill:none;stroke:#ff0000;stroke-width:0.264583"
       id="path6091" /><path
       d="m 167.55035,154.75335 v -1.5 h 3.00001 v 1.5 a 1.500005,1.500005 0 0 1 -3.00001,0 z"
       style="fill:none;stroke:#ff0000;stroke-width:0.264583"
       id="path6093" /><path
       d="m 170.55036,136.75335 v 1.5 h -3.00001 v -1.5 a 1.500005,1.500005 0 0 1 3.00001,0 z"
       style="fill:none;stroke:#ff0000;stroke-width:0.264583"
       id="path6095" /><g
       inkscape:label="Defpoints"
       id="g6099"
       transform="matrix(0.26458333,0,0,0.26458333,-1554.0076,-627.10936)" /></g></svg>
