<?xml version="1.0" encoding="UTF-8" standalone="no"?>
<!-- Created with Inkscape (http://www.inkscape.org/) -->

<svg
   width="150mm"
   height="50mm"
   viewBox="0 0 150 50"
   version="1.1"
   id="svg5"
   xml:space="preserve"
   inkscape:version="1.2.1 (9c6d41e410, 2022-07-14)"
   sodipodi:docname="serigrafia.svg"
   xmlns:inkscape="http://www.inkscape.org/namespaces/inkscape"
   xmlns:sodipodi="http://sodipodi.sourceforge.net/DTD/sodipodi-0.dtd"
   xmlns="http://www.w3.org/2000/svg"
   xmlns:svg="http://www.w3.org/2000/svg"><sodipodi:namedview
     id="namedview7"
     pagecolor="#ffffff"
     bordercolor="#000000"
     borderopacity="0.25"
     inkscape:showpageshadow="2"
     inkscape:pageopacity="0.0"
     inkscape:pagecheckerboard="0"
     inkscape:deskcolor="#d1d1d1"
     inkscape:document-units="mm"
     showgrid="false"
     inkscape:zoom="0.73851712"
     inkscape:cx="396.74097"
     inkscape:cy="236.96133"
     inkscape:window-width="1920"
     inkscape:window-height="1009"
     inkscape:window-x="-8"
     inkscape:window-y="-8"
     inkscape:window-maximized="1"
     inkscape:current-layer="layer1" /><defs
     id="defs2"><marker
       id="DistanceX"
       orient="auto"
       refX="0"
       refY="0"
       style="overflow:visible"><path
         d="M 3,-3 -3,3 M 0,-5 V 5"
         style="stroke:#000000;stroke-width:0.5"
         id="path11" /></marker><pattern
       id="Hatch"
       patternUnits="userSpaceOnUse"
       width="8"
       height="8"
       x="0"
       y="0"><path
         d="M8 4 l-4,4"
         stroke="#000000"
         stroke-width="0.25"
         linecap="square"
         id="path14" /><path
         d="M6 2 l-4,4"
         stroke="#000000"
         stroke-width="0.25"
         linecap="square"
         id="path16" /><path
         d="M4 0 l-4,4"
         stroke="#000000"
         stroke-width="0.25"
         linecap="square"
         id="path18" /></pattern><symbol
       id="*Model_Space" /><symbol
       id="*Paper_Space" /><symbol
       id="*Paper_Space0" /><symbol
       id="*D1"><path
         style="fill:none;stroke:#000000"
         d="m 8308.24,-6025.25 v -73.61"
         id="path24" /><path
         style="fill:none;stroke:#000000"
         d="m 8863.83,-6025.25 v -73.61"
         id="path26" /><path
         style="fill:none;stroke:#000000"
         d="m 8317.69,-6094.13 h 536.69"
         id="path28" /><path
         style="fill:none;stroke:#000000"
         d="m 8317.69,-6095.71 v 3.15 l -9.45,-1.57 z"
         id="path30" /><path
         style="fill:none;stroke:#000000"
         d="m 8854.38,-6095.71 v 3.15 l 9.45,-1.57 z"
         id="path32" /><text
         x="8586.0371"
         y="-6134.4434"
         style="font-size:75.591px;font-family:Arial;text-anchor:middle;fill:#000000"
         id="text36"><tspan
           sodipodi:role="line"
           dx="0"
           dy="37.795277"
           id="tspan34"
           x="8586.0371"
           y="-6134.4434">147</tspan></text><path
         d="m 8308.4916,-6022.8897 a 0.25,0.25 0 0 0 -0.5,0 0.25,0.25 0 0 0 0.5,0 z"
         style="fill:none;stroke:#000000"
         id="path38" /><path
         d="m 8864.0822,-6022.8897 a 0.25,0.25 0 0 0 -0.5,0 0.25,0.25 0 0 0 0.5,0 z"
         style="fill:none;stroke:#000000"
         id="path40" /><path
         d="m 8864.0822,-6094.1313 a 0.25,0.25 0 0 0 -0.5,0 0.25,0.25 0 0 0 0.5,0 z"
         style="fill:none;stroke:#000000"
         id="path42" /></symbol><symbol
       id="*D3"><path
         style="fill:none;stroke:#000000"
         d="m 68.9629,-629.035 v -73.604"
         id="path45" /><path
         style="fill:none;stroke:#000000"
         d="m 624.553,-629.035 v -73.604"
         id="path47" /><path
         style="fill:none;stroke:#000000"
         d="M 78.4117,-697.914 H 615.105"
         id="path49" /><path
         style="fill:none;stroke:#000000"
         d="m 78.4117,-699.489 v 3.15 l -9.4488,-1.575 z"
         id="path51" /><path
         style="fill:none;stroke:#000000"
         d="m 615.105,-699.489 v 3.15 l 9.448,-1.575 z"
         id="path53" /><text
         x="346.75818"
         y="-738.22632"
         style="font-size:75.591px;font-family:Arial;text-anchor:middle;fill:#000000"
         id="text57"><tspan
           sodipodi:role="line"
           dx="0"
           dy="37.795277"
           id="tspan55"
           x="346.75818"
           y="-738.22632">147</tspan></text><path
         d="m 69.212896,-626.67257 a 0.25,0.25 0 0 0 -0.5,0 0.25,0.25 0 0 0 0.5,0 z"
         style="fill:none;stroke:#000000"
         id="path59" /><path
         d="m 624.80345,-626.67257 a 0.25,0.25 0 0 0 -0.5,0 0.25,0.25 0 0 0 0.5,0 z"
         style="fill:none;stroke:#000000"
         id="path61" /><path
         d="m 624.80345,-697.91413 a 0.25,0.25 0 0 0 -0.5,0 0.25,0.25 0 0 0 0.5,0 z"
         style="fill:none;stroke:#000000"
         id="path63" /></symbol><symbol
       id="A$C6f8b5d3f"><path
         d="m 0,1084.7244 h 20.787402 v 37.7953 H 0 v -37.7953"
         style="fill:none;stroke:#000000"
         id="path66" /></symbol><symbol
       id="*D6"><path
         style="fill:none;stroke:#000000"
         d="m 4167.05,-660.798 -6.07,23.201"
         id="path69" /><path
         style="fill:none;stroke:#000000"
         d="m 4042.03,-693.499 -6.07,23.201"
         id="path71" /><path
         d="m 4153.4902,-645.89652 a 401.5748,401.5748 0 0 0 -106.9349,-27.97227"
         style="fill:none;stroke:#000000"
         id="path73" /><path
         style="fill:none;stroke:#000000"
         d="m 4154.11,-647.344 -1.24,2.894 9.3,2.282 z"
         id="path75" /><path
         style="fill:none;stroke:#000000"
         d="m 4046.39,-672.303 0.33,-3.132 -9.56,0.566 z"
         id="path77" /><text
         x="4103.0244"
         y="-671.35822"
         style="font-size:9.449px;font-family:Arial;text-anchor:middle;fill:#000000"
         transform="rotate(14.659101,4103.0246,-671.35824)"
         id="text81"><tspan
           sodipodi:role="line"
           dx="0"
           dy="4.7244091"
           id="tspan79"
           x="4103.0244"
           y="-671.35822">34,34</tspan></text><path
         d="m 4084.2759,-671.56706 a 9.085304,9.085304 0 0 0 -17.5791,-4.59839"
         style="fill:none;stroke:#000000;stroke-linecap:round"
         id="path83" /><path
         d="m 4005.0854,-295.99195 a 0.25,0.25 0 0 0 -0.5,0 0.25,0.25 0 0 0 0.5,0 z"
         style="fill:none;stroke:#000000"
         id="path85" /><path
         d="m 4167.8933,-663.08312 a 0.25,0.25 0 0 0 -0.5,0 0.25,0.25 0 0 0 0.5,0 z"
         style="fill:none;stroke:#000000"
         id="path87" /><path
         d="m 4042.8807,-695.78419 a 0.25,0.25 0 0 0 -0.5,0 0.25,0.25 0 0 0 0.5,0 z"
         style="fill:none;stroke:#000000"
         id="path89" /><path
         d="m 4122.0087,-657.54467 a 0.25,0.25 0 0 0 -0.5,0 0.25,0.25 0 0 0 0.5,0 z"
         style="fill:none;stroke:#000000"
         id="path91" /></symbol></defs><g
     inkscape:label="Capa 1"
     inkscape:groupmode="layer"
     id="layer1"><g
       id="g200"
       transform="matrix(0.26458333,0,0,0.26458333,-1016.7304,-676.15723)"><g
         inkscape:label="0"
         id="g126"><path
           d="m 3975.5441,2556.0549 h 20.7874 v 37.7953 h -20.7874 v -37.7953"
           style="fill:none;stroke:#000000"
           id="path96" /><path
           d="m 3867.8276,2573.8534 h 20.7874 v 37.7953 h -20.7874 v -37.7953"
           style="fill:none;stroke:#000000"
           id="path98" /><path
           d="m 3933.9693,2563.9691 h 20.7874 v 37.7953 h -20.7874 v -37.7953"
           style="fill:none;stroke:#000000"
           id="path100" /><path
           d="m 3974.5992,2575.0037 a 9.448819,9.448819 0 0 0 -18.8976,0 9.448819,9.448819 0 0 0 18.8976,0 z"
           style="fill:none;stroke:#000000"
           id="path102" /><path
           d="m 3909.4024,2563.9691 h 20.7874 v 37.7953 h -20.7874 v -37.7953"
           style="fill:none;stroke:#000000"
           id="path104" /><path
           d="m 3843.2606,2573.8534 h 20.7874 v 37.7953 h -20.7874 v -37.7953"
           style="fill:none;stroke:#000000"
           id="path106" /><path
           d="m 3908.4575,2586.7325 a 9.44885,9.44885 0 0 0 -18.8977,0 9.44885,9.44885 0 0 0 18.8977,0 z"
           style="fill:none;stroke:#000000"
           id="path108" /><path
           d="m 4034.1268,2556.0549 h -20.7874 v 37.7953 h 20.7874 v -37.7953"
           style="fill:none;stroke:#000000"
           id="path110" /><path
           d="m 4141.8433,2573.8534 h -20.7874 v 37.7953 h 20.7874 v -37.7953"
           style="fill:none;stroke:#000000"
           id="path112" /><path
           d="m 4075.7016,2563.9691 h -20.7874 v 37.7953 h 20.7874 v -37.7953"
           style="fill:none;stroke:#000000"
           id="path114" /><path
           d="m 4053.9693,2575.0037 a 9.44885,9.44885 0 0 0 -18.8977,0 9.44885,9.44885 0 0 0 18.8977,0 z"
           style="fill:none;stroke:#000000"
           id="path116" /><path
           d="m 4100.2685,2563.9691 h -20.7874 v 37.7953 h 20.7874 v -37.7953"
           style="fill:none;stroke:#000000"
           id="path118" /><path
           d="m 4166.4102,2573.8534 h -20.7874 v 37.7953 h 20.7874 v -37.7953"
           style="fill:none;stroke:#000000"
           id="path120" /><path
           d="m 4120.111,2586.7325 a 9.448819,9.448819 0 0 0 -18.8976,0 9.448819,9.448819 0 0 0 18.8976,0 z"
           style="fill:none;stroke:#000000"
           id="path122" /><path
           d="m 4186.2528,2592.751 a 9.44885,9.44885 0 0 0 -18.8977,0 9.44885,9.44885 0 0 0 18.8977,0 z"
           style="fill:none;stroke:#000000"
           id="path124" /></g><g
         inkscape:label="corte"
         id="g128" /><g
         inkscape:label="Defpoints"
         id="g130" /></g></g></svg>
