<?xml version="1.0" encoding="UTF-8" standalone="no"?>
<!-- Created with Inkscape (http://www.inkscape.org/) -->

<svg
   width="210mm"
   height="297mm"
   viewBox="0 0 210 297"
   version="1.1"
   id="svg5"
   xml:space="preserve"
   inkscape:version="1.2 (dc2aedaf03, 2022-05-15)"
   sodipodi:docname="tcrt5000 base.svg"
   xmlns:inkscape="http://www.inkscape.org/namespaces/inkscape"
   xmlns:sodipodi="http://sodipodi.sourceforge.net/DTD/sodipodi-0.dtd"
   xmlns="http://www.w3.org/2000/svg"
   xmlns:svg="http://www.w3.org/2000/svg"><sodipodi:namedview
     id="namedview7"
     pagecolor="#ffffff"
     bordercolor="#000000"
     borderopacity="0.25"
     inkscape:showpageshadow="2"
     inkscape:pageopacity="0.0"
     inkscape:pagecheckerboard="0"
     inkscape:deskcolor="#d1d1d1"
     inkscape:document-units="mm"
     showgrid="false"
     inkscape:zoom="1.0444209"
     inkscape:cx="480.64912"
     inkscape:cy="563.94887"
     inkscape:window-width="1920"
     inkscape:window-height="1009"
     inkscape:window-x="-8"
     inkscape:window-y="-8"
     inkscape:window-maximized="1"
     inkscape:current-layer="layer1" /><defs
     id="defs2"><marker
       id="DistanceX"
       orient="auto"
       refX="0.0"
       refY="0.0"
       style="overflow:visible"><path
         d="M 3,-3 L -3,3 M 0,-5 L  0,5"
         style="stroke:#000000; stroke-width:0.5"
         id="path11" /></marker><pattern
       id="Hatch"
       patternUnits="userSpaceOnUse"
       width="8"
       height="8"
       x="0"
       y="0"><path
         d="M8 4 l-4,4"
         stroke="#000000"
         stroke-width="0.25"
         linecap="square"
         id="path14" /><path
         d="M6 2 l-4,4"
         stroke="#000000"
         stroke-width="0.25"
         linecap="square"
         id="path16" /><path
         d="M4 0 l-4,4"
         stroke="#000000"
         stroke-width="0.25"
         linecap="square"
         id="path18" /></pattern><symbol
       id="*Model_Space" /><symbol
       id="*Paper_Space" /><symbol
       id="*Paper_Space0" /><marker
       id="DistanceX-6"
       orient="auto"
       refX="0.0"
       refY="0.0"
       style="overflow:visible"><path
         d="M 3,-3 L -3,3 M 0,-5 L  0,5"
         style="stroke:#000000; stroke-width:0.5"
         id="path1064" /></marker><pattern
       id="Hatch-8"
       patternUnits="userSpaceOnUse"
       width="8"
       height="8"
       x="0"
       y="0"><path
         d="M8 4 l-4,4"
         stroke="#000000"
         stroke-width="0.25"
         linecap="square"
         id="path1067" /><path
         d="M6 2 l-4,4"
         stroke="#000000"
         stroke-width="0.25"
         linecap="square"
         id="path1069" /><path
         d="M4 0 l-4,4"
         stroke="#000000"
         stroke-width="0.25"
         linecap="square"
         id="path1071" /></pattern><symbol
       id="*Model_Space-4" /><symbol
       id="*Paper_Space-9" /><symbol
       id="*Paper_Space0-7" /><marker
       id="DistanceX-5"
       orient="auto"
       refX="0.0"
       refY="0.0"
       style="overflow:visible"><path
         d="M 3,-3 L -3,3 M 0,-5 L  0,5"
         style="stroke:#000000; stroke-width:0.5"
         id="path1423" /></marker><pattern
       id="Hatch-4"
       patternUnits="userSpaceOnUse"
       width="8"
       height="8"
       x="0"
       y="0"><path
         d="M8 4 l-4,4"
         stroke="#000000"
         stroke-width="0.25"
         linecap="square"
         id="path1426" /><path
         d="M6 2 l-4,4"
         stroke="#000000"
         stroke-width="0.25"
         linecap="square"
         id="path1428" /><path
         d="M4 0 l-4,4"
         stroke="#000000"
         stroke-width="0.25"
         linecap="square"
         id="path1430" /></pattern><symbol
       id="*Model_Space-41" /><symbol
       id="*Paper_Space-2" /><symbol
       id="*Paper_Space0-5" /><marker
       id="DistanceX-2"
       orient="auto"
       refX="0.0"
       refY="0.0"
       style="overflow:visible"><path
         d="M 3,-3 L -3,3 M 0,-5 L  0,5"
         style="stroke:#000000; stroke-width:0.5"
         id="path1775" /></marker><pattern
       id="Hatch-48"
       patternUnits="userSpaceOnUse"
       width="8"
       height="8"
       x="0"
       y="0"><path
         d="M8 4 l-4,4"
         stroke="#000000"
         stroke-width="0.25"
         linecap="square"
         id="path1778" /><path
         d="M6 2 l-4,4"
         stroke="#000000"
         stroke-width="0.25"
         linecap="square"
         id="path1780" /><path
         d="M4 0 l-4,4"
         stroke="#000000"
         stroke-width="0.25"
         linecap="square"
         id="path1782" /></pattern><symbol
       id="*Model_Space-7" /><symbol
       id="*Paper_Space-3" /><symbol
       id="*Paper_Space0-6" /><marker
       id="DistanceX-60"
       orient="auto"
       refX="0.0"
       refY="0.0"
       style="overflow:visible"><path
         d="M 3,-3 L -3,3 M 0,-5 L  0,5"
         style="stroke:#000000; stroke-width:0.5"
         id="path2136" /></marker><pattern
       id="Hatch-80"
       patternUnits="userSpaceOnUse"
       width="8"
       height="8"
       x="0"
       y="0"><path
         d="M8 4 l-4,4"
         stroke="#000000"
         stroke-width="0.25"
         linecap="square"
         id="path2139" /><path
         d="M6 2 l-4,4"
         stroke="#000000"
         stroke-width="0.25"
         linecap="square"
         id="path2141" /><path
         d="M4 0 l-4,4"
         stroke="#000000"
         stroke-width="0.25"
         linecap="square"
         id="path2143" /></pattern><symbol
       id="*Model_Space-0" /><symbol
       id="*Paper_Space-39" /><symbol
       id="*Paper_Space0-1" /><marker
       id="DistanceX-20"
       orient="auto"
       refX="0.0"
       refY="0.0"
       style="overflow:visible"><path
         d="M 3,-3 L -3,3 M 0,-5 L  0,5"
         style="stroke:#000000; stroke-width:0.5"
         id="path2498" /></marker><pattern
       id="Hatch-9"
       patternUnits="userSpaceOnUse"
       width="8"
       height="8"
       x="0"
       y="0"><path
         d="M8 4 l-4,4"
         stroke="#000000"
         stroke-width="0.25"
         linecap="square"
         id="path2501" /><path
         d="M6 2 l-4,4"
         stroke="#000000"
         stroke-width="0.25"
         linecap="square"
         id="path2503" /><path
         d="M4 0 l-4,4"
         stroke="#000000"
         stroke-width="0.25"
         linecap="square"
         id="path2505" /></pattern><symbol
       id="*Model_Space-3" /><symbol
       id="*Paper_Space-31" /><symbol
       id="*Paper_Space0-8" /><marker
       id="DistanceX-1"
       orient="auto"
       refX="0.0"
       refY="0.0"
       style="overflow:visible"><path
         d="M 3,-3 L -3,3 M 0,-5 L  0,5"
         style="stroke:#000000; stroke-width:0.5"
         id="path2773" /></marker><pattern
       id="Hatch-7"
       patternUnits="userSpaceOnUse"
       width="8"
       height="8"
       x="0"
       y="0"><path
         d="M8 4 l-4,4"
         stroke="#000000"
         stroke-width="0.25"
         linecap="square"
         id="path2776" /><path
         d="M6 2 l-4,4"
         stroke="#000000"
         stroke-width="0.25"
         linecap="square"
         id="path2778" /><path
         d="M4 0 l-4,4"
         stroke="#000000"
         stroke-width="0.25"
         linecap="square"
         id="path2780" /></pattern><symbol
       id="*Model_Space-47" /><symbol
       id="*Paper_Space-96" /><symbol
       id="*Paper_Space0-82" /></defs><g
     inkscape:label="Capa 1"
     inkscape:groupmode="layer"
     id="layer1"><g
       id="g2945"
       transform="matrix(0.26458333,0,0,0.26458333,-2671.8124,1307.5362)"><g
         inkscape:label="0"
         id="g2874"><path
           d="m 10813.17,-4453.8327 v -20.7874 h -37.795 v 20.7874 h 37.795"
           style="fill:none;stroke:#ff0000"
           id="path2788" /><path
           d="m 10775.375,-4373.3288 h 37.795 v 9.4489 h -37.795 v -9.4489"
           style="fill:none;stroke:#000000"
           id="path2790" /><path
           d="m 10799.942,-4389.9587 a 5.6695,5.6695 0 0 0 -11.339,0 5.6695,5.6695 0 0 0 11.339,0 z"
           style="fill:none;stroke:#ff0000"
           id="path2792" /><path
           d="m 10755.721,-4453.8327 v -20.7874 h -37.795 v 20.7874 h 37.795"
           style="fill:none;stroke:#ff0000"
           id="path2794" /><path
           d="m 10717.926,-4373.3288 h 37.795 v 9.4489 h -37.795 v -9.4489"
           style="fill:none;stroke:#000000"
           id="path2796" /><path
           d="m 10742.493,-4389.9587 a 5.669291,5.669291 0 0 0 -11.338,0 5.669291,5.669291 0 0 0 11.338,0 z"
           style="fill:none;stroke:#ff0000"
           id="path2798" /><path
           d="m 10698.273,-4453.8327 v -20.7874 h -37.796 v 20.7874 h 37.796"
           style="fill:none;stroke:#ff0000"
           id="path2800" /><path
           d="m 10660.477,-4373.3288 h 37.796 v 9.4489 h -37.796 v -9.4489"
           style="fill:none;stroke:#000000"
           id="path2802" /><path
           d="m 10685.044,-4389.9587 a 5.6692915,5.6692915 0 0 0 -11.338,0 5.6692915,5.6692915 0 0 0 11.338,0 z"
           style="fill:none;stroke:#ff0000"
           id="path2804" /><path
           d="m 10640.824,-4453.8327 v -20.7874 h -37.795 v 20.7874 h 37.795"
           style="fill:none;stroke:#ff0000"
           id="path2806" /><path
           d="m 10603.029,-4373.3288 h 37.795 v 9.4489 h -37.795 v -9.4489"
           style="fill:none;stroke:#000000"
           id="path2808" /><path
           d="m 10627.595,-4389.9587 a 5.6692915,5.6692915 0 0 0 -11.338,0 5.6692915,5.6692915 0 0 0 11.338,0 z"
           style="fill:none;stroke:#ff0000"
           id="path2810" /><path
           d="m 10583.375,-4453.8327 v -20.7874 h -37.795 v 20.7874 h 37.795"
           style="fill:none;stroke:#ff0000"
           id="path2812" /><path
           d="m 10545.58,-4373.3288 h 37.795 v 9.4489 h -37.795 v -9.4489"
           style="fill:none;stroke:#000000"
           id="path2814" /><path
           d="m 10570.147,-4389.9587 a 5.6695,5.6695 0 0 0 -11.339,0 5.6695,5.6695 0 0 0 11.339,0 z"
           style="fill:none;stroke:#ff0000"
           id="path2816" /><path
           d="m 10525.926,-4453.8327 v -20.7874 h -37.795 v 20.7874 h 37.795"
           style="fill:none;stroke:#ff0000"
           id="path2818" /><path
           d="m 10488.131,-4373.3288 h 37.795 v 9.4489 h -37.795 v -9.4489"
           style="fill:none;stroke:#000000"
           id="path2820" /><path
           d="m 10512.698,-4389.9587 a 5.6695,5.6695 0 0 0 -11.339,0 5.6695,5.6695 0 0 0 11.339,0 z"
           style="fill:none;stroke:#ff0000"
           id="path2822" /><path
           d="m 10468.477,-4453.8327 v -20.7874 h -37.795 v 20.7874 h 37.795"
           style="fill:none;stroke:#ff0000"
           id="path2824" /><path
           d="m 10430.682,-4373.3288 h 37.795 v 9.4489 h -37.795 v -9.4489"
           style="fill:none;stroke:#000000"
           id="path2826" /><path
           d="m 10455.249,-4389.9587 a 5.6695,5.6695 0 0 0 -11.339,0 5.6695,5.6695 0 0 0 11.339,0 z"
           style="fill:none;stroke:#ff0000"
           id="path2828" /><path
           d="m 10411.029,-4453.8327 v -20.7874 h -37.796 v 20.7874 h 37.796"
           style="fill:none;stroke:#ff0000"
           id="path2830" /><path
           d="m 10373.233,-4373.3288 h 37.796 v 9.4489 h -37.796 v -9.4489"
           style="fill:none;stroke:#000000"
           id="path2832" /><path
           d="m 10397.8,-4389.9587 a 5.6692915,5.6692915 0 0 0 -11.338,0 5.6692915,5.6692915 0 0 0 11.338,0 z"
           style="fill:none;stroke:#ff0000"
           id="path2834" /><path
           d="m 10353.58,-4453.8327 v -20.7874 h -37.796 v 20.7874 h 37.796"
           style="fill:none;stroke:#ff0000"
           id="path2836" /><path
           d="m 10315.784,-4373.3288 h 37.796 v 9.4489 h -37.796 v -9.4489"
           style="fill:none;stroke:#000000"
           id="path2838" /><path
           d="m 10340.351,-4389.9587 a 5.6692915,5.6692915 0 0 0 -11.338,0 5.6692915,5.6692915 0 0 0 11.338,0 z"
           style="fill:none;stroke:#ff0000"
           id="path2840" /><path
           d="m 10296.131,-4453.8327 v -20.7874 h -37.795 v 20.7874 h 37.795"
           style="fill:none;stroke:#ff0000"
           id="path2842" /><path
           d="m 10258.336,-4373.3288 h 37.795 v 9.4489 h -37.795 v -9.4489"
           style="fill:none;stroke:#000000"
           id="path2844" /><path
           d="m 10282.903,-4389.9587 a 5.6695,5.6695 0 0 0 -11.339,0 5.6695,5.6695 0 0 0 11.339,0 z"
           style="fill:none;stroke:#ff0000"
           id="path2846" /><path
           d="m 10238.682,-4453.8327 v -20.7874 h -37.795 v 20.7874 h 37.795"
           style="fill:none;stroke:#ff0000"
           id="path2848" /><path
           d="m 10200.887,-4373.3288 h 37.795 v 9.4489 h -37.795 v -9.4489"
           style="fill:none;stroke:#000000"
           id="path2850" /><path
           d="m 10225.454,-4389.9587 a 5.6695,5.6695 0 0 0 -11.339,0 5.6695,5.6695 0 0 0 11.339,0 z"
           style="fill:none;stroke:#ff0000"
           id="path2852" /><path
           d="m 10181.233,-4453.8327 v -20.7874 h -37.795 v 20.7874 h 37.795"
           style="fill:none;stroke:#ff0000"
           id="path2854" /><path
           d="m 10143.438,-4373.3288 h 37.795 v 9.4489 h -37.795 v -9.4489"
           style="fill:none;stroke:#000000"
           id="path2856" /><path
           d="m 10168.005,-4389.9587 a 5.6695,5.6695 0 0 0 -11.339,0 5.6695,5.6695 0 0 0 11.339,0 z"
           style="fill:none;stroke:#ff0000"
           id="path2858" /><path
           style="fill:none;stroke:#000000"
           d="m 10143.4,-4363.88 h 37.8"
           id="path2860" /><path
           d="m 10238.682,-4363.8799 h -37.795 z"
           style="fill:none;stroke:#000000"
           id="path2862" /><path
           d="m 10755.721,-4363.8799 h -37.795 z"
           style="fill:none;stroke:#000000"
           id="path2864" /><path
           d="m 10813.17,-4363.8799 h -37.795 z"
           style="fill:none;stroke:#000000"
           id="path2866" /><path
           d="m 10135.501,-4482.1791 v 214.2623 h 685.606 v -214.2623 h -685.606"
           style="fill:none;stroke:#000000"
           id="path2868" /><path
           d="m 10463.192,-4292.9773 a 5.6695,5.6695 0 0 0 -11.339,0 5.6695,5.6695 0 0 0 11.339,0 z"
           style="fill:none;stroke:#ffff00"
           id="path2870" /><path
           d="m 10504.767,-4292.9773 a 5.6695,5.6695 0 0 0 -11.339,0 5.6695,5.6695 0 0 0 11.339,0 z"
           style="fill:none;stroke:#ffff00"
           id="path2872" /></g><g
         inkscape:label="corte"
         id="g2882"><path
           d="m 10508.162,-4330.998 a 4.3465,4.3465 0 0 0 -8.693,0 4.3465,4.3465 0 0 0 8.693,0 z"
           style="fill:none;stroke:#ff0000"
           id="path2876" /><path
           d="m 10457.139,-4330.998 a 4.3465,4.3465 0 0 0 -8.693,0 4.3465,4.3465 0 0 0 8.693,0 z"
           style="fill:none;stroke:#ff0000"
           id="path2878" /><path
           d="m 10489.076,-4330.998 a 10.772,10.772 0 0 0 -21.544,0 10.772,10.772 0 0 0 21.544,0 z"
           style="fill:none;stroke:#ff0000"
           id="path2880" /></g></g></g></svg>
