<?xml version="1.0" encoding="UTF-8" standalone="no"?>
<!-- Created with Inkscape (http://www.inkscape.org/) -->

<svg
   width="210mm"
   height="297mm"
   viewBox="0 0 210 297"
   version="1.1"
   id="svg5"
   xml:space="preserve"
   inkscape:version="1.2 (dc2aedaf03, 2022-05-15)"
   sodipodi:docname="tcrt5000 base.svg"
   xmlns:inkscape="http://www.inkscape.org/namespaces/inkscape"
   xmlns:sodipodi="http://sodipodi.sourceforge.net/DTD/sodipodi-0.dtd"
   xmlns="http://www.w3.org/2000/svg"
   xmlns:svg="http://www.w3.org/2000/svg"><sodipodi:namedview
     id="namedview7"
     pagecolor="#ffffff"
     bordercolor="#000000"
     borderopacity="0.25"
     inkscape:showpageshadow="2"
     inkscape:pageopacity="0.0"
     inkscape:pagecheckerboard="0"
     inkscape:deskcolor="#d1d1d1"
     inkscape:document-units="mm"
     showgrid="false"
     inkscape:zoom="1.0444209"
     inkscape:cx="480.64913"
     inkscape:cy="410.75394"
     inkscape:window-width="1920"
     inkscape:window-height="1009"
     inkscape:window-x="-8"
     inkscape:window-y="-8"
     inkscape:window-maximized="1"
     inkscape:current-layer="layer1" /><defs
     id="defs2"><marker
       id="DistanceX"
       orient="auto"
       refX="0.0"
       refY="0.0"
       style="overflow:visible"><path
         d="M 3,-3 L -3,3 M 0,-5 L  0,5"
         style="stroke:#000000; stroke-width:0.5"
         id="path11" /></marker><pattern
       id="Hatch"
       patternUnits="userSpaceOnUse"
       width="8"
       height="8"
       x="0"
       y="0"><path
         d="M8 4 l-4,4"
         stroke="#000000"
         stroke-width="0.25"
         linecap="square"
         id="path14" /><path
         d="M6 2 l-4,4"
         stroke="#000000"
         stroke-width="0.25"
         linecap="square"
         id="path16" /><path
         d="M4 0 l-4,4"
         stroke="#000000"
         stroke-width="0.25"
         linecap="square"
         id="path18" /></pattern><symbol
       id="*Model_Space" /><symbol
       id="*Paper_Space" /><symbol
       id="*Paper_Space0" /><marker
       id="DistanceX-6"
       orient="auto"
       refX="0.0"
       refY="0.0"
       style="overflow:visible"><path
         d="M 3,-3 L -3,3 M 0,-5 L  0,5"
         style="stroke:#000000; stroke-width:0.5"
         id="path1064" /></marker><pattern
       id="Hatch-8"
       patternUnits="userSpaceOnUse"
       width="8"
       height="8"
       x="0"
       y="0"><path
         d="M8 4 l-4,4"
         stroke="#000000"
         stroke-width="0.25"
         linecap="square"
         id="path1067" /><path
         d="M6 2 l-4,4"
         stroke="#000000"
         stroke-width="0.25"
         linecap="square"
         id="path1069" /><path
         d="M4 0 l-4,4"
         stroke="#000000"
         stroke-width="0.25"
         linecap="square"
         id="path1071" /></pattern><symbol
       id="*Model_Space-4" /><symbol
       id="*Paper_Space-9" /><symbol
       id="*Paper_Space0-7" /><marker
       id="DistanceX-5"
       orient="auto"
       refX="0.0"
       refY="0.0"
       style="overflow:visible"><path
         d="M 3,-3 L -3,3 M 0,-5 L  0,5"
         style="stroke:#000000; stroke-width:0.5"
         id="path1423" /></marker><pattern
       id="Hatch-4"
       patternUnits="userSpaceOnUse"
       width="8"
       height="8"
       x="0"
       y="0"><path
         d="M8 4 l-4,4"
         stroke="#000000"
         stroke-width="0.25"
         linecap="square"
         id="path1426" /><path
         d="M6 2 l-4,4"
         stroke="#000000"
         stroke-width="0.25"
         linecap="square"
         id="path1428" /><path
         d="M4 0 l-4,4"
         stroke="#000000"
         stroke-width="0.25"
         linecap="square"
         id="path1430" /></pattern><symbol
       id="*Model_Space-41" /><symbol
       id="*Paper_Space-2" /><symbol
       id="*Paper_Space0-5" /><marker
       id="DistanceX-2"
       orient="auto"
       refX="0.0"
       refY="0.0"
       style="overflow:visible"><path
         d="M 3,-3 L -3,3 M 0,-5 L  0,5"
         style="stroke:#000000; stroke-width:0.5"
         id="path1775" /></marker><pattern
       id="Hatch-48"
       patternUnits="userSpaceOnUse"
       width="8"
       height="8"
       x="0"
       y="0"><path
         d="M8 4 l-4,4"
         stroke="#000000"
         stroke-width="0.25"
         linecap="square"
         id="path1778" /><path
         d="M6 2 l-4,4"
         stroke="#000000"
         stroke-width="0.25"
         linecap="square"
         id="path1780" /><path
         d="M4 0 l-4,4"
         stroke="#000000"
         stroke-width="0.25"
         linecap="square"
         id="path1782" /></pattern><symbol
       id="*Model_Space-7" /><symbol
       id="*Paper_Space-3" /><symbol
       id="*Paper_Space0-6" /><marker
       id="DistanceX-60"
       orient="auto"
       refX="0.0"
       refY="0.0"
       style="overflow:visible"><path
         d="M 3,-3 L -3,3 M 0,-5 L  0,5"
         style="stroke:#000000; stroke-width:0.5"
         id="path2136" /></marker><pattern
       id="Hatch-80"
       patternUnits="userSpaceOnUse"
       width="8"
       height="8"
       x="0"
       y="0"><path
         d="M8 4 l-4,4"
         stroke="#000000"
         stroke-width="0.25"
         linecap="square"
         id="path2139" /><path
         d="M6 2 l-4,4"
         stroke="#000000"
         stroke-width="0.25"
         linecap="square"
         id="path2141" /><path
         d="M4 0 l-4,4"
         stroke="#000000"
         stroke-width="0.25"
         linecap="square"
         id="path2143" /></pattern><symbol
       id="*Model_Space-0" /><symbol
       id="*Paper_Space-39" /><symbol
       id="*Paper_Space0-1" /><marker
       id="DistanceX-20"
       orient="auto"
       refX="0.0"
       refY="0.0"
       style="overflow:visible"><path
         d="M 3,-3 L -3,3 M 0,-5 L  0,5"
         style="stroke:#000000; stroke-width:0.5"
         id="path2498" /></marker><pattern
       id="Hatch-9"
       patternUnits="userSpaceOnUse"
       width="8"
       height="8"
       x="0"
       y="0"><path
         d="M8 4 l-4,4"
         stroke="#000000"
         stroke-width="0.25"
         linecap="square"
         id="path2501" /><path
         d="M6 2 l-4,4"
         stroke="#000000"
         stroke-width="0.25"
         linecap="square"
         id="path2503" /><path
         d="M4 0 l-4,4"
         stroke="#000000"
         stroke-width="0.25"
         linecap="square"
         id="path2505" /></pattern><symbol
       id="*Model_Space-3" /><symbol
       id="*Paper_Space-31" /><symbol
       id="*Paper_Space0-8" /><marker
       id="DistanceX-1"
       orient="auto"
       refX="0.0"
       refY="0.0"
       style="overflow:visible"><path
         d="M 3,-3 L -3,3 M 0,-5 L  0,5"
         style="stroke:#000000; stroke-width:0.5"
         id="path2773" /></marker><pattern
       id="Hatch-7"
       patternUnits="userSpaceOnUse"
       width="8"
       height="8"
       x="0"
       y="0"><path
         d="M8 4 l-4,4"
         stroke="#000000"
         stroke-width="0.25"
         linecap="square"
         id="path2776" /><path
         d="M6 2 l-4,4"
         stroke="#000000"
         stroke-width="0.25"
         linecap="square"
         id="path2778" /><path
         d="M4 0 l-4,4"
         stroke="#000000"
         stroke-width="0.25"
         linecap="square"
         id="path2780" /></pattern><symbol
       id="*Model_Space-47" /><symbol
       id="*Paper_Space-96" /><symbol
       id="*Paper_Space0-82" /><marker
       id="DistanceX-201"
       orient="auto"
       refX="0.0"
       refY="0.0"
       style="overflow:visible"><path
         d="M 3,-3 L -3,3 M 0,-5 L  0,5"
         style="stroke:#000000; stroke-width:0.5"
         id="path224" /></marker><pattern
       id="Hatch-72"
       patternUnits="userSpaceOnUse"
       width="8"
       height="8"
       x="0"
       y="0"><path
         d="M8 4 l-4,4"
         stroke="#000000"
         stroke-width="0.25"
         linecap="square"
         id="path227" /><path
         d="M6 2 l-4,4"
         stroke="#000000"
         stroke-width="0.25"
         linecap="square"
         id="path229" /><path
         d="M4 0 l-4,4"
         stroke="#000000"
         stroke-width="0.25"
         linecap="square"
         id="path231" /></pattern><symbol
       id="*Model_Space-35" /><symbol
       id="*Paper_Space-6" /><symbol
       id="*Paper_Space0-0" /><marker
       id="DistanceX-17"
       orient="auto"
       refX="0.0"
       refY="0.0"
       style="overflow:visible"><path
         d="M 3,-3 L -3,3 M 0,-5 L  0,5"
         style="stroke:#000000; stroke-width:0.5"
         id="path934" /></marker><pattern
       id="Hatch-5"
       patternUnits="userSpaceOnUse"
       width="8"
       height="8"
       x="0"
       y="0"><path
         d="M8 4 l-4,4"
         stroke="#000000"
         stroke-width="0.25"
         linecap="square"
         id="path937" /><path
         d="M6 2 l-4,4"
         stroke="#000000"
         stroke-width="0.25"
         linecap="square"
         id="path939" /><path
         d="M4 0 l-4,4"
         stroke="#000000"
         stroke-width="0.25"
         linecap="square"
         id="path941" /></pattern><symbol
       id="*Model_Space-5" /><symbol
       id="*Paper_Space-36" /><symbol
       id="*Paper_Space0-3" /><marker
       id="DistanceX-4"
       orient="auto"
       refX="0.0"
       refY="0.0"
       style="overflow:visible"><path
         d="M 3,-3 L -3,3 M 0,-5 L  0,5"
         style="stroke:#000000; stroke-width:0.5"
         id="path1116" /></marker><pattern
       id="Hatch-6"
       patternUnits="userSpaceOnUse"
       width="8"
       height="8"
       x="0"
       y="0"><path
         d="M8 4 l-4,4"
         stroke="#000000"
         stroke-width="0.25"
         linecap="square"
         id="path1119" /><path
         d="M6 2 l-4,4"
         stroke="#000000"
         stroke-width="0.25"
         linecap="square"
         id="path1121" /><path
         d="M4 0 l-4,4"
         stroke="#000000"
         stroke-width="0.25"
         linecap="square"
         id="path1123" /></pattern><symbol
       id="*Model_Space-8" /><symbol
       id="*Paper_Space-0" /><symbol
       id="*Paper_Space0-04" /></defs><g
     inkscape:label="Capa 1"
     inkscape:groupmode="layer"
     id="layer1"><g
       id="g1276"
       transform="matrix(0.26458333,0,0,0.26458333,-2960.8459,1256.1292)"><g
         inkscape:label="0"
         id="g1201"><path
           d="m 11776.698,-4263.8513 h -153.827 v -124.8488 h 153.827 z"
           style="fill:none;stroke:#000000"
           id="path1131" /><path
           d="m 11547.28,-4388.7001 v 124.8488 h -153.826 v -124.8488 z"
           style="fill:none;stroke:#000000"
           id="path1133" /><path
           d="m 11242.273,-4037.0797 h 685.606 v -566.9291 h -685.606 z"
           style="fill:none;stroke:#000000"
           id="path1135" /><path
           d="m 11262.493,-4511.7883 v -52.7244 a 6.614173,6.614173 0 0 1 13.228,0 v 52.7244 a 6.614173,6.614173 0 0 1 -13.228,0 z"
           style="fill:none;stroke:#000000"
           id="path1137" /><path
           d="m 11319.942,-4511.7883 v -52.7244 a 6.614173,6.614173 0 0 1 13.228,0 v 52.7244 a 6.614173,6.614173 0 0 1 -13.228,0 z"
           style="fill:none;stroke:#000000"
           id="path1139" /><path
           d="m 11377.391,-4511.7883 v -52.7244 a 6.614173,6.614173 0 0 1 13.228,0 v 52.7244 a 6.614173,6.614173 0 0 1 -13.228,0 z"
           style="fill:none;stroke:#000000"
           id="path1141" /><path
           d="m 11434.84,-4511.7883 v -52.7244 a 6.614173,6.614173 0 0 1 13.228,0 v 52.7244 a 6.614173,6.614173 0 0 1 -13.228,0 z"
           style="fill:none;stroke:#000000"
           id="path1143" /><path
           d="m 11492.288,-4511.7883 v -52.7244 a 6.6145,6.6145 0 0 1 13.229,0 v 52.7244 a 6.6145,6.6145 0 0 1 -13.229,0 z"
           style="fill:none;stroke:#000000"
           id="path1145" /><path
           d="m 11549.737,-4511.7883 v -52.7244 a 6.6141735,6.6141735 0 0 1 13.228,0 v 52.7244 a 6.6141735,6.6141735 0 0 1 -13.228,0 z"
           style="fill:none;stroke:#000000"
           id="path1147" /><path
           d="m 11607.186,-4511.7883 v -52.7244 a 6.6141735,6.6141735 0 0 1 13.228,0 v 52.7244 a 6.6141735,6.6141735 0 0 1 -13.228,0 z"
           style="fill:none;stroke:#000000"
           id="path1149" /><path
           d="m 11664.635,-4511.7883 v -52.7244 a 6.6141735,6.6141735 0 0 1 13.228,0 v 52.7244 a 6.6141735,6.6141735 0 0 1 -13.228,0 z"
           style="fill:none;stroke:#000000"
           id="path1151" /><path
           d="m 11722.084,-4511.7883 v -52.7244 a 6.6141735,6.6141735 0 0 1 13.228,0 v 52.7244 a 6.6141735,6.6141735 0 0 1 -13.228,0 z"
           style="fill:none;stroke:#000000"
           id="path1153" /><path
           d="m 11779.532,-4511.7883 v -52.7244 a 6.6145,6.6145 0 0 1 13.229,0 v 52.7244 a 6.6145,6.6145 0 0 1 -13.229,0 z"
           style="fill:none;stroke:#000000"
           id="path1155" /><path
           d="m 11836.981,-4511.7883 v -52.7244 a 6.6145,6.6145 0 0 1 13.229,0 v 52.7244 a 6.6145,6.6145 0 0 1 -13.229,0 z"
           style="fill:none;stroke:#000000"
           id="path1157" /><path
           d="m 11894.43,-4511.7883 v -52.7244 a 6.614173,6.614173 0 0 1 13.228,0 v 52.7244 a 6.614173,6.614173 0 0 1 -13.228,0 z"
           style="fill:none;stroke:#000000"
           id="path1159" /><path
           d="m 11591.756,-4366.9667 a 6.614173,6.614173 0 0 0 -13.228,0 6.614173,6.614173 0 0 0 13.228,0 z"
           style="fill:none;stroke:#000000"
           id="path1161" /><path
           d="m 11591.756,-4295.1557 a 6.614173,6.614173 0 0 0 -13.228,0 6.614173,6.614173 0 0 0 13.228,0 z"
           style="fill:none;stroke:#000000"
           id="path1163" /><path
           d="m 11265.895,-4207.8725 a 6.6145,6.6145 0 0 0 -13.229,0 6.6145,6.6145 0 0 0 13.229,0 z"
           style="fill:none;stroke:#000000"
           id="path1165" /><path
           d="m 11307.469,-4207.8725 a 6.6141735,6.6141735 0 0 0 -13.228,0 6.6141735,6.6141735 0 0 0 13.228,0 z"
           style="fill:none;stroke:#000000"
           id="path1167" /><path
           d="m 11341.483,-4207.8725 a 6.6145,6.6145 0 0 0 -13.229,0 6.6145,6.6145 0 0 0 13.229,0 z"
           style="fill:none;stroke:#000000"
           id="path1169" /><path
           d="m 11419.719,-4207.8725 a 6.614173,6.614173 0 0 0 -13.228,0 6.614173,6.614173 0 0 0 13.228,0 z"
           style="fill:none;stroke:#000000"
           id="path1171" /><path
           d="m 11341.544,-4052.156 a 6.6145,6.6145 0 0 0 -13.229,0 6.6145,6.6145 0 0 0 13.229,0 z"
           style="fill:none;stroke:#000000"
           id="path1173" /><path
           d="m 11419.78,-4052.156 a 6.6141735,6.6141735 0 0 0 -13.228,0 6.6141735,6.6141735 0 0 0 13.228,0 z"
           style="fill:none;stroke:#000000"
           id="path1175" /><path
           d="m 11591.756,-4075.9253 a 6.614173,6.614173 0 0 0 -13.228,0 6.614173,6.614173 0 0 0 13.228,0 z"
           style="fill:none;stroke:#000000"
           id="path1177" /><path
           d="m 11591.756,-4147.7363 a 6.614173,6.614173 0 0 0 -13.228,0 6.614173,6.614173 0 0 0 13.228,0 z"
           style="fill:none;stroke:#000000"
           id="path1179" /><path
           d="m 11763.717,-4052.156 a 6.614173,6.614173 0 0 0 -13.228,0 6.614173,6.614173 0 0 0 13.228,0 z"
           style="fill:none;stroke:#000000"
           id="path1181" /><path
           d="m 11841.953,-4052.156 a 6.6141735,6.6141735 0 0 0 -13.228,0 6.6141735,6.6141735 0 0 0 13.228,0 z"
           style="fill:none;stroke:#000000"
           id="path1183" /><path
           d="m 11763.659,-4207.8725 a 6.614173,6.614173 0 0 0 -13.228,0 6.614173,6.614173 0 0 0 13.228,0 z"
           style="fill:none;stroke:#000000"
           id="path1185" /><path
           d="m 11841.895,-4207.8725 a 6.6141735,6.6141735 0 0 0 -13.228,0 6.6141735,6.6141735 0 0 0 13.228,0 z"
           style="fill:none;stroke:#000000"
           id="path1187" /><path
           d="m 11875.847,-4207.8725 a 6.6141735,6.6141735 0 0 0 -13.228,0 6.6141735,6.6141735 0 0 0 13.228,0 z"
           style="fill:none;stroke:#000000"
           id="path1189" /><path
           d="m 11917.422,-4207.8725 a 6.6145,6.6145 0 0 0 -13.229,0 6.6145,6.6145 0 0 0 13.229,0 z"
           style="fill:none;stroke:#000000"
           id="path1191" /><path
           d="m 11570.961,-4207.8725 a 6.6141735,6.6141735 0 0 0 -13.228,0 6.6141735,6.6141735 0 0 0 13.228,0 z"
           style="fill:none;stroke:#000000"
           id="path1193" /><path
           d="m 11612.536,-4207.8725 a 6.614173,6.614173 0 0 0 -13.228,0 6.614173,6.614173 0 0 0 13.228,0 z"
           style="fill:none;stroke:#000000"
           id="path1195" /><path
           d="m 11570.908,-4409.1377 a 6.6141735,6.6141735 0 0 0 -13.228,0 6.6141735,6.6141735 0 0 0 13.228,0 z"
           style="fill:none;stroke:#000000"
           id="path1197" /><path
           d="m 11612.483,-4409.1377 a 6.6141735,6.6141735 0 0 0 -13.228,0 6.6141735,6.6141735 0 0 0 13.228,0 z"
           style="fill:none;stroke:#000000"
           id="path1199" /></g><g
         inkscape:label="corte"
         id="g1217"><path
           d="m 11264.005,-4165.5836 v 5.6693 h -11.339 v -5.6693 a 5.6695,5.6695 0 0 1 11.339,0 z"
           style="fill:none;stroke:#ff0000"
           id="path1203" /><path
           d="m 11252.666,-4097.5521 v -5.6693 h 11.339 v 5.6693 a 5.6695,5.6695 0 0 1 -11.339,0 z"
           style="fill:none;stroke:#ff0000"
           id="path1205" /><path
           d="m 11906.147,-4097.5521 v -5.6693 h 11.338 v 5.6693 a 5.6692915,5.6692915 0 0 1 -11.338,0 z"
           style="fill:none;stroke:#ff0000"
           id="path1207" /><path
           d="m 11917.485,-4165.5836 v 5.6693 h -11.338 v -5.6693 a 5.6692915,5.6692915 0 0 1 11.338,0 z"
           style="fill:none;stroke:#ff0000"
           id="path1209" /><path
           d="m 11614.934,-4452.8277 a 4.3465,4.3465 0 0 0 -8.693,0 4.3465,4.3465 0 0 0 8.693,0 z"
           style="fill:none;stroke:#ff0000"
           id="path1211" /><path
           d="m 11563.91,-4452.8277 a 4.3465,4.3465 0 0 0 -8.693,0 4.3465,4.3465 0 0 0 8.693,0 z"
           style="fill:none;stroke:#ff0000"
           id="path1213" /><path
           d="m 11595.847,-4452.8277 a 10.771654,10.771654 0 0 0 -21.543,0 10.771654,10.771654 0 0 0 21.543,0 z"
           style="fill:none;stroke:#ff0000"
           id="path1215" /></g></g></g></svg>
