<?xml version="1.0" encoding="UTF-8" standalone="no"?>
<!-- Created with Inkscape (http://www.inkscape.org/) -->

<svg
   width="210mm"
   height="297mm"
   viewBox="0 0 210 297"
   version="1.1"
   id="svg5"
   xml:space="preserve"
   inkscape:version="1.2 (dc2aedaf03, 2022-05-15)"
   sodipodi:docname="base pcb.svg"
   xmlns:inkscape="http://www.inkscape.org/namespaces/inkscape"
   xmlns:sodipodi="http://sodipodi.sourceforge.net/DTD/sodipodi-0.dtd"
   xmlns:xlink="http://www.w3.org/1999/xlink"
   xmlns="http://www.w3.org/2000/svg"
   xmlns:svg="http://www.w3.org/2000/svg"><sodipodi:namedview
     id="namedview7"
     pagecolor="#ffffff"
     bordercolor="#000000"
     borderopacity="0.25"
     inkscape:showpageshadow="2"
     inkscape:pageopacity="0.0"
     inkscape:pagecheckerboard="0"
     inkscape:deskcolor="#d1d1d1"
     inkscape:document-units="mm"
     showgrid="false"
     inkscape:zoom="0.73851712"
     inkscape:cx="396.74097"
     inkscape:cy="561.93687"
     inkscape:window-width="1920"
     inkscape:window-height="1009"
     inkscape:window-x="-8"
     inkscape:window-y="-8"
     inkscape:window-maximized="1"
     inkscape:current-layer="layer1" /><defs
     id="defs2"><marker
       id="DistanceX"
       orient="auto"
       refX="0.0"
       refY="0.0"
       style="overflow:visible"><path
         d="M 3,-3 L -3,3 M 0,-5 L  0,5"
         style="stroke:#000000; stroke-width:0.5"
         id="path11" /></marker><pattern
       id="Hatch"
       patternUnits="userSpaceOnUse"
       width="8"
       height="8"
       x="0"
       y="0"><path
         d="M8 4 l-4,4"
         stroke="#000000"
         stroke-width="0.25"
         linecap="square"
         id="path14" /><path
         d="M6 2 l-4,4"
         stroke="#000000"
         stroke-width="0.25"
         linecap="square"
         id="path16" /><path
         d="M4 0 l-4,4"
         stroke="#000000"
         stroke-width="0.25"
         linecap="square"
         id="path18" /></pattern><symbol
       id="*Model_Space" /><symbol
       id="*Paper_Space" /><symbol
       id="*Paper_Space0" /><symbol
       id="A$C6f8b5d3f"><path
         d="M 0.000000,1084.724409 L 20.787402,1084.724409 L 20.787402,1122.519685 L 0.000000,1122.519685 L 0.000000,1084.724409"
         style="fill:none;stroke:#000000"
         id="path24" /></symbol><symbol
       id="*D2"><path
         style="fill:none;stroke:#000000"
         d="M 5165.6 2700.26 L 5165.6 2747.08"
         id="path27" /><path
         style="fill:none;stroke:#000000"
         d="M 4480 2700.26 L 4480 2747.08"
         id="path29" /><path
         style="fill:none;stroke:#000000"
         d="M 5156.16 2742.36 L 4489.45 2742.36"
         id="path31" /><path
         style="fill:none;stroke:#000000"
         d="M 5156.16 2740.78 L 5156.16 2743.93 L 5165.6 2742.36 z"
         id="path33" /><path
         style="fill:none;stroke:#000000"
         d="M 4489.45 2740.78 L 4489.45 2743.93 L 4480 2742.36 z"
         id="path35" /><text
         x="4822.801259"
         y="2734.315787"
         style="font-size: 9.449px; fill: #000000; font-family: Arial; text-anchor: middle"
         id="text39"><tspan
           sodipodi:role="line"
           dx="0.000000"
           dy="4.724409"
           id="tspan37">181,4</tspan></text><path
         d="M 5165.854408,2697.893234 A 0.250000,0.250000 0.000000 0, 0 5165.354408,2697.893234 A 0.250000,0.250000 0.000000 0, 0 5165.854408,2697.893234 z"
         style="fill:none;stroke:#000000"
         id="path41" /><path
         d="M 4480.248109,2697.893234 A 0.250000,0.250000 0.000000 0, 0 4479.748109,2697.893234 A 0.250000,0.250000 0.000000 0, 0 4480.248109,2697.893234 z"
         style="fill:none;stroke:#000000"
         id="path43" /><path
         d="M 4480.248109,2742.356306 A 0.250000,0.250000 0.000000 0, 0 4479.748109,2742.356306 A 0.250000,0.250000 0.000000 0, 0 4480.248109,2742.356306 z"
         style="fill:none;stroke:#000000"
         id="path45" /></symbol><symbol
       id="A$C2350f347"><path
         d="M 21.732283,944.828266 L 21.732283,950.497558 L 10.393701,950.497558 L 10.393701,944.828266 A 5.669291,5.669291 0.0 0 1 21.732283,944.828266 z"
         style="fill:none;stroke:#FF0000"
         id="path48" /><path
         d="M 10.393701,1012.859763 L 10.393701,1007.190471 L 21.732283,1007.190471 L 21.732283,1012.859763 A 5.669291,5.669291 0.0 0 1 10.393701,1012.859763 z"
         style="fill:none;stroke:#FF0000"
         id="path50" /><path
         d="M 734.173228,1012.859763 L 734.173228,1007.190471 L 745.511811,1007.190471 L 745.511811,1012.859763 A 5.669291,5.669291 0.0 0 1 734.173228,1012.859763 z"
         style="fill:none;stroke:#FF0000"
         id="path52" /><path
         d="M 745.511811,944.828266 L 745.511811,950.497558 L 734.173228,950.497558 L 734.173228,944.828266 A 5.669291,5.669291 0.0 0 1 745.511811,944.828266 z"
         style="fill:none;stroke:#FF0000"
         id="path54" /><path
         d="M 407.811024,695.379448 A 4.346457,4.346457 0.000000 0, 0 399.118110,695.379448 A 4.346457,4.346457 0.000000 0, 0 407.811024,695.379448 z"
         style="fill:none;stroke:#FF0000"
         id="path56" /><path
         d="M 356.787402,695.379448 A 4.346457,4.346457 0.000000 0, 0 348.094488,695.379448 A 4.346457,4.346457 0.000000 0, 0 356.787402,695.379448 z"
         style="fill:none;stroke:#FF0000"
         id="path58" /><path
         d="M 388.724409,695.379448 A 10.771654,10.771654 0.000000 0, 0 367.181102,695.379448 A 10.771654,10.771654 0.000000 0, 0 388.724409,695.379448 z"
         style="fill:none;stroke:#FF0000"
         id="path60" /><path
         d="M 23.622047,708.607794 A 6.614173,6.614173 0.000000 0, 0 10.393701,708.607794 A 6.614173,6.614173 0.000000 0, 0 23.622047,708.607794 z"
         style="fill:none;stroke:#000000"
         id="path62" /><path
         d="M 65.196850,708.607794 A 6.614173,6.614173 0.000000 0, 0 51.968504,708.607794 A 6.614173,6.614173 0.000000 0, 0 65.196850,708.607794 z"
         style="fill:none;stroke:#000000"
         id="path64" /><path
         d="M 99.210153,902.539327 A 6.614173,6.614173 0.000000 0, 0 85.981807,902.539327 A 6.614173,6.614173 0.000000 0, 0 99.210153,902.539327 z"
         style="fill:none;stroke:#000000"
         id="path66" /><path
         d="M 212.595980,902.539327 A 6.614173,6.614173 0.000000 0, 0 199.367634,902.539327 A 6.614173,6.614173 0.000000 0, 0 212.595980,902.539327 z"
         style="fill:none;stroke:#000000"
         id="path68" /><path
         d="M 99.271183,1058.255862 A 6.614173,6.614173 0.000000 0, 0 86.042836,1058.255862 A 6.614173,6.614173 0.000000 0, 0 99.271183,1058.255862 z"
         style="fill:none;stroke:#000000"
         id="path70" /><path
         d="M 212.657009,1058.255862 A 6.614173,6.614173 0.000000 0, 0 199.428663,1058.255862 A 6.614173,6.614173 0.000000 0, 0 212.657009,1058.255862 z"
         style="fill:none;stroke:#000000"
         id="path72" /><path
         d="M 384.632929,1034.486607 A 6.614173,6.614173 0.000000 0, 0 371.404583,1034.486607 A 6.614173,6.614173 0.000000 0, 0 384.632929,1034.486607 z"
         style="fill:none;stroke:#000000"
         id="path74" /><path
         d="M 384.632929,962.675583 A 6.614173,6.614173 0.000000 0, 0 371.404583,962.675583 A 6.614173,6.614173 0.000000 0, 0 384.632929,962.675583 z"
         style="fill:none;stroke:#000000"
         id="path76" /><path
         d="M 556.594017,1058.255862 A 6.614173,6.614173 0.000000 0, 0 543.365671,1058.255862 A 6.614173,6.614173 0.000000 0, 0 556.594017,1058.255862 z"
         style="fill:none;stroke:#000000"
         id="path78" /><path
         d="M 669.979844,1058.255862 A 6.614173,6.614173 0.000000 0, 0 656.751498,1058.255862 A 6.614173,6.614173 0.000000 0, 0 669.979844,1058.255862 z"
         style="fill:none;stroke:#000000"
         id="path80" /><path
         d="M 556.535993,902.539327 A 6.614173,6.614173 0.000000 0, 0 543.307647,902.539327 A 6.614173,6.614173 0.000000 0, 0 556.535993,902.539327 z"
         style="fill:none;stroke:#000000"
         id="path82" /><path
         d="M 669.921820,902.539327 A 6.614173,6.614173 0.000000 0, 0 656.693473,902.539327 A 6.614173,6.614173 0.000000 0, 0 669.921820,902.539327 z"
         style="fill:none;stroke:#000000"
         id="path84" /><path
         d="M 703.873628,708.607794 A 6.614173,6.614173 0.000000 0, 0 690.645281,708.607794 A 6.614173,6.614173 0.000000 0, 0 703.873628,708.607794 z"
         style="fill:none;stroke:#000000"
         id="path86" /><path
         d="M 745.448431,708.607794 A 6.614173,6.614173 0.000000 0, 0 732.220085,708.607794 A 6.614173,6.614173 0.000000 0, 0 745.448431,708.607794 z"
         style="fill:none;stroke:#000000"
         id="path88" /><path
         d="M 408.188976,195.189561 L 387.401575,195.189561 L 387.401575,157.394286 L 408.188976,157.394286 L 408.188976,195.189561"
         style="fill:none;stroke:#FF0000"
         id="path90" /><path
         d="M 478.677165,176.291924 A 6.614173,6.614173 0.000000 0, 0 465.448819,176.291924 A 6.614173,6.614173 0.000000 0, 0 478.677165,176.291924 z"
         style="fill:none;stroke:#FF0000"
         id="path92" /><use
         xlink:href="#*D2"
         transform="translate(0 0)"
         id="use94" /><path
         d="M 377.952756,1073.332203 L 0.000000,1073.332203 L 0.000000,695.379448 L 755.905512,695.379448 L 755.905512,1073.332203 L 377.952756,1073.332203"
         style="fill:none;stroke:#FFFF00"
         id="path96" /><path
         d="M 0.000000,1073.332203 L 0.000000,295.883385 L 755.905512,295.883385 L 755.905512,1073.332203 L 0.000000,1073.332203"
         style="fill:none;stroke:#FFFF00"
         id="path98" /><path
         d="M 379.842520,203.126569 L 340.157480,203.126569 L 340.157480,1073.332203 L 415.748031,1073.332203 L 417.637795,203.126569 L 342.047244,203.126569"
         style="fill:none;stroke:#FFFF00"
         id="path100" /><path
         d="M 755.905512,295.883385 A 816.393448,816.393448 0.000000 0 0 0.000000,295.883385"
         style="fill:none;stroke:#FFFF00"
         id="path102" /><path
         d="M 347.716535,195.189561 L 368.503937,195.189561 L 368.503937,157.394286 L 347.716535,157.394286 L 347.716535,195.189561"
         style="fill:none;stroke:#FF0000"
         id="path104" /><path
         d="M 290.456693,176.291924 A 6.614173,6.614173 0.000000 0, 0 277.228346,176.291924 A 6.614173,6.614173 0.000000 0, 0 290.456693,176.291924 z"
         style="fill:none;stroke:#FF0000"
         id="path106" /><path
         style="fill:none;stroke:#FFFF00"
         d="M 379.843 203.127 L 376.063 203.127"
         id="path108" /><path
         d="M 267.212598,195.189561 L 267.212598,216.950099 L 303.118110,216.950099 L 303.118110,149.457278 L 267.212598,149.457278 L 267.212598,195.189561"
         style="fill:none;stroke:#FFFF00"
         id="path110" /><path
         d="M 452.787402,195.189561 L 452.787402,216.950099 L 488.692913,216.950099 L 488.692913,149.457278 L 452.787402,149.457278 L 452.787402,195.189561"
         style="fill:none;stroke:#FFFF00"
         id="path112" /><path
         d="M 340.157480,208.266361 L 286.488189,208.266361 L 286.488189,326.565574 L 340.157480,326.565574 L 340.157480,208.266361"
         style="fill:none;stroke:#000000"
         id="path114" /><path
         d="M 294.425197,236.612818 L 294.425197,215.825416 L 332.220472,215.825416 L 332.220472,236.612818 L 294.425197,236.612818"
         style="fill:none;stroke:#FF0000"
         id="path116" /><path
         d="M 319.937008,300.486833 A 6.614173,6.614173 0.000000 0, 0 306.708661,300.486833 A 6.614173,6.614173 0.000000 0, 0 319.937008,300.486833 z"
         style="fill:none;stroke:#FF0000"
         id="path118" /><path
         d="M 294.425197,317.116755 L 294.425197,281.211243 L 332.220472,281.211243 L 332.220472,317.116755 L 294.425197,317.116755"
         style="fill:none;stroke:#FFFF00"
         id="path120" /><path
         style="fill:none;stroke:#FFFF00"
         d="M 313.323 317.117 L 313.323 326.566"
         id="path122" /></symbol><symbol
       id="*D4"><path
         style="fill:none;stroke:#000000"
         d="M 1178.14 1929.19 L 1178.14 1864.6"
         id="path125" /><path
         style="fill:none;stroke:#000000"
         d="M 1522.07 1929.19 L 1522.07 1864.6"
         id="path127" /><path
         style="fill:none;stroke:#000000"
         d="M 1187.59 1869.33 L 1512.63 1869.33"
         id="path129" /><path
         style="fill:none;stroke:#000000"
         d="M 1187.59 1867.75 L 1187.59 1870.9 L 1178.14 1869.33 z"
         id="path131" /><path
         style="fill:none;stroke:#000000"
         d="M 1512.63 1867.75 L 1512.63 1870.9 L 1522.07 1869.33 z"
         id="path133" /><text
         x="1350.106476"
         y="1862.141804"
         style="font-size: 9.449px; fill: #000000; font-family: Arial; text-anchor: middle"
         id="text137"><tspan
           sodipodi:role="line"
           dx="0.000000"
           dy="4.724409"
           id="tspan135">91</tspan></text><path
         d="M 1178.387972,1931.552987 A 0.250000,0.250000 0.000000 0, 0 1177.887972,1931.552987 A 0.250000,0.250000 0.000000 0, 0 1178.387972,1931.552987 z"
         style="fill:none;stroke:#000000"
         id="path139" /><path
         d="M 1522.324980,1931.552987 A 0.250000,0.250000 0.000000 0, 0 1521.824980,1931.552987 A 0.250000,0.250000 0.000000 0, 0 1522.324980,1931.552987 z"
         style="fill:none;stroke:#000000"
         id="path141" /><path
         d="M 1522.324980,1869.328320 A 0.250000,0.250000 0.000000 0, 0 1521.824980,1869.328320 A 0.250000,0.250000 0.000000 0, 0 1522.324980,1869.328320 z"
         style="fill:none;stroke:#000000"
         id="path143" /></symbol></defs><g
     inkscape:label="Capa 1"
     inkscape:groupmode="layer"
     id="layer1"><g
       id="g299"
       transform="matrix(0.26458333,0,0,0.26458333,-252.58737,-405.16426)"><g
         inkscape:label="0"
         id="g192"><path
           d="m 993.82742,2165.9255 v 5.6693 h -11.33858 v -5.6693 a 5.669291,5.669291 0 0 1 11.33858,0 z"
           style="fill:none;stroke:#000000"
           id="path148" /><path
           d="m 982.48884,2233.957 v -5.6693 h 11.33858 v 5.6693 a 5.669291,5.669291 0 0 1 -11.33858,0 z"
           style="fill:none;stroke:#000000"
           id="path150" /><path
           d="m 1706.2684,2233.957 v -5.6693 h 11.3385 v 5.6693 a 5.6692915,5.6692915 0 0 1 -11.3385,0 z"
           style="fill:none;stroke:#000000"
           id="path152" /><path
           d="m 1717.6069,2165.9255 v 5.6693 h -11.3385 v -5.6693 a 5.6692915,5.6692915 0 0 1 11.3385,0 z"
           style="fill:none;stroke:#000000"
           id="path154" /><path
           d="m 1071.3053,2123.6365 a 6.6142,6.6142 0 0 0 -13.2284,0 6.6142,6.6142 0 0 0 13.2284,0 z"
           style="fill:none;stroke:#000000"
           id="path156" /><path
           d="m 1184.6911,2123.6365 a 6.614173,6.614173 0 0 0 -13.2283,0 6.614173,6.614173 0 0 0 13.2283,0 z"
           style="fill:none;stroke:#000000"
           id="path158" /><path
           d="m 1356.7281,2255.5838 a 6.6142,6.6142 0 0 0 -13.2284,0 6.6142,6.6142 0 0 0 13.2284,0 z"
           style="fill:none;stroke:#000000"
           id="path160" /><path
           d="m 1356.7281,2183.7728 a 6.6142,6.6142 0 0 0 -13.2284,0 6.6142,6.6142 0 0 0 13.2284,0 z"
           style="fill:none;stroke:#000000"
           id="path162" /><path
           d="m 1642.075,2279.3531 a 6.6142,6.6142 0 0 0 -13.2284,0 6.6142,6.6142 0 0 0 13.2284,0 z"
           style="fill:none;stroke:#000000"
           id="path164" /><path
           d="m 1449.2611,2123.6365 a 6.6142,6.6142 0 0 0 -13.2284,0 6.6142,6.6142 0 0 0 13.2284,0 z"
           style="fill:none;stroke:#000000"
           id="path166" /><path
           d="m 1642.017,2123.6365 a 6.6142,6.6142 0 0 0 -13.2284,0 6.6142,6.6142 0 0 0 13.2284,0 z"
           style="fill:none;stroke:#000000"
           id="path168" /><path
           d="M 1728.0006,2294.4294 H 972.09514 v -377.9528 h 755.90546 v 377.9528"
           style="fill:none;stroke:#ffff00"
           id="path170" /><path
           d="m 995.71718,1942.9333 a 6.614173,6.614173 0 0 0 -13.22834,0 6.614173,6.614173 0 0 0 13.22834,0 z"
           style="fill:none;stroke:#000000"
           id="path172" /><path
           d="m 1037.292,1942.9333 a 6.6142,6.6142 0 0 0 -13.2284,0 6.6142,6.6142 0 0 0 13.2284,0 z"
           style="fill:none;stroke:#000000"
           id="path174" /><path
           d="m 1675.9688,1942.9333 a 6.6142,6.6142 0 0 0 -13.2284,0 6.6142,6.6142 0 0 0 13.2284,0 z"
           style="fill:none;stroke:#000000"
           id="path176" /><path
           d="m 1717.5436,1942.9333 a 6.6142,6.6142 0 0 0 -13.2284,0 6.6142,6.6142 0 0 0 13.2284,0 z"
           style="fill:none;stroke:#000000"
           id="path178" /><path
           d="m 1184.7521,1931.553 a 6.614173,6.614173 0 0 0 -13.2283,0 6.614173,6.614173 0 0 0 13.2283,0 z"
           style="fill:none;stroke:#000000"
           id="path180" /><path
           d="m 1449.3191,1931.553 a 6.6142,6.6142 0 0 0 -13.2284,0 6.6142,6.6142 0 0 0 13.2284,0 z"
           style="fill:none;stroke:#000000"
           id="path182" /><path
           d="m 1071.3053,2123.6365 a 6.6142,6.6142 0 0 0 -13.2284,0 6.6142,6.6142 0 0 0 13.2284,0 z"
           style="fill:none;stroke:#000000"
           id="path184" /><path
           d="m 1335.8752,2123.6365 a 6.6141735,6.6141735 0 0 0 -13.2283,0 6.6141735,6.6141735 0 0 0 13.2283,0 z"
           style="fill:none;stroke:#000000"
           id="path186" /><path
           d="m 1071.3663,1931.553 a 6.6141735,6.6141735 0 0 0 -13.2283,0 6.6141735,6.6141735 0 0 0 13.2283,0 z"
           style="fill:none;stroke:#000000"
           id="path188" /><path
           d="m 1335.9332,1931.553 a 6.6141735,6.6141735 0 0 0 -13.2283,0 6.6141735,6.6141735 0 0 0 13.2283,0 z"
           style="fill:none;stroke:#000000"
           id="path190" /></g><g
         inkscape:label="corte"
         id="g194" /><g
         inkscape:label="Defpoints"
         id="g196" /></g></g></svg>
