<?xml version="1.0" encoding="UTF-8" standalone="no"?>
<!-- Created with Inkscape (http://www.inkscape.org/) -->

<svg
   width="210mm"
   height="297mm"
   viewBox="0 0 210 297"
   version="1.1"
   id="svg5"
   xml:space="preserve"
   inkscape:version="1.2 (dc2aedaf03, 2022-05-15)"
   sodipodi:docname="sensores.svg"
   xmlns:inkscape="http://www.inkscape.org/namespaces/inkscape"
   xmlns:sodipodi="http://sodipodi.sourceforge.net/DTD/sodipodi-0.dtd"
   xmlns:xlink="http://www.w3.org/1999/xlink"
   xmlns="http://www.w3.org/2000/svg"
   xmlns:svg="http://www.w3.org/2000/svg"><sodipodi:namedview
     id="namedview7"
     pagecolor="#ffffff"
     bordercolor="#000000"
     borderopacity="0.25"
     inkscape:showpageshadow="2"
     inkscape:pageopacity="0.0"
     inkscape:pagecheckerboard="0"
     inkscape:deskcolor="#d1d1d1"
     inkscape:document-units="mm"
     showgrid="false"
     inkscape:zoom="0.73851712"
     inkscape:cx="396.74097"
     inkscape:cy="561.93687"
     inkscape:window-width="1920"
     inkscape:window-height="1009"
     inkscape:window-x="-8"
     inkscape:window-y="-8"
     inkscape:window-maximized="1"
     inkscape:current-layer="layer1" /><defs
     id="defs2"><marker
       id="DistanceX"
       orient="auto"
       refX="0.0"
       refY="0.0"
       style="overflow:visible"><path
         d="M 3,-3 L -3,3 M 0,-5 L  0,5"
         style="stroke:#000000; stroke-width:0.5"
         id="path11" /></marker><pattern
       id="Hatch"
       patternUnits="userSpaceOnUse"
       width="8"
       height="8"
       x="0"
       y="0"><path
         d="M8 4 l-4,4"
         stroke="#000000"
         stroke-width="0.25"
         linecap="square"
         id="path14" /><path
         d="M6 2 l-4,4"
         stroke="#000000"
         stroke-width="0.25"
         linecap="square"
         id="path16" /><path
         d="M4 0 l-4,4"
         stroke="#000000"
         stroke-width="0.25"
         linecap="square"
         id="path18" /></pattern><symbol
       id="*Model_Space" /><symbol
       id="*Paper_Space" /><symbol
       id="*Paper_Space0" /><symbol
       id="*D1"><path
         style="fill:none;stroke:#000000"
         d="M 8308.24 -6025.25 L 8308.24 -6098.86"
         id="path24" /><path
         style="fill:none;stroke:#000000"
         d="M 8863.83 -6025.25 L 8863.83 -6098.86"
         id="path26" /><path
         style="fill:none;stroke:#000000"
         d="M 8317.69 -6094.13 L 8854.38 -6094.13"
         id="path28" /><path
         style="fill:none;stroke:#000000"
         d="M 8317.69 -6095.71 L 8317.69 -6092.56 L 8308.24 -6094.13 z"
         id="path30" /><path
         style="fill:none;stroke:#000000"
         d="M 8854.38 -6095.71 L 8854.38 -6092.56 L 8863.83 -6094.13 z"
         id="path32" /><text
         x="8586.036911"
         y="-6134.443420"
         style="font-size: 75.591px; fill: #000000; font-family: Arial; text-anchor: middle"
         id="text36"><tspan
           sodipodi:role="line"
           dx="0.000000"
           dy="37.795276"
           id="tspan34">147</tspan></text><path
         d="M 8308.491635,-6022.889702 A 0.250000,0.250000 0.000000 0, 0 8307.991635,-6022.889702 A 0.250000,0.250000 0.000000 0, 0 8308.491635,-6022.889702 z"
         style="fill:none;stroke:#000000"
         id="path38" /><path
         d="M 8864.082187,-6022.889702 A 0.250000,0.250000 0.000000 0, 0 8863.582187,-6022.889702 A 0.250000,0.250000 0.000000 0, 0 8864.082187,-6022.889702 z"
         style="fill:none;stroke:#000000"
         id="path40" /><path
         d="M 8864.082187,-6094.131253 A 0.250000,0.250000 0.000000 0, 0 8863.582187,-6094.131253 A 0.250000,0.250000 0.000000 0, 0 8864.082187,-6094.131253 z"
         style="fill:none;stroke:#000000"
         id="path42" /></symbol><symbol
       id="*D2"><path
         style="fill:none;stroke:#000000"
         d="M 68.9629 -629.035 L 68.9629 -702.639"
         id="path45" /><path
         style="fill:none;stroke:#000000"
         d="M 624.553 -629.035 L 624.553 -702.639"
         id="path47" /><path
         style="fill:none;stroke:#000000"
         d="M 78.4117 -697.914 L 615.105 -697.914"
         id="path49" /><path
         style="fill:none;stroke:#000000"
         d="M 78.4117 -699.489 L 78.4117 -696.339 L 68.9629 -697.914 z"
         id="path51" /><path
         style="fill:none;stroke:#000000"
         d="M 615.105 -699.489 L 615.105 -696.339 L 624.553 -697.914 z"
         id="path53" /><text
         x="346.758172"
         y="-738.226293"
         style="font-size: 75.591px; fill: #000000; font-family: Arial; text-anchor: middle"
         id="text57"><tspan
           sodipodi:role="line"
           dx="0.000000"
           dy="37.795276"
           id="tspan55">147</tspan></text><path
         d="M 69.212896,-626.672574 A 0.250000,0.250000 0.000000 0, 0 68.712896,-626.672574 A 0.250000,0.250000 0.000000 0, 0 69.212896,-626.672574 z"
         style="fill:none;stroke:#000000"
         id="path59" /><path
         d="M 624.803447,-626.672574 A 0.250000,0.250000 0.000000 0, 0 624.303447,-626.672574 A 0.250000,0.250000 0.000000 0, 0 624.803447,-626.672574 z"
         style="fill:none;stroke:#000000"
         id="path61" /><path
         d="M 624.803447,-697.914125 A 0.250000,0.250000 0.000000 0, 0 624.303447,-697.914125 A 0.250000,0.250000 0.000000 0, 0 624.803447,-697.914125 z"
         style="fill:none;stroke:#000000"
         id="path63" /></symbol><symbol
       id="A$C6f8b5d3f"><path
         d="M 0.000000,1084.724409 L 20.787402,1084.724409 L 20.787402,1122.519685 L 0.000000,1122.519685 L 0.000000,1084.724409"
         style="fill:none;stroke:#000000"
         id="path66" /></symbol><symbol
       id="*D4"><path
         style="fill:none;stroke:#000000"
         d="M 4167.05 -660.798 L 4160.98 -637.597"
         id="path69" /><path
         style="fill:none;stroke:#000000"
         d="M 4042.03 -693.499 L 4035.96 -670.298"
         id="path71" /><path
         d="M 4153.490231,-645.896516 A 401.574803,401.574803 0.000000 0 0 4046.555344,-673.868786"
         style="fill:none;stroke:#000000"
         id="path73" /><path
         style="fill:none;stroke:#000000"
         d="M 4154.11 -647.344 L 4152.87 -644.45 L 4162.17 -642.168 z"
         id="path75" /><path
         style="fill:none;stroke:#000000"
         d="M 4046.39 -672.303 L 4046.72 -675.435 L 4037.16 -674.869 z"
         id="path77" /><text
         x="4103.024598"
         y="-671.358238"
         style="font-size: 9.449px; fill: #000000; font-family: Arial; text-anchor: middle"
         transform="rotate (14.659101 4103.024598 -671.358238)"
         id="text81"><tspan
           sodipodi:role="line"
           dx="0.000000"
           dy="4.724409"
           id="tspan79">34,34</tspan></text><path
         d="M 4084.275917,-671.567064 A 9.085304,9.085304 0.000000 0 0 4066.696788,-676.165453"
         style="fill:none;stroke:#000000;stroke-linecap: round"
         id="path83" /><path
         d="M 4005.085429,-295.991948 A 0.250000,0.250000 0.000000 0, 0 4004.585429,-295.991948 A 0.250000,0.250000 0.000000 0, 0 4005.085429,-295.991948 z"
         style="fill:none;stroke:#000000"
         id="path85" /><path
         d="M 4167.893264,-663.083124 A 0.250000,0.250000 0.000000 0, 0 4167.393264,-663.083124 A 0.250000,0.250000 0.000000 0, 0 4167.893264,-663.083124 z"
         style="fill:none;stroke:#000000"
         id="path87" /><path
         d="M 4042.880705,-695.784193 A 0.250000,0.250000 0.000000 0, 0 4042.380705,-695.784193 A 0.250000,0.250000 0.000000 0, 0 4042.880705,-695.784193 z"
         style="fill:none;stroke:#000000"
         id="path89" /><path
         d="M 4122.008676,-657.544671 A 0.250000,0.250000 0.000000 0, 0 4121.508676,-657.544671 A 0.250000,0.250000 0.000000 0, 0 4122.008676,-657.544671 z"
         style="fill:none;stroke:#000000"
         id="path91" /></symbol><symbol
       id="*D5"><path
         style="fill:none;stroke:#000000"
         d="M 11927.9 -4034.72 L 11927.9 -3987.89"
         id="path94" /><path
         style="fill:none;stroke:#000000"
         d="M 11242.3 -4034.72 L 11242.3 -3987.89"
         id="path96" /><path
         style="fill:none;stroke:#000000"
         d="M 11918.4 -3992.62 L 11251.7 -3992.62"
         id="path98" /><path
         style="fill:none;stroke:#000000"
         d="M 11918.4 -3994.19 L 11918.4 -3991.04 L 11927.9 -3992.62 z"
         id="path100" /><path
         style="fill:none;stroke:#000000"
         d="M 11251.7 -3994.19 L 11251.7 -3991.04 L 11242.3 -3992.62 z"
         id="path102" /><text
         x="11585.075723"
         y="-4000.657107"
         style="font-size: 9.449px; fill: #000000; font-family: Arial; text-anchor: middle"
         id="text106"><tspan
           sodipodi:role="line"
           dx="0.000000"
           dy="4.724409"
           id="tspan104">181,4</tspan></text><path
         d="M 11928.128873,-4037.079659 A 0.250000,0.250000 0.000000 0, 0 11927.628873,-4037.079659 A 0.250000,0.250000 0.000000 0, 0 11928.128873,-4037.079659 z"
         style="fill:none;stroke:#000000"
         id="path108" /><path
         d="M 11242.522573,-4037.079659 A 0.250000,0.250000 0.000000 0, 0 11242.022573,-4037.079659 A 0.250000,0.250000 0.000000 0, 0 11242.522573,-4037.079659 z"
         style="fill:none;stroke:#000000"
         id="path110" /><path
         d="M 11242.522573,-3992.616587 A 0.250000,0.250000 0.000000 0, 0 11242.022573,-3992.616587 A 0.250000,0.250000 0.000000 0, 0 11242.522573,-3992.616587 z"
         style="fill:none;stroke:#000000"
         id="path112" /></symbol><symbol
       id="*D6"><path
         style="fill:none;stroke:#000000"
         d="M 11930.2 -4037.08 L 12049.8 -4037.08"
         id="path115" /><path
         style="fill:none;stroke:#000000"
         d="M 11930.2 -4656.73 L 12049.8 -4656.73"
         id="path117" /><path
         style="fill:none;stroke:#000000"
         d="M 12045.1 -4046.53 L 12045.1 -4647.28"
         id="path119" /><path
         style="fill:none;stroke:#000000"
         d="M 12043.5 -4046.53 L 12046.7 -4046.53 L 12045.1 -4037.08 z"
         id="path121" /><path
         style="fill:none;stroke:#000000"
         d="M 12043.5 -4647.28 L 12046.7 -4647.28 L 12045.1 -4656.73 z"
         id="path123" /><text
         x="12037.081664"
         y="-4346.906431"
         style="font-size: 9.449px; fill: #000000; font-family: Arial; text-anchor: middle"
         transform="rotate (-90.000000 12037.081664 -4346.906431)"
         id="text127"><tspan
           sodipodi:role="line"
           dx="0.000000"
           dy="4.724409"
           id="tspan125">163,95</tspan></text><path
         d="M 11928.128873,-4037.079659 A 0.250000,0.250000 0.000000 0, 0 11927.628873,-4037.079659 A 0.250000,0.250000 0.000000 0, 0 11928.128873,-4037.079659 z"
         style="fill:none;stroke:#000000"
         id="path129" /><path
         d="M 11928.128873,-4656.733203 A 0.250000,0.250000 0.000000 0, 0 11927.628873,-4656.733203 A 0.250000,0.250000 0.000000 0, 0 11928.128873,-4656.733203 z"
         style="fill:none;stroke:#000000"
         id="path131" /><path
         d="M 12045.372183,-4656.733203 A 0.250000,0.250000 0.000000 0, 0 12044.872183,-4656.733203 A 0.250000,0.250000 0.000000 0, 0 12045.372183,-4656.733203 z"
         style="fill:none;stroke:#000000"
         id="path133" /></symbol><symbol
       id="*D7"><path
         style="fill:none;stroke:#000000"
         d="M 11544.9 -4263.85 L 11494.3 -4263.85"
         id="path136" /><path
         style="fill:none;stroke:#000000"
         d="M 11582.7 -4037.08 L 11494.3 -4037.08"
         id="path138" /><path
         style="fill:none;stroke:#000000"
         d="M 11499 -4254.4 L 11499 -4046.53"
         id="path140" /><path
         style="fill:none;stroke:#000000"
         d="M 11497.4 -4254.4 L 11500.6 -4254.4 L 11499 -4263.85 z"
         id="path142" /><path
         style="fill:none;stroke:#000000"
         d="M 11497.4 -4046.53 L 11500.6 -4046.53 L 11499 -4037.08 z"
         id="path144" /><text
         x="11491.804736"
         y="-4150.465486"
         style="font-size: 9.449px; fill: #000000; font-family: Arial; text-anchor: middle"
         transform="rotate (-90.000000 11491.804736 -4150.465486)"
         id="text148"><tspan
           sodipodi:role="line"
           dx="0.000000"
           dy="4.724409"
           id="tspan146">60</tspan></text><path
         d="M 11547.530447,-4263.851313 A 0.250000,0.250000 0.000000 0, 0 11547.030447,-4263.851313 A 0.250000,0.250000 0.000000 0, 0 11547.530447,-4263.851313 z"
         style="fill:none;stroke:#000000"
         id="path150" /><path
         d="M 11585.325723,-4037.079659 A 0.250000,0.250000 0.000000 0, 0 11584.825723,-4037.079659 A 0.250000,0.250000 0.000000 0, 0 11585.325723,-4037.079659 z"
         style="fill:none;stroke:#000000"
         id="path152" /><path
         d="M 11499.241253,-4037.079659 A 0.250000,0.250000 0.000000 0, 0 11498.741253,-4037.079659 A 0.250000,0.250000 0.000000 0, 0 11499.241253,-4037.079659 z"
         style="fill:none;stroke:#000000"
         id="path154" /></symbol><symbol
       id="*D8"><path
         style="fill:none;stroke:#000000"
         d="M 6169.56 2861.24 L 6169.56 2908.07"
         id="path157" /><path
         style="fill:none;stroke:#000000"
         d="M 5483.96 2861.24 L 5483.96 2908.07"
         id="path159" /><path
         style="fill:none;stroke:#000000"
         d="M 6160.11 2903.34 L 5493.4 2903.34"
         id="path161" /><path
         style="fill:none;stroke:#000000"
         d="M 6160.11 2901.77 L 6160.11 2904.92 L 6169.56 2903.34 z"
         id="path163" /><path
         style="fill:none;stroke:#000000"
         d="M 5493.4 2901.77 L 5493.4 2904.92 L 5483.96 2903.34 z"
         id="path165" /><text
         x="5826.758210"
         y="2895.302784"
         style="font-size: 9.449px; fill: #000000; font-family: Arial; text-anchor: middle"
         id="text169"><tspan
           sodipodi:role="line"
           dx="0.000000"
           dy="4.724409"
           id="tspan167">181,4</tspan></text><path
         d="M 6169.811359,2858.880231 A 0.250000,0.250000 0.000000 0, 0 6169.311359,2858.880231 A 0.250000,0.250000 0.000000 0, 0 6169.811359,2858.880231 z"
         style="fill:none;stroke:#000000"
         id="path171" /><path
         d="M 5484.205060,2858.880231 A 0.250000,0.250000 0.000000 0, 0 5483.705060,2858.880231 A 0.250000,0.250000 0.000000 0, 0 5484.205060,2858.880231 z"
         style="fill:none;stroke:#000000"
         id="path173" /><path
         d="M 5484.205060,2903.343303 A 0.250000,0.250000 0.000000 0, 0 5483.705060,2903.343303 A 0.250000,0.250000 0.000000 0, 0 5484.205060,2903.343303 z"
         style="fill:none;stroke:#000000"
         id="path175" /></symbol><symbol
       id="*D9"><path
         style="fill:none;stroke:#000000"
         d="M 6171.92 2858.88 L 6291.53 2858.88"
         id="path178" /><path
         style="fill:none;stroke:#000000"
         d="M 6171.92 2239.23 L 6291.53 2239.23"
         id="path180" /><path
         style="fill:none;stroke:#000000"
         d="M 6286.8 2849.43 L 6286.8 2248.68"
         id="path182" /><path
         style="fill:none;stroke:#000000"
         d="M 6285.23 2849.43 L 6288.38 2849.43 L 6286.8 2858.88 z"
         id="path184" /><path
         style="fill:none;stroke:#000000"
         d="M 6285.23 2248.68 L 6288.38 2248.68 L 6286.8 2239.23 z"
         id="path186" /><text
         x="6278.764150"
         y="2549.053459"
         style="font-size: 9.449px; fill: #000000; font-family: Arial; text-anchor: middle"
         transform="rotate (-90.000000 6278.764150 2549.053459)"
         id="text190"><tspan
           sodipodi:role="line"
           dx="0.000000"
           dy="4.724409"
           id="tspan188">163,95</tspan></text><path
         d="M 6169.811359,2858.880231 A 0.250000,0.250000 0.000000 0, 0 6169.311359,2858.880231 A 0.250000,0.250000 0.000000 0, 0 6169.811359,2858.880231 z"
         style="fill:none;stroke:#000000"
         id="path192" /><path
         d="M 6169.811359,2239.226688 A 0.250000,0.250000 0.000000 0, 0 6169.311359,2239.226688 A 0.250000,0.250000 0.000000 0, 0 6169.811359,2239.226688 z"
         style="fill:none;stroke:#000000"
         id="path194" /><path
         d="M 6287.054670,2239.226688 A 0.250000,0.250000 0.000000 0, 0 6286.554670,2239.226688 A 0.250000,0.250000 0.000000 0, 0 6287.054670,2239.226688 z"
         style="fill:none;stroke:#000000"
         id="path196" /></symbol><symbol
       id="*D10"><path
         style="fill:none;stroke:#000000"
         d="M 5786.6 2632.11 L 5735.95 2632.11"
         id="path199" /><path
         style="fill:none;stroke:#000000"
         d="M 5824.4 2858.88 L 5735.95 2858.88"
         id="path201" /><path
         style="fill:none;stroke:#000000"
         d="M 5740.67 2641.56 L 5740.67 2849.43"
         id="path203" /><path
         style="fill:none;stroke:#000000"
         d="M 5739.1 2641.56 L 5742.25 2641.56 L 5740.67 2632.11 z"
         id="path205" /><path
         style="fill:none;stroke:#000000"
         d="M 5739.1 2849.43 L 5742.25 2849.43 L 5740.67 2858.88 z"
         id="path207" /><text
         x="5733.487223"
         y="2745.494404"
         style="font-size: 9.449px; fill: #000000; font-family: Arial; text-anchor: middle"
         transform="rotate (-90.000000 5733.487223 2745.494404)"
         id="text211"><tspan
           sodipodi:role="line"
           dx="0.000000"
           dy="4.724409"
           id="tspan209">60</tspan></text><path
         d="M 5789.212934,2632.108577 A 0.250000,0.250000 0.000000 0, 0 5788.712934,2632.108577 A 0.250000,0.250000 0.000000 0, 0 5789.212934,2632.108577 z"
         style="fill:none;stroke:#000000"
         id="path213" /><path
         d="M 5827.008210,2858.880231 A 0.250000,0.250000 0.000000 0, 0 5826.508210,2858.880231 A 0.250000,0.250000 0.000000 0, 0 5827.008210,2858.880231 z"
         style="fill:none;stroke:#000000"
         id="path215" /><path
         d="M 5740.923739,2858.880231 A 0.250000,0.250000 0.000000 0, 0 5740.423739,2858.880231 A 0.250000,0.250000 0.000000 0, 0 5740.923739,2858.880231 z"
         style="fill:none;stroke:#000000"
         id="path217" /></symbol><symbol
       id="*D11"><path
         style="fill:none;stroke:#000000"
         d="M 11927.9 -4034.72 L 11927.9 -3987.89"
         id="path220" /><path
         style="fill:none;stroke:#000000"
         d="M 11242.3 -4034.72 L 11242.3 -3987.89"
         id="path222" /><path
         style="fill:none;stroke:#000000"
         d="M 11918.4 -3992.62 L 11251.7 -3992.62"
         id="path224" /><path
         style="fill:none;stroke:#000000"
         d="M 11918.4 -3994.19 L 11918.4 -3991.04 L 11927.9 -3992.62 z"
         id="path226" /><path
         style="fill:none;stroke:#000000"
         d="M 11251.7 -3994.19 L 11251.7 -3991.04 L 11242.3 -3992.62 z"
         id="path228" /><text
         x="11585.075723"
         y="-4000.657107"
         style="font-size: 9.449px; fill: #000000; font-family: Arial; text-anchor: middle"
         id="text232"><tspan
           sodipodi:role="line"
           dx="0.000000"
           dy="4.724409"
           id="tspan230">181,4</tspan></text><path
         d="M 11928.128873,-4037.079659 A 0.250000,0.250000 0.000000 0, 0 11927.628873,-4037.079659 A 0.250000,0.250000 0.000000 0, 0 11928.128873,-4037.079659 z"
         style="fill:none;stroke:#000000"
         id="path234" /><path
         d="M 11242.522573,-4037.079659 A 0.250000,0.250000 0.000000 0, 0 11242.022573,-4037.079659 A 0.250000,0.250000 0.000000 0, 0 11242.522573,-4037.079659 z"
         style="fill:none;stroke:#000000"
         id="path236" /><path
         d="M 11242.522573,-3992.616587 A 0.250000,0.250000 0.000000 0, 0 11242.022573,-3992.616587 A 0.250000,0.250000 0.000000 0, 0 11242.522573,-3992.616587 z"
         style="fill:none;stroke:#000000"
         id="path238" /></symbol><symbol
       id="*D12"><path
         style="fill:none;stroke:#000000"
         d="M 11930.2 -4037.08 L 12049.8 -4037.08"
         id="path241" /><path
         style="fill:none;stroke:#000000"
         d="M 11930.2 -4656.73 L 12049.8 -4656.73"
         id="path243" /><path
         style="fill:none;stroke:#000000"
         d="M 12045.1 -4046.53 L 12045.1 -4647.28"
         id="path245" /><path
         style="fill:none;stroke:#000000"
         d="M 12043.5 -4046.53 L 12046.7 -4046.53 L 12045.1 -4037.08 z"
         id="path247" /><path
         style="fill:none;stroke:#000000"
         d="M 12043.5 -4647.28 L 12046.7 -4647.28 L 12045.1 -4656.73 z"
         id="path249" /><text
         x="12037.081664"
         y="-4346.906431"
         style="font-size: 9.449px; fill: #000000; font-family: Arial; text-anchor: middle"
         transform="rotate (-90.000000 12037.081664 -4346.906431)"
         id="text253"><tspan
           sodipodi:role="line"
           dx="0.000000"
           dy="4.724409"
           id="tspan251">163,95</tspan></text><path
         d="M 11928.128873,-4037.079659 A 0.250000,0.250000 0.000000 0, 0 11927.628873,-4037.079659 A 0.250000,0.250000 0.000000 0, 0 11928.128873,-4037.079659 z"
         style="fill:none;stroke:#000000"
         id="path255" /><path
         d="M 11928.128873,-4656.733203 A 0.250000,0.250000 0.000000 0, 0 11927.628873,-4656.733203 A 0.250000,0.250000 0.000000 0, 0 11928.128873,-4656.733203 z"
         style="fill:none;stroke:#000000"
         id="path257" /><path
         d="M 12045.372183,-4656.733203 A 0.250000,0.250000 0.000000 0, 0 12044.872183,-4656.733203 A 0.250000,0.250000 0.000000 0, 0 12045.372183,-4656.733203 z"
         style="fill:none;stroke:#000000"
         id="path259" /></symbol><symbol
       id="*D13"><path
         style="fill:none;stroke:#000000"
         d="M 11544.9 -4263.85 L 11494.3 -4263.85"
         id="path262" /><path
         style="fill:none;stroke:#000000"
         d="M 11582.7 -4037.08 L 11494.3 -4037.08"
         id="path264" /><path
         style="fill:none;stroke:#000000"
         d="M 11499 -4254.4 L 11499 -4046.53"
         id="path266" /><path
         style="fill:none;stroke:#000000"
         d="M 11497.4 -4254.4 L 11500.6 -4254.4 L 11499 -4263.85 z"
         id="path268" /><path
         style="fill:none;stroke:#000000"
         d="M 11497.4 -4046.53 L 11500.6 -4046.53 L 11499 -4037.08 z"
         id="path270" /><text
         x="11491.804736"
         y="-4150.465486"
         style="font-size: 9.449px; fill: #000000; font-family: Arial; text-anchor: middle"
         transform="rotate (-90.000000 11491.804736 -4150.465486)"
         id="text274"><tspan
           sodipodi:role="line"
           dx="0.000000"
           dy="4.724409"
           id="tspan272">60</tspan></text><path
         d="M 11547.530447,-4263.851313 A 0.250000,0.250000 0.000000 0, 0 11547.030447,-4263.851313 A 0.250000,0.250000 0.000000 0, 0 11547.530447,-4263.851313 z"
         style="fill:none;stroke:#000000"
         id="path276" /><path
         d="M 11585.325723,-4037.079659 A 0.250000,0.250000 0.000000 0, 0 11584.825723,-4037.079659 A 0.250000,0.250000 0.000000 0, 0 11585.325723,-4037.079659 z"
         style="fill:none;stroke:#000000"
         id="path278" /><path
         d="M 11499.241253,-4037.079659 A 0.250000,0.250000 0.000000 0, 0 11498.741253,-4037.079659 A 0.250000,0.250000 0.000000 0, 0 11499.241253,-4037.079659 z"
         style="fill:none;stroke:#000000"
         id="path280" /></symbol><symbol
       id="*D14"><path
         style="fill:none;stroke:#000000"
         d="M 7458.1 3016.91 L 7458.1 3063.74"
         id="path283" /><path
         style="fill:none;stroke:#000000"
         d="M 6772.5 3016.91 L 6772.5 3063.74"
         id="path285" /><path
         style="fill:none;stroke:#000000"
         d="M 7448.65 3059.01 L 6781.94 3059.01"
         id="path287" /><path
         style="fill:none;stroke:#000000"
         d="M 7448.65 3057.44 L 7448.65 3060.59 L 7458.1 3059.01 z"
         id="path289" /><path
         style="fill:none;stroke:#000000"
         d="M 6781.94 3057.44 L 6781.94 3060.59 L 6772.5 3059.01 z"
         id="path291" /><text
         x="7115.298163"
         y="3050.974427"
         style="font-size: 9.449px; fill: #000000; font-family: Arial; text-anchor: middle"
         id="text295"><tspan
           sodipodi:role="line"
           dx="0.000000"
           dy="4.724409"
           id="tspan293">181,4</tspan></text><path
         d="M 7458.351313,3014.551875 A 0.250000,0.250000 0.000000 0, 0 7457.851313,3014.551875 A 0.250000,0.250000 0.000000 0, 0 7458.351313,3014.551875 z"
         style="fill:none;stroke:#000000"
         id="path297" /><path
         d="M 6772.745013,3014.551875 A 0.250000,0.250000 0.000000 0, 0 6772.245013,3014.551875 A 0.250000,0.250000 0.000000 0, 0 6772.745013,3014.551875 z"
         style="fill:none;stroke:#000000"
         id="path299" /><path
         d="M 6772.745013,3059.014947 A 0.250000,0.250000 0.000000 0, 0 6772.245013,3059.014947 A 0.250000,0.250000 0.000000 0, 0 6772.745013,3059.014947 z"
         style="fill:none;stroke:#000000"
         id="path301" /></symbol><symbol
       id="*D15"><path
         style="fill:none;stroke:#000000"
         d="M 7460.46 3014.55 L 7580.07 3014.55"
         id="path304" /><path
         style="fill:none;stroke:#000000"
         d="M 7460.46 2394.9 L 7580.07 2394.9"
         id="path306" /><path
         style="fill:none;stroke:#000000"
         d="M 7575.34 3005.1 L 7575.34 2404.35"
         id="path308" /><path
         style="fill:none;stroke:#000000"
         d="M 7573.77 3005.1 L 7576.92 3005.1 L 7575.34 3014.55 z"
         id="path310" /><path
         style="fill:none;stroke:#000000"
         d="M 7573.77 2404.35 L 7576.92 2404.35 L 7575.34 2394.9 z"
         id="path312" /><text
         x="7567.304104"
         y="2704.725103"
         style="font-size: 9.449px; fill: #000000; font-family: Arial; text-anchor: middle"
         transform="rotate (-90.000000 7567.304104 2704.725103)"
         id="text316"><tspan
           sodipodi:role="line"
           dx="0.000000"
           dy="4.724409"
           id="tspan314">163,95</tspan></text><path
         d="M 7458.351313,3014.551875 A 0.250000,0.250000 0.000000 0, 0 7457.851313,3014.551875 A 0.250000,0.250000 0.000000 0, 0 7458.351313,3014.551875 z"
         style="fill:none;stroke:#000000"
         id="path318" /><path
         d="M 7458.351313,2394.898331 A 0.250000,0.250000 0.000000 0, 0 7457.851313,2394.898331 A 0.250000,0.250000 0.000000 0, 0 7458.351313,2394.898331 z"
         style="fill:none;stroke:#000000"
         id="path320" /><path
         d="M 7575.594623,2394.898331 A 0.250000,0.250000 0.000000 0, 0 7575.094623,2394.898331 A 0.250000,0.250000 0.000000 0, 0 7575.594623,2394.898331 z"
         style="fill:none;stroke:#000000"
         id="path322" /></symbol><symbol
       id="*D16"><path
         style="fill:none;stroke:#000000"
         d="M 7075.14 2787.78 L 7024.49 2787.78"
         id="path325" /><path
         style="fill:none;stroke:#000000"
         d="M 7112.94 3014.55 L 7024.49 3014.55"
         id="path327" /><path
         style="fill:none;stroke:#000000"
         d="M 7029.21 2797.23 L 7029.21 3005.1"
         id="path329" /><path
         style="fill:none;stroke:#000000"
         d="M 7027.64 2797.23 L 7030.79 2797.23 L 7029.21 2787.78 z"
         id="path331" /><path
         style="fill:none;stroke:#000000"
         d="M 7027.64 3005.1 L 7030.79 3005.1 L 7029.21 3014.55 z"
         id="path333" /><text
         x="7022.027176"
         y="2901.166048"
         style="font-size: 9.449px; fill: #000000; font-family: Arial; text-anchor: middle"
         transform="rotate (-90.000000 7022.027176 2901.166048)"
         id="text337"><tspan
           sodipodi:role="line"
           dx="0.000000"
           dy="4.724409"
           id="tspan335">60</tspan></text><path
         d="M 7077.752887,2787.780221 A 0.250000,0.250000 0.000000 0, 0 7077.252887,2787.780221 A 0.250000,0.250000 0.000000 0, 0 7077.752887,2787.780221 z"
         style="fill:none;stroke:#000000"
         id="path339" /><path
         d="M 7115.548163,3014.551875 A 0.250000,0.250000 0.000000 0, 0 7115.048163,3014.551875 A 0.250000,0.250000 0.000000 0, 0 7115.548163,3014.551875 z"
         style="fill:none;stroke:#000000"
         id="path341" /><path
         d="M 7029.463693,3014.551875 A 0.250000,0.250000 0.000000 0, 0 7028.963693,3014.551875 A 0.250000,0.250000 0.000000 0, 0 7029.463693,3014.551875 z"
         style="fill:none;stroke:#000000"
         id="path343" /></symbol><symbol
       id="*D17"><path
         style="fill:none;stroke:#000000"
         d="M 11927.9 -4034.72 L 11927.9 -3987.89"
         id="path346" /><path
         style="fill:none;stroke:#000000"
         d="M 11242.3 -4034.72 L 11242.3 -3987.89"
         id="path348" /><path
         style="fill:none;stroke:#000000"
         d="M 11918.4 -3992.62 L 11251.7 -3992.62"
         id="path350" /><path
         style="fill:none;stroke:#000000"
         d="M 11918.4 -3994.19 L 11918.4 -3991.04 L 11927.9 -3992.62 z"
         id="path352" /><path
         style="fill:none;stroke:#000000"
         d="M 11251.7 -3994.19 L 11251.7 -3991.04 L 11242.3 -3992.62 z"
         id="path354" /><text
         x="11585.075723"
         y="-4000.657107"
         style="font-size: 9.449px; fill: #000000; font-family: Arial; text-anchor: middle"
         id="text358"><tspan
           sodipodi:role="line"
           dx="0.000000"
           dy="4.724409"
           id="tspan356">181,4</tspan></text><path
         d="M 11928.128873,-4037.079659 A 0.250000,0.250000 0.000000 0, 0 11927.628873,-4037.079659 A 0.250000,0.250000 0.000000 0, 0 11928.128873,-4037.079659 z"
         style="fill:none;stroke:#000000"
         id="path360" /><path
         d="M 11242.522573,-4037.079659 A 0.250000,0.250000 0.000000 0, 0 11242.022573,-4037.079659 A 0.250000,0.250000 0.000000 0, 0 11242.522573,-4037.079659 z"
         style="fill:none;stroke:#000000"
         id="path362" /><path
         d="M 11242.522573,-3992.616587 A 0.250000,0.250000 0.000000 0, 0 11242.022573,-3992.616587 A 0.250000,0.250000 0.000000 0, 0 11242.522573,-3992.616587 z"
         style="fill:none;stroke:#000000"
         id="path364" /></symbol><symbol
       id="*D18"><path
         style="fill:none;stroke:#000000"
         d="M 11930.2 -4037.08 L 12049.8 -4037.08"
         id="path367" /><path
         style="fill:none;stroke:#000000"
         d="M 11930.2 -4656.73 L 12049.8 -4656.73"
         id="path369" /><path
         style="fill:none;stroke:#000000"
         d="M 12045.1 -4046.53 L 12045.1 -4647.28"
         id="path371" /><path
         style="fill:none;stroke:#000000"
         d="M 12043.5 -4046.53 L 12046.7 -4046.53 L 12045.1 -4037.08 z"
         id="path373" /><path
         style="fill:none;stroke:#000000"
         d="M 12043.5 -4647.28 L 12046.7 -4647.28 L 12045.1 -4656.73 z"
         id="path375" /><text
         x="12037.081664"
         y="-4346.906431"
         style="font-size: 9.449px; fill: #000000; font-family: Arial; text-anchor: middle"
         transform="rotate (-90.000000 12037.081664 -4346.906431)"
         id="text379"><tspan
           sodipodi:role="line"
           dx="0.000000"
           dy="4.724409"
           id="tspan377">163,95</tspan></text><path
         d="M 11928.128873,-4037.079659 A 0.250000,0.250000 0.000000 0, 0 11927.628873,-4037.079659 A 0.250000,0.250000 0.000000 0, 0 11928.128873,-4037.079659 z"
         style="fill:none;stroke:#000000"
         id="path381" /><path
         d="M 11928.128873,-4656.733203 A 0.250000,0.250000 0.000000 0, 0 11927.628873,-4656.733203 A 0.250000,0.250000 0.000000 0, 0 11928.128873,-4656.733203 z"
         style="fill:none;stroke:#000000"
         id="path383" /><path
         d="M 12045.372183,-4656.733203 A 0.250000,0.250000 0.000000 0, 0 12044.872183,-4656.733203 A 0.250000,0.250000 0.000000 0, 0 12045.372183,-4656.733203 z"
         style="fill:none;stroke:#000000"
         id="path385" /></symbol><symbol
       id="*D19"><path
         style="fill:none;stroke:#000000"
         d="M 11544.9 -4263.85 L 11494.3 -4263.85"
         id="path388" /><path
         style="fill:none;stroke:#000000"
         d="M 11582.7 -4037.08 L 11494.3 -4037.08"
         id="path390" /><path
         style="fill:none;stroke:#000000"
         d="M 11499 -4254.4 L 11499 -4046.53"
         id="path392" /><path
         style="fill:none;stroke:#000000"
         d="M 11497.4 -4254.4 L 11500.6 -4254.4 L 11499 -4263.85 z"
         id="path394" /><path
         style="fill:none;stroke:#000000"
         d="M 11497.4 -4046.53 L 11500.6 -4046.53 L 11499 -4037.08 z"
         id="path396" /><text
         x="11491.804736"
         y="-4150.465486"
         style="font-size: 9.449px; fill: #000000; font-family: Arial; text-anchor: middle"
         transform="rotate (-90.000000 11491.804736 -4150.465486)"
         id="text400"><tspan
           sodipodi:role="line"
           dx="0.000000"
           dy="4.724409"
           id="tspan398">60</tspan></text><path
         d="M 11547.530447,-4263.851313 A 0.250000,0.250000 0.000000 0, 0 11547.030447,-4263.851313 A 0.250000,0.250000 0.000000 0, 0 11547.530447,-4263.851313 z"
         style="fill:none;stroke:#000000"
         id="path402" /><path
         d="M 11585.325723,-4037.079659 A 0.250000,0.250000 0.000000 0, 0 11584.825723,-4037.079659 A 0.250000,0.250000 0.000000 0, 0 11585.325723,-4037.079659 z"
         style="fill:none;stroke:#000000"
         id="path404" /><path
         d="M 11499.241253,-4037.079659 A 0.250000,0.250000 0.000000 0, 0 11498.741253,-4037.079659 A 0.250000,0.250000 0.000000 0, 0 11499.241253,-4037.079659 z"
         style="fill:none;stroke:#000000"
         id="path406" /></symbol><symbol
       id="*D20"><path
         style="fill:none;stroke:#000000"
         d="M 5165.6 2700.26 L 5165.6 2747.08"
         id="path409" /><path
         style="fill:none;stroke:#000000"
         d="M 4480 2700.26 L 4480 2747.08"
         id="path411" /><path
         style="fill:none;stroke:#000000"
         d="M 5156.16 2742.36 L 4489.45 2742.36"
         id="path413" /><path
         style="fill:none;stroke:#000000"
         d="M 5156.16 2740.78 L 5156.16 2743.93 L 5165.6 2742.36 z"
         id="path415" /><path
         style="fill:none;stroke:#000000"
         d="M 4489.45 2740.78 L 4489.45 2743.93 L 4480 2742.36 z"
         id="path417" /><text
         x="4822.801259"
         y="2734.315787"
         style="font-size: 9.449px; fill: #000000; font-family: Arial; text-anchor: middle"
         id="text421"><tspan
           sodipodi:role="line"
           dx="0.000000"
           dy="4.724409"
           id="tspan419">181,4</tspan></text><path
         d="M 5165.854408,2697.893234 A 0.250000,0.250000 0.000000 0, 0 5165.354408,2697.893234 A 0.250000,0.250000 0.000000 0, 0 5165.854408,2697.893234 z"
         style="fill:none;stroke:#000000"
         id="path423" /><path
         d="M 4480.248109,2697.893234 A 0.250000,0.250000 0.000000 0, 0 4479.748109,2697.893234 A 0.250000,0.250000 0.000000 0, 0 4480.248109,2697.893234 z"
         style="fill:none;stroke:#000000"
         id="path425" /><path
         d="M 4480.248109,2742.356306 A 0.250000,0.250000 0.000000 0, 0 4479.748109,2742.356306 A 0.250000,0.250000 0.000000 0, 0 4480.248109,2742.356306 z"
         style="fill:none;stroke:#000000"
         id="path427" /></symbol><symbol
       id="*D21"><path
         style="fill:none;stroke:#000000"
         d="M 5167.97 2372.66 L 5287.57 2372.66"
         id="path430" /><path
         style="fill:none;stroke:#000000"
         d="M 5167.97 1753.01 L 5287.57 1753.01"
         id="path432" /><path
         style="fill:none;stroke:#000000"
         d="M 5282.85 2363.22 L 5282.85 1762.46"
         id="path434" /><path
         style="fill:none;stroke:#000000"
         d="M 5281.27 2363.22 L 5284.42 2363.22 L 5282.85 2372.66 z"
         id="path436" /><path
         style="fill:none;stroke:#000000"
         d="M 5281.27 1762.46 L 5284.42 1762.46 L 5282.85 1753.01 z"
         id="path438" /><text
         x="5274.807199"
         y="2062.838116"
         style="font-size: 9.449px; fill: #000000; font-family: Arial; text-anchor: middle"
         transform="rotate (-90.000000 5274.807199 2062.838116)"
         id="text442"><tspan
           sodipodi:role="line"
           dx="0.000000"
           dy="4.724409"
           id="tspan440">163,95</tspan></text><path
         d="M 5165.854408,2372.664887 A 0.250000,0.250000 0.000000 0, 0 5165.354408,2372.664887 A 0.250000,0.250000 0.000000 0, 0 5165.854408,2372.664887 z"
         style="fill:none;stroke:#000000"
         id="path444" /><path
         d="M 5165.854408,1753.011344 A 0.250000,0.250000 0.000000 0, 0 5165.354408,1753.011344 A 0.250000,0.250000 0.000000 0, 0 5165.854408,1753.011344 z"
         style="fill:none;stroke:#000000"
         id="path446" /><path
         d="M 5283.097719,1753.011344 A 0.250000,0.250000 0.000000 0, 0 5282.597719,1753.011344 A 0.250000,0.250000 0.000000 0, 0 5283.097719,1753.011344 z"
         style="fill:none;stroke:#000000"
         id="path448" /></symbol><symbol
       id="*D22"><path
         style="fill:none;stroke:#000000"
         d="M 4782.64 2471.12 L 4731.99 2471.12"
         id="path451" /><path
         style="fill:none;stroke:#000000"
         d="M 4820.44 2697.89 L 4731.99 2697.89"
         id="path453" /><path
         style="fill:none;stroke:#000000"
         d="M 4736.72 2480.57 L 4736.72 2688.44"
         id="path455" /><path
         style="fill:none;stroke:#000000"
         d="M 4735.14 2480.57 L 4738.29 2480.57 L 4736.72 2471.12 z"
         id="path457" /><path
         style="fill:none;stroke:#000000"
         d="M 4735.14 2688.44 L 4738.29 2688.44 L 4736.72 2697.89 z"
         id="path459" /><text
         x="4729.530272"
         y="2584.507407"
         style="font-size: 9.449px; fill: #000000; font-family: Arial; text-anchor: middle"
         transform="rotate (-90.000000 4729.530272 2584.507407)"
         id="text463"><tspan
           sodipodi:role="line"
           dx="0.000000"
           dy="4.724409"
           id="tspan461">60</tspan></text><path
         d="M 4785.255983,2471.121580 A 0.250000,0.250000 0.000000 0, 0 4784.755983,2471.121580 A 0.250000,0.250000 0.000000 0, 0 4785.255983,2471.121580 z"
         style="fill:none;stroke:#000000"
         id="path465" /><path
         d="M 4823.051259,2697.893234 A 0.250000,0.250000 0.000000 0, 0 4822.551259,2697.893234 A 0.250000,0.250000 0.000000 0, 0 4823.051259,2697.893234 z"
         style="fill:none;stroke:#000000"
         id="path467" /><path
         d="M 4736.966789,2697.893234 A 0.250000,0.250000 0.000000 0, 0 4736.466789,2697.893234 A 0.250000,0.250000 0.000000 0, 0 4736.966789,2697.893234 z"
         style="fill:none;stroke:#000000"
         id="path469" /></symbol><symbol
       id="*D23"><path
         style="fill:none;stroke:#000000"
         d="M 4418.3 2397.35 L 4425.5 2397.35"
         id="path472" /><path
         style="fill:none;stroke:#000000"
         d="M 4418.3 2387.9 L 4425.5 2387.9"
         id="path474" /><path
         style="fill:none;stroke:#000000"
         d="M 4420.77 2406.8 L 4420.77 2416.25"
         id="path476" /><path
         style="fill:none;stroke:#000000"
         d="M 4420.77 2378.45 L 4420.77 2346.84"
         id="path478" /><path
         style="fill:none;stroke:#000000"
         d="M 4420.77 2397.35 L 4420.77 2387.9"
         id="path480" /><path
         style="fill:none;stroke:#000000"
         d="M 4419.2 2406.8 L 4422.35 2406.8 L 4420.77 2397.35 z"
         id="path482" /><path
         style="fill:none;stroke:#000000"
         d="M 4419.2 2378.45 L 4422.35 2378.45 L 4420.77 2387.9 z"
         id="path484" /><text
         x="4412.733147"
         y="2357.922755"
         style="font-size: 9.449px; fill: #000000; font-family: Arial; text-anchor: middle"
         transform="rotate (-90.000000 4412.733147 2357.922755)"
         id="text488"><tspan
           sodipodi:role="line"
           dx="0.000000"
           dy="4.724409"
           id="tspan486">2,5</tspan></text><path
         d="M 4416.191153,2397.348693 A 0.250000,0.250000 0.000000 0, 0 4415.691153,2397.348693 A 0.250000,0.250000 0.000000 0, 0 4416.191153,2397.348693 z"
         style="fill:none;stroke:#000000"
         id="path490" /><path
         d="M 4416.191153,2387.899875 A 0.250000,0.250000 0.000000 0, 0 4415.691153,2387.899875 A 0.250000,0.250000 0.000000 0, 0 4416.191153,2387.899875 z"
         style="fill:none;stroke:#000000"
         id="path492" /><path
         d="M 4421.023667,2387.899875 A 0.250000,0.250000 0.000000 0, 0 4420.523667,2387.899875 A 0.250000,0.250000 0.000000 0, 0 4421.023667,2387.899875 z"
         style="fill:none;stroke:#000000"
         id="path494" /></symbol><symbol
       id="*D24"><path
         style="fill:none;stroke:#000000"
         d="M 4415.94 2385.54 L 4415.94 2381.09"
         id="path497" /><path
         style="fill:none;stroke:#000000"
         d="M 4378.15 2385.54 L 4378.15 2381.09"
         id="path499" /><path
         style="fill:none;stroke:#000000"
         d="M 4406.49 2385.81 L 4387.59 2385.81"
         id="path501" /><path
         style="fill:none;stroke:#000000"
         d="M 4406.49 2384.24 L 4406.49 2387.39 L 4415.94 2385.81 z"
         id="path503" /><path
         style="fill:none;stroke:#000000"
         d="M 4387.59 2384.24 L 4387.59 2387.39 L 4378.15 2385.81 z"
         id="path505" /><text
         x="4397.043515"
         y="2378.624645"
         style="font-size: 9.449px; fill: #000000; font-family: Arial; text-anchor: middle"
         id="text509"><tspan
           sodipodi:role="line"
           dx="0.000000"
           dy="4.724409"
           id="tspan507">10</tspan></text><path
         d="M 4416.191153,2387.899875 A 0.250000,0.250000 0.000000 0, 0 4415.691153,2387.899875 A 0.250000,0.250000 0.000000 0, 0 4416.191153,2387.899875 z"
         style="fill:none;stroke:#000000"
         id="path511" /><path
         d="M 4378.395878,2387.899875 A 0.250000,0.250000 0.000000 0, 0 4377.895878,2387.899875 A 0.250000,0.250000 0.000000 0, 0 4378.395878,2387.899875 z"
         style="fill:none;stroke:#000000"
         id="path513" /><path
         d="M 4378.395878,2385.811161 A 0.250000,0.250000 0.000000 0, 0 4377.895878,2385.811161 A 0.250000,0.250000 0.000000 0, 0 4378.395878,2385.811161 z"
         style="fill:none;stroke:#000000"
         id="path515" /></symbol><symbol
       id="*D25"><path
         style="fill:none;stroke:#000000"
         d="M 5165.6 2700.26 L 5165.6 2747.08"
         id="path518" /><path
         style="fill:none;stroke:#000000"
         d="M 4480 2700.26 L 4480 2747.08"
         id="path520" /><path
         style="fill:none;stroke:#000000"
         d="M 5156.16 2742.36 L 4489.45 2742.36"
         id="path522" /><path
         style="fill:none;stroke:#000000"
         d="M 5156.16 2740.78 L 5156.16 2743.93 L 5165.6 2742.36 z"
         id="path524" /><path
         style="fill:none;stroke:#000000"
         d="M 4489.45 2740.78 L 4489.45 2743.93 L 4480 2742.36 z"
         id="path526" /><text
         x="4822.801259"
         y="2734.315787"
         style="font-size: 9.449px; fill: #000000; font-family: Arial; text-anchor: middle"
         id="text530"><tspan
           sodipodi:role="line"
           dx="0.000000"
           dy="4.724409"
           id="tspan528">181,4</tspan></text><path
         d="M 5165.854408,2697.893234 A 0.250000,0.250000 0.000000 0, 0 5165.354408,2697.893234 A 0.250000,0.250000 0.000000 0, 0 5165.854408,2697.893234 z"
         style="fill:none;stroke:#000000"
         id="path532" /><path
         d="M 4480.248109,2697.893234 A 0.250000,0.250000 0.000000 0, 0 4479.748109,2697.893234 A 0.250000,0.250000 0.000000 0, 0 4480.248109,2697.893234 z"
         style="fill:none;stroke:#000000"
         id="path534" /><path
         d="M 4480.248109,2742.356306 A 0.250000,0.250000 0.000000 0, 0 4479.748109,2742.356306 A 0.250000,0.250000 0.000000 0, 0 4480.248109,2742.356306 z"
         style="fill:none;stroke:#000000"
         id="path536" /></symbol><symbol
       id="A$C2350f347"><path
         d="M 21.732283,944.828266 L 21.732283,950.497558 L 10.393701,950.497558 L 10.393701,944.828266 A 5.669291,5.669291 0.0 0 1 21.732283,944.828266 z"
         style="fill:none;stroke:#FF0000"
         id="path539" /><path
         d="M 10.393701,1012.859763 L 10.393701,1007.190471 L 21.732283,1007.190471 L 21.732283,1012.859763 A 5.669291,5.669291 0.0 0 1 10.393701,1012.859763 z"
         style="fill:none;stroke:#FF0000"
         id="path541" /><path
         d="M 734.173228,1012.859763 L 734.173228,1007.190471 L 745.511811,1007.190471 L 745.511811,1012.859763 A 5.669291,5.669291 0.0 0 1 734.173228,1012.859763 z"
         style="fill:none;stroke:#FF0000"
         id="path543" /><path
         d="M 745.511811,944.828266 L 745.511811,950.497558 L 734.173228,950.497558 L 734.173228,944.828266 A 5.669291,5.669291 0.0 0 1 745.511811,944.828266 z"
         style="fill:none;stroke:#FF0000"
         id="path545" /><path
         d="M 407.811024,695.379448 A 4.346457,4.346457 0.000000 0, 0 399.118110,695.379448 A 4.346457,4.346457 0.000000 0, 0 407.811024,695.379448 z"
         style="fill:none;stroke:#FF0000"
         id="path547" /><path
         d="M 356.787402,695.379448 A 4.346457,4.346457 0.000000 0, 0 348.094488,695.379448 A 4.346457,4.346457 0.000000 0, 0 356.787402,695.379448 z"
         style="fill:none;stroke:#FF0000"
         id="path549" /><path
         d="M 388.724409,695.379448 A 10.771654,10.771654 0.000000 0, 0 367.181102,695.379448 A 10.771654,10.771654 0.000000 0, 0 388.724409,695.379448 z"
         style="fill:none;stroke:#FF0000"
         id="path551" /><path
         d="M 23.622047,708.607794 A 6.614173,6.614173 0.000000 0, 0 10.393701,708.607794 A 6.614173,6.614173 0.000000 0, 0 23.622047,708.607794 z"
         style="fill:none;stroke:#000000"
         id="path553" /><path
         d="M 65.196850,708.607794 A 6.614173,6.614173 0.000000 0, 0 51.968504,708.607794 A 6.614173,6.614173 0.000000 0, 0 65.196850,708.607794 z"
         style="fill:none;stroke:#000000"
         id="path555" /><path
         d="M 99.210153,902.539327 A 6.614173,6.614173 0.000000 0, 0 85.981807,902.539327 A 6.614173,6.614173 0.000000 0, 0 99.210153,902.539327 z"
         style="fill:none;stroke:#000000"
         id="path557" /><path
         d="M 212.595980,902.539327 A 6.614173,6.614173 0.000000 0, 0 199.367634,902.539327 A 6.614173,6.614173 0.000000 0, 0 212.595980,902.539327 z"
         style="fill:none;stroke:#000000"
         id="path559" /><path
         d="M 99.271183,1058.255862 A 6.614173,6.614173 0.000000 0, 0 86.042836,1058.255862 A 6.614173,6.614173 0.000000 0, 0 99.271183,1058.255862 z"
         style="fill:none;stroke:#000000"
         id="path561" /><path
         d="M 212.657009,1058.255862 A 6.614173,6.614173 0.000000 0, 0 199.428663,1058.255862 A 6.614173,6.614173 0.000000 0, 0 212.657009,1058.255862 z"
         style="fill:none;stroke:#000000"
         id="path563" /><path
         d="M 384.632929,1034.486607 A 6.614173,6.614173 0.000000 0, 0 371.404583,1034.486607 A 6.614173,6.614173 0.000000 0, 0 384.632929,1034.486607 z"
         style="fill:none;stroke:#000000"
         id="path565" /><path
         d="M 384.632929,962.675583 A 6.614173,6.614173 0.000000 0, 0 371.404583,962.675583 A 6.614173,6.614173 0.000000 0, 0 384.632929,962.675583 z"
         style="fill:none;stroke:#000000"
         id="path567" /><path
         d="M 556.594017,1058.255862 A 6.614173,6.614173 0.000000 0, 0 543.365671,1058.255862 A 6.614173,6.614173 0.000000 0, 0 556.594017,1058.255862 z"
         style="fill:none;stroke:#000000"
         id="path569" /><path
         d="M 669.979844,1058.255862 A 6.614173,6.614173 0.000000 0, 0 656.751498,1058.255862 A 6.614173,6.614173 0.000000 0, 0 669.979844,1058.255862 z"
         style="fill:none;stroke:#000000"
         id="path571" /><path
         d="M 556.535993,902.539327 A 6.614173,6.614173 0.000000 0, 0 543.307647,902.539327 A 6.614173,6.614173 0.000000 0, 0 556.535993,902.539327 z"
         style="fill:none;stroke:#000000"
         id="path573" /><path
         d="M 669.921820,902.539327 A 6.614173,6.614173 0.000000 0, 0 656.693473,902.539327 A 6.614173,6.614173 0.000000 0, 0 669.921820,902.539327 z"
         style="fill:none;stroke:#000000"
         id="path575" /><path
         d="M 703.873628,708.607794 A 6.614173,6.614173 0.000000 0, 0 690.645281,708.607794 A 6.614173,6.614173 0.000000 0, 0 703.873628,708.607794 z"
         style="fill:none;stroke:#000000"
         id="path577" /><path
         d="M 745.448431,708.607794 A 6.614173,6.614173 0.000000 0, 0 732.220085,708.607794 A 6.614173,6.614173 0.000000 0, 0 745.448431,708.607794 z"
         style="fill:none;stroke:#000000"
         id="path579" /><path
         d="M 408.188976,195.189561 L 387.401575,195.189561 L 387.401575,157.394286 L 408.188976,157.394286 L 408.188976,195.189561"
         style="fill:none;stroke:#FF0000"
         id="path581" /><path
         d="M 478.677165,176.291924 A 6.614173,6.614173 0.000000 0, 0 465.448819,176.291924 A 6.614173,6.614173 0.000000 0, 0 478.677165,176.291924 z"
         style="fill:none;stroke:#FF0000"
         id="path583" /><use
         xlink:href="#*D25"
         transform="translate(0 0)"
         id="use585" /><path
         d="M 377.952756,1073.332203 L 0.000000,1073.332203 L 0.000000,695.379448 L 755.905512,695.379448 L 755.905512,1073.332203 L 377.952756,1073.332203"
         style="fill:none;stroke:#FFFF00"
         id="path587" /><path
         d="M 0.000000,1073.332203 L 0.000000,295.883385 L 755.905512,295.883385 L 755.905512,1073.332203 L 0.000000,1073.332203"
         style="fill:none;stroke:#FFFF00"
         id="path589" /><path
         d="M 379.842520,203.126569 L 340.157480,203.126569 L 340.157480,1073.332203 L 415.748031,1073.332203 L 417.637795,203.126569 L 342.047244,203.126569"
         style="fill:none;stroke:#FFFF00"
         id="path591" /><path
         d="M 755.905512,295.883385 A 816.393448,816.393448 0.000000 0 0 0.000000,295.883385"
         style="fill:none;stroke:#FFFF00"
         id="path593" /><path
         d="M 347.716535,195.189561 L 368.503937,195.189561 L 368.503937,157.394286 L 347.716535,157.394286 L 347.716535,195.189561"
         style="fill:none;stroke:#FF0000"
         id="path595" /><path
         d="M 290.456693,176.291924 A 6.614173,6.614173 0.000000 0, 0 277.228346,176.291924 A 6.614173,6.614173 0.000000 0, 0 290.456693,176.291924 z"
         style="fill:none;stroke:#FF0000"
         id="path597" /><path
         style="fill:none;stroke:#FFFF00"
         d="M 379.843 203.127 L 376.063 203.127"
         id="path599" /><path
         d="M 267.212598,195.189561 L 267.212598,216.950099 L 303.118110,216.950099 L 303.118110,149.457278 L 267.212598,149.457278 L 267.212598,195.189561"
         style="fill:none;stroke:#FFFF00"
         id="path601" /><path
         d="M 452.787402,195.189561 L 452.787402,216.950099 L 488.692913,216.950099 L 488.692913,149.457278 L 452.787402,149.457278 L 452.787402,195.189561"
         style="fill:none;stroke:#FFFF00"
         id="path603" /><path
         d="M 340.157480,208.266361 L 286.488189,208.266361 L 286.488189,326.565574 L 340.157480,326.565574 L 340.157480,208.266361"
         style="fill:none;stroke:#000000"
         id="path605" /><path
         d="M 294.425197,236.612818 L 294.425197,215.825416 L 332.220472,215.825416 L 332.220472,236.612818 L 294.425197,236.612818"
         style="fill:none;stroke:#FF0000"
         id="path607" /><path
         d="M 319.937008,300.486833 A 6.614173,6.614173 0.000000 0, 0 306.708661,300.486833 A 6.614173,6.614173 0.000000 0, 0 319.937008,300.486833 z"
         style="fill:none;stroke:#FF0000"
         id="path609" /><path
         d="M 294.425197,317.116755 L 294.425197,281.211243 L 332.220472,281.211243 L 332.220472,317.116755 L 294.425197,317.116755"
         style="fill:none;stroke:#FFFF00"
         id="path611" /><path
         style="fill:none;stroke:#FFFF00"
         d="M 313.323 317.117 L 313.323 326.566"
         id="path613" /></symbol><symbol
       id="*D27"><path
         style="fill:none;stroke:#000000"
         d="M 5165.6 2700.26 L 5165.6 2747.08"
         id="path616" /><path
         style="fill:none;stroke:#000000"
         d="M 4480 2700.26 L 4480 2747.08"
         id="path618" /><path
         style="fill:none;stroke:#000000"
         d="M 5156.16 2742.36 L 4489.45 2742.36"
         id="path620" /><path
         style="fill:none;stroke:#000000"
         d="M 5156.16 2740.78 L 5156.16 2743.93 L 5165.6 2742.36 z"
         id="path622" /><path
         style="fill:none;stroke:#000000"
         d="M 4489.45 2740.78 L 4489.45 2743.93 L 4480 2742.36 z"
         id="path624" /><text
         x="4822.801259"
         y="2734.315787"
         style="font-size: 9.449px; fill: #000000; font-family: Arial; text-anchor: middle"
         id="text628"><tspan
           sodipodi:role="line"
           dx="0.000000"
           dy="4.724409"
           id="tspan626">181,4</tspan></text><path
         d="M 5165.854408,2697.893234 A 0.250000,0.250000 0.000000 0, 0 5165.354408,2697.893234 A 0.250000,0.250000 0.000000 0, 0 5165.854408,2697.893234 z"
         style="fill:none;stroke:#000000"
         id="path630" /><path
         d="M 4480.248109,2697.893234 A 0.250000,0.250000 0.000000 0, 0 4479.748109,2697.893234 A 0.250000,0.250000 0.000000 0, 0 4480.248109,2697.893234 z"
         style="fill:none;stroke:#000000"
         id="path632" /><path
         d="M 4480.248109,2742.356306 A 0.250000,0.250000 0.000000 0, 0 4479.748109,2742.356306 A 0.250000,0.250000 0.000000 0, 0 4480.248109,2742.356306 z"
         style="fill:none;stroke:#000000"
         id="path634" /></symbol><symbol
       id="*D28"><path
         style="fill:none;stroke:#000000"
         d="M 6493.16 2746.32 L 6493.16 2793.15"
         id="path637" /><path
         style="fill:none;stroke:#000000"
         d="M 5807.55 2746.32 L 5807.55 2793.15"
         id="path639" /><path
         style="fill:none;stroke:#000000"
         d="M 6483.71 2788.43 L 5817 2788.43"
         id="path641" /><path
         style="fill:none;stroke:#000000"
         d="M 6483.71 2786.85 L 6483.71 2790 L 6493.16 2788.43 z"
         id="path643" /><path
         style="fill:none;stroke:#000000"
         d="M 5817 2786.85 L 5817 2790 L 5807.55 2788.43 z"
         id="path645" /><text
         x="6150.353570"
         y="2780.384486"
         style="font-size: 9.449px; fill: #000000; font-family: Arial; text-anchor: middle"
         id="text649"><tspan
           sodipodi:role="line"
           dx="0.000000"
           dy="4.724409"
           id="tspan647">181,4</tspan></text><path
         d="M 6493.406719,2743.961933 A 0.250000,0.250000 0.000000 0, 0 6492.906719,2743.961933 A 0.250000,0.250000 0.000000 0, 0 6493.406719,2743.961933 z"
         style="fill:none;stroke:#000000"
         id="path651" /><path
         d="M 5807.800420,2743.961933 A 0.250000,0.250000 0.000000 0, 0 5807.300420,2743.961933 A 0.250000,0.250000 0.000000 0, 0 5807.800420,2743.961933 z"
         style="fill:none;stroke:#000000"
         id="path653" /><path
         d="M 5807.800420,2788.425005 A 0.250000,0.250000 0.000000 0, 0 5807.300420,2788.425005 A 0.250000,0.250000 0.000000 0, 0 5807.800420,2788.425005 z"
         style="fill:none;stroke:#000000"
         id="path655" /></symbol><symbol
       id="*D29"><path
         style="fill:none;stroke:#000000"
         d="M 4935.9 1781.96 L 5337.37 1781.96"
         id="path658" /><path
         style="fill:none;stroke:#000000"
         d="M 4935.9 2169.32 L 5337.37 2169.32"
         id="path660" /><path
         style="fill:none;stroke:#000000"
         d="M 5332.65 1791.4 L 5332.65 2159.87"
         id="path662" /><path
         style="fill:none;stroke:#000000"
         d="M 5331.07 1791.4 L 5334.22 1791.4 L 5332.65 1781.96 z"
         id="path664" /><path
         style="fill:none;stroke:#000000"
         d="M 5331.07 2159.87 L 5334.22 2159.87 L 5332.65 2169.32 z"
         id="path666" /><text
         x="5324.605098"
         y="1975.635183"
         style="font-size: 9.449px; fill: #000000; font-family: Arial; text-anchor: middle"
         transform="rotate (-90.000000 5324.605098 1975.635183)"
         id="text670"><tspan
           sodipodi:role="line"
           dx="0.000000"
           dy="4.724409"
           id="tspan668">102,49</tspan></text><path
         d="M 4933.791416,1781.955316 A 0.250000,0.250000 0.000000 0, 0 4933.291416,1781.955316 A 0.250000,0.250000 0.000000 0, 0 4933.791416,1781.955316 z"
         style="fill:none;stroke:#000000"
         id="path672" /><path
         d="M 4933.791416,2169.315050 A 0.250000,0.250000 0.000000 0, 0 4933.291416,2169.315050 A 0.250000,0.250000 0.000000 0, 0 4933.791416,2169.315050 z"
         style="fill:none;stroke:#000000"
         id="path674" /><path
         d="M 5332.895618,2169.315050 A 0.250000,0.250000 0.000000 0, 0 5332.395618,2169.315050 A 0.250000,0.250000 0.000000 0, 0 5332.895618,2169.315050 z"
         style="fill:none;stroke:#000000"
         id="path676" /></symbol><symbol
       id="*D30"><path
         style="fill:none;stroke:#000000"
         d="M 4935.9 1781.96 L 5425.32 1781.96"
         id="path679" /><path
         style="fill:none;stroke:#000000"
         d="M 4935.9 2697.89 L 5425.32 2697.89"
         id="path681" /><path
         style="fill:none;stroke:#000000"
         d="M 5420.6 1791.4 L 5420.6 2688.44"
         id="path683" /><path
         style="fill:none;stroke:#000000"
         d="M 5419.02 1791.4 L 5422.17 1791.4 L 5420.6 1781.96 z"
         id="path685" /><path
         style="fill:none;stroke:#000000"
         d="M 5419.02 2688.44 L 5422.17 2688.44 L 5420.6 2697.89 z"
         id="path687" /><text
         x="5412.556379"
         y="2239.924275"
         style="font-size: 9.449px; fill: #000000; font-family: Arial; text-anchor: middle"
         transform="rotate (-90.000000 5412.556379 2239.924275)"
         id="text691"><tspan
           sodipodi:role="line"
           dx="0.000000"
           dy="4.724409"
           id="tspan689">242,34</tspan></text><path
         d="M 4933.791416,1781.955316 A 0.250000,0.250000 0.000000 0, 0 4933.291416,1781.955316 A 0.250000,0.250000 0.000000 0, 0 4933.791416,1781.955316 z"
         style="fill:none;stroke:#000000"
         id="path693" /><path
         d="M 4933.791416,2697.893234 A 0.250000,0.250000 0.000000 0, 0 4933.291416,2697.893234 A 0.250000,0.250000 0.000000 0, 0 4933.791416,2697.893234 z"
         style="fill:none;stroke:#000000"
         id="path695" /><path
         d="M 5420.846899,2697.893234 A 0.250000,0.250000 0.000000 0, 0 5420.346899,2697.893234 A 0.250000,0.250000 0.000000 0, 0 5420.846899,2697.893234 z"
         style="fill:none;stroke:#000000"
         id="path697" /></symbol><symbol
       id="*D31"><path
         style="fill:none;stroke:#000000"
         d="M 5165.6 2700.26 L 5165.6 2747.08"
         id="path700" /><path
         style="fill:none;stroke:#000000"
         d="M 4480 2700.26 L 4480 2747.08"
         id="path702" /><path
         style="fill:none;stroke:#000000"
         d="M 5156.16 2742.36 L 4489.45 2742.36"
         id="path704" /><path
         style="fill:none;stroke:#000000"
         d="M 5156.16 2740.78 L 5156.16 2743.93 L 5165.6 2742.36 z"
         id="path706" /><path
         style="fill:none;stroke:#000000"
         d="M 4489.45 2740.78 L 4489.45 2743.93 L 4480 2742.36 z"
         id="path708" /><text
         x="4822.801259"
         y="2734.315787"
         style="font-size: 9.449px; fill: #000000; font-family: Arial; text-anchor: middle"
         id="text712"><tspan
           sodipodi:role="line"
           dx="0.000000"
           dy="4.724409"
           id="tspan710">181,4</tspan></text><path
         d="M 5165.854408,2697.893234 A 0.250000,0.250000 0.000000 0, 0 5165.354408,2697.893234 A 0.250000,0.250000 0.000000 0, 0 5165.854408,2697.893234 z"
         style="fill:none;stroke:#000000"
         id="path714" /><path
         d="M 4480.248109,2697.893234 A 0.250000,0.250000 0.000000 0, 0 4479.748109,2697.893234 A 0.250000,0.250000 0.000000 0, 0 4480.248109,2697.893234 z"
         style="fill:none;stroke:#000000"
         id="path716" /><path
         d="M 4480.248109,2742.356306 A 0.250000,0.250000 0.000000 0, 0 4479.748109,2742.356306 A 0.250000,0.250000 0.000000 0, 0 4480.248109,2742.356306 z"
         style="fill:none;stroke:#000000"
         id="path718" /></symbol><symbol
       id="*D32"><path
         style="fill:none;stroke:#000000"
         d="M 4418.3 2397.35 L 4425.5 2397.35"
         id="path721" /><path
         style="fill:none;stroke:#000000"
         d="M 4418.3 2387.9 L 4425.5 2387.9"
         id="path723" /><path
         style="fill:none;stroke:#000000"
         d="M 4420.77 2406.8 L 4420.77 2416.25"
         id="path725" /><path
         style="fill:none;stroke:#000000"
         d="M 4420.77 2378.45 L 4420.77 2346.84"
         id="path727" /><path
         style="fill:none;stroke:#000000"
         d="M 4420.77 2397.35 L 4420.77 2387.9"
         id="path729" /><path
         style="fill:none;stroke:#000000"
         d="M 4419.2 2406.8 L 4422.35 2406.8 L 4420.77 2397.35 z"
         id="path731" /><path
         style="fill:none;stroke:#000000"
         d="M 4419.2 2378.45 L 4422.35 2378.45 L 4420.77 2387.9 z"
         id="path733" /><text
         x="4412.733147"
         y="2357.922755"
         style="font-size: 9.449px; fill: #000000; font-family: Arial; text-anchor: middle"
         transform="rotate (-90.000000 4412.733147 2357.922755)"
         id="text737"><tspan
           sodipodi:role="line"
           dx="0.000000"
           dy="4.724409"
           id="tspan735">2,5</tspan></text><path
         d="M 4416.191153,2397.348693 A 0.250000,0.250000 0.000000 0, 0 4415.691153,2397.348693 A 0.250000,0.250000 0.000000 0, 0 4416.191153,2397.348693 z"
         style="fill:none;stroke:#000000"
         id="path739" /><path
         d="M 4416.191153,2387.899875 A 0.250000,0.250000 0.000000 0, 0 4415.691153,2387.899875 A 0.250000,0.250000 0.000000 0, 0 4416.191153,2387.899875 z"
         style="fill:none;stroke:#000000"
         id="path741" /><path
         d="M 4421.023667,2387.899875 A 0.250000,0.250000 0.000000 0, 0 4420.523667,2387.899875 A 0.250000,0.250000 0.000000 0, 0 4421.023667,2387.899875 z"
         style="fill:none;stroke:#000000"
         id="path743" /></symbol><symbol
       id="*D33"><path
         style="fill:none;stroke:#000000"
         d="M 4415.94 2385.54 L 4415.94 2381.09"
         id="path746" /><path
         style="fill:none;stroke:#000000"
         d="M 4378.15 2385.54 L 4378.15 2381.09"
         id="path748" /><path
         style="fill:none;stroke:#000000"
         d="M 4406.49 2385.81 L 4387.59 2385.81"
         id="path750" /><path
         style="fill:none;stroke:#000000"
         d="M 4406.49 2384.24 L 4406.49 2387.39 L 4415.94 2385.81 z"
         id="path752" /><path
         style="fill:none;stroke:#000000"
         d="M 4387.59 2384.24 L 4387.59 2387.39 L 4378.15 2385.81 z"
         id="path754" /><text
         x="4397.043515"
         y="2378.624645"
         style="font-size: 9.449px; fill: #000000; font-family: Arial; text-anchor: middle"
         id="text758"><tspan
           sodipodi:role="line"
           dx="0.000000"
           dy="4.724409"
           id="tspan756">10</tspan></text><path
         d="M 4416.191153,2387.899875 A 0.250000,0.250000 0.000000 0, 0 4415.691153,2387.899875 A 0.250000,0.250000 0.000000 0, 0 4416.191153,2387.899875 z"
         style="fill:none;stroke:#000000"
         id="path760" /><path
         d="M 4378.395878,2387.899875 A 0.250000,0.250000 0.000000 0, 0 4377.895878,2387.899875 A 0.250000,0.250000 0.000000 0, 0 4378.395878,2387.899875 z"
         style="fill:none;stroke:#000000"
         id="path762" /><path
         d="M 4378.395878,2385.811161 A 0.250000,0.250000 0.000000 0, 0 4377.895878,2385.811161 A 0.250000,0.250000 0.000000 0, 0 4378.395878,2385.811161 z"
         style="fill:none;stroke:#000000"
         id="path764" /></symbol><symbol
       id="*D34"><path
         style="fill:none;stroke:#000000"
         d="M 2618.78 2065.57 L 2618.78 2112.39"
         id="path767" /><path
         style="fill:none;stroke:#000000"
         d="M 1933.18 2065.57 L 1933.18 2112.39"
         id="path769" /><path
         style="fill:none;stroke:#000000"
         d="M 2609.33 2107.67 L 1942.62 2107.67"
         id="path771" /><path
         style="fill:none;stroke:#000000"
         d="M 2609.33 2106.09 L 2609.33 2109.24 L 2618.78 2107.67 z"
         id="path773" /><path
         style="fill:none;stroke:#000000"
         d="M 1942.62 2106.09 L 1942.62 2109.24 L 1933.18 2107.67 z"
         id="path775" /><text
         x="2275.978502"
         y="2099.627121"
         style="font-size: 9.449px; fill: #000000; font-family: Arial; text-anchor: middle"
         id="text779"><tspan
           sodipodi:role="line"
           dx="0.000000"
           dy="4.724409"
           id="tspan777">181,4</tspan></text><path
         d="M 2619.031652,2063.204569 A 0.250000,0.250000 0.000000 0, 0 2618.531652,2063.204569 A 0.250000,0.250000 0.000000 0, 0 2619.031652,2063.204569 z"
         style="fill:none;stroke:#000000"
         id="path781" /><path
         d="M 1933.425353,2063.204569 A 0.250000,0.250000 0.000000 0, 0 1932.925353,2063.204569 A 0.250000,0.250000 0.000000 0, 0 1933.425353,2063.204569 z"
         style="fill:none;stroke:#000000"
         id="path783" /><path
         d="M 1933.425353,2107.667641 A 0.250000,0.250000 0.000000 0, 0 1932.925353,2107.667641 A 0.250000,0.250000 0.000000 0, 0 1933.425353,2107.667641 z"
         style="fill:none;stroke:#000000"
         id="path785" /></symbol><symbol
       id="*D35"><path
         style="fill:none;stroke:#000000"
         d="M 1871.48 1762.66 L 1878.68 1762.66"
         id="path788" /><path
         style="fill:none;stroke:#000000"
         d="M 1871.48 1753.21 L 1878.68 1753.21"
         id="path790" /><path
         style="fill:none;stroke:#000000"
         d="M 1873.95 1772.11 L 1873.95 1781.56"
         id="path792" /><path
         style="fill:none;stroke:#000000"
         d="M 1873.95 1743.76 L 1873.95 1712.15"
         id="path794" /><path
         style="fill:none;stroke:#000000"
         d="M 1873.95 1762.66 L 1873.95 1753.21"
         id="path796" /><path
         style="fill:none;stroke:#000000"
         d="M 1872.38 1772.11 L 1875.53 1772.11 L 1873.95 1762.66 z"
         id="path798" /><path
         style="fill:none;stroke:#000000"
         d="M 1872.38 1743.76 L 1875.53 1743.76 L 1873.95 1753.21 z"
         id="path800" /><text
         x="1865.910390"
         y="1723.234090"
         style="font-size: 9.449px; fill: #000000; font-family: Arial; text-anchor: middle"
         transform="rotate (-90.000000 1865.910390 1723.234090)"
         id="text804"><tspan
           sodipodi:role="line"
           dx="0.000000"
           dy="4.724409"
           id="tspan802">2,5</tspan></text><path
         d="M 1869.368396,1762.660028 A 0.250000,0.250000 0.000000 0, 0 1868.868396,1762.660028 A 0.250000,0.250000 0.000000 0, 0 1869.368396,1762.660028 z"
         style="fill:none;stroke:#000000"
         id="path806" /><path
         d="M 1869.368396,1753.211209 A 0.250000,0.250000 0.000000 0, 0 1868.868396,1753.211209 A 0.250000,0.250000 0.000000 0, 0 1869.368396,1753.211209 z"
         style="fill:none;stroke:#000000"
         id="path808" /><path
         d="M 1874.200910,1753.211209 A 0.250000,0.250000 0.000000 0, 0 1873.700910,1753.211209 A 0.250000,0.250000 0.000000 0, 0 1874.200910,1753.211209 z"
         style="fill:none;stroke:#000000"
         id="path810" /></symbol><symbol
       id="*D36"><path
         style="fill:none;stroke:#000000"
         d="M 1869.12 1750.85 L 1869.12 1746.4"
         id="path813" /><path
         style="fill:none;stroke:#000000"
         d="M 1831.32 1750.85 L 1831.32 1746.4"
         id="path815" /><path
         style="fill:none;stroke:#000000"
         d="M 1859.67 1751.12 L 1840.77 1751.12"
         id="path817" /><path
         style="fill:none;stroke:#000000"
         d="M 1859.67 1749.55 L 1859.67 1752.7 L 1869.12 1751.12 z"
         id="path819" /><path
         style="fill:none;stroke:#000000"
         d="M 1840.77 1749.55 L 1840.77 1752.7 L 1831.32 1751.12 z"
         id="path821" /><text
         x="1850.220759"
         y="1743.935980"
         style="font-size: 9.449px; fill: #000000; font-family: Arial; text-anchor: middle"
         id="text825"><tspan
           sodipodi:role="line"
           dx="0.000000"
           dy="4.724409"
           id="tspan823">10</tspan></text><path
         d="M 1869.368396,1753.211209 A 0.250000,0.250000 0.000000 0, 0 1868.868396,1753.211209 A 0.250000,0.250000 0.000000 0, 0 1869.368396,1753.211209 z"
         style="fill:none;stroke:#000000"
         id="path827" /><path
         d="M 1831.573121,1753.211209 A 0.250000,0.250000 0.000000 0, 0 1831.073121,1753.211209 A 0.250000,0.250000 0.000000 0, 0 1831.573121,1753.211209 z"
         style="fill:none;stroke:#000000"
         id="path829" /><path
         d="M 1831.573121,1751.122496 A 0.250000,0.250000 0.000000 0, 0 1831.073121,1751.122496 A 0.250000,0.250000 0.000000 0, 0 1831.573121,1751.122496 z"
         style="fill:none;stroke:#000000"
         id="path831" /></symbol></defs><g
     inkscape:label="Capa 1"
     inkscape:groupmode="layer"
     id="layer1"><g
       id="g1425"
       transform="matrix(0.26458333,0,0,0.26458333,-251.87085,-150.76005)"><g
         inkscape:label="0"
         id="g932"><path
           d="m 1292.0321,955.71811 a 6.6141735,6.6141735 0 0 0 -13.2283,0 6.6141735,6.6141735 0 0 0 13.2283,0 z"
           style="fill:none;stroke:#ff0000"
           id="path836" /><path
           d="m 1223.2447,976.50551 a 6.614173,6.614173 0 0 0 -13.2283,0 6.614173,6.614173 0 0 0 13.2283,0 z"
           style="fill:none;stroke:#ff0000"
           id="path838" /><path
           d="m 1154.4573,986.89921 a 6.6141735,6.6141735 0 0 0 -13.2283,0 6.6141735,6.6141735 0 0 0 13.2283,0 z"
           style="fill:none;stroke:#ff0000"
           id="path840" /><path
           d="m 1085.6699,1018.0803 a 6.614173,6.614173 0 0 0 -13.2283,0 6.614173,6.614173 0 0 0 13.2283,0 z"
           style="fill:none;stroke:#ff0000"
           id="path842" /><path
           d="m 1016.8825,1038.8677 a 6.6141735,6.6141735 0 0 0 -13.2283,0 6.6141735,6.6141735 0 0 0 13.2283,0 z"
           style="fill:none;stroke:#ff0000"
           id="path844" /><path
           d="m 991.37073,1055.4976 h 37.79527 v 9.4489 h -37.79527 v -9.4489"
           style="fill:none;stroke:#000000"
           id="path846" /><path
           d="m 1060.1581,1034.7102 h 37.7953 v 9.4489 h -37.7953 v -9.4489"
           style="fill:none;stroke:#000000"
           id="path848" /><path
           d="m 1128.9455,1003.5291 h 37.7953 v 9.4488 h -37.7953 v -9.4488"
           style="fill:none;stroke:#000000"
           id="path850" /><path
           d="m 1197.7329,993.13543 h 37.7953 v 9.44877 h -37.7953 v -9.44877"
           style="fill:none;stroke:#000000"
           id="path852" /><path
           d="m 1266.5203,972.34803 h 37.7953 v 9.44881 h -37.7953 v -9.44881"
           style="fill:none;stroke:#000000"
           id="path854" /><path
           d="m 1421.292,955.71811 a 6.6142,6.6142 0 0 0 -13.2284,0 6.6142,6.6142 0 0 0 13.2284,0 z"
           style="fill:none;stroke:#ff0000"
           id="path856" /><path
           d="m 1490.0794,976.50551 a 6.6142,6.6142 0 0 0 -13.2284,0 6.6142,6.6142 0 0 0 13.2284,0 z"
           style="fill:none;stroke:#ff0000"
           id="path858" /><path
           d="m 1558.8668,986.89921 a 6.6142,6.6142 0 0 0 -13.2284,0 6.6142,6.6142 0 0 0 13.2284,0 z"
           style="fill:none;stroke:#ff0000"
           id="path860" /><path
           d="m 1627.6542,1018.0803 a 6.6142,6.6142 0 0 0 -13.2284,0 6.6142,6.6142 0 0 0 13.2284,0 z"
           style="fill:none;stroke:#ff0000"
           id="path862" /><path
           d="m 1696.4416,1038.8677 a 6.6142,6.6142 0 0 0 -13.2284,0 6.6142,6.6142 0 0 0 13.2284,0 z"
           style="fill:none;stroke:#ff0000"
           id="path864" /><path
           d="m 1708.7251,1055.4976 h -37.7953 v 9.4489 h 37.7953 v -9.4489"
           style="fill:none;stroke:#000000"
           id="path866" /><path
           d="m 1639.9377,1034.7102 h -37.7953 v 9.4489 h 37.7953 v -9.4489"
           style="fill:none;stroke:#000000"
           id="path868" /><path
           d="m 1571.1503,1003.5291 h -37.7953 v 9.4488 h 37.7953 v -9.4488"
           style="fill:none;stroke:#000000"
           id="path870" /><path
           d="m 1502.3629,993.13543 h -37.7953 v 9.44877 h 37.7953 v -9.44877"
           style="fill:none;stroke:#000000"
           id="path872" /><path
           d="m 1433.5755,972.34803 h -37.7953 v 9.44881 h 37.7953 v -9.44881"
           style="fill:none;stroke:#000000"
           id="path874" /><path
           d="m 1450.7723,1084.222 a 6.614173,6.614173 0 0 0 -13.2283,0 6.614173,6.614173 0 0 0 13.2283,0 z"
           style="fill:none;stroke:#ff0000"
           id="path876" /><path
           d="m 1262.5518,1084.222 a 6.6141735,6.6141735 0 0 0 -13.2283,0 6.6141735,6.6141735 0 0 0 13.2283,0 z"
           style="fill:none;stroke:#ff0000"
           id="path878" /><path
           d="m 1239.3077,1065.3244 v 37.7953 h -9.4488 v -37.7953 h 9.4488"
           style="fill:none;stroke:#000000"
           id="path880" /><path
           d="m 1470.2369,1065.3244 v 37.7953 h -9.4489 v -37.7953 h 9.4489"
           style="fill:none;stroke:#000000"
           id="path882" /><path
           d="m 1728.0006,1203.8135 v -184.2214 h -72.5669 v -20.78738 h -68.7874 v -31.1811 h -68.7874 v -10.3937 h -68.7874 v -20.78741 h -198.0472 v 20.78741 h -68.7874 v 10.3937 h -68.7874 v 31.1811 h -68.7874 v 20.78738 h -72.56696 v 184.2214 h 75.59056 v -34.7006 a 816.39345,816.39345 0 0 1 227.5275,-54.6191 v -57.1064 h 149.6693 v 57.1064 a 816.39345,816.39345 0 0 1 227.5276,54.6191 v 34.7006 z"
           style="fill:none;stroke:#ffff00"
           id="path884" /><path
           d="m 1379.9062,1019.2216 a 4.3465,4.3465 0 0 0 -8.693,0 4.3465,4.3465 0 0 0 8.693,0 z"
           style="fill:none;stroke:#000000"
           id="path886" /><path
           d="m 1328.8825,1019.2216 a 4.346457,4.346457 0 0 0 -8.6929,0 4.346457,4.346457 0 0 0 8.6929,0 z"
           style="fill:none;stroke:#000000"
           id="path888" /><path
           d="m 1360.8195,1019.2216 a 10.771654,10.771654 0 0 0 -21.5433,0 10.771654,10.771654 0 0 0 21.5433,0 z"
           style="fill:none;stroke:#000000"
           id="path890" /><path
           d="m 995.71718,1177.3568 a 6.614173,6.614173 0 0 0 -13.22834,0 6.614173,6.614173 0 0 0 13.22834,0 z"
           style="fill:none;stroke:#000000"
           id="path892" /><path
           d="m 1037.292,1177.3568 a 6.6142,6.6142 0 0 0 -13.2284,0 6.6142,6.6142 0 0 0 13.2284,0 z"
           style="fill:none;stroke:#000000"
           id="path894" /><path
           d="m 1675.9688,1177.3568 a 6.6142,6.6142 0 0 0 -13.2284,0 6.6142,6.6142 0 0 0 13.2284,0 z"
           style="fill:none;stroke:#000000"
           id="path896" /><path
           d="m 1717.5436,1177.3568 a 6.6142,6.6142 0 0 0 -13.2284,0 6.6142,6.6142 0 0 0 13.2284,0 z"
           style="fill:none;stroke:#000000"
           id="path898" /><path
           d="m 1533.9623,1166.8027 v 75.5906 h -332.44 v -75.5906 h 332.44"
           style="fill:none;stroke:#ffff00"
           id="path900" /><path
           d="m 1234.5931,1183.8106 a 6.6141735,6.6141735 0 0 0 -13.2283,0 6.6141735,6.6141735 0 0 0 13.2283,0 z"
           style="fill:none;stroke:#000000"
           id="path902" /><path
           d="m 1234.5931,1225.3854 a 6.6141735,6.6141735 0 0 0 -13.2283,0 6.6141735,6.6141735 0 0 0 13.2283,0 z"
           style="fill:none;stroke:#000000"
           id="path904" /><path
           d="m 1234.5931,1295.47 a 6.6141735,6.6141735 0 0 0 -13.2283,0 6.6141735,6.6141735 0 0 0 13.2283,0 z"
           style="fill:none;stroke:#000000"
           id="path906" /><path
           d="m 1234.5931,1337.0448 a 6.6141735,6.6141735 0 0 0 -13.2283,0 6.6141735,6.6141735 0 0 0 13.2283,0 z"
           style="fill:none;stroke:#000000"
           id="path908" /><path
           d="m 1533.9623,1278.5255 v 75.5906 h -332.44 v -75.5906 h 332.44"
           style="fill:none;stroke:#ffff00"
           id="path910" /><path
           d="m 1065.2605,1129.3568 a 4.346457,4.346457 0 0 0 -8.6929,0 4.346457,4.346457 0 0 0 8.6929,0 z"
           style="fill:none;stroke:#000000"
           id="path912" /><path
           d="m 1014.2369,1129.3568 a 4.346457,4.346457 0 0 0 -8.6929,0 4.346457,4.346457 0 0 0 8.6929,0 z"
           style="fill:none;stroke:#000000"
           id="path914" /><path
           d="m 1046.1739,1129.3568 a 10.771654,10.771654 0 0 0 -21.5433,0 10.771654,10.771654 0 0 0 21.5433,0 z"
           style="fill:none;stroke:#000000"
           id="path916" /><path
           d="m 1643.5282,1129.3568 a 4.346457,4.346457 0 0 0 -8.6929,0 4.346457,4.346457 0 0 0 8.6929,0 z"
           style="fill:none;stroke:#000000"
           id="path918" /><path
           d="m 1694.5518,1129.3568 a 4.346457,4.346457 0 0 0 -8.6929,0 4.346457,4.346457 0 0 0 8.6929,0 z"
           style="fill:none;stroke:#000000"
           id="path920" /><path
           d="m 1675.4652,1129.3568 a 10.771654,10.771654 0 0 0 -21.5433,0 10.771654,10.771654 0 0 0 21.5433,0 z"
           style="fill:none;stroke:#000000"
           id="path922" /><path
           d="m 1514.1198,1183.8106 a 6.6142,6.6142 0 0 0 -13.2284,0 6.6142,6.6142 0 0 0 13.2284,0 z"
           style="fill:none;stroke:#000000"
           id="path924" /><path
           d="m 1514.1198,1225.3854 a 6.6142,6.6142 0 0 0 -13.2284,0 6.6142,6.6142 0 0 0 13.2284,0 z"
           style="fill:none;stroke:#000000"
           id="path926" /><path
           d="m 1514.1198,1295.47 a 6.6142,6.6142 0 0 0 -13.2284,0 6.6142,6.6142 0 0 0 13.2284,0 z"
           style="fill:none;stroke:#000000"
           id="path928" /><path
           d="m 1514.1198,1337.0448 a 6.6142,6.6142 0 0 0 -13.2284,0 6.6142,6.6142 0 0 0 13.2284,0 z"
           style="fill:none;stroke:#000000"
           id="path930" /></g><g
         inkscape:label="corte"
         id="g934" /><g
         inkscape:label="Defpoints"
         id="g936" /></g></g></svg>
