  0
SECTION
  2
HEADER
  9
$ACADVER
  1
AC1014
  9
$HANDSEED
  5
FFFF
  9
$MEASUREMENT
 70
     1
  0
ENDSEC
  0
SECTION
  2
TABLES
  0
TABLE
  2
VPORT
  5
8
330
0
100
AcDbSymbolTable
 70
     4
  0
VPORT
  5
2E
330
8
100
AcDbSymbolTableRecord
100
AcDbViewportTableRecord
  2
*ACTIVE
 70
     0
 10
0.0
 20
0.0
 11
1.0
 21
1.0
 12
210.0
 22
148.5
 13
0.0
 23
0.0
 14
10.0
 24
10.0
 15
10.0
 25
10.0
 16
0.0
 26
0.0
 36
1.0
 17
0.0
 27
0.0
 37
0.0
 40
341.0
 41
1.24
 42
50.0
 43
0.0
 44
0.0
 50
0.0
 51
0.0
 71
     0
 72
   100
 73
     1
 74
     3
 75
     0
 76
     0
 77
     0
 78
     0
  0
ENDTAB
  0
TABLE
  2
LTYPE
  5
5
330
0
100
AcDbSymbolTable
 70
     1
  0
LTYPE
  5
14
330
5
100
AcDbSymbolTableRecord
100
AcDbLinetypeTableRecord
  2
BYBLOCK
 70
     0
  3

 72
    65
 73
     0
 40
0.0
  0
LTYPE
  5
15
330
5
100
AcDbSymbolTableRecord
100
AcDbLinetypeTableRecord
  2
BYLAYER
 70
     0
  3

 72
    65
 73
     0
 40
0.0
  0
LTYPE
  5
16
330
5
100
AcDbSymbolTableRecord
100
AcDbLinetypeTableRecord
  2
CONTINUOUS
 70
     0
  3
Solid line
 72
    65
 73
     0
 40
0.0
  0
ENDTAB
  0
TABLE
  2
LAYER
  5
2
100
AcDbSymbolTable
 70
1
  0
LAYER
  5
50
100
AcDbSymbolTableRecord
100
AcDbLayerTableRecord
  2
0
 70
0
  6
CONTINUOUS
  0
ENDTAB
  0
TABLE
  2
STYLE
  5
3
330
0
100
AcDbSymbolTable
 70
     1
  0
STYLE
  5
11
330
3
100
AcDbSymbolTableRecord
100
AcDbTextStyleTableRecord
  2
STANDARD
 70
     0
 40
0.0
 41
1.0
 50
0.0
 71
     0
 42
2.5
  3
txt
  4

  0
ENDTAB
  0
TABLE
  2
VIEW
  5
6
330
0
100
AcDbSymbolTable
 70
     0
  0
ENDTAB
  0
TABLE
  2
UCS
  5
7
330
0
100
AcDbSymbolTable
 70
     0
  0
ENDTAB
  0
TABLE
  2
APPID
  5
9
330
0
100
AcDbSymbolTable
 70
     2
  0
APPID
  5
12
330
9
100
AcDbSymbolTableRecord
100
AcDbRegAppTableRecord
  2
ACAD
 70
     0
  0
ENDTAB
  0
TABLE
  2
DIMSTYLE
  5
A
330
0
100
AcDbSymbolTable
 70
     1
  0
DIMSTYLE
105
27
330
A
100
AcDbSymbolTableRecord
100
AcDbDimStyleTableRecord
  2
ISO-25
 70
     0
  3

  4

  5

  6

  7

 40
1.0
 41
2.5
 42
0.625
 43
3.75
 44
1.25
 45
0.0
 46
0.0
 47
0.0
 48
0.0
140
2.5
141
2.5
142
0.0
143
0.03937007874016
144
1.0
145
0.0
146
1.0
147
0.625
 71
     0
 72
     0
 73
     0
 74
     0
 75
     0
 76
     0
 77
     1
 78
     8
170
     0
171
     3
172
     1
173
     0
174
     0
175
     0
176
     0
177
     0
178
     0
270
     2
271
     2
272
     2
273
     2
274
     3
340
11
275
     0
280
     0
281
     0
282
     0
283
     0
284
     8
285
     0
286
     0
287
     3
288
     0
  0
ENDTAB
  0
TABLE
  2
BLOCK_RECORD
  5
1
330
0
100
AcDbSymbolTable
 70
     1
  0
BLOCK_RECORD
  5
1F
330
1
100
AcDbSymbolTableRecord
100
AcDbBlockTableRecord
  2
*MODEL_SPACE
  0
BLOCK_RECORD
  5
1B
330
1
100
AcDbSymbolTableRecord
100
AcDbBlockTableRecord
  2
*PAPER_SPACE
  0
ENDTAB
  0
ENDSEC
  0
SECTION
  2
BLOCKS
  0
BLOCK
  5
20
330
1F
100
AcDbEntity
  8
0
100
AcDbBlockBegin
  2
*MODEL_SPACE
 70
     0
 10
0.0
 20
0.0
 30
0.0
  3
*MODEL_SPACE
  1

  0
ENDBLK
  5
21
330
1F
100
AcDbEntity
  8
0
100
AcDbBlockEnd
  0
BLOCK
  5
1C
330
1B
100
AcDbEntity
 67
     1
  8
0
100
AcDbBlockBegin
  2
*PAPER_SPACE
  1

  0
ENDBLK
  5
1D
330
1B
100
AcDbEntity
 67
     1
  8
0
100
AcDbBlockEnd
  0
ENDSEC
  0
SECTION
  2
ENTITIES
  0
LWPOLYLINE
  5
100
100
AcDbEntity
  8
0
 62
7
100
AcDbPolyline
 90
45
 70
1
 10
-38.658897
 20
251.750560
 30
0.0
 10
-38.658897
 20
215.194964
 30
0.0
 10
-34.800947
 20
215.194964
 30
0.0
 10
-34.772599
 20
215.194964
 30
0.0
 10
-31.464568
 20
215.194964
 30
0.0
 10
-31.464568
 20
215.192131
 30
0.0
 10
-34.772599
 20
215.192131
 30
0.0
 10
-34.800947
 20
215.192131
 30
0.0
 10
-38.658897
 20
215.192131
 30
0.0
 10
-34.800947
 20
211.334178
 30
0.0
 10
-34.772599
 20
211.305831
 30
0.0
 10
-34.630867
 20
211.164101
 30
0.0
 10
-33.122836
 20
209.656065
 30
0.0
 10
-31.464568
 20
207.997800
 30
0.0
 10
-31.464568
 20
202.558113
 30
0.0
 10
-31.464568
 20
202.538271
 30
0.0
 10
-31.464568
 20
118.683782
 30
0.0
 10
-31.464568
 20
114.591951
 30
0.0
 10
-38.661733
 20
107.396225
 30
0.0
 10
-38.664001
 20
107.393954
 30
0.0
 10
-38.664568
 20
107.393392
 30
0.0
 10
-38.517107
 20
107.245990
 30
0.0
 10
-38.664568
 20
107.245990
 30
0.0
 10
-38.664568
 20
103.745201
 30
0.0
 10
-38.664568
 20
100.346462
 30
0.0
 10
-111.225825
 20
100.346462
 30
0.0
 10
-112.731028
 20
100.346462
 30
0.0
 10
-136.576064
 20
100.346462
 30
0.0
 10
-191.004107
 20
100.346462
 30
0.0
 10
-226.116845
 20
100.346462
 30
0.0
 10
-226.116845
 20
209.656065
 30
0.0
 10
-226.116845
 20
209.800634
 30
0.0
 10
-226.116845
 20
211.022365
 30
0.0
 10
-226.116845
 20
211.164101
 30
0.0
 10
-226.116845
 20
251.750560
 30
0.0
 10
-191.004107
 20
251.750560
 30
0.0
 10
-187.800944
 20
251.750560
 30
0.0
 10
-182.485983
 20
251.750560
 30
0.0
 10
-179.282841
 20
251.750560
 30
0.0
 10
-136.576064
 20
251.750560
 30
0.0
 10
-118.734807
 20
251.750560
 30
0.0
 10
-112.731028
 20
251.750560
 30
0.0
 10
-111.225825
 20
251.750560
 30
0.0
 10
-103.529762
 20
251.750560
 30
0.0
 10
-43.290710
 20
251.750560
 30
0.0
  0
LWPOLYLINE
  5
101
100
AcDbEntity
  8
0
 62
7
100
AcDbPolyline
 90
125
 70
1
 10
-103.694178
 20
211.796226
 30
0.0
 10
-103.594479
 20
211.164101
 30
0.0
 10
-103.569446
 20
211.005356
 30
0.0
 10
-103.529762
 20
210.183312
 30
0.0
 10
-103.556946
 20
209.656065
 30
0.0
 10
-103.572280
 20
209.358429
 30
0.0
 10
-103.699844
 20
208.567564
 30
0.0
 10
-103.906768
 20
207.816380
 30
0.0
 10
-104.190239
 20
207.102052
 30
0.0
 10
-104.964094
 20
205.800951
 30
0.0
 10
-105.284298
 20
205.452286
 30
0.0
 10
-105.286893
 20
205.449453
 30
0.0
 10
-105.984568
 20
204.689769
 30
0.0
 10
-107.214810
 20
203.791188
 30
0.0
 10
-107.789094
 20
203.516227
 30
0.0
 10
-108.617956
 20
203.119373
 30
0.0
 10
-110.160000
 20
202.702682
 30
0.0
 10
-111.220159
 20
202.609298
 30
0.0
 10
-111.225825
 20
202.608801
 30
0.0
 10
-111.801267
 20
202.558113
 30
0.0
 10
-112.728195
 20
202.648388
 30
0.0
 10
-112.731028
 20
202.648664
 30
0.0
 10
-113.431179
 20
202.716853
 30
0.0
 10
-114.956224
 20
203.164729
 30
0.0
 10
-115.653607
 20
203.516227
 30
0.0
 10
-116.107085
 20
203.744783
 30
0.0
 10
-116.367870
 20
203.876224
 30
0.0
 10
-117.657639
 20
204.811657
 30
0.0
 10
-118.233070
 20
205.377193
 30
0.0
 10
-118.235903
 20
205.379978
 30
0.0
 10
-118.734807
 20
205.870296
 30
0.0
 10
-118.811344
 20
205.945514
 30
0.0
 10
-118.998869
 20
206.185721
 30
0.0
 10
-118.999009
 20
206.185899
 30
0.0
 10
-119.820475
 20
207.238116
 30
0.0
 10
-119.994440
 20
207.527296
 30
0.0
 10
-119.995186
 20
207.528524
 30
0.0
 10
-120.025409
 20
207.578773
 30
0.0
 10
-120.026047
 20
207.579828
 30
0.0
 10
-120.052637
 20
207.535488
 30
0.0
 10
-120.192237
 20
207.302661
 30
0.0
 10
-120.242832
 20
207.218274
 30
0.0
 10
-120.511608
 20
206.881569
 30
0.0
 10
-121.274650
 20
205.925671
 30
0.0
 10
-121.814656
 20
205.412601
 30
0.0
 10
-121.817640
 20
205.409768
 30
0.0
 10
-122.468029
 20
204.791814
 30
0.0
 10
-123.803149
 20
203.853548
 30
0.0
 10
-125.262990
 20
203.144887
 30
0.0
 10
-126.822054
 20
202.697010
 30
0.0
 10
-127.717796
 20
202.610525
 30
0.0
 10
-128.466142
 20
202.538271
 30
0.0
 10
-130.101732
 20
202.682839
 30
0.0
 10
-131.623933
 20
203.099530
 30
0.0
 10
-132.482045
 20
203.516227
 30
0.0
 10
-133.001571
 20
203.768507
 30
0.0
 10
-133.735752
 20
204.320440
 30
0.0
 10
-133.741418
 20
204.324701
 30
0.0
 10
-134.200627
 20
204.669927
 30
0.0
 10
-135.192760
 20
205.781108
 30
0.0
 10
-135.938273
 20
207.082210
 30
0.0
 10
-136.213234
 20
207.796537
 30
0.0
 10
-136.411658
 20
208.547722
 30
0.0
 10
-136.533546
 20
209.338586
 30
0.0
 10
-136.549907
 20
209.656065
 30
0.0
 10
-136.557216
 20
209.797801
 30
0.0
 10
-136.557357
 20
209.800634
 30
0.0
 10
-136.576064
 20
210.163469
 30
0.0
 10
-136.533546
 20
210.985514
 30
0.0
 10
-136.527599
 20
211.022365
 30
0.0
 10
-136.504739
 20
211.164101
 30
0.0
 10
-136.405981
 20
211.776383
 30
0.0
 10
-136.196225
 20
212.527563
 30
0.0
 10
-135.915597
 20
213.241896
 30
0.0
 10
-135.141732
 20
214.542997
 30
0.0
 10
-134.605467
 20
215.126932
 30
0.0
 10
-134.121258
 20
215.654179
 30
0.0
 10
-132.891027
 20
216.555593
 30
0.0
 10
-131.487880
 20
217.224569
 30
0.0
 10
-129.945826
 20
217.641266
 30
0.0
 10
-128.304570
 20
217.785829
 30
0.0
 10
-127.717796
 20
217.728686
 30
0.0
 10
-126.674646
 20
217.627090
 30
0.0
 10
-125.149612
 20
217.179218
 30
0.0
 10
-123.735122
 20
216.470557
 30
0.0
 10
-122.448186
 20
215.532286
 30
0.0
 10
-122.022996
 20
215.114405
 30
0.0
 10
-121.371029
 20
214.473651
 30
0.0
 10
-121.294492
 20
214.398428
 30
0.0
 10
-121.103616
 20
214.153934
 30
0.0
 10
-120.285350
 20
213.105832
 30
0.0
 10
-120.110413
 20
212.815035
 30
0.0
 10
-120.079778
 20
212.764120
 30
0.0
 10
-120.079140
 20
212.765196
 30
0.0
 10
-120.053199
 20
212.808460
 30
0.0
 10
-120.052453
 20
212.809693
 30
0.0
 10
-119.913589
 20
213.041282
 30
0.0
 10
-119.911458
 20
213.044850
 30
0.0
 10
-119.862993
 20
213.125674
 30
0.0
 10
-119.600057
 20
213.455788
 30
0.0
 10
-119.594899
 20
213.462266
 30
0.0
 10
-118.831187
 20
214.421109
 30
0.0
 10
-118.734807
 20
214.512449
 30
0.0
 10
-118.235903
 20
214.985278
 30
0.0
 10
-118.233070
 20
214.987960
 30
0.0
 10
-118.215044
 20
215.005045
 30
0.0
 10
-118.209064
 20
215.010711
 30
0.0
 10
-117.637797
 20
215.552128
 30
0.0
 10
-116.299844
 20
216.490399
 30
0.0
 10
-116.107085
 20
216.584151
 30
0.0
 10
-114.842836
 20
217.199061
 30
0.0
 10
-113.283783
 20
217.649771
 30
0.0
 10
-112.731028
 20
217.702183
 30
0.0
 10
-112.728195
 20
217.702453
 30
0.0
 10
-111.639683
 20
217.805672
 30
0.0
 10
-111.225825
 20
217.769096
 30
0.0
 10
-111.220159
 20
217.768593
 30
0.0
 10
-110.004094
 20
217.661108
 30
0.0
 10
-108.481892
 20
217.244412
 30
0.0
 10
-107.104254
 20
216.575435
 30
0.0
 10
-105.905198
 20
215.674021
 30
0.0
 10
-105.416728
 20
215.126932
 30
0.0
 10
-104.913077
 20
214.562839
 30
0.0
 10
-104.164730
 20
213.264571
 30
0.0
 10
-103.892602
 20
212.550238
 30
0.0
  0
LWPOLYLINE
  5
102
100
AcDbEntity
  8
0
 62
7
100
AcDbPolyline
 90
194
 70
1
 10
-118.233070
 20
214.990868
 30
0.0
 10
-118.734807
 20
214.515293
 30
0.0
 10
-118.821963
 20
214.432674
 30
0.0
 10
-118.831187
 20
214.423942
 30
0.0
 10
-119.596326
 20
213.463304
 30
0.0
 10
-119.601484
 20
213.456827
 30
0.0
 10
-119.862993
 20
213.128507
 30
0.0
 10
-119.869870
 20
213.117040
 30
0.0
 10
-119.912529
 20
213.045904
 30
0.0
 10
-119.914659
 20
213.042336
 30
0.0
 10
-120.053416
 20
212.810926
 30
0.0
 10
-120.054162
 20
212.809687
 30
0.0
 10
-120.079984
 20
212.766613
 30
0.0
 10
-120.109645
 20
212.816008
 30
0.0
 10
-120.110618
 20
212.817624
 30
0.0
 10
-120.277987
 20
213.096392
 30
0.0
 10
-120.285350
 20
213.108665
 30
0.0
 10
-121.100718
 20
214.155345
 30
0.0
 10
-121.106481
 20
214.162747
 30
0.0
 10
-121.275645
 20
214.379911
 30
0.0
 10
-121.294492
 20
214.404100
 30
0.0
 10
-121.371029
 20
214.479317
 30
0.0
 10
-122.022996
 20
215.120071
 30
0.0
 10
-122.425846
 20
215.515995
 30
0.0
 10
-122.448186
 20
215.537957
 30
0.0
 10
-123.737955
 20
216.476223
 30
0.0
 10
-123.753819
 20
216.484187
 30
0.0
 10
-125.122395
 20
217.171227
 30
0.0
 10
-125.149612
 20
217.184885
 30
0.0
 10
-126.635837
 20
217.623310
 30
0.0
 10
-126.677479
 20
217.635594
 30
0.0
 10
-127.717796
 20
217.735104
 30
0.0
 10
-128.248135
 20
217.785829
 30
0.0
 10
-128.307403
 20
217.791501
 30
0.0
 10
-128.373170
 20
217.785829
 30
0.0
 10
-129.896960
 20
217.654469
 30
0.0
 10
-129.951503
 20
217.649771
 30
0.0
 10
-131.456327
 20
217.239611
 30
0.0
 10
-131.490713
 20
217.230241
 30
0.0
 10
-132.858457
 20
216.579458
 30
0.0
 10
-132.896693
 20
216.561264
 30
0.0
 10
-134.126935
 20
215.659845
 30
0.0
 10
-134.154303
 20
215.629973
 30
0.0
 10
-134.615091
 20
215.126932
 30
0.0
 10
-135.126431
 20
214.568727
 30
0.0
 10
-135.147398
 20
214.545830
 30
0.0
 10
-135.901281
 20
213.278320
 30
0.0
 10
-135.921264
 20
213.244729
 30
0.0
 10
-136.204724
 20
212.530396
 30
0.0
 10
-136.227010
 20
212.449182
 30
0.0
 10
-136.397904
 20
211.826487
 30
0.0
 10
-136.411658
 20
211.776383
 30
0.0
 10
-136.510405
 20
211.164101
 30
0.0
 10
-136.530864
 20
211.037261
 30
0.0
 10
-136.533276
 20
211.022365
 30
0.0
 10
-136.539212
 20
210.985514
 30
0.0
 10
-136.576064
 20
210.317602
 30
0.0
 10
-136.584563
 20
210.163469
 30
0.0
 10
-136.576064
 20
209.998490
 30
0.0
 10
-136.565867
 20
209.800634
 30
0.0
 10
-136.565716
 20
209.797801
 30
0.0
 10
-136.558417
 20
209.656065
 30
0.0
 10
-136.542045
 20
209.338586
 30
0.0
 10
-136.529275
 20
209.255681
 30
0.0
 10
-136.432074
 20
208.625010
 30
0.0
 10
-136.420158
 20
208.547722
 30
0.0
 10
-136.218900
 20
207.793704
 30
0.0
 10
-136.197966
 20
207.738756
 30
0.0
 10
-135.946772
 20
207.079377
 30
0.0
 10
-135.917760
 20
207.028938
 30
0.0
 10
-135.213273
 20
205.804081
 30
0.0
 10
-135.198426
 20
205.778270
 30
0.0
 10
-134.206304
 20
204.667093
 30
0.0
 10
-134.181196
 20
204.648159
 30
0.0
 10
-133.741418
 20
204.316504
 30
0.0
 10
-133.007248
 20
203.762841
 30
0.0
 10
-132.969931
 20
203.744723
 30
0.0
 10
-132.499390
 20
203.516227
 30
0.0
 10
-131.629610
 20
203.093864
 30
0.0
 10
-131.589601
 20
203.082856
 30
0.0
 10
-130.151462
 20
202.687235
 30
0.0
 10
-130.104565
 20
202.674335
 30
0.0
 10
-128.537121
 20
202.538271
 30
0.0
 10
-128.471809
 20
202.532605
 30
0.0
 10
-128.411924
 20
202.538271
 30
0.0
 10
-127.717796
 20
202.603983
 30
0.0
 10
-126.864809
 20
202.684726
 30
0.0
 10
-126.824887
 20
202.688506
 30
0.0
 10
-125.262990
 20
203.139215
 30
0.0
 10
-125.234518
 20
203.153067
 30
0.0
 10
-123.805982
 20
203.847877
 30
0.0
 10
-123.786226
 20
203.861761
 30
0.0
 10
-122.470873
 20
204.786148
 30
0.0
 10
-122.455864
 20
204.800368
 30
0.0
 10
-121.812947
 20
205.409768
 30
0.0
 10
-121.293238
 20
205.902380
 30
0.0
 10
-121.274650
 20
205.920005
 30
0.0
 10
-120.509802
 20
206.880260
 30
0.0
 10
-120.504731
 20
206.886629
 30
0.0
 10
-120.242832
 20
207.215435
 30
0.0
 10
-120.236063
 20
207.226762
 30
0.0
 10
-120.195903
 20
207.293869
 30
0.0
 10
-120.191231
 20
207.301677
 30
0.0
 10
-120.052626
 20
207.533298
 30
0.0
 10
-120.051891
 20
207.534531
 30
0.0
 10
-120.026058
 20
207.577692
 30
0.0
 10
-119.995954
 20
207.527551
 30
0.0
 10
-119.995218
 20
207.526323
 30
0.0
 10
-119.827839
 20
207.247556
 30
0.0
 10
-119.820475
 20
207.235277
 30
0.0
 10
-119.001918
 20
206.184488
 30
0.0
 10
-119.001777
 20
206.184310
 30
0.0
 10
-118.830181
 20
205.964032
 30
0.0
 10
-118.811344
 20
205.939848
 30
0.0
 10
-118.734807
 20
205.864998
 30
0.0
 10
-118.233070
 20
205.374333
 30
0.0
 10
-117.657888
 20
204.811835
 30
0.0
 10
-117.654806
 20
204.808824
 30
0.0
 10
-116.367870
 20
203.870558
 30
0.0
 10
-116.342253
 20
203.857641
 30
0.0
 10
-116.107085
 20
203.739116
 30
0.0
 10
-115.664864
 20
203.516227
 30
0.0
 10
-114.983171
 20
203.172645
 30
0.0
 10
-114.956224
 20
203.159058
 30
0.0
 10
-113.469988
 20
202.720632
 30
0.0
 10
-113.428346
 20
202.708353
 30
0.0
 10
-112.731028
 20
202.641651
 30
0.0
 10
-112.728195
 20
202.641381
 30
0.0
 10
-111.857701
 20
202.558113
 30
0.0
 10
-111.798423
 20
202.552447
 30
0.0
 10
-111.733954
 20
202.558113
 30
0.0
 10
-111.225825
 20
202.602794
 30
0.0
 10
-111.220159
 20
202.603291
 30
0.0
 10
-110.193835
 20
202.693539
 30
0.0
 10
-110.154334
 20
202.697010
 30
0.0
 10
-108.652483
 20
203.102845
 30
0.0
 10
-108.612290
 20
203.113707
 30
0.0
 10
-107.771576
 20
203.516227
 30
0.0
 10
-107.248126
 20
203.766847
 30
0.0
 10
-107.209133
 20
203.785516
 30
0.0
 10
-105.978902
 20
204.686936
 30
0.0
 10
-105.959438
 20
204.708125
 30
0.0
 10
-105.278621
 20
205.449453
 30
0.0
 10
-104.979297
 20
205.775383
 30
0.0
 10
-104.958428
 20
205.798112
 30
0.0
 10
-104.204977
 20
207.064892
 30
0.0
 10
-104.184573
 20
207.099219
 30
0.0
 10
-103.901102
 20
207.813547
 30
0.0
 10
-103.885866
 20
207.869062
 30
0.0
 10
-103.707922
 20
208.517456
 30
0.0
 10
-103.694178
 20
208.567564
 30
0.0
 10
-103.574950
 20
209.306768
 30
0.0
 10
-103.566613
 20
209.358429
 30
0.0
 10
-103.550253
 20
209.656065
 30
0.0
 10
-103.529762
 20
210.028649
 30
0.0
 10
-103.521262
 20
210.183312
 30
0.0
 10
-103.529762
 20
210.348290
 30
0.0
 10
-103.563780
 20
211.008195
 30
0.0
 10
-103.572236
 20
211.063050
 30
0.0
 10
-103.587808
 20
211.164101
 30
0.0
 10
-103.672595
 20
211.714228
 30
0.0
 10
-103.685668
 20
211.799059
 30
0.0
 10
-103.886925
 20
212.550238
 30
0.0
 10
-103.905427
 20
212.598990
 30
0.0
 10
-104.159053
 20
213.267404
 30
0.0
 10
-104.178961
 20
213.301937
 30
0.0
 10
-104.892466
 20
214.539758
 30
0.0
 10
-104.907400
 20
214.565673
 30
0.0
 10
-105.405829
 20
215.126932
 30
0.0
 10
-105.896699
 20
215.679687
 30
0.0
 10
-105.937757
 20
215.710489
 30
0.0
 10
-107.098588
 20
216.581107
 30
0.0
 10
-107.135894
 20
216.599225
 30
0.0
 10
-108.476226
 20
217.250083
 30
0.0
 10
-108.516235
 20
217.261091
 30
0.0
 10
-109.954374
 20
217.656713
 30
0.0
 10
-110.001260
 20
217.669613
 30
0.0
 10
-111.220159
 20
217.777535
 30
0.0
 10
-111.225825
 20
217.778038
 30
0.0
 10
-111.537973
 20
217.805672
 30
0.0
 10
-111.634017
 20
217.814176
 30
0.0
 10
-111.722243
 20
217.805672
 30
0.0
 10
-112.728195
 20
217.708714
 30
0.0
 10
-112.731028
 20
217.708444
 30
0.0
 10
-113.255776
 20
217.657864
 30
0.0
 10
-113.280950
 20
217.655437
 30
0.0
 10
-114.840003
 20
217.204727
 30
0.0
 10
-114.864700
 20
217.192740
 30
0.0
 10
-116.107085
 20
216.589639
 30
0.0
 10
-116.299844
 20
216.496066
 30
0.0
 10
-116.326044
 20
216.477656
 30
0.0
 10
-117.634964
 20
215.557800
 30
0.0
 10
-117.649886
 20
215.543650
 30
0.0
 10
-118.212135
 20
215.010711
 30
0.0
  0
LWPOLYLINE
  5
103
100
AcDbEntity
  8
0
 62
7
100
AcDbPolyline
 90
9
 70
1
 10
-131.042836
 20
209.800634
 30
0.0
 10
-131.042836
 20
211.022365
 30
0.0
 10
-131.048503
 20
211.022365
 30
0.0
 10
-131.048503
 20
209.800634
 30
0.0
 10
-131.048503
 20
209.797801
 30
0.0
 10
-127.717796
 20
209.797801
 30
0.0
 10
-125.557793
 20
209.797801
 30
0.0
 10
-125.557793
 20
209.800634
 30
0.0
 10
-127.717796
 20
209.800634
 30
0.0
  0
LWPOLYLINE
  5
104
100
AcDbEntity
  8
0
 62
7
100
AcDbPolyline
 90
38
 70
1
 10
-39.860789
 20
118.765988
 30
0.0
 10
-39.030237
 20
118.683782
 30
0.0
 10
-38.199685
 20
118.765988
 30
0.0
 10
-37.400316
 20
119.009766
 30
0.0
 10
-36.666143
 20
119.403784
 30
0.0
 10
-36.019842
 20
119.931028
 30
0.0
 10
-35.489765
 20
120.577326
 30
0.0
 10
-35.095747
 20
121.314335
 30
0.0
 10
-34.854802
 20
122.113704
 30
0.0
 10
-34.842178
 20
122.241263
 30
0.0
 10
-34.832127
 20
122.342822
 30
0.0
 10
-34.772599
 20
122.944255
 30
0.0
 10
-34.832127
 20
123.545689
 30
0.0
 10
-34.854802
 20
123.774807
 30
0.0
 10
-35.095747
 20
124.574176
 30
0.0
 10
-35.489765
 20
125.311185
 30
0.0
 10
-36.019842
 20
125.954650
 30
0.0
 10
-36.666143
 20
126.484727
 30
0.0
 10
-37.400316
 20
126.878742
 30
0.0
 10
-38.199685
 20
127.122523
 30
0.0
 10
-39.030237
 20
127.201893
 30
0.0
 10
-39.860789
 20
127.122523
 30
0.0
 10
-40.637482
 20
126.885660
 30
0.0
 10
-40.660158
 20
126.878742
 30
0.0
 10
-41.397166
 20
126.484727
 30
0.0
 10
-42.043464
 20
125.954650
 30
0.0
 10
-42.573544
 20
125.311185
 30
0.0
 10
-42.964724
 20
124.574176
 30
0.0
 10
-43.208505
 20
123.774807
 30
0.0
 10
-43.290710
 20
122.944255
 30
0.0
 10
-43.221129
 20
122.241263
 30
0.0
 10
-43.208505
 20
122.113704
 30
0.0
 10
-42.964724
 20
121.314335
 30
0.0
 10
-42.573544
 20
120.577326
 30
0.0
 10
-42.043464
 20
119.931028
 30
0.0
 10
-41.397166
 20
119.403784
 30
0.0
 10
-40.660158
 20
119.009766
 30
0.0
 10
-40.637482
 20
119.002851
 30
0.0
  0
LWPOLYLINE
  5
105
100
AcDbEntity
  8
0
 62
7
100
AcDbPolyline
 90
43
 70
1
 10
-43.236852
 20
200.264887
 30
0.0
 10
-42.993071
 20
199.465516
 30
0.0
 10
-42.601891
 20
198.728507
 30
0.0
 10
-42.071812
 20
198.082209
 30
0.0
 10
-41.425513
 20
197.554965
 30
0.0
 10
-40.688505
 20
197.160950
 30
0.0
 10
-40.637482
 20
197.145389
 30
0.0
 10
-39.889133
 20
196.917169
 30
0.0
 10
-39.058584
 20
196.834966
 30
0.0
 10
-38.228032
 20
196.917169
 30
0.0
 10
-37.428663
 20
197.160950
 30
0.0
 10
-36.694488
 20
197.554965
 30
0.0
 10
-36.048189
 20
198.082209
 30
0.0
 10
-35.518110
 20
198.728507
 30
0.0
 10
-35.124094
 20
199.465516
 30
0.0
 10
-34.883149
 20
200.264887
 30
0.0
 10
-34.832127
 20
200.780401
 30
0.0
 10
-34.800947
 20
201.095437
 30
0.0
 10
-34.832127
 20
201.410474
 30
0.0
 10
-34.883149
 20
201.925988
 30
0.0
 10
-35.067703
 20
202.538271
 30
0.0
 10
-35.073685
 20
202.558113
 30
0.0
 10
-35.124094
 20
202.725357
 30
0.0
 10
-35.518110
 20
203.462366
 30
0.0
 10
-35.562480
 20
203.516227
 30
0.0
 10
-36.048189
 20
204.105828
 30
0.0
 10
-36.694488
 20
204.635908
 30
0.0
 10
-37.428663
 20
205.029923
 30
0.0
 10
-38.228032
 20
205.273704
 30
0.0
 10
-39.058584
 20
205.353074
 30
0.0
 10
-39.889133
 20
205.273704
 30
0.0
 10
-40.688505
 20
205.029923
 30
0.0
 10
-41.425513
 20
204.635908
 30
0.0
 10
-42.071812
 20
204.105828
 30
0.0
 10
-42.557521
 20
203.516227
 30
0.0
 10
-42.601891
 20
203.462366
 30
0.0
 10
-42.993071
 20
202.725357
 30
0.0
 10
-43.044075
 20
202.558113
 30
0.0
 10
-43.050127
 20
202.538271
 30
0.0
 10
-43.236852
 20
201.925988
 30
0.0
 10
-43.290710
 20
201.381835
 30
0.0
 10
-43.319054
 20
201.095437
 30
0.0
 10
-43.290710
 20
200.809040
 30
0.0
  0
LWPOLYLINE
  5
106
100
AcDbEntity
  8
0
 62
7
100
AcDbPolyline
 90
38
 70
1
 10
-185.170389
 20
240.729451
 30
0.0
 10
-184.371025
 20
240.485676
 30
0.0
 10
-183.540476
 20
240.403467
 30
0.0
 10
-182.709927
 20
240.485676
 30
0.0
 10
-182.485983
 20
240.553967
 30
0.0
 10
-181.910564
 20
240.729451
 30
0.0
 10
-181.173550
 20
241.123467
 30
0.0
 10
-180.530082
 20
241.650713
 30
0.0
 10
-180.000002
 20
242.297014
 30
0.0
 10
-179.605987
 20
243.034023
 30
0.0
 10
-179.365044
 20
243.833392
 30
0.0
 10
-179.333340
 20
244.153704
 30
0.0
 10
-179.282841
 20
244.663941
 30
0.0
 10
-179.365044
 20
245.494495
 30
0.0
 10
-179.605987
 20
246.293864
 30
0.0
 10
-180.000002
 20
247.030873
 30
0.0
 10
-180.530082
 20
247.674335
 30
0.0
 10
-181.173550
 20
248.204409
 30
0.0
 10
-181.910564
 20
248.598425
 30
0.0
 10
-182.485983
 20
248.773914
 30
0.0
 10
-182.709927
 20
248.842211
 30
0.0
 10
-183.540476
 20
248.921581
 30
0.0
 10
-184.371025
 20
248.842211
 30
0.0
 10
-185.170389
 20
248.598425
 30
0.0
 10
-185.771350
 20
248.277150
 30
0.0
 10
-185.907403
 20
248.204409
 30
0.0
 10
-186.553693
 20
247.674335
 30
0.0
 10
-187.080950
 20
247.030873
 30
0.0
 10
-187.474966
 20
246.293864
 30
0.0
 10
-187.718741
 20
245.494495
 30
0.0
 10
-187.800944
 20
244.663941
 30
0.0
 10
-187.750446
 20
244.153704
 30
0.0
 10
-187.718741
 20
243.833392
 30
0.0
 10
-187.474966
 20
243.034023
 30
0.0
 10
-187.080950
 20
242.297014
 30
0.0
 10
-186.553693
 20
241.650713
 30
0.0
 10
-185.907403
 20
241.123467
 30
0.0
 10
-185.771350
 20
241.050725
 30
0.0
  0
LWPOLYLINE
  5
107
100
AcDbEntity
  8
0
 62
7
100
AcDbPolyline
 90
5
 70
1
 10
-116.535120
 20
212.884726
 30
0.0
 10
-116.160806
 20
213.219080
 30
0.0
 10
-116.526318
 20
212.895042
 30
0.0
 10
-116.537953
 20
212.884726
 30
0.0
 10
-117.226772
 20
212.074020
 30
0.0
  0
LWPOLYLINE
  5
108
100
AcDbEntity
  8
0
 62
7
100
AcDbPolyline
 90
19
 70
1
 10
-117.796536
 20
211.181105
 30
0.0
 10
-117.226772
 20
212.074020
 30
0.0
 10
-117.799369
 20
211.181105
 30
0.0
 10
-117.806603
 20
211.165339
 30
0.0
 10
-117.807166
 20
211.164101
 30
0.0
 10
-117.872132
 20
211.022365
 30
0.0
 10
-118.233070
 20
210.234848
 30
0.0
 10
-118.235903
 20
210.228668
 30
0.0
 10
-118.233070
 20
210.222856
 30
0.0
 10
-118.026990
 20
209.800634
 30
0.0
 10
-118.025605
 20
209.797801
 30
0.0
 10
-117.956422
 20
209.656065
 30
0.0
 10
-117.771028
 20
209.276226
 30
0.0
 10
-117.955297
 20
209.656065
 30
0.0
 10
-118.024048
 20
209.797801
 30
0.0
 10
-118.025422
 20
209.800634
 30
0.0
 10
-118.233070
 20
210.228668
 30
0.0
 10
-117.869288
 20
211.022365
 30
0.0
 10
-117.804333
 20
211.164101
 30
0.0
  0
LWPOLYLINE
  5
109
100
AcDbEntity
  8
0
 62
7
100
AcDbPolyline
 90
35
 70
1
 10
-190.921883
 20
108.836223
 30
0.0
 10
-191.004107
 20
108.005674
 30
0.0
 10
-190.921883
 20
107.175119
 30
0.0
 10
-190.678108
 20
106.375751
 30
0.0
 10
-190.286925
 20
105.638742
 30
0.0
 10
-189.756856
 20
104.992446
 30
0.0
 10
-189.110545
 20
104.465200
 30
0.0
 10
-188.373552
 20
104.071184
 30
0.0
 10
-187.574167
 20
103.827404
 30
0.0
 10
-186.743618
 20
103.745201
 30
0.0
 10
-185.913069
 20
103.827404
 30
0.0
 10
-185.771350
 20
103.870630
 30
0.0
 10
-185.113705
 20
104.071184
 30
0.0
 10
-184.379525
 20
104.465200
 30
0.0
 10
-183.733234
 20
104.992446
 30
0.0
 10
-183.203144
 20
105.638742
 30
0.0
 10
-182.809128
 20
106.375751
 30
0.0
 10
-182.568186
 20
107.175119
 30
0.0
 10
-182.485983
 20
108.005674
 30
0.0
 10
-182.568186
 20
108.836223
 30
0.0
 10
-182.809128
 20
109.635592
 30
0.0
 10
-183.203144
 20
110.372601
 30
0.0
 10
-183.415647
 20
110.630552
 30
0.0
 10
-183.733234
 20
111.016068
 30
0.0
 10
-184.379525
 20
111.546143
 30
0.0
 10
-185.113705
 20
111.940161
 30
0.0
 10
-185.913069
 20
112.183939
 30
0.0
 10
-186.743618
 20
112.263311
 30
0.0
 10
-187.574167
 20
112.183939
 30
0.0
 10
-188.373552
 20
111.940161
 30
0.0
 10
-189.110545
 20
111.546143
 30
0.0
 10
-189.756856
 20
111.016068
 30
0.0
 10
-190.074444
 20
110.630552
 30
0.0
 10
-190.286925
 20
110.372601
 30
0.0
 10
-190.678108
 20
109.635592
 30
0.0
  0
LWPOLYLINE
  5
10a
100
AcDbEntity
  8
0
 62
7
100
AcDbPolyline
 90
14
 70
1
 10
-122.453863
 20
209.236541
 30
0.0
 10
-123.012285
 20
208.343626
 30
0.0
 10
-123.691664
 20
207.534028
 30
0.0
 10
-123.689760
 20
207.535752
 30
0.0
 10
-123.012285
 20
208.343626
 30
0.0
 10
-122.451030
 20
209.236541
 30
0.0
 10
-122.443785
 20
209.252647
 30
0.0
 10
-122.262489
 20
209.656065
 30
0.0
 10
-122.198788
 20
209.797801
 30
0.0
 10
-122.197523
 20
209.800634
 30
0.0
 10
-122.022996
 20
210.188983
 30
0.0
 10
-122.198669
 20
209.800634
 30
0.0
 10
-122.199956
 20
209.797801
 30
0.0
 10
-122.264068
 20
209.656065
 30
0.0
  0
LWPOLYLINE
  5
10b
100
AcDbEntity
  8
0
 62
7
100
AcDbPolyline
 90
9
 70
1
 10
-122.479372
 20
211.141420
 30
0.0
 10
-122.422321
 20
211.022365
 30
0.0
 10
-122.022996
 20
210.188983
 30
0.0
 10
-122.419845
 20
211.022365
 30
0.0
 10
-122.467683
 20
211.122821
 30
0.0
 10
-122.476539
 20
211.141420
 30
0.0
 10
-122.490867
 20
211.164101
 30
0.0
 10
-123.040626
 20
212.034335
 30
0.0
 10
-122.493624
 20
211.164101
 30
0.0
  0
LWPOLYLINE
  5
10c
100
AcDbEntity
  8
0
 62
7
100
AcDbPolyline
 90
7
 70
1
 10
-111.225825
 20
208.241581
 30
0.0
 10
-112.728195
 20
208.241581
 30
0.0
 10
-112.728195
 20
208.238742
 30
0.0
 10
-111.225825
 20
208.238742
 30
0.0
 10
-111.220159
 20
208.238742
 30
0.0
 10
-111.220159
 20
209.656065
 30
0.0
 10
-111.225825
 20
209.656065
 30
0.0
  0
LWPOLYLINE
  5
10d
100
AcDbEntity
  8
0
 62
7
100
AcDbPolyline
 90
4
 70
1
 10
-111.220159
 20
212.578585
 30
0.0
 10
-111.225825
 20
212.578585
 30
0.0
 10
-111.225825
 20
211.164101
 30
0.0
 10
-111.220159
 20
211.164101
 30
0.0
  0
LWPOLYLINE
  5
10e
100
AcDbEntity
  8
0
 62
7
100
AcDbPolyline
 90
5
 70
1
 10
-109.734810
 20
211.164101
 30
0.0
 10
-109.734810
 20
209.656065
 30
0.0
 10
-109.729133
 20
209.656065
 30
0.0
 10
-109.729133
 20
211.164101
 30
0.0
 10
-109.734810
 20
211.164101
 30
0.0
  0
ENDSEC
  0
SECTION
  2
OBJECTS
  0
DICTIONARY
  5
C
330
0
100
AcDbDictionary
  3
ACAD_GROUP
350
D
  3
ACAD_MLINESTYLE
350
17
  0
DICTIONARY
  5
D
330
C
100
AcDbDictionary
  0
DICTIONARY
  5
1A
330
C
100
AcDbDictionary
  0
DICTIONARY
  5
17
330
C
100
AcDbDictionary
  3
STANDARD
350
18
  0
DICTIONARY
  5
19
330
C
100
AcDbDictionary
  0
ENDSEC
  0
EOF
