<?xml version="1.0" encoding="UTF-8"?>
<!DOCTYPE svg PUBLIC "-//W3C//DTD SVG 1.1//EN" "http://www.w3.org/Graphics/SVG/1.1/DTD/svg11.dtd">
<!-- Creator: CorelDRAW X5 -->
<svg xmlns="http://www.w3.org/2000/svg" xml:space="preserve" width="19.685in" height="8.66142in" style="shape-rendering:geometricPrecision; text-rendering:geometricPrecision; image-rendering:optimizeQuality; fill-rule:evenodd; clip-rule:evenodd"
viewBox="0 0 19.685 8.66142"
 xmlns:xlink="http://www.w3.org/1999/xlink">
 <defs>
  <style type="text/css">
   <![CDATA[
    .str0 {stroke:black;stroke-width:0.003}
    .str3 {stroke:black;stroke-width:0.003;stroke-linejoin:bevel}
    .str2 {stroke:black;stroke-width:0.00694488}
    .str1 {stroke:black;stroke-width:0.0277795;stroke-linecap:round;stroke-linejoin:round}
    .fil0 {fill:none}
    .fil1 {fill:#FEFEFE}
   ]]>
  </style>
 </defs>
 <g id="Layer_x0020_1">
  <metadata id="CorelCorpID_0Corel-Layer"/>
  <g id="_259760392">
   <rect id="_259761160" class="fil0 str0" transform="matrix(-7.9518E-014 1.30952 -1 -1.04131E-013 12.6622 2.29033)" width="1.65354" height="0.866142"/>
   <path id="_259761064" class="fil1 str0" d="M12.5047 2.42813c0,0.0433701 -0.035374,0.0787402 -0.0787441,0.0787402 -0.0433622,0 -0.0787362,-0.0353701 -0.0787362,-0.0787402 0,-0.0433701 0.035374,-0.0787402 0.0787362,-0.0787402 0.0433701,0 0.0787441,0.0353701 0.0787441,0.0787402z"/>
   <path id="_259760968" class="fil1 str0" d="M12.5047 4.31789c0,0.0433701 -0.035374,0.0787402 -0.0787441,0.0787402 -0.0433622,0 -0.0787362,-0.0353701 -0.0787362,-0.0787402 0,-0.0433701 0.035374,-0.0787402 0.0787362,-0.0787402 0.0433701,0 0.0787441,0.0353701 0.0787441,0.0787402z"/>
   <path id="_259760872" class="fil1 str0" d="M12.111 4.31789c0,0.0433701 -0.035374,0.0787402 -0.0787441,0.0787402 -0.0433622,0 -0.0787362,-0.0353701 -0.0787362,-0.0787402 0,-0.0433701 0.035374,-0.0787402 0.0787362,-0.0787402 0.0433701,0 0.0787441,0.0353701 0.0787441,0.0787402z"/>
   <path id="_259760776" class="fil1 str0" d="M12.111 2.42813c0,0.0433701 -0.035374,0.0787402 -0.0787402,0.0787402 -0.0433661,0 -0.0787402,-0.0353701 -0.0787402,-0.0787402 0,-0.0433701 0.035374,-0.0787402 0.0787402,-0.0787402 0.0433661,0 0.0787402,0.0353701 0.0787402,0.0787402z"/>
   <g>
    <polygon id="_259760680" class="fil0 str1" points="11.9634,2.91041 12.4949,2.91041 12.4949,3.83561 11.9634,3.83561 "/>
    <circle id="_259760560" class="fil0 str1" cx="12.2291" cy="2.79722" r="0.0590551"/>
    <circle id="_259760536" class="fil0 str1" cx="12.2291" cy="3.9488" r="0.0590551"/>
   </g>
  </g>
  <g id="_259645096">
   <path id="_259760224" class="fil0 str0" d="M5.80076 4.88261l0.11811 0 0 -0.393701 -0.11811 0 0 -0.133858 -0.11811 0 0 0.0629921 -0.11811 0 0 -0.0629921 -0.0787402 0 0 -0.125984 0.0787402 0 0 -0.0629921 0.11811 0 0 0.0629921 0.11811 0 0 -0.133858 0.11811 0 0 -0.393701 -0.11811 0m-1.5748e-005 -1.652l0 -0.19222m-1.5748e-005 3.02345l0 0.116244m-2.16533 -2.94902l0 -0.195303 2.16535 0m-2.16536 3.02902l0 0.11811 2.16535 0m-2.16535 -0.117177l-0.11811 0 0 -0.393701 0.11811 0 0 -0.133858 0.11811 0 0 0.0629921 0.11811 0 0 -0.0629921 0.0787402 0 0 -0.125984 -0.0787402 0 0 -0.0629921 -0.11811 0 0 0.0629921 -0.11811 0 0 -0.133858 -0.11811 0 0 -0.393701 0.11811 0m1.5748e-005 -0.472441l-0.11811 0 0 -0.393701 0.11811 0 0 -0.133858 0.11811 0 0 0.0629921 0.11811 0 0 -0.0629921 0.0787402 0 0 -0.125984 -0.0787402 0 0 -0.0629921 -0.11811 0 0 0.0629921 -0.11811 0 0 -0.133858 -0.11811 0 0 -0.393701 0.11811 0m2.16535 1.1811l0.11811 0 0 -0.393701 -0.11811 0 0 -0.133858 -0.11811 0 0 0.0629921 -0.11811 0 0 -0.0629921 -0.0787402 0 0 -0.125984 0.0787402 0 0 -0.0629921 0.11811 0 0 0.0629921 0.11811 0 0 -0.133858 0.11811 0 0 -0.393701 -0.11811 0m0 1.1811l0 0.472441m-2.16535 -0.472441l0 0.472441"/>
   <circle id="_259760128" class="fil0 str2" cx="5.61964" cy="3.6267" r="0.0551181"/>
   <circle id="_259645336" class="fil0 str2" cx="4.91492" cy="3.6267" r="0.0551181"/>
   <circle id="_259645240" class="fil0 str2" cx="5.26728" cy="3.28025" r="0.167323"/>
   <circle id="_259645072" class="fil0 str2" cx="5.26728" cy="2.85505" r="0.11811"/>
  </g>
  <g id="_259644496">
   <path id="_259644928" class="fil0 str0" d="M0.857425 4.88656l-0.11811 0 0 -0.393701 0.11811 0 0 -0.133858 0.11811 0 0 0.0629921 0.11811 0 0 -0.0629921 0.0787402 0 0 -0.125984 -0.0787402 0 0 -0.0629921 -0.11811 0 0 0.0629921 -0.11811 0 0 -0.133858 -0.11811 0 0 -0.393701 0.11811 0m1.5748e-005 -1.652l0 -0.19222m1.5748e-005 3.02345l0 0.116244m2.16533 -2.94902l0 -0.195303 -2.16535 0m2.16536 3.02902l0 0.11811 -2.16535 0m2.16535 -0.117177l0.11811 0 0 -0.393701 -0.11811 0 0 -0.133858 -0.11811 0 0 0.0629921 -0.11811 0 0 -0.0629921 -0.0787402 0 0 -0.125984 0.0787402 0 0 -0.0629921 0.11811 0 0 0.0629921 0.11811 0 0 -0.133858 0.11811 0 0 -0.393701 -0.11811 0m-1.5748e-005 -0.472441l0.11811 0 0 -0.393701 -0.11811 0 0 -0.133858 -0.11811 0 0 0.0629921 -0.11811 0 0 -0.0629921 -0.0787402 0 0 -0.125984 0.0787402 0 0 -0.0629921 0.11811 0 0 0.0629921 0.11811 0 0 -0.133858 0.11811 0 0 -0.393701 -0.11811 0m-2.16535 1.1811l-0.11811 0 0 -0.393701 0.11811 0 0 -0.133858 0.11811 0 0 0.0629921 0.11811 0 0 -0.0629921 0.0787402 0 0 -0.125984 -0.0787402 0 0 -0.0629921 -0.11811 0 0 0.0629921 -0.11811 0 0 -0.133858 -0.11811 0 0 -0.393701 0.11811 0m0 1.1811l0 0.472441m2.16535 -0.472441l0 0.472441"/>
   <circle id="_259644832" class="fil0 str2" cx="1.03854" cy="3.63065" r="0.0551181"/>
   <circle id="_259644736" class="fil0 str2" cx="1.74327" cy="3.63065" r="0.0551181"/>
   <circle id="_259644640" class="fil0 str2" cx="1.39091" cy="3.28419" r="0.167323"/>
   <circle id="_259644544" class="fil0 str2" cx="1.39091" cy="2.859" r="0.11811"/>
  </g>
  <g id="_259639672">
   <circle id="_259644400" class="fil0 str2" cx="15.9521" cy="3.52434" r="3.05118"/>
   <g>
    <rect id="_259644280" class="fil0 str0" transform="matrix(2.82502E-014 -1.02 1.06667 2.70142E-014 13.7435 4.88655)" width="0.393701" height="0.11811"/>
    <rect id="_259644160" class="fil0 str0" transform="matrix(2.82502E-014 -1.02 1.06667 2.70142E-014 13.7435 4.09915)" width="0.393701" height="0.11811"/>
    <circle id="_259644064" class="fil0 str0" transform="matrix(4.30711E-014 -1.62627 1.62627 4.30711E-014 13.8065 4.29206)" r="0.0375236"/>
   </g>
   <g>
    <rect id="_259643896" class="fil0 str0" transform="matrix(2.82502E-014 -1.02 1.06667 2.70142E-014 13.7435 3.233)" width="0.393701" height="0.11811"/>
    <rect id="_259643776" class="fil0 str0" transform="matrix(2.82502E-014 -1.02 1.06667 2.70142E-014 13.7435 2.4456)" width="0.393701" height="0.11811"/>
    <circle id="_259643680" class="fil0 str0" transform="matrix(4.30711E-014 -1.62627 1.62627 4.30711E-014 13.8065 2.63852)" r="0.0375236"/>
   </g>
   <g>
    <rect id="_259643512" class="fil0 str0" transform="matrix(2.82502E-014 -1.02 1.06667 2.70142E-014 18.0348 3.233)" width="0.393701" height="0.11811"/>
    <rect id="_259643392" class="fil0 str0" transform="matrix(2.82502E-014 -1.02 1.06667 2.70142E-014 18.0348 2.4456)" width="0.393701" height="0.11811"/>
    <circle id="_259643296" class="fil0 str0" transform="matrix(4.30711E-014 -1.62627 1.62627 4.30711E-014 18.0978 2.63852)" r="0.0375236"/>
   </g>
   <g>
    <rect id="_259643128" class="fil0 str0" transform="matrix(2.82502E-014 -1.02 1.06667 2.70142E-014 18.0348 4.88655)" width="0.393701" height="0.11811"/>
    <rect id="_259643008" class="fil0 str0" transform="matrix(2.82502E-014 -1.02 1.06667 2.70142E-014 18.0348 4.09915)" width="0.393701" height="0.11811"/>
    <circle id="_259642912" class="fil0 str0" transform="matrix(4.30711E-014 -1.62627 1.62627 4.30711E-014 18.0978 4.29206)" r="0.0375236"/>
   </g>
   <rect id="_259642744" class="fil0 str2" x="15.3616" y="0.653476" width="1.1811" height="0.125984" rx="0.0629921" ry="0.0629921"/>
   <rect id="_259642624" class="fil0 str2" transform="matrix(1.41326 -0.814755 0.267965 0.464806 14.0066 1.33215)" width="0.724028" height="0.234819" rx="0.0629921" ry="0.0629921"/>
   <rect id="_259642504" class="fil0 str2" transform="matrix(0.817432 -1.41171 0.464298 0.268845 13.1718 2.59684)" width="0.724028" height="0.234819" rx="0.0629921" ry="0.0629921"/>
   <rect id="_259642384" class="fil0 str2" transform="matrix(0.00309217 -1.63129 0.536516 0.00101698 13.0801 4.10946)" width="0.724028" height="0.234819" rx="0.0629921" ry="0.0629921"/>
   <rect id="_259642264" class="fil0 str2" transform="matrix(-0.812074 -1.4148 0.465314 -0.267083 13.7563 5.46567)" width="0.724028" height="0.234819" rx="0.0629921" ry="0.0629921"/>
   <rect id="_259642144" class="fil0 str2" transform="matrix(-1.41016 -0.820106 0.269725 -0.463787 15.0194 6.30293)" width="0.724028" height="0.234819" rx="0.0629921" ry="0.0629921"/>
   <rect id="_259642024" class="fil0 str2" transform="matrix(-1.63128 -0.00618433 0.00203396 -0.536513 16.5318 6.39743)" width="0.724028" height="0.234819" rx="0.0629921" ry="0.0629921"/>
   <rect id="_259641904" class="fil0 str2" transform="matrix(-1.41634 0.809391 -0.266201 -0.465819 17.8893 5.72389)" width="0.724028" height="0.234819" rx="0.0629921" ry="0.0629921"/>
   <rect id="_259641784" class="fil0 str2" transform="matrix(-0.822778 1.4086 -0.463275 -0.270604 18.7289 4.46238)" width="0.724028" height="0.234819" rx="0.0629921" ry="0.0629921"/>
   <rect id="_259641664" class="fil0 str2" transform="matrix(-0.00927647 1.63127 -0.536508 -0.00305094 18.8263 2.95012)" width="0.724028" height="0.234819" rx="0.0629921" ry="0.0629921"/>
   <rect id="_259641544" class="fil0 str2" transform="matrix(0.806705 1.41787 -0.466323 0.265317 18.1553 1.59135)" width="0.724028" height="0.234819" rx="0.0629921" ry="0.0629921"/>
   <rect id="_259641424" class="fil0 str2" transform="matrix(1.40704 0.825447 -0.271481 0.462761 16.8954 0.749308)" width="0.724028" height="0.234819" rx="0.0629921" ry="0.0629921"/>
   <rect id="_259641304" class="fil0 str0" transform="matrix(-7.9518E-014 1 -1 -7.9518E-014 16.3852 4.19363)" width="1.65354" height="0.866142"/>
   <path id="_259641208" class="fil1 str0" d="M16.2277 4.07552c0,0.0433701 -0.035374,0.0787402 -0.0787441,0.0787402 -0.0433622,0 -0.0787362,-0.0353701 -0.0787362,-0.0787402 0,-0.0433701 0.035374,-0.0787402 0.0787362,-0.0787402 0.0433701,0 0.0787441,0.0353701 0.0787441,0.0787402z"/>
   <path id="_259641112" class="fil1 str0" d="M16.2277 5.96529c0,0.0433701 -0.035374,0.0787402 -0.0787441,0.0787402 -0.0433622,0 -0.0787362,-0.0353701 -0.0787362,-0.0787402 0,-0.0433701 0.035374,-0.0787402 0.0787362,-0.0787402 0.0433701,0 0.0787441,0.0353701 0.0787441,0.0787402z"/>
   <path id="_259641016" class="fil1 str0" d="M15.834 5.96529c0,0.0433701 -0.035374,0.0787402 -0.0787441,0.0787402 -0.0433622,0 -0.0787362,-0.0353701 -0.0787362,-0.0787402 0,-0.0433701 0.035374,-0.0787402 0.0787362,-0.0787402 0.0433701,0 0.0787441,0.0353701 0.0787441,0.0787402z"/>
   <path id="_259640920" class="fil1 str0" d="M15.834 4.07552c0,0.0433701 -0.035374,0.0787402 -0.0787402,0.0787402 -0.0433661,0 -0.0787402,-0.0353701 -0.0787402,-0.0787402 0,-0.0433701 0.035374,-0.0787402 0.0787402,-0.0787402 0.0433661,0 0.0787402,0.0353701 0.0787402,0.0787402z"/>
   <rect id="_259640800" class="fil0 str2" x="15.082" y="3.91804" width="0.23622" height="1.9685" rx="0.11811" ry="0.11811"/>
   <rect id="_259640680" class="fil0 str2" x="16.5781" y="3.91804" width="0.23622" height="1.9685" rx="0.11811" ry="0.11811"/>
   <g>
    <path id="_259640608" class="fil0 str3" d="M16.8866 3.55702c0,-0.0347913 0.0282008,-0.0629921 0.0629882,-0.0629921 0.0347913,-3.93701e-006 0.0629921,0.0282008 0.0629921,0.0629882 3.93701e-006,0.0347913 -0.0282008,0.0629921 -0.0629882,0.0629921 -0.0347913,3.93701e-006 -0.0629921,-0.0282008 -0.0629921,-0.0629882z"/>
    <path id="_259640536" class="fil0 str3" d="M17.246 3.55702c0,-0.0347913 0.0282008,-0.0629921 0.0629882,-0.0629921 0.0347913,-3.93701e-006 0.0629921,0.0282008 0.0629921,0.0629882 3.93701e-006,0.0347913 -0.0282008,0.0629921 -0.0629882,0.0629921 -0.0347913,3.93701e-006 -0.0629921,-0.0282008 -0.0629921,-0.0629882z"/>
    <path id="_259640464" class="fil0 str3" d="M14.8366 3.35702c0,-0.0347913 0.0282047,-0.0629921 0.0629921,-0.0629921 0.0347913,-3.93701e-006 0.0629921,0.0282008 0.0629921,0.0629882 3.93701e-006,0.0347913 -0.0282008,0.0629921 -0.0629882,0.0629921 -0.0347913,3.93701e-006 -0.0629921,-0.0282008 -0.0629921,-0.0629882z"/>
    <path id="_259640392" class="fil0 str3" d="M14.8366 2.25702c0,-0.0347913 0.0282047,-0.0629921 0.0629921,-0.0629921 0.0347913,-3.93701e-006 0.0629921,0.0282008 0.0629921,0.0629882 3.93701e-006,0.0347913 -0.0282008,0.0629921 -0.0629882,0.0629921 -0.0347913,3.93701e-006 -0.0629921,-0.0282008 -0.0629921,-0.0629882z"/>
    <path id="_259640296" class="fil0 str3" d="M16.8366 1.65702c0,-0.0347913 0.0282008,-0.0629921 0.0629882,-0.0629921 0.0347913,-3.93701e-006 0.0629921,0.0282008 0.0629921,0.0629882 3.93701e-006,0.0347913 -0.0282008,0.0629921 -0.0629882,0.0629921 -0.0347913,3.93701e-006 -0.0629921,-0.0282008 -0.0629921,-0.0629882z"/>
    <path id="_259640248" class="fil0 str3" d="M17.196 1.65702c0,-0.0347913 0.0282008,-0.0629921 0.0629882,-0.0629921 0.0347913,-3.93701e-006 0.0629921,0.0282008 0.0629921,0.0629882 3.93701e-006,0.0347913 -0.0282008,0.0629921 -0.0629882,0.0629921 -0.0347913,3.93701e-006 -0.0629921,-0.0282008 -0.0629921,-0.0629882z"/>
   </g>
   <circle id="_259640104" class="fil0 str2" cx="14.5149" cy="4.70544" r="0.15748"/>
   <circle id="_259640008" class="fil0 str2" cx="14.4007" cy="1.62627" r="0.0551181"/>
   <circle id="_259639912" class="fil0 str2" cx="14.4007" cy="3.55541" r="0.0551181"/>
   <circle id="_259639816" class="fil0 str2" cx="16.6842" cy="1.62627" r="0.0551181"/>
   <circle id="_259639648" class="fil0 str2" cx="16.6842" cy="3.55541" r="0.0551181"/>
  </g>
  <g id="_259638784">
   <path id="_259639504" class="fil0 str2" d="M10.6468 6.48151l7.87402e-006 0c0.0746535,-0.000519685 0.135965,0.0567795 0.136252,0.127291l0.0026378 0.646713 0.361949 -0.00251969 0.00119291 0.292587 0 9.44882e-005 7.87402e-006 0 0.0028189 0.692268c0.000385827,0.0940512 -0.0807402,0.171575 -0.180276,0.172268l-3.89005 0.027063c-0.100079,0.00069685 -0.182268,-0.0760945 -0.182654,-0.170665l-0.0028189 -0.691343 -0.00119291 -0.292681 0.361953 -0.00251969 -0.0026378 -0.646713c-0.000287402,-0.0705118 0.0605551,-0.128661 0.135209,-0.129181l7.87402e-006 0c0.0746535,-0.000519685 0.135965,0.0567795 0.136252,0.127291l0.00382677 0.938472 2.98613 -0.0207756 -0.00382677 -0.938472c-0.000287402,-0.0705079 0.0605551,-0.128657 0.135209,-0.129177z"/>
   <rect id="_259639384" class="fil0 str2" transform="matrix(1.20338 -0.00656748 0.00736669 1.34983 7.07781 7.72586)" width="3.23334" height="0.116665" rx="0.0787402" ry="0.0787402"/>
   <rect id="_259639264" class="fil0 str2" transform="matrix(1.20338 -0.00656748 0.00736669 1.34983 7.07897 8.13923)" width="3.23334" height="0.116665" rx="0.0787402" ry="0.0787402"/>
   <rect id="_259639144" class="fil0 str2" transform="matrix(1.26917 -0.00692649 0.00557477 1.02149 7.00811 7.38982)" width="0.320835" height="0.154165" rx="0.0787402" ry="0.0787402"/>
   <rect id="_259639024" class="fil0 str2" transform="matrix(1.26917 -0.00692649 0.00557477 1.02149 10.6276 7.37006)" width="0.320835" height="0.154165" rx="0.0787402" ry="0.0787402"/>
   <circle id="_259638904" class="fil0 str2" transform="matrix(0.899879 -0.0049111 0.00491107 0.899874 7.38871 6.65938)" r="0.0875"/>
   <circle id="_259638760" class="fil0 str2" transform="matrix(0.899879 -0.0049111 0.00491107 0.899874 10.6463 6.6416)" r="0.0875"/>
  </g>
  <g id="_238000936">
   <path id="_259638616" class="fil0 str2" d="M9.04339 0.464827c1.05176,0 1.97493,0.549988 2.498,1.37795l-0.135799 0 0 3.14961 0.135799 0 0.230138 0c-0.544591,0.94139 -1.56237,1.5748 -2.72814,1.5748 -1.16578,0 -2.18355,-0.633413 -2.72814,-1.5748l0.230138 0 0.135799 0 0 -3.14961 -0.135799 0c0.523071,-0.827965 1.44625,-1.37795 2.498,-1.37795z"/>
   <rect id="_259638496" class="fil0 str0" transform="matrix(2.82502E-014 -1.02 1.06667 2.70142E-014 6.81807 4.88655)" width="0.393701" height="0.11811"/>
   <rect id="_259638376" class="fil0 str0" transform="matrix(2.82502E-014 -1.02 1.06667 2.70142E-014 6.81807 4.09915)" width="0.393701" height="0.11811"/>
   <circle id="_259638280" class="fil0 str0" transform="matrix(4.30711E-014 -1.62627 1.62627 4.30711E-014 6.88106 4.29206)" r="0.0375236"/>
   <rect id="_259638160" class="fil0 str0" transform="matrix(2.82502E-014 -1.02 1.06667 2.70142E-014 6.81807 3.233)" width="0.393701" height="0.11811"/>
   <rect id="_259638040" class="fil0 str0" transform="matrix(2.82502E-014 -1.02 1.06667 2.70142E-014 6.81807 2.4456)" width="0.393701" height="0.11811"/>
   <circle id="_259637944" class="fil0 str0" transform="matrix(4.30711E-014 -1.62627 1.62627 4.30711E-014 6.88106 2.63852)" r="0.0375236"/>
   <rect id="_259637824" class="fil0 str0" transform="matrix(2.82502E-014 -1.02 1.06667 2.70142E-014 11.1094 3.233)" width="0.393701" height="0.11811"/>
   <polygon id="_259637656" class="fil0 str0" points="11.1094,2.4456 11.1094,2.04403 11.2354,2.04403 11.2354,2.4456 "/>
   <circle id="_259637560" class="fil0 str0" transform="matrix(4.30711E-014 -1.62627 1.62627 4.30711E-014 11.1724 2.63852)" r="0.0375236"/>
   <rect id="_259637440" class="fil0 str0" transform="matrix(2.82502E-014 -1.02 1.06667 2.70142E-014 11.1094 4.88655)" width="0.393701" height="0.11811"/>
   <rect id="_259637320" class="fil0 str0" transform="matrix(2.82502E-014 -1.02 1.06667 2.70142E-014 11.1094 4.09915)" width="0.393701" height="0.11811"/>
   <circle id="_235010008" class="fil0 str0" transform="matrix(4.30711E-014 -1.62627 1.62627 4.30711E-014 11.1724 4.29206)" r="0.0375236"/>
   <rect id="_238003816" class="fil0 str2" x="7.27476" y="5.05978" width="0.984252" height="0.15748" rx="0.0787402" ry="0.0787402"/>
   <rect id="_238003720" class="fil0 str2" x="9.79444" y="5.05978" width="0.984252" height="0.15748" rx="0.0787402" ry="0.0787402"/>
   <rect id="_238003600" class="fil0 str2" x="7.47358" y="3.0519" width="0.492126" height="0.944882" rx="0.246063" ry="0.246063"/>
   <rect id="_238003480" class="fil0 str2" x="10.0878" y="3.0519" width="0.492126" height="0.944882" rx="0.246063" ry="0.246063"/>
   <path id="_238003312" class="fil0 str2" d="M10.5965 5.7901c0.00220866,-0.00185827 0.00441732,-0.00372835 0.00662205,-0.00559449m-1.02362 0.38535c0.000566929,-0.000153543 0.00113386,-0.000307087 0.00170079,-0.000456693m0.926874 -0.484984c0.000114173,-9.44882e-005 0.000232283,-0.000192913 0.000346457,-0.000291339m-3.19812 -0.0708307c0.283197,0.260661 0.628697,0.454673 1.01162,0.557169m-1.10442 -0.455307c0.298835,0.274909 0.663268,0.479618 1.06713,0.587992m-0.974654 -0.690154c-0.0123031,-0.0111024 -0.0284882,-0.017815 -0.0462362,-0.017815 -0.0380512,0 -0.0688976,0.0308465 -0.0688976,0.0688976 0,0.0201535 0.00865354,0.0382913 0.0226575,0.0510787m1.10216 0.454728c0.0303268,0.00721654 0.0528898,0.0344882 0.0528898,0.0670276 0,0.036748 -0.0287717,0.0667756 -0.0650197,0.0687874 -0.00128346,7.08661e-005 -0.0025748,0.000110236 -0.00387795,0.000110236 -0.00571654,0 -0.0112717,-0.000700787 -0.0165827,-0.00201181 -0.000818898,-0.000200787 -0.00162992,-0.000417323 -0.00243701,-0.000649606"/>
   <path id="_238003144" class="fil0 str2" d="M7.4585 5.78885c-0.00220866,-0.00185827 -0.00441732,-0.00372835 -0.00662205,-0.00559449m1.02362 0.38535c-0.000566929,-0.000153543 -0.00113386,-0.000307087 -0.00170079,-0.000456693m-0.926874 -0.484984c-0.000114173,-9.44882e-005 -0.000232283,-0.000192913 -0.000346457,-0.000291339m3.19812 -0.0708307c-0.283197,0.260661 -0.628697,0.454673 -1.01162,0.557169m1.10442 -0.455307c-0.298835,0.274909 -0.663268,0.479618 -1.06713,0.587992m0.974654 -0.690154c0.0123031,-0.0111024 0.0284882,-0.017815 0.0462362,-0.017815 0.0380512,0 0.0688976,0.0308465 0.0688976,0.0688976 0,0.0201535 -0.00865354,0.0382913 -0.0226575,0.0510787m-1.10216 0.454728c-0.0303268,0.00721654 -0.0528898,0.0344882 -0.0528898,0.0670276 0,0.036748 0.0287717,0.0667756 0.0650197,0.0687874 0.00128346,7.08661e-005 0.0025748,0.000110236 0.00387795,0.000110236 0.00571654,0 0.0112717,-0.000700787 0.0165827,-0.00201181 0.000818898,-0.000200787 0.00162992,-0.000417323 0.00243701,-0.000649606"/>
   <path id="_238002976" class="fil0 str2" d="M6.72164 5.12025c0.0970315,0.164209 0.213449,0.315614 0.346083,0.451055m-0.236866 -0.515429c0.0918543,0.155433 0.202051,0.29874 0.327614,0.426933m-0.327307 -0.426413c-0.0109882,-0.0188228 -0.0314055,-0.0314764 -0.0547756,-0.0314764 -0.0350039,0 -0.063378,0.028374 -0.063378,0.063378 0,0.0116535 0.00314961,0.0225669 0.0086378,0.0319528m0.434579 0.360358c0.0124055,0.0115669 0.0201575,0.0280551 0.0201575,0.0463543 0,0.0350039 -0.028374,0.063378 -0.063378,0.063378 -0.0177598,0 -0.033811,-0.00730709 -0.045315,-0.0190787"/>
   <path id="_238002808" class="fil0 str2" d="M11.3364 5.12025c-0.0970315,0.164209 -0.213449,0.315614 -0.346083,0.451055m0.236866 -0.515429c-0.0918543,0.155433 -0.202051,0.29874 -0.327614,0.426933m0.327307 -0.426413c0.0109882,-0.0188228 0.0314055,-0.0314764 0.0547756,-0.0314764 0.0350039,0 0.063378,0.028374 0.063378,0.063378 0,0.0116535 -0.00314961,0.0225669 -0.0086378,0.0319528m-0.434579 0.360358c-0.0124055,0.0115669 -0.0201575,0.0280551 -0.0201575,0.0463543 0,0.0350039 0.028374,0.063378 0.063378,0.063378 0.0177598,0 0.033811,-0.00730709 0.045315,-0.0190787"/>
   <g>
    <circle id="_238002712" class="fil0 str2" cx="9.02673" cy="5.22204" r="0.0748031"/>
    <circle id="_238002616" class="fil0 str2" cx="9.02673" cy="5.78924" r="0.442913"/>
    <circle id="_238002496" class="fil0 str2" cx="8.5346" cy="6.07443" r="0.0748031"/>
    <circle id="_238002352" class="fil0 str2" cx="9.51885" cy="6.07443" r="0.0748031"/>
   </g>
   <path id="_238002208" class="fil0 str2" d="M9.15336 0.604823c0.390819,0.0218701 0.760528,0.132402 1.08772,0.312858m-0.00170472 -0.000909449c0.0207362,0.0107087 0.0355197,0.0317008 0.0371772,0.056689 0.00251969,0.0379685 -0.0262205,0.0707913 -0.064189,0.0733071 -0.0138268,0.000917323 -0.0269685,-0.00231496 -0.0382165,-0.00861811m-1.00679 -0.4325c-0.00288189,-0.000173228 -0.00582283,-0.000169291 -0.00878346,2.75591e-005 -0.0379685,0.00251969 -0.0667047,0.0353386 -0.064189,0.0733071 0.00240551,0.0362441 0.0324213,0.0640748 0.0681614,0.0643386m-0.00434646 -0.000169291c0.365252,0.0223622 0.710748,0.126591 1.01688,0.295508"/>
   <path id="_238002040" class="fil0 str2" d="M8.9001 0.604823c-0.390819,0.0218701 -0.760528,0.132402 -1.08772,0.312858m0.00170472 -0.000909449c-0.0207362,0.0107087 -0.0355197,0.0317008 -0.0371772,0.056689 -0.00251969,0.0379685 0.0262205,0.0707913 0.064189,0.0733071 0.0138268,0.000917323 0.0269685,-0.00231496 0.0382165,-0.00861811m1.00679 -0.4325c0.00288189,-0.000173228 0.00582283,-0.000169291 0.00878346,2.75591e-005 0.0379685,0.00251969 0.0667047,0.0353386 0.064189,0.0733071 -0.00240551,0.0362441 -0.0324213,0.0640748 -0.0681614,0.0643386m0.00434646 -0.000169291c-0.365252,0.0223622 -0.710748,0.126591 -1.01688,0.295508"/>
   <path id="_238001872" class="fil0 str2" d="M7.5975 1.03505c-0.322004,0.175083 -0.590622,0.416752 -0.79524,0.700563m0.0010748 -0.00144882c-0.0132559,0.0173701 -0.0173583,0.0410591 -0.00875197,0.062874 0.0130827,0.0331417 0.0505512,0.0494055 0.0836969,0.0363268 0.0120709,-0.00476378 0.0218976,-0.0127677 0.0288898,-0.0226063m0.678815 -0.769402c0.00237402,-0.00130315 0.0048622,-0.00247638 0.00744882,-0.00349606 0.0331417,-0.0130787 0.0706142,0.00318504 0.0836929,0.0363268 0.0124882,0.0316378 -0.00176772,0.0672165 -0.0319134,0.0817598m0.00361417 -0.00188189c-0.300169,0.16526 -0.550819,0.39189 -0.74224,0.6575"/>
   <path id="_238001704" class="fil0 str2" d="M10.4535 1.03285c0.322004,0.175083 0.590622,0.416752 0.79524,0.700563m-0.0010748 -0.00144882c0.0132559,0.0173701 0.0173583,0.0410591 0.00875197,0.062874 -0.0130827,0.0331417 -0.0505512,0.0494055 -0.0836969,0.0363268 -0.0120709,-0.00476378 -0.0218976,-0.0127677 -0.0288898,-0.0226063m-0.678815 -0.769402c-0.00237402,-0.00130315 -0.0048622,-0.00247638 -0.00744882,-0.00349606 -0.0331417,-0.0130787 -0.0706142,0.00318504 -0.0836929,0.0363268 -0.0124882,0.0316378 0.00176772,0.0672165 0.0319134,0.0817598m-0.00361417 -0.00188189c0.300169,0.16526 0.550819,0.39189 0.74224,0.6575"/>
   <path id="_238001536" class="fil0 str2" d="M7.59222 1.65197l0.000370079 -0.000283465 0.000125984 -9.84252e-005 0.000515748 -0.000397638 0.00233465 -0.00180315c0.0549134,-0.0426535 0.111748,-0.0829409 0.170374,-0.120705 0.368295,-0.237224 0.806799,-0.374882 1.27745,-0.374882 0.456559,0 0.882858,0.129535 1.24417,0.353839 0.059626,0.0370157 0.117488,0.0766102 0.173417,0.11863m0.101181 -0.120953c-0.00724016,-0.00547638 -0.0145118,-0.0109055 -0.021811,-0.0163071l-0.000972441 -0.000712598c-0.41837,-0.309177 -0.935831,-0.491976 -1.49598,-0.491976 -0.585465,0 -1.1243,0.199685 -1.5521,0.534654m2.97605 0.0952953c0.00795669,0.00270079 0.0164803,0.00416929 0.0253504,0.00416929 0.0434882,0 0.0787402,-0.035252 0.0787402,-0.0787402 0,-0.0173071 -0.00558268,-0.0333031 -0.0150472,-0.0462992 -0.00452362,-0.00620866 -0.00993307,-0.0117362 -0.0160394,-0.0163898l-0.000968504 -0.000724409m-2.94616 0.162906l-0.000503937 0.000397638 -0.000125984 9.84252e-005 -0.000370079 0.000283465c-0.0132598,0.0101575 -0.0298386,0.016189 -0.0478307,0.016189 -0.0434882,0 -0.0787402,-0.035252 -0.0787402,-0.0787402 0,-0.0230276 0.00988583,-0.043752 0.0256417,-0.0581457"/>
   <circle id="_238001440" class="fil0 str2" cx="8.25901" cy="1.00466" r="0.0629921"/>
   <circle id="_238001344" class="fil0 str2" cx="8.25901" cy="1.85111" r="0.0629921"/>
   <circle id="_238001248" class="fil0 str2" cx="8.25901" cy="3.70151" r="0.0629921"/>
   <circle id="_238001152" class="fil0 str2" cx="9.79444" cy="3.70151" r="0.0629921"/>
   <circle id="_238001056" class="fil0 str2" cx="9.79444" cy="1.85111" r="0.0629921"/>
   <circle id="_238001008" class="fil0 str2" cx="9.79444" cy="1.00466" r="0.0629921"/>
  </g>
 </g>
</svg>
